<svg width="400" height="800" viewBox="0 0 400 800" fill="none" xmlns="http://www.w3.org/2000/svg">
<g clip-path="url(#clip0_1384_7929)">
<rect width="40" height="40" transform="translate(100 740)" fill="#FEFEFE"/>
<path d="M121.993 771.372L131.948 771.175C132.61 771.162 133.154 771.695 133.154 772.358C133.154 772.843 132.849 773.283 132.397 773.461C120.641 778.093 120.136 778.102 107.402 773.934C106.917 773.776 106.58 773.321 106.58 772.811C106.58 772.168 107.095 771.644 107.737 771.632L117.21 771.453M121.993 771.372V768.636M121.993 771.372L117.21 771.453M121.993 768.636C124.981 768.636 127.67 768.636 131.154 768.636C132.258 768.636 133.154 767.741 133.154 766.636V761.595M121.993 768.636C120.75 768.636 118.458 768.646 117.21 768.646M117.21 771.453V768.646M117.21 768.646C114.389 768.646 111.846 768.639 108.581 768.637C107.476 768.636 106.58 767.741 106.58 766.636V761.595M104.094 761.595V765.87C104.094 766.564 103.062 767.127 102.329 767.127C101.595 767.127 101 766.564 101 765.87V754.805C101 754.111 101.595 753.548 102.329 753.548C103.062 753.548 104.094 754.111 104.094 754.805V759.583M104.094 761.595H106.58M104.094 761.595V759.583M106.58 761.595V759.583M104.094 759.583H106.58M106.58 759.583V749.222C106.58 748.48 106.992 747.796 107.655 747.462C115.993 743.27 122.367 742.62 132.011 746.98C132.712 747.297 133.154 748.002 133.154 748.772V759.583M135.811 761.595V766.122C135.811 766.816 136.938 767.127 137.671 767.127C138.405 767.127 139 766.564 139 765.87V754.805C139 754.111 138.405 753.548 137.671 753.548C136.938 753.548 135.811 754.363 135.811 755.057V759.583M135.811 761.595H133.154M135.811 761.595V759.583M133.154 761.595V759.583M135.811 759.583H133.154" stroke="#0E1219" stroke-miterlimit="2" stroke-linecap="round" stroke-linejoin="round"/>
</g>
<g clip-path="url(#clip1_1384_7929)">
<rect width="40" height="40" transform="translate(180 740)" fill="#FEFEFE"/>
<path d="M201.993 771.372L211.948 771.175C212.61 771.162 213.154 771.695 213.154 772.358C213.154 772.843 212.849 773.283 212.397 773.461C200.641 778.093 200.136 778.102 187.402 773.934C186.917 773.776 186.58 773.321 186.58 772.811C186.58 772.168 187.095 771.644 187.737 771.632L197.21 771.453M201.993 771.372V768.636M201.993 771.372L197.21 771.453M201.993 768.636C204.981 768.636 207.67 768.636 211.154 768.636C212.258 768.636 213.154 767.741 213.154 766.636V761.595M201.993 768.636C200.75 768.636 198.458 768.646 197.21 768.646M197.21 771.453V768.646M197.21 768.646C194.389 768.646 191.846 768.639 188.581 768.637C187.476 768.636 186.58 767.741 186.58 766.636V761.595M184.094 761.595V765.87C184.094 766.564 183.062 767.127 182.329 767.127C181.595 767.127 181 766.564 181 765.87V754.805C181 754.111 181.595 753.548 182.329 753.548C183.062 753.548 184.094 754.111 184.094 754.805V759.583M184.094 761.595H186.58M184.094 761.595V759.583M186.58 761.595V759.583M184.094 759.583H186.58M186.58 759.583V749.222C186.58 748.48 186.992 747.796 187.655 747.462C195.993 743.27 202.367 742.62 212.011 746.98C212.712 747.297 213.154 748.002 213.154 748.772V759.583M215.811 761.595V766.122C215.811 766.816 216.938 767.127 217.671 767.127C218.405 767.127 219 766.564 219 765.87V754.805C219 754.111 218.405 753.548 217.671 753.548C216.938 753.548 215.811 754.363 215.811 755.057V759.583M215.811 761.595H213.154M215.811 761.595V759.583M213.154 761.595V759.583M215.811 759.583H213.154" stroke="#0E1219" stroke-miterlimit="2" stroke-linecap="round" stroke-linejoin="round"/>
</g>
<g clip-path="url(#clip2_1384_7929)">
<rect width="40" height="40" transform="translate(260 740)" fill="#FEFEFE"/>
<path d="M281.993 771.372L291.948 771.175C292.61 771.162 293.154 771.695 293.154 772.358C293.154 772.843 292.849 773.283 292.397 773.461C280.641 778.093 280.136 778.102 267.402 773.934C266.917 773.776 266.58 773.321 266.58 772.811C266.58 772.168 267.095 771.644 267.737 771.632L277.21 771.453M281.993 771.372V768.636M281.993 771.372L277.21 771.453M281.993 768.636C284.981 768.636 287.67 768.636 291.154 768.636C292.258 768.636 293.154 767.741 293.154 766.636V761.595M281.993 768.636C280.75 768.636 278.458 768.646 277.21 768.646M277.21 771.453V768.646M277.21 768.646C274.389 768.646 271.846 768.639 268.581 768.637C267.476 768.636 266.58 767.741 266.58 766.636V761.595M264.094 761.595V765.87C264.094 766.564 263.062 767.127 262.329 767.127C261.595 767.127 261 766.564 261 765.87V754.805C261 754.111 261.595 753.548 262.329 753.548C263.062 753.548 264.094 754.111 264.094 754.805V759.583M264.094 761.595H266.58M264.094 761.595V759.583M266.58 761.595V759.583M264.094 759.583H266.58M266.58 759.583V749.222C266.58 748.48 266.992 747.796 267.655 747.462C275.993 743.27 282.367 742.62 292.011 746.98C292.712 747.297 293.154 748.002 293.154 748.772V759.583M295.811 761.595V766.122C295.811 766.816 296.938 767.127 297.671 767.127C298.405 767.127 299 766.564 299 765.87V754.805C299 754.111 298.405 753.548 297.671 753.548C296.938 753.548 295.811 754.363 295.811 755.057V759.583M295.811 761.595H293.154M295.811 761.595V759.583M293.154 761.595V759.583M295.811 759.583H293.154" stroke="#0E1219" stroke-miterlimit="2" stroke-linecap="round" stroke-linejoin="round"/>
</g>
<g clip-path="url(#clip3_1384_7929)">
<rect width="40" height="40" transform="matrix(0 -1 1 0 340 140)" fill="#FEFEFE"/>
<path d="M371.372 118.007L371.175 108.052C371.162 107.39 371.695 106.846 372.358 106.846C372.843 106.846 373.283 107.151 373.461 107.603C378.093 119.359 378.102 119.864 373.934 132.598C373.776 133.083 373.321 133.42 372.811 133.42C372.168 133.42 371.644 132.905 371.632 132.263L371.453 122.79M371.372 118.007H368.636M371.372 118.007L371.453 122.79M368.636 118.007C368.636 115.019 368.636 112.33 368.636 108.846C368.636 107.742 367.741 106.846 366.636 106.846H361.595M368.636 118.007C368.636 119.25 368.646 121.542 368.646 122.79M371.453 122.79H368.646M368.646 122.79C368.646 125.611 368.639 128.154 368.637 131.419C368.636 132.524 367.741 133.42 366.636 133.42H361.595M361.595 135.906H365.87C366.564 135.906 367.127 136.938 367.127 137.671C367.127 138.405 366.564 139 365.87 139H354.805C354.111 139 353.548 138.405 353.548 137.671C353.548 136.938 354.111 135.906 354.805 135.906H359.583M361.595 135.906V133.42M361.595 135.906H359.583M361.595 133.42H359.583M359.583 135.906V133.42M359.583 133.42H349.222C348.48 133.42 347.796 133.008 347.462 132.345C343.27 124.007 342.62 117.633 346.98 107.989C347.297 107.288 348.002 106.846 348.772 106.846H359.583M361.595 104.189H366.122C366.816 104.189 367.127 103.062 367.127 102.329C367.127 101.595 366.564 101 365.87 101H354.805C354.111 101 353.548 101.595 353.548 102.329C353.548 103.062 354.363 104.189 355.057 104.189H359.583M361.595 104.189V106.846M361.595 104.189H359.583M361.595 106.846H359.583M359.583 104.189V106.846" stroke="#0E1219" stroke-miterlimit="2" stroke-linecap="round" stroke-linejoin="round"/>
</g>
<g clip-path="url(#clip4_1384_7929)">
<rect width="40" height="40" transform="matrix(0 -1 1 0 340 220)" fill="#FEFEFE"/>
<path d="M371.372 198.007L371.175 188.052C371.162 187.39 371.695 186.846 372.358 186.846C372.843 186.846 373.283 187.151 373.461 187.603C378.093 199.359 378.102 199.864 373.934 212.598C373.776 213.083 373.321 213.42 372.811 213.42C372.168 213.42 371.644 212.905 371.632 212.263L371.453 202.79M371.372 198.007H368.636M371.372 198.007L371.453 202.79M368.636 198.007C368.636 195.019 368.636 192.33 368.636 188.846C368.636 187.742 367.741 186.846 366.636 186.846H361.595M368.636 198.007C368.636 199.25 368.646 201.542 368.646 202.79M371.453 202.79H368.646M368.646 202.79C368.646 205.611 368.639 208.154 368.637 211.419C368.636 212.524 367.741 213.42 366.636 213.42H361.595M361.595 215.906H365.87C366.564 215.906 367.127 216.938 367.127 217.671C367.127 218.405 366.564 219 365.87 219H354.805C354.111 219 353.548 218.405 353.548 217.671C353.548 216.938 354.111 215.906 354.805 215.906H359.583M361.595 215.906V213.42M361.595 215.906H359.583M361.595 213.42H359.583M359.583 215.906V213.42M359.583 213.42H349.222C348.48 213.42 347.796 213.008 347.462 212.345C343.27 204.007 342.62 197.633 346.98 187.989C347.297 187.288 348.002 186.846 348.772 186.846H359.583M361.595 184.189H366.122C366.816 184.189 367.127 183.062 367.127 182.329C367.127 181.595 366.564 181 365.87 181H354.805C354.111 181 353.548 181.595 353.548 182.329C353.548 183.062 354.363 184.189 355.057 184.189H359.583M361.595 184.189V186.846M361.595 184.189H359.583M361.595 186.846H359.583M359.583 184.189V186.846" stroke="#0E1219" stroke-miterlimit="2" stroke-linecap="round" stroke-linejoin="round"/>
</g>
<g clip-path="url(#clip5_1384_7929)">
<rect width="40" height="40" transform="matrix(0 -1 1 0 340 300)" fill="#FEFEFE"/>
<path d="M371.372 278.007L371.175 268.052C371.162 267.39 371.695 266.846 372.358 266.846C372.843 266.846 373.283 267.151 373.461 267.603C378.093 279.359 378.102 279.864 373.934 292.598C373.776 293.083 373.321 293.42 372.811 293.42C372.168 293.42 371.644 292.905 371.632 292.263L371.453 282.79M371.372 278.007H368.636M371.372 278.007L371.453 282.79M368.636 278.007C368.636 275.019 368.636 272.33 368.636 268.846C368.636 267.742 367.741 266.846 366.636 266.846H361.595M368.636 278.007C368.636 279.25 368.646 281.542 368.646 282.79M371.453 282.79H368.646M368.646 282.79C368.646 285.611 368.639 288.154 368.637 291.419C368.636 292.524 367.741 293.42 366.636 293.42H361.595M361.595 295.906H365.87C366.564 295.906 367.127 296.938 367.127 297.671C367.127 298.405 366.564 299 365.87 299H354.805C354.111 299 353.548 298.405 353.548 297.671C353.548 296.938 354.111 295.906 354.805 295.906H359.583M361.595 295.906V293.42M361.595 295.906H359.583M361.595 293.42H359.583M359.583 295.906V293.42M359.583 293.42H349.222C348.48 293.42 347.796 293.008 347.462 292.345C343.27 284.007 342.62 277.633 346.98 267.989C347.297 267.288 348.002 266.846 348.772 266.846H359.583M361.595 264.189H366.122C366.816 264.189 367.127 263.062 367.127 262.329C367.127 261.595 366.564 261 365.87 261H354.805C354.111 261 353.548 261.595 353.548 262.329C353.548 263.062 354.363 264.189 355.057 264.189H359.583M361.595 264.189V266.846M361.595 264.189H359.583M361.595 266.846H359.583M359.583 264.189V266.846" stroke="#0E1219" stroke-miterlimit="2" stroke-linecap="round" stroke-linejoin="round"/>
</g>
<g clip-path="url(#clip6_1384_7929)">
<rect width="40" height="40" transform="matrix(0 -1 1 0 340 380)" fill="#FEFEFE"/>
<path d="M371.372 358.007L371.175 348.052C371.162 347.39 371.695 346.846 372.358 346.846C372.843 346.846 373.283 347.151 373.461 347.603C378.093 359.359 378.102 359.864 373.934 372.598C373.776 373.083 373.321 373.42 372.811 373.42C372.168 373.42 371.644 372.905 371.632 372.263L371.453 362.79M371.372 358.007H368.636M371.372 358.007L371.453 362.79M368.636 358.007C368.636 355.019 368.636 352.33 368.636 348.846C368.636 347.742 367.741 346.846 366.636 346.846H361.595M368.636 358.007C368.636 359.25 368.646 361.542 368.646 362.79M371.453 362.79H368.646M368.646 362.79C368.646 365.611 368.639 368.154 368.637 371.419C368.636 372.524 367.741 373.42 366.636 373.42H361.595M361.595 375.906H365.87C366.564 375.906 367.127 376.938 367.127 377.671C367.127 378.405 366.564 379 365.87 379H354.805C354.111 379 353.548 378.405 353.548 377.671C353.548 376.938 354.111 375.906 354.805 375.906H359.583M361.595 375.906V373.42M361.595 375.906H359.583M361.595 373.42H359.583M359.583 375.906V373.42M359.583 373.42H349.222C348.48 373.42 347.796 373.008 347.462 372.345C343.27 364.007 342.62 357.633 346.98 347.989C347.297 347.288 348.002 346.846 348.772 346.846H359.583M361.595 344.189H366.122C366.816 344.189 367.127 343.062 367.127 342.329C367.127 341.595 366.564 341 365.87 341H354.805C354.111 341 353.548 341.595 353.548 342.329C353.548 343.062 354.363 344.189 355.057 344.189H359.583M361.595 344.189V346.846M361.595 344.189H359.583M361.595 346.846H359.583M359.583 344.189V346.846" stroke="#0E1219" stroke-miterlimit="2" stroke-linecap="round" stroke-linejoin="round"/>
</g>
<g clip-path="url(#clip7_1384_7929)">
<rect width="40" height="40" transform="matrix(0 -1 1 0 340 460)" fill="#FEFEFE"/>
<path d="M371.372 438.007L371.175 428.052C371.162 427.39 371.695 426.846 372.358 426.846C372.843 426.846 373.283 427.151 373.461 427.603C378.093 439.359 378.102 439.864 373.934 452.598C373.776 453.083 373.321 453.42 372.811 453.42C372.168 453.42 371.644 452.905 371.632 452.263L371.453 442.79M371.372 438.007H368.636M371.372 438.007L371.453 442.79M368.636 438.007C368.636 435.019 368.636 432.33 368.636 428.846C368.636 427.742 367.741 426.846 366.636 426.846H361.595M368.636 438.007C368.636 439.25 368.646 441.542 368.646 442.79M371.453 442.79H368.646M368.646 442.79C368.646 445.611 368.639 448.154 368.637 451.419C368.636 452.524 367.741 453.42 366.636 453.42H361.595M361.595 455.906H365.87C366.564 455.906 367.127 456.938 367.127 457.671C367.127 458.405 366.564 459 365.87 459H354.805C354.111 459 353.548 458.405 353.548 457.671C353.548 456.938 354.111 455.906 354.805 455.906H359.583M361.595 455.906V453.42M361.595 455.906H359.583M361.595 453.42H359.583M359.583 455.906V453.42M359.583 453.42H349.222C348.48 453.42 347.796 453.008 347.462 452.345C343.27 444.007 342.62 437.633 346.98 427.989C347.297 427.288 348.002 426.846 348.772 426.846H359.583M361.595 424.189H366.122C366.816 424.189 367.127 423.062 367.127 422.329C367.127 421.595 366.564 421 365.87 421H354.805C354.111 421 353.548 421.595 353.548 422.329C353.548 423.062 354.363 424.189 355.057 424.189H359.583M361.595 424.189V426.846M361.595 424.189H359.583M361.595 426.846H359.583M359.583 424.189V426.846" stroke="#0E1219" stroke-miterlimit="2" stroke-linecap="round" stroke-linejoin="round"/>
</g>
<g clip-path="url(#clip8_1384_7929)">
<rect width="40" height="40" transform="matrix(0 -1 1 0 340 540)" fill="#FEFEFE"/>
<path d="M371.372 518.007L371.175 508.052C371.162 507.39 371.695 506.846 372.358 506.846C372.843 506.846 373.283 507.151 373.461 507.603C378.093 519.359 378.102 519.864 373.934 532.598C373.776 533.083 373.321 533.42 372.811 533.42C372.168 533.42 371.644 532.905 371.632 532.263L371.453 522.79M371.372 518.007H368.636M371.372 518.007L371.453 522.79M368.636 518.007C368.636 515.019 368.636 512.33 368.636 508.846C368.636 507.742 367.741 506.846 366.636 506.846H361.595M368.636 518.007C368.636 519.25 368.646 521.542 368.646 522.79M371.453 522.79H368.646M368.646 522.79C368.646 525.611 368.639 528.154 368.637 531.419C368.636 532.524 367.741 533.42 366.636 533.42H361.595M361.595 535.906H365.87C366.564 535.906 367.127 536.938 367.127 537.671C367.127 538.405 366.564 539 365.87 539H354.805C354.111 539 353.548 538.405 353.548 537.671C353.548 536.938 354.111 535.906 354.805 535.906H359.583M361.595 535.906V533.42M361.595 535.906H359.583M361.595 533.42H359.583M359.583 535.906V533.42M359.583 533.42H349.222C348.48 533.42 347.796 533.008 347.462 532.345C343.27 524.007 342.62 517.633 346.98 507.989C347.297 507.288 348.002 506.846 348.772 506.846H359.583M361.595 504.189H366.122C366.816 504.189 367.127 503.062 367.127 502.329C367.127 501.595 366.564 501 365.87 501H354.805C354.111 501 353.548 501.595 353.548 502.329C353.548 503.062 354.363 504.189 355.057 504.189H359.583M361.595 504.189V506.846M361.595 504.189H359.583M361.595 506.846H359.583M359.583 504.189V506.846" stroke="#0E1219" stroke-miterlimit="2" stroke-linecap="round" stroke-linejoin="round"/>
</g>
<g clip-path="url(#clip9_1384_7929)">
<rect width="40" height="40" transform="matrix(0 -1 1 0 340 620)" fill="#FEFEFE"/>
<path d="M371.372 598.007L371.175 588.052C371.162 587.39 371.695 586.846 372.358 586.846C372.843 586.846 373.283 587.151 373.461 587.603C378.093 599.359 378.102 599.864 373.934 612.598C373.776 613.083 373.321 613.42 372.811 613.42C372.168 613.42 371.644 612.905 371.632 612.263L371.453 602.79M371.372 598.007H368.636M371.372 598.007L371.453 602.79M368.636 598.007C368.636 595.019 368.636 592.33 368.636 588.846C368.636 587.742 367.741 586.846 366.636 586.846H361.595M368.636 598.007C368.636 599.25 368.646 601.542 368.646 602.79M371.453 602.79H368.646M368.646 602.79C368.646 605.611 368.639 608.154 368.637 611.419C368.636 612.524 367.741 613.42 366.636 613.42H361.595M361.595 615.906H365.87C366.564 615.906 367.127 616.938 367.127 617.671C367.127 618.405 366.564 619 365.87 619H354.805C354.111 619 353.548 618.405 353.548 617.671C353.548 616.938 354.111 615.906 354.805 615.906H359.583M361.595 615.906V613.42M361.595 615.906H359.583M361.595 613.42H359.583M359.583 615.906V613.42M359.583 613.42H349.222C348.48 613.42 347.796 613.008 347.462 612.345C343.27 604.007 342.62 597.633 346.98 587.989C347.297 587.288 348.002 586.846 348.772 586.846H359.583M361.595 584.189H366.122C366.816 584.189 367.127 583.062 367.127 582.329C367.127 581.595 366.564 581 365.87 581H354.805C354.111 581 353.548 581.595 353.548 582.329C353.548 583.062 354.363 584.189 355.057 584.189H359.583M361.595 584.189V586.846M361.595 584.189H359.583M361.595 586.846H359.583M359.583 584.189V586.846" stroke="#0E1219" stroke-miterlimit="2" stroke-linecap="round" stroke-linejoin="round"/>
</g>
<g clip-path="url(#clip10_1384_7929)">
<rect width="40" height="40" transform="matrix(0 -1 1 0 340 700)" fill="#FEFEFE"/>
<path d="M371.372 678.007L371.175 668.052C371.162 667.39 371.695 666.846 372.358 666.846C372.843 666.846 373.283 667.151 373.461 667.603C378.093 679.359 378.102 679.864 373.934 692.598C373.776 693.083 373.321 693.42 372.811 693.42C372.168 693.42 371.644 692.905 371.632 692.263L371.453 682.79M371.372 678.007H368.636M371.372 678.007L371.453 682.79M368.636 678.007C368.636 675.019 368.636 672.33 368.636 668.846C368.636 667.742 367.741 666.846 366.636 666.846H361.595M368.636 678.007C368.636 679.25 368.646 681.542 368.646 682.79M371.453 682.79H368.646M368.646 682.79C368.646 685.611 368.639 688.154 368.637 691.419C368.636 692.524 367.741 693.42 366.636 693.42H361.595M361.595 695.906H365.87C366.564 695.906 367.127 696.938 367.127 697.671C367.127 698.405 366.564 699 365.87 699H354.805C354.111 699 353.548 698.405 353.548 697.671C353.548 696.938 354.111 695.906 354.805 695.906H359.583M361.595 695.906V693.42M361.595 695.906H359.583M361.595 693.42H359.583M359.583 695.906V693.42M359.583 693.42H349.222C348.48 693.42 347.796 693.008 347.462 692.345C343.27 684.007 342.62 677.633 346.98 667.989C347.297 667.288 348.002 666.846 348.772 666.846H359.583M361.595 664.189H366.122C366.816 664.189 367.127 663.062 367.127 662.329C367.127 661.595 366.564 661 365.87 661H354.805C354.111 661 353.548 661.595 353.548 662.329C353.548 663.062 354.363 664.189 355.057 664.189H359.583M361.595 664.189V666.846M361.595 664.189H359.583M361.595 666.846H359.583M359.583 664.189V666.846" stroke="#0E1219" stroke-miterlimit="2" stroke-linecap="round" stroke-linejoin="round"/>
</g>
<g clip-path="url(#clip11_1384_7929)">
<rect width="40" height="40" transform="matrix(0 1 -1 0 60 100)" fill="#FEFEFE"/>
<path d="M28.6278 121.993L28.8251 131.948C28.8383 132.61 28.305 133.154 27.6425 133.154C27.1567 133.154 26.7169 132.849 26.5389 132.397C21.9074 120.641 21.8978 120.136 26.0655 107.402C26.2241 106.917 26.6792 106.58 27.189 106.58C27.8316 106.58 28.3559 107.095 28.3681 107.737L28.5473 117.21M28.6278 121.993H31.3638M28.6278 121.993L28.5473 117.21M31.3638 121.993C31.3638 124.981 31.3638 127.67 31.3638 131.154C31.3638 132.258 32.2593 133.154 33.3638 133.154H38.4049M31.3638 121.993C31.3638 120.75 31.3538 118.458 31.3538 117.21M28.5473 117.21H31.3538M31.3538 117.21C31.3538 114.389 31.3608 111.846 31.3631 108.581C31.3639 107.476 32.2593 106.58 33.3638 106.58H38.4049M38.4049 104.094H34.13C33.4356 104.094 32.8726 103.062 32.8726 102.329C32.8726 101.595 33.4356 101 34.13 101H45.1946C45.889 101 46.4519 101.595 46.4519 102.329C46.4519 103.062 45.889 104.094 45.1946 104.094H40.4166M38.4049 104.094V106.58M38.4049 104.094H40.4166M38.4049 106.58H40.4166M40.4166 104.094V106.58M40.4166 106.58H50.7779C51.5198 106.58 52.2045 106.992 52.5378 107.655C56.7301 115.993 57.38 122.367 53.0198 132.011C52.7029 132.712 51.9977 133.154 51.2284 133.154H40.4166M38.4049 135.811H33.8785C33.1841 135.811 32.8726 136.938 32.8726 137.671C32.8726 138.405 33.4356 139 34.13 139H45.1946C45.889 139 46.4519 138.405 46.4519 137.671C46.4519 136.938 45.6375 135.811 44.9431 135.811H40.4166M38.4049 135.811V133.154M38.4049 135.811H40.4166M38.4049 133.154H40.4166M40.4166 135.811V133.154" stroke="#0E1219" stroke-miterlimit="2" stroke-linecap="round" stroke-linejoin="round"/>
</g>
<g clip-path="url(#clip12_1384_7929)">
<rect width="40" height="40" transform="matrix(0 1 -1 0 60 180)" fill="#FEFEFE"/>
<path d="M28.6278 201.993L28.8251 211.948C28.8383 212.61 28.305 213.154 27.6425 213.154C27.1567 213.154 26.7169 212.849 26.5389 212.397C21.9074 200.641 21.8978 200.136 26.0655 187.402C26.2241 186.917 26.6792 186.58 27.189 186.58C27.8316 186.58 28.3559 187.095 28.3681 187.737L28.5473 197.21M28.6278 201.993H31.3638M28.6278 201.993L28.5473 197.21M31.3638 201.993C31.3638 204.981 31.3638 207.67 31.3638 211.154C31.3638 212.258 32.2593 213.154 33.3638 213.154H38.4049M31.3638 201.993C31.3638 200.75 31.3538 198.458 31.3538 197.21M28.5473 197.21H31.3538M31.3538 197.21C31.3538 194.389 31.3608 191.846 31.3631 188.581C31.3639 187.476 32.2593 186.58 33.3638 186.58H38.4049M38.4049 184.094H34.13C33.4356 184.094 32.8726 183.062 32.8726 182.329C32.8726 181.595 33.4356 181 34.13 181H45.1946C45.889 181 46.4519 181.595 46.4519 182.329C46.4519 183.062 45.889 184.094 45.1946 184.094H40.4166M38.4049 184.094V186.58M38.4049 184.094H40.4166M38.4049 186.58H40.4166M40.4166 184.094V186.58M40.4166 186.58H50.7779C51.5198 186.58 52.2045 186.992 52.5378 187.655C56.7301 195.993 57.38 202.367 53.0198 212.011C52.7029 212.712 51.9977 213.154 51.2284 213.154H40.4166M38.4049 215.811H33.8785C33.1841 215.811 32.8726 216.938 32.8726 217.671C32.8726 218.405 33.4356 219 34.13 219H45.1946C45.889 219 46.4519 218.405 46.4519 217.671C46.4519 216.938 45.6375 215.811 44.9431 215.811H40.4166M38.4049 215.811V213.154M38.4049 215.811H40.4166M38.4049 213.154H40.4166M40.4166 215.811V213.154" stroke="#0E1219" stroke-miterlimit="2" stroke-linecap="round" stroke-linejoin="round"/>
</g>
<g clip-path="url(#clip13_1384_7929)">
<rect width="40" height="40" transform="matrix(0 1 -1 0 60 260)" fill="#FEFEFE"/>
<path d="M28.6278 281.993L28.8251 291.948C28.8383 292.61 28.305 293.154 27.6425 293.154C27.1567 293.154 26.7169 292.849 26.5389 292.397C21.9074 280.641 21.8978 280.136 26.0655 267.402C26.2241 266.917 26.6792 266.58 27.189 266.58C27.8316 266.58 28.3559 267.095 28.3681 267.737L28.5473 277.21M28.6278 281.993H31.3638M28.6278 281.993L28.5473 277.21M31.3638 281.993C31.3638 284.981 31.3638 287.67 31.3638 291.154C31.3638 292.258 32.2593 293.154 33.3638 293.154H38.4049M31.3638 281.993C31.3638 280.75 31.3538 278.458 31.3538 277.21M28.5473 277.21H31.3538M31.3538 277.21C31.3538 274.389 31.3608 271.846 31.3631 268.581C31.3639 267.476 32.2593 266.58 33.3638 266.58H38.4049M38.4049 264.094H34.13C33.4356 264.094 32.8726 263.062 32.8726 262.329C32.8726 261.595 33.4356 261 34.13 261H45.1946C45.889 261 46.4519 261.595 46.4519 262.329C46.4519 263.062 45.889 264.094 45.1946 264.094H40.4166M38.4049 264.094V266.58M38.4049 264.094H40.4166M38.4049 266.58H40.4166M40.4166 264.094V266.58M40.4166 266.58H50.7779C51.5198 266.58 52.2045 266.992 52.5378 267.655C56.7301 275.993 57.38 282.367 53.0198 292.011C52.7029 292.712 51.9977 293.154 51.2284 293.154H40.4166M38.4049 295.811H33.8785C33.1841 295.811 32.8726 296.938 32.8726 297.671C32.8726 298.405 33.4356 299 34.13 299H45.1946C45.889 299 46.4519 298.405 46.4519 297.671C46.4519 296.938 45.6375 295.811 44.9431 295.811H40.4166M38.4049 295.811V293.154M38.4049 295.811H40.4166M38.4049 293.154H40.4166M40.4166 295.811V293.154" stroke="#0E1219" stroke-miterlimit="2" stroke-linecap="round" stroke-linejoin="round"/>
</g>
<g clip-path="url(#clip14_1384_7929)">
<rect width="40" height="40" transform="matrix(0 1 -1 0 60 340)" fill="#FEFEFE"/>
<path d="M28.6278 361.993L28.8251 371.948C28.8383 372.61 28.305 373.154 27.6425 373.154C27.1567 373.154 26.7169 372.849 26.5389 372.397C21.9074 360.641 21.8978 360.136 26.0655 347.402C26.2241 346.917 26.6792 346.58 27.189 346.58C27.8316 346.58 28.3559 347.095 28.3681 347.737L28.5473 357.21M28.6278 361.993H31.3638M28.6278 361.993L28.5473 357.21M31.3638 361.993C31.3638 364.981 31.3638 367.67 31.3638 371.154C31.3638 372.258 32.2593 373.154 33.3638 373.154H38.4049M31.3638 361.993C31.3638 360.75 31.3538 358.458 31.3538 357.21M28.5473 357.21H31.3538M31.3538 357.21C31.3538 354.389 31.3608 351.846 31.3631 348.581C31.3639 347.476 32.2593 346.58 33.3638 346.58H38.4049M38.4049 344.094H34.13C33.4356 344.094 32.8726 343.062 32.8726 342.329C32.8726 341.595 33.4356 341 34.13 341H45.1946C45.889 341 46.4519 341.595 46.4519 342.329C46.4519 343.062 45.889 344.094 45.1946 344.094H40.4166M38.4049 344.094V346.58M38.4049 344.094H40.4166M38.4049 346.58H40.4166M40.4166 344.094V346.58M40.4166 346.58H50.7779C51.5198 346.58 52.2045 346.992 52.5378 347.655C56.7301 355.993 57.38 362.367 53.0198 372.011C52.7029 372.712 51.9977 373.154 51.2284 373.154H40.4166M38.4049 375.811H33.8785C33.1841 375.811 32.8726 376.938 32.8726 377.671C32.8726 378.405 33.4356 379 34.13 379H45.1946C45.889 379 46.4519 378.405 46.4519 377.671C46.4519 376.938 45.6375 375.811 44.9431 375.811H40.4166M38.4049 375.811V373.154M38.4049 375.811H40.4166M38.4049 373.154H40.4166M40.4166 375.811V373.154" stroke="#0E1219" stroke-miterlimit="2" stroke-linecap="round" stroke-linejoin="round"/>
</g>
<g clip-path="url(#clip15_1384_7929)">
<rect width="40" height="40" transform="matrix(0 1 -1 0 60 420)" fill="#FEFEFE"/>
<path d="M28.6278 441.993L28.8251 451.948C28.8383 452.61 28.305 453.154 27.6425 453.154C27.1567 453.154 26.7169 452.849 26.5389 452.397C21.9074 440.641 21.8978 440.136 26.0655 427.402C26.2241 426.917 26.6792 426.58 27.189 426.58C27.8316 426.58 28.3559 427.095 28.3681 427.737L28.5473 437.21M28.6278 441.993H31.3638M28.6278 441.993L28.5473 437.21M31.3638 441.993C31.3638 444.981 31.3638 447.67 31.3638 451.154C31.3638 452.258 32.2593 453.154 33.3638 453.154H38.4049M31.3638 441.993C31.3638 440.75 31.3538 438.458 31.3538 437.21M28.5473 437.21H31.3538M31.3538 437.21C31.3538 434.389 31.3608 431.846 31.3631 428.581C31.3639 427.476 32.2593 426.58 33.3638 426.58H38.4049M38.4049 424.094H34.13C33.4356 424.094 32.8726 423.062 32.8726 422.329C32.8726 421.595 33.4356 421 34.13 421H45.1946C45.889 421 46.4519 421.595 46.4519 422.329C46.4519 423.062 45.889 424.094 45.1946 424.094H40.4166M38.4049 424.094V426.58M38.4049 424.094H40.4166M38.4049 426.58H40.4166M40.4166 424.094V426.58M40.4166 426.58H50.7779C51.5198 426.58 52.2045 426.992 52.5378 427.655C56.7301 435.993 57.38 442.367 53.0198 452.011C52.7029 452.712 51.9977 453.154 51.2284 453.154H40.4166M38.4049 455.811H33.8785C33.1841 455.811 32.8726 456.938 32.8726 457.671C32.8726 458.405 33.4356 459 34.13 459H45.1946C45.889 459 46.4519 458.405 46.4519 457.671C46.4519 456.938 45.6375 455.811 44.9431 455.811H40.4166M38.4049 455.811V453.154M38.4049 455.811H40.4166M38.4049 453.154H40.4166M40.4166 455.811V453.154" stroke="#0E1219" stroke-miterlimit="2" stroke-linecap="round" stroke-linejoin="round"/>
</g>
<g clip-path="url(#clip16_1384_7929)">
<rect width="40" height="40" transform="matrix(0 1 -1 0 60 500)" fill="#FEFEFE"/>
<path d="M28.6278 521.993L28.8251 531.948C28.8383 532.61 28.305 533.154 27.6425 533.154C27.1567 533.154 26.7169 532.849 26.5389 532.397C21.9074 520.641 21.8978 520.136 26.0655 507.402C26.2241 506.917 26.6792 506.58 27.189 506.58C27.8316 506.58 28.3559 507.095 28.3681 507.737L28.5473 517.21M28.6278 521.993H31.3638M28.6278 521.993L28.5473 517.21M31.3638 521.993C31.3638 524.981 31.3638 527.67 31.3638 531.154C31.3638 532.258 32.2593 533.154 33.3638 533.154H38.4049M31.3638 521.993C31.3638 520.75 31.3538 518.458 31.3538 517.21M28.5473 517.21H31.3538M31.3538 517.21C31.3538 514.389 31.3608 511.846 31.3631 508.581C31.3639 507.476 32.2593 506.58 33.3638 506.58H38.4049M38.4049 504.094H34.13C33.4356 504.094 32.8726 503.062 32.8726 502.329C32.8726 501.595 33.4356 501 34.13 501H45.1946C45.889 501 46.4519 501.595 46.4519 502.329C46.4519 503.062 45.889 504.094 45.1946 504.094H40.4166M38.4049 504.094V506.58M38.4049 504.094H40.4166M38.4049 506.58H40.4166M40.4166 504.094V506.58M40.4166 506.58H50.7779C51.5198 506.58 52.2045 506.992 52.5378 507.655C56.7301 515.993 57.38 522.367 53.0198 532.011C52.7029 532.712 51.9977 533.154 51.2284 533.154H40.4166M38.4049 535.811H33.8785C33.1841 535.811 32.8726 536.938 32.8726 537.671C32.8726 538.405 33.4356 539 34.13 539H45.1946C45.889 539 46.4519 538.405 46.4519 537.671C46.4519 536.938 45.6375 535.811 44.9431 535.811H40.4166M38.4049 535.811V533.154M38.4049 535.811H40.4166M38.4049 533.154H40.4166M40.4166 535.811V533.154" stroke="#0E1219" stroke-miterlimit="2" stroke-linecap="round" stroke-linejoin="round"/>
</g>
<g clip-path="url(#clip17_1384_7929)">
<rect width="40" height="40" transform="matrix(0 1 -1 0 60 580)" fill="#FEFEFE"/>
<path d="M28.6278 601.993L28.8251 611.948C28.8383 612.61 28.305 613.154 27.6425 613.154C27.1567 613.154 26.7169 612.849 26.5389 612.397C21.9074 600.641 21.8978 600.136 26.0655 587.402C26.2241 586.917 26.6792 586.58 27.189 586.58C27.8316 586.58 28.3559 587.095 28.3681 587.737L28.5473 597.21M28.6278 601.993H31.3638M28.6278 601.993L28.5473 597.21M31.3638 601.993C31.3638 604.981 31.3638 607.67 31.3638 611.154C31.3638 612.258 32.2593 613.154 33.3638 613.154H38.4049M31.3638 601.993C31.3638 600.75 31.3538 598.458 31.3538 597.21M28.5473 597.21H31.3538M31.3538 597.21C31.3538 594.389 31.3608 591.846 31.3631 588.581C31.3639 587.476 32.2593 586.58 33.3638 586.58H38.4049M38.4049 584.094H34.13C33.4356 584.094 32.8726 583.062 32.8726 582.329C32.8726 581.595 33.4356 581 34.13 581H45.1946C45.889 581 46.4519 581.595 46.4519 582.329C46.4519 583.062 45.889 584.094 45.1946 584.094H40.4166M38.4049 584.094V586.58M38.4049 584.094H40.4166M38.4049 586.58H40.4166M40.4166 584.094V586.58M40.4166 586.58H50.7779C51.5198 586.58 52.2045 586.992 52.5378 587.655C56.7301 595.993 57.38 602.367 53.0198 612.011C52.7029 612.712 51.9977 613.154 51.2284 613.154H40.4166M38.4049 615.811H33.8785C33.1841 615.811 32.8726 616.938 32.8726 617.671C32.8726 618.405 33.4356 619 34.13 619H45.1946C45.889 619 46.4519 618.405 46.4519 617.671C46.4519 616.938 45.6375 615.811 44.9431 615.811H40.4166M38.4049 615.811V613.154M38.4049 615.811H40.4166M38.4049 613.154H40.4166M40.4166 615.811V613.154" stroke="#0E1219" stroke-miterlimit="2" stroke-linecap="round" stroke-linejoin="round"/>
</g>
<g clip-path="url(#clip18_1384_7929)">
<rect width="40" height="40" transform="matrix(0 1 -1 0 60 660)" fill="#FEFEFE"/>
<path d="M28.6278 681.993L28.8251 691.948C28.8383 692.61 28.305 693.154 27.6425 693.154C27.1567 693.154 26.7169 692.849 26.5389 692.397C21.9074 680.641 21.8978 680.136 26.0655 667.402C26.2241 666.917 26.6792 666.58 27.189 666.58C27.8316 666.58 28.3559 667.095 28.3681 667.737L28.5473 677.21M28.6278 681.993H31.3638M28.6278 681.993L28.5473 677.21M31.3638 681.993C31.3638 684.981 31.3638 687.67 31.3638 691.154C31.3638 692.258 32.2593 693.154 33.3638 693.154H38.4049M31.3638 681.993C31.3638 680.75 31.3538 678.458 31.3538 677.21M28.5473 677.21H31.3538M31.3538 677.21C31.3538 674.389 31.3608 671.846 31.3631 668.581C31.3639 667.476 32.2593 666.58 33.3638 666.58H38.4049M38.4049 664.094H34.13C33.4356 664.094 32.8726 663.062 32.8726 662.329C32.8726 661.595 33.4356 661 34.13 661H45.1946C45.889 661 46.4519 661.595 46.4519 662.329C46.4519 663.062 45.889 664.094 45.1946 664.094H40.4166M38.4049 664.094V666.58M38.4049 664.094H40.4166M38.4049 666.58H40.4166M40.4166 664.094V666.58M40.4166 666.58H50.7779C51.5198 666.58 52.2045 666.992 52.5378 667.655C56.7301 675.993 57.38 682.367 53.0198 692.011C52.7029 692.712 51.9977 693.154 51.2284 693.154H40.4166M38.4049 695.811H33.8785C33.1841 695.811 32.8726 696.938 32.8726 697.671C32.8726 698.405 33.4356 699 34.13 699H45.1946C45.889 699 46.4519 698.405 46.4519 697.671C46.4519 696.938 45.6375 695.811 44.9431 695.811H40.4166M38.4049 695.811V693.154M38.4049 695.811H40.4166M38.4049 693.154H40.4166M40.4166 695.811V693.154" stroke="#0E1219" stroke-miterlimit="2" stroke-linecap="round" stroke-linejoin="round"/>
</g>
<g clip-path="url(#clip19_1384_7929)">
<rect width="40" height="40" transform="matrix(-1 0 0 -1 300 60)" fill="#FEFEFE"/>
<path d="M278.007 28.6278L268.052 28.8251C267.39 28.8383 266.846 28.305 266.846 27.6425C266.846 27.1567 267.151 26.7169 267.603 26.5389C279.359 21.9074 279.864 21.8978 292.598 26.0655C293.083 26.2241 293.42 26.6792 293.42 27.189C293.42 27.8316 292.905 28.3559 292.263 28.3681L282.79 28.5473M278.007 28.6278V31.3638M278.007 28.6278L282.79 28.5473M278.007 31.3638C275.019 31.3638 272.33 31.3638 268.846 31.3638C267.742 31.3638 266.846 32.2593 266.846 33.3638V38.4049M278.007 31.3638C279.25 31.3638 281.542 31.3538 282.79 31.3538M282.79 28.5473V31.3538M282.79 31.3538C285.611 31.3538 288.154 31.3608 291.419 31.3631C292.524 31.3639 293.42 32.2593 293.42 33.3638V38.4049M295.906 38.4049V34.13C295.906 33.4356 296.938 32.8726 297.671 32.8726C298.405 32.8726 299 33.4356 299 34.13V45.1946C299 45.889 298.405 46.4519 297.671 46.4519C296.938 46.4519 295.906 45.889 295.906 45.1946V40.4166M295.906 38.4049H293.42M295.906 38.4049V40.4166M293.42 38.4049V40.4166M295.906 40.4166H293.42M293.42 40.4166V50.7779C293.42 51.5198 293.008 52.2045 292.345 52.5378C284.007 56.7301 277.633 57.38 267.989 53.0198C267.288 52.7029 266.846 51.9977 266.846 51.2284V40.4166M264.189 38.4049V33.8785C264.189 33.1841 263.062 32.8726 262.329 32.8726C261.595 32.8726 261 33.4356 261 34.13V45.1946C261 45.889 261.595 46.4519 262.329 46.4519C263.062 46.4519 264.189 45.6375 264.189 44.9431V40.4166M264.189 38.4049H266.846M264.189 38.4049V40.4166M266.846 38.4049V40.4166M264.189 40.4166H266.846" stroke="#0E1219" stroke-miterlimit="2" stroke-linecap="round" stroke-linejoin="round"/>
</g>
<g clip-path="url(#clip20_1384_7929)">
<rect width="40" height="40" transform="matrix(-1 0 0 -1 220 60)" fill="#FEFEFE"/>
<path d="M198.007 28.6278L188.052 28.8251C187.39 28.8383 186.846 28.305 186.846 27.6425C186.846 27.1567 187.151 26.7169 187.603 26.5389C199.359 21.9074 199.864 21.8978 212.598 26.0655C213.083 26.2241 213.42 26.6792 213.42 27.189C213.42 27.8316 212.905 28.3559 212.263 28.3681L202.79 28.5473M198.007 28.6278V31.3638M198.007 28.6278L202.79 28.5473M198.007 31.3638C195.019 31.3638 192.33 31.3638 188.846 31.3638C187.742 31.3638 186.846 32.2593 186.846 33.3638V38.4049M198.007 31.3638C199.25 31.3638 201.542 31.3538 202.79 31.3538M202.79 28.5473V31.3538M202.79 31.3538C205.611 31.3538 208.154 31.3608 211.419 31.3631C212.524 31.3639 213.42 32.2593 213.42 33.3638V38.4049M215.906 38.4049V34.13C215.906 33.4356 216.938 32.8726 217.671 32.8726C218.405 32.8726 219 33.4356 219 34.13V45.1946C219 45.889 218.405 46.4519 217.671 46.4519C216.938 46.4519 215.906 45.889 215.906 45.1946V40.4166M215.906 38.4049H213.42M215.906 38.4049V40.4166M213.42 38.4049V40.4166M215.906 40.4166H213.42M213.42 40.4166V50.7779C213.42 51.5198 213.008 52.2045 212.345 52.5378C204.007 56.7301 197.633 57.38 187.989 53.0198C187.288 52.7029 186.846 51.9977 186.846 51.2284V40.4166M184.189 38.4049V33.8785C184.189 33.1841 183.062 32.8726 182.329 32.8726C181.595 32.8726 181 33.4356 181 34.13V45.1946C181 45.889 181.595 46.4519 182.329 46.4519C183.062 46.4519 184.189 45.6375 184.189 44.9431V40.4166M184.189 38.4049H186.846M184.189 38.4049V40.4166M186.846 38.4049V40.4166M184.189 40.4166H186.846" stroke="#0E1219" stroke-miterlimit="2" stroke-linecap="round" stroke-linejoin="round"/>
</g>
<g clip-path="url(#clip21_1384_7929)">
<rect width="40" height="40" transform="matrix(-1 0 0 -1 140 60)" fill="#FEFEFE"/>
<path d="M118.007 28.6278L108.052 28.8251C107.39 28.8383 106.846 28.305 106.846 27.6425C106.846 27.1567 107.151 26.7169 107.603 26.5389C119.359 21.9074 119.864 21.8978 132.598 26.0655C133.083 26.2241 133.42 26.6792 133.42 27.189C133.42 27.8316 132.905 28.3559 132.263 28.3681L122.79 28.5473M118.007 28.6278V31.3638M118.007 28.6278L122.79 28.5473M118.007 31.3638C115.019 31.3638 112.33 31.3638 108.846 31.3638C107.742 31.3638 106.846 32.2593 106.846 33.3638V38.4049M118.007 31.3638C119.25 31.3638 121.542 31.3538 122.79 31.3538M122.79 28.5473V31.3538M122.79 31.3538C125.611 31.3538 128.154 31.3608 131.419 31.3631C132.524 31.3639 133.42 32.2593 133.42 33.3638V38.4049M135.906 38.4049V34.13C135.906 33.4356 136.938 32.8726 137.671 32.8726C138.405 32.8726 139 33.4356 139 34.13V45.1946C139 45.889 138.405 46.4519 137.671 46.4519C136.938 46.4519 135.906 45.889 135.906 45.1946V40.4166M135.906 38.4049H133.42M135.906 38.4049V40.4166M133.42 38.4049V40.4166M135.906 40.4166H133.42M133.42 40.4166V50.7779C133.42 51.5198 133.008 52.2045 132.345 52.5378C124.007 56.7301 117.633 57.38 107.989 53.0198C107.288 52.7029 106.846 51.9977 106.846 51.2284V40.4166M104.189 38.4049V33.8785C104.189 33.1841 103.062 32.8726 102.329 32.8726C101.595 32.8726 101 33.4356 101 34.13V45.1946C101 45.889 101.595 46.4519 102.329 46.4519C103.062 46.4519 104.189 45.6375 104.189 44.9431V40.4166M104.189 38.4049H106.846M104.189 38.4049V40.4166M106.846 38.4049V40.4166M104.189 40.4166H106.846" stroke="#0E1219" stroke-miterlimit="2" stroke-linecap="round" stroke-linejoin="round"/>
</g>
<rect x="319.5" y="80.5" width="639" height="239" rx="5.5" transform="rotate(90 319.5 80.5)" fill="#CCB4E9" stroke="#0E1219"/>
<rect x="314.5" y="85.5" width="629" height="229" rx="3.5" transform="rotate(90 314.5 85.5)" fill="#F9F6FC" stroke="#0E1219"/>
<defs>
<clipPath id="clip0_1384_7929">
<rect width="40" height="40" fill="white" transform="translate(100 740)"/>
</clipPath>
<clipPath id="clip1_1384_7929">
<rect width="40" height="40" fill="white" transform="translate(180 740)"/>
</clipPath>
<clipPath id="clip2_1384_7929">
<rect width="40" height="40" fill="white" transform="translate(260 740)"/>
</clipPath>
<clipPath id="clip3_1384_7929">
<rect width="40" height="40" fill="white" transform="matrix(0 -1 1 0 340 140)"/>
</clipPath>
<clipPath id="clip4_1384_7929">
<rect width="40" height="40" fill="white" transform="matrix(0 -1 1 0 340 220)"/>
</clipPath>
<clipPath id="clip5_1384_7929">
<rect width="40" height="40" fill="white" transform="matrix(0 -1 1 0 340 300)"/>
</clipPath>
<clipPath id="clip6_1384_7929">
<rect width="40" height="40" fill="white" transform="matrix(0 -1 1 0 340 380)"/>
</clipPath>
<clipPath id="clip7_1384_7929">
<rect width="40" height="40" fill="white" transform="matrix(0 -1 1 0 340 460)"/>
</clipPath>
<clipPath id="clip8_1384_7929">
<rect width="40" height="40" fill="white" transform="matrix(0 -1 1 0 340 540)"/>
</clipPath>
<clipPath id="clip9_1384_7929">
<rect width="40" height="40" fill="white" transform="matrix(0 -1 1 0 340 620)"/>
</clipPath>
<clipPath id="clip10_1384_7929">
<rect width="40" height="40" fill="white" transform="matrix(0 -1 1 0 340 700)"/>
</clipPath>
<clipPath id="clip11_1384_7929">
<rect width="40" height="40" fill="white" transform="matrix(0 1 -1 0 60 100)"/>
</clipPath>
<clipPath id="clip12_1384_7929">
<rect width="40" height="40" fill="white" transform="matrix(0 1 -1 0 60 180)"/>
</clipPath>
<clipPath id="clip13_1384_7929">
<rect width="40" height="40" fill="white" transform="matrix(0 1 -1 0 60 260)"/>
</clipPath>
<clipPath id="clip14_1384_7929">
<rect width="40" height="40" fill="white" transform="matrix(0 1 -1 0 60 340)"/>
</clipPath>
<clipPath id="clip15_1384_7929">
<rect width="40" height="40" fill="white" transform="matrix(0 1 -1 0 60 420)"/>
</clipPath>
<clipPath id="clip16_1384_7929">
<rect width="40" height="40" fill="white" transform="matrix(0 1 -1 0 60 500)"/>
</clipPath>
<clipPath id="clip17_1384_7929">
<rect width="40" height="40" fill="white" transform="matrix(0 1 -1 0 60 580)"/>
</clipPath>
<clipPath id="clip18_1384_7929">
<rect width="40" height="40" fill="white" transform="matrix(0 1 -1 0 60 660)"/>
</clipPath>
<clipPath id="clip19_1384_7929">
<rect width="40" height="40" fill="white" transform="matrix(-1 0 0 -1 300 60)"/>
</clipPath>
<clipPath id="clip20_1384_7929">
<rect width="40" height="40" fill="white" transform="matrix(-1 0 0 -1 220 60)"/>
</clipPath>
<clipPath id="clip21_1384_7929">
<rect width="40" height="40" fill="white" transform="matrix(-1 0 0 -1 140 60)"/>
</clipPath>
</defs>
</svg>
