<svg width="160" height="91" viewBox="0 0 160 91" fill="none" xmlns="http://www.w3.org/2000/svg">
<rect x="0.5" y="0.5" width="159" height="51" rx="3.5" fill="white" stroke="#0E1219"/>
<rect x="2.53613" y="2.25" width="154.929" height="47.5" rx="2.75" fill="#CCB4E3" stroke="#0E1219" stroke-width="0.5"/>
<path d="M117.56 11H42.4396C41.1775 11 40.2309 12.1547 40.4784 13.3922L41.6784 19.3922C41.8654 20.3271 42.6862 21 43.6396 21H116.36C117.314 21 118.135 20.3271 118.322 19.3922L119.522 13.3922C119.769 12.1546 118.822 11 117.56 11Z" fill="white" stroke="#0E1219"/>
<path d="M68.5713 21C73.1427 26.5 86.2856 27 91.4284 21" stroke="#0E1219"/>
<path d="M41.1426 14.5L120 14" stroke="#0E1219" stroke-width="0.5"/>
<path d="M140.917 29.1667C142.087 29.1667 142.673 29.1667 143.093 29.4475C143.275 29.5691 143.431 29.7254 143.553 29.9074C143.834 30.3277 143.834 30.9129 143.834 32.0833V40C143.834 41.5713 143.834 42.357 143.345 42.8452C142.857 43.3333 142.072 43.3333 140.5 43.3333H135.5C133.929 43.3333 133.143 43.3333 132.655 42.8452C132.167 42.357 132.167 41.5713 132.167 40V32.0833C132.167 30.9129 132.167 30.3277 132.448 29.9074C132.569 29.7254 132.726 29.5691 132.908 29.4475C133.328 29.1667 133.913 29.1667 135.084 29.1667" fill="white"/>
<path d="M140.917 29.1667C142.087 29.1667 142.673 29.1667 143.093 29.4475C143.275 29.5691 143.431 29.7254 143.553 29.9074C143.834 30.3277 143.834 30.9129 143.834 32.0833V40C143.834 41.5713 143.834 42.357 143.345 42.8452C142.857 43.3333 142.072 43.3333 140.5 43.3333H135.5C133.929 43.3333 133.143 43.3333 132.655 42.8452C132.167 42.357 132.167 41.5713 132.167 40V32.0833C132.167 30.9129 132.167 30.3277 132.448 29.9074C132.569 29.7254 132.726 29.5691 132.908 29.4475C133.328 29.1667 133.913 29.1667 135.084 29.1667" stroke="#222222"/>
<path d="M135.5 29.1667C135.5 28.2462 136.246 27.5 137.167 27.5H138.833C139.754 27.5 140.5 28.2462 140.5 29.1667C140.5 30.0871 139.754 30.8333 138.833 30.8333H137.167C136.246 30.8333 135.5 30.0871 135.5 29.1667Z" fill="#EBE2F6" stroke="#222222"/>
<path d="M135.5 35H140.5" stroke="#222222" stroke-linecap="round"/>
<path d="M135.5 38.3333H138.833" stroke="#222222" stroke-linecap="round"/>
<g clip-path="url(#clip0_1357_5187)">
<path d="M30.6701 20.03L25.3101 18.08L23.9001 16.1999C23.7401 15.9899 23.4451 15.9349 23.2251 16.0849L20.2251 18.0849C20.1101 18.1599 20.0301 18.2799 20.0051 18.4149C19.9851 18.5499 20.0201 18.6899 20.1001 18.7999L20.1451 18.8599L20.4501 19.2649L19.27 20.0549L13.225 24.085C13.085 24.175 13 24.335 13 24.5V40.155C11.31 40.2251 9.62004 40.74 9.13002 41.6201C9.06504 41.7401 9.02004 41.865 9 42V44.25C9 45.4901 11.285 45.915 12.96 45.9851C13.15 45.9951 13.33 46.0001 13.5 46.0001C15.17 46.0001 18 45.63 18 44.25C18 44.25 18 42.5 18 42C17.835 40.8851 15.92 40.235 14 40.155V24.77L19.89 20.84L21.05 20.065L21.5 20.665V26.5C21.5 26.555 21.51 26.605 21.53 26.6549C21.565 26.7799 21.655 26.8849 21.77 26.9449C21.84 26.9799 21.92 26.9999 22 26.9999C22.1 26.9999 22.2 26.9699 22.29 26.9099L30.79 20.9099C30.94 20.8 31.02 20.62 30.995 20.4349C30.9701 20.2499 30.8451 20.095 30.6701 20.03ZM17.0051 44.22C16.9551 44.33 16.6201 44.535 16.0051 44.7C15.4251 44.865 14.5851 45 13.5001 45C11.285 45 10.0951 44.44 10.0001 44.25V43.34C10.8801 43.785 12.2151 44 13.5001 44C14.0351 44 14.5851 43.9599 15.1001 43.88C15.4151 43.8399 15.7201 43.7799 16.0051 43.7C16.3751 43.605 16.7151 43.485 17.0051 43.34V44.22ZM17.0001 42.07C17.0001 42.31 15.7951 43 13.5001 43C13.2351 43 12.9851 42.99 12.7501 42.975C10.9451 42.845 10.0001 42.28 10.0001 42.07C10.0001 41.915 10.5101 41.575 11.5001 41.355C11.7901 41.29 12.1252 41.235 12.5002 41.2C12.5801 41.19 12.6652 41.18 12.7502 41.18C12.8302 41.17 12.9152 41.165 13.0002 41.16V41.5001C13.0002 41.775 13.2252 42 13.5002 42C13.7752 42 14.0002 41.775 14.0002 41.5001V41.16C15.9651 41.255 17.0001 41.85 17.0001 42.07ZM22.1151 19.82L21.2151 18.625L22.7201 17.62L23.3851 17.18L24.2851 18.375L23.6501 18.7949L22.1151 19.82ZM28.6401 21.205L22.5001 25.535V20.77L24.2601 19.595L25.0651 19.055L29.4301 20.645L28.6401 21.205Z" fill="black"/>
<path d="M17.0049 43.34V44.22C16.9549 44.33 16.6199 44.535 16.0049 44.7V43.7C16.3749 43.605 16.7149 43.485 17.0049 43.34Z" fill="#BFA2E1"/>
<path d="M16.005 43.7V44.7C15.425 44.865 14.585 45.0001 13.5 45.0001C11.285 45.0001 10.095 44.4401 10 44.25V43.34C10.88 43.785 12.215 44 13.5 44C14.035 44 14.585 43.96 15.1 43.88C15.415 43.84 15.72 43.78 16.005 43.7Z" fill="#F9F6FC"/>
<path d="M17 42.07C17 42.31 15.795 43 13.5 43C13.235 43 12.985 42.99 12.75 42.975C14.555 42.845 15.5 42.28 15.5 42.07C15.5 41.915 14.99 41.575 14 41.355V41.16C15.965 41.255 17 41.85 17 42.07Z" fill="#BFA2E1"/>
<path d="M15.5 42.07C15.5 42.28 14.555 42.845 12.75 42.975C10.945 42.845 10 42.28 10 42.07C10 41.915 10.51 41.575 11.5 41.355C11.79 41.29 12.125 41.235 12.5 41.2C12.58 41.19 12.665 41.18 12.75 41.18C12.83 41.17 12.915 41.165 13.0001 41.16V41.5001C13.0001 41.775 13.2251 42 13.5 42C13.775 42 14 41.775 14 41.5001V41.355C14.99 41.575 15.5 41.915 15.5 42.07Z" fill="#F9F6FC"/>
<path d="M29.4307 20.645L28.6407 21.2049L24.2607 19.595L25.0657 19.055L29.4307 20.645Z" fill="#BFA2E1"/>
<path d="M28.64 21.205L22.5 25.535V20.77L24.26 19.595L28.64 21.205Z" fill="#F9F6FC"/>
<path d="M24.2857 18.3749L23.6507 18.7949L22.7207 17.6199L23.3857 17.18L24.2857 18.3749Z" fill="#BFA2E1"/>
<path d="M23.6498 18.7949L22.1148 19.82L21.2148 18.6249L22.7198 17.6199L23.6498 18.7949Z" fill="#F9F6FC"/>
</g>
<path d="M43.9221 30.0002H116.945C117.212 30.0002 117.438 30.1245 117.438 30.28V45.0101C117.438 45.1652 117.212 45.2901 116.945 45.2901H43.9221C43.6554 45.2901 43.4287 45.1652 43.4287 45.01V30.2798C43.4287 30.1244 43.6554 30 43.9221 30V30.0002Z" fill="white" stroke="#0E1219" stroke-width="0.6" stroke-linecap="round"/>
<path d="M44.8281 30.8831H48.6152C48.6852 30.8831 48.7429 30.8995 48.7783 30.9202C48.8167 30.9426 48.8096 30.9552 48.8096 30.9436V33.1516C48.8097 33.1406 48.8159 33.153 48.7783 33.175C48.7429 33.1957 48.6852 33.2131 48.6152 33.2131H44.8281C44.7582 33.2131 44.7005 33.1957 44.665 33.175C44.6272 33.1529 44.6337 33.1406 44.6338 33.1516V30.9436C44.6338 30.9552 44.6265 30.9426 44.665 30.9202C44.6827 30.9099 44.706 30.9006 44.7334 30.8938L44.8281 30.8831Z" fill="white" stroke="#0E1219" stroke-width="0.25" stroke-linecap="round"/>
<path d="M49.6826 30.8831H53.4697C53.5397 30.8831 53.5974 30.8995 53.6328 30.9202C53.6712 30.9426 53.6641 30.9552 53.6641 30.9436V33.1516C53.6642 33.1406 53.6704 33.153 53.6328 33.175C53.5974 33.1957 53.5397 33.2131 53.4697 33.2131H49.6826C49.6127 33.2131 49.555 33.1957 49.5195 33.175C49.4817 33.1529 49.4881 33.1406 49.4883 33.1516V30.9436C49.4883 30.9552 49.481 30.9426 49.5195 30.9202C49.5372 30.9099 49.5605 30.9006 49.5879 30.8938L49.6826 30.8831Z" fill="white" stroke="#0E1219" stroke-width="0.25" stroke-linecap="round"/>
<path d="M54.4297 30.8831H58.2168C58.2867 30.8831 58.3444 30.8995 58.3799 30.9202C58.4182 30.9426 58.4111 30.9552 58.4111 30.9436V33.1516C58.4113 33.1406 58.4175 33.153 58.3799 33.175C58.3444 33.1957 58.2867 33.2131 58.2168 33.2131H54.4297C54.3598 33.2131 54.302 33.1957 54.2666 33.175C54.2287 33.1529 54.2352 33.1406 54.2354 33.1516V30.9436C54.2354 30.9552 54.2281 30.9426 54.2666 30.9202C54.2843 30.9099 54.3075 30.9006 54.335 30.8938L54.4297 30.8831Z" fill="white" stroke="#0E1219" stroke-width="0.25" stroke-linecap="round"/>
<path d="M59.377 30.8831H63.1641C63.234 30.8831 63.2917 30.8995 63.3271 30.9202C63.3655 30.9426 63.3584 30.9552 63.3584 30.9436V33.1516C63.3585 33.1406 63.3648 33.153 63.3271 33.175C63.2917 33.1957 63.234 33.2131 63.1641 33.2131H59.377C59.307 33.2131 59.2493 33.1957 59.2139 33.175C59.176 33.1529 59.1825 33.1406 59.1826 33.1516V30.9436C59.1826 30.9552 59.1753 30.9426 59.2139 30.9202C59.2316 30.9099 59.2548 30.9006 59.2822 30.8938L59.377 30.8831Z" fill="white" stroke="#0E1219" stroke-width="0.25" stroke-linecap="round"/>
<path d="M64.2178 30.8831H68.0049C68.0748 30.8831 68.1325 30.8995 68.168 30.9202C68.2063 30.9426 68.1992 30.9552 68.1992 30.9436V33.1516C68.1994 33.1406 68.2056 33.153 68.168 33.175C68.1325 33.1957 68.0748 33.2131 68.0049 33.2131H64.2178C64.1478 33.2131 64.0901 33.1957 64.0547 33.175C64.0168 33.1529 64.0233 33.1406 64.0234 33.1516V30.9436C64.0234 30.9552 64.0162 30.9426 64.0547 30.9202C64.0724 30.9099 64.0956 30.9006 64.123 30.8938L64.2178 30.8831Z" fill="white" stroke="#0E1219" stroke-width="0.25" stroke-linecap="round"/>
<path d="M69.0576 30.8831H72.8447C72.9147 30.8831 72.9724 30.8995 73.0078 30.9202C73.0462 30.9426 73.0391 30.9552 73.0391 30.9436V33.1516C73.0392 33.1406 73.0454 33.153 73.0078 33.175C72.9724 33.1957 72.9147 33.2131 72.8447 33.2131H69.0576C68.9877 33.2131 68.93 33.1957 68.8945 33.175C68.8567 33.1529 68.8631 33.1406 68.8633 33.1516V30.9436C68.8633 30.9552 68.856 30.9426 68.8945 30.9202C68.9122 30.9099 68.9355 30.9006 68.9629 30.8938L69.0576 30.8831Z" fill="white" stroke="#0E1219" stroke-width="0.25" stroke-linecap="round"/>
<path d="M73.9121 30.8831H77.6992C77.7691 30.8831 77.8269 30.8995 77.8623 30.9202C77.9007 30.9426 77.8936 30.9552 77.8936 30.9436V33.1516C77.8937 33.1406 77.8999 33.153 77.8623 33.175C77.8269 33.1957 77.7691 33.2131 77.6992 33.2131H73.9121C73.8422 33.2131 73.7845 33.1957 73.749 33.175C73.7112 33.1529 73.7176 33.1406 73.7178 33.1516V30.9436C73.7178 30.9552 73.7105 30.9426 73.749 30.9202C73.7667 30.9099 73.79 30.9006 73.8174 30.8938L73.9121 30.8831Z" fill="white" stroke="#0E1219" stroke-width="0.25" stroke-linecap="round"/>
<path d="M78.7529 30.8831H82.54C82.61 30.8831 82.6677 30.8995 82.7031 30.9202C82.7415 30.9426 82.7344 30.9552 82.7344 30.9436V33.1516C82.7345 33.1406 82.7408 33.153 82.7031 33.175C82.6677 33.1957 82.61 33.2131 82.54 33.2131H78.7529C78.683 33.2131 78.6253 33.1957 78.5898 33.175C78.552 33.1529 78.5585 33.1406 78.5586 33.1516V30.9436C78.5586 30.9552 78.5513 30.9426 78.5898 30.9202C78.6075 30.9099 78.6308 30.9006 78.6582 30.8938L78.7529 30.8831Z" fill="white" stroke="#0E1219" stroke-width="0.25" stroke-linecap="round"/>
<path d="M83.6064 30.8831H87.3936C87.4635 30.8831 87.5212 30.8995 87.5566 30.9202C87.595 30.9426 87.5879 30.9552 87.5879 30.9436V33.1516C87.588 33.1406 87.5943 33.153 87.5566 33.175C87.5212 33.1957 87.4635 33.2131 87.3936 33.2131H83.6064C83.5365 33.2131 83.4788 33.1957 83.4434 33.175C83.4055 33.1529 83.412 33.1406 83.4121 33.1516V30.9436C83.4121 30.9552 83.4048 30.9426 83.4434 30.9202C83.4611 30.9099 83.4843 30.9006 83.5117 30.8938L83.6064 30.8831Z" fill="white" stroke="#0E1219" stroke-width="0.25" stroke-linecap="round"/>
<path d="M88.4473 30.8831H92.2344C92.3043 30.8831 92.362 30.8995 92.3975 30.9202C92.4358 30.9426 92.4287 30.9552 92.4287 30.9436V33.1516C92.4288 33.1406 92.4351 33.153 92.3975 33.175C92.362 33.1957 92.3043 33.2131 92.2344 33.2131H88.4473C88.3773 33.2131 88.3196 33.1957 88.2842 33.175C88.2463 33.1529 88.2528 33.1406 88.2529 33.1516V30.9436C88.2529 30.9552 88.2457 30.9426 88.2842 30.9202C88.3019 30.9099 88.3251 30.9006 88.3525 30.8938L88.4473 30.8831Z" fill="white" stroke="#0E1219" stroke-width="0.25" stroke-linecap="round"/>
<path d="M93.3008 30.8831H97.0879C97.1578 30.8831 97.2155 30.8995 97.251 30.9202C97.2893 30.9426 97.2822 30.9552 97.2822 30.9436V33.1516C97.2824 33.1406 97.2886 33.153 97.251 33.175C97.2155 33.1957 97.1578 33.2131 97.0879 33.2131H93.3008C93.2309 33.2131 93.1731 33.1957 93.1377 33.175C93.0998 33.1529 93.1063 33.1406 93.1064 33.1516V30.9436C93.1064 30.9552 93.0992 30.9426 93.1377 30.9202C93.1554 30.9099 93.1786 30.9006 93.2061 30.8938L93.3008 30.8831Z" fill="white" stroke="#0E1219" stroke-width="0.25" stroke-linecap="round"/>
<path d="M98.1416 30.8831H101.929C101.999 30.8831 102.056 30.8995 102.092 30.9202C102.13 30.9426 102.123 30.9552 102.123 30.9436V33.1516C102.123 33.1406 102.129 33.153 102.092 33.175C102.056 33.1957 101.999 33.2131 101.929 33.2131H98.1416C98.0717 33.2131 98.014 33.1957 97.9785 33.175C97.9407 33.1529 97.9471 33.1406 97.9473 33.1516V30.9436C97.9473 30.9552 97.94 30.9426 97.9785 30.9202C97.9962 30.9099 98.0195 30.9006 98.0469 30.8938L98.1416 30.8831Z" fill="white" stroke="#0E1219" stroke-width="0.25" stroke-linecap="round"/>
<path d="M102.982 30.8831H106.77C106.839 30.8831 106.897 30.8995 106.933 30.9202C106.971 30.9426 106.964 30.9552 106.964 30.9436V33.1516C106.964 33.1406 106.97 33.153 106.933 33.175C106.897 33.1957 106.839 33.2131 106.77 33.2131H102.982C102.912 33.2131 102.855 33.1957 102.819 33.175C102.781 33.1529 102.788 33.1406 102.788 33.1516V30.9436C102.788 30.9552 102.781 30.9426 102.819 30.9202C102.837 30.9099 102.86 30.9006 102.888 30.8938L102.982 30.8831Z" fill="white" stroke="#0E1219" stroke-width="0.25" stroke-linecap="round"/>
<path d="M107.81 30.8901H115.753C115.819 30.8901 115.872 30.9061 115.905 30.9252C115.923 30.9354 115.93 30.943 115.933 30.9467V33.1586C115.93 33.162 115.924 33.1703 115.905 33.1811C115.872 33.2002 115.819 33.2162 115.753 33.2162H107.81C107.743 33.2162 107.689 33.2003 107.656 33.1811C107.638 33.1702 107.631 33.162 107.629 33.1586V30.9467C107.628 30.9544 107.624 30.9439 107.656 30.9252C107.673 30.9156 107.695 30.9072 107.721 30.9008L107.81 30.8901Z" fill="white" stroke="#0E1219" stroke-width="0.25" stroke-linecap="round"/>
<path d="M44.8525 33.6248H51.0781C51.1508 33.6248 51.2106 33.6422 51.248 33.6639C51.2884 33.6874 51.2832 33.7019 51.2832 33.6922V35.952C51.2834 35.943 51.2879 35.957 51.248 35.9803C51.2106 36.002 51.1509 36.0193 51.0781 36.0193H44.8525C44.7796 36.0193 44.7191 36.0021 44.6816 35.9803C44.6421 35.9572 44.6473 35.943 44.6475 35.952V33.6922C44.6474 33.7019 44.6415 33.6873 44.6816 33.6639C44.7191 33.6421 44.7796 33.6248 44.8525 33.6248Z" fill="white" stroke="#0E1219" stroke-width="0.25" stroke-linecap="round"/>
<path d="M44.8164 36.4017H51.9873C52.0611 36.4018 52.1221 36.4196 52.1602 36.4417C52.2012 36.4657 52.1953 36.4803 52.1953 36.471V38.6175C52.1953 38.6083 52.2013 38.6228 52.1602 38.6468C52.1221 38.669 52.0611 38.6868 51.9873 38.6869H44.8164C44.7426 38.6869 44.6817 38.6689 44.6436 38.6468C44.6024 38.6228 44.6074 38.6083 44.6074 38.6175V36.471C44.6074 36.4803 44.6024 36.4658 44.6436 36.4417C44.6817 36.4196 44.7426 36.4017 44.8164 36.4017Z" fill="white" stroke="#0E1219" stroke-width="0.25" stroke-linecap="round"/>
<path d="M44.833 39.1461H49.6865C49.7611 39.1461 49.8227 39.1637 49.8613 39.1861C49.9031 39.2105 49.8984 39.2261 49.8984 39.2173V41.4556C49.8984 41.4469 49.903 41.4616 49.8613 41.4859C49.8227 41.5084 49.7613 41.5269 49.6865 41.5269H44.833C44.7582 41.5269 44.6969 41.5084 44.6582 41.4859C44.6164 41.4615 44.6211 41.4469 44.6211 41.4556V39.2173C44.6211 39.2261 44.6164 39.2105 44.6582 39.1861C44.6969 39.1637 44.7585 39.1461 44.833 39.1461Z" fill="white" stroke="#0E1219" stroke-width="0.25" stroke-linecap="round"/>
<path d="M44.8018 42.0356H49.9355C50.0055 42.0356 50.0632 42.0521 50.0986 42.0728C50.1369 42.0951 50.1299 42.1078 50.1299 42.0962V44.4165C50.1299 44.405 50.1366 44.4177 50.0986 44.4399C50.0632 44.4606 50.0055 44.4771 49.9355 44.4771H44.8018C44.7318 44.4771 44.6741 44.4606 44.6387 44.4399C44.6004 44.4176 44.6074 44.405 44.6074 44.4165V42.0962C44.6074 42.1078 44.6002 42.0952 44.6387 42.0728C44.6564 42.0624 44.6796 42.0532 44.707 42.0464L44.8018 42.0356Z" fill="white" stroke="#0E1219" stroke-width="0.25" stroke-linecap="round"/>
<path d="M50.8291 42.0356H55.9629C56.0325 42.0356 56.0895 42.0522 56.125 42.0728C56.1635 42.0952 56.1572 42.1078 56.1572 42.0962V44.4165C56.1573 44.405 56.1635 44.4175 56.125 44.4399C56.0895 44.4605 56.0326 44.4771 55.9629 44.4771H50.8291C50.7592 44.4771 50.7015 44.4606 50.666 44.4399C50.6277 44.4176 50.6347 44.405 50.6348 44.4165V42.0962C50.6348 42.1078 50.6275 42.0952 50.666 42.0728C50.6837 42.0624 50.707 42.0532 50.7344 42.0464L50.8291 42.0356Z" fill="white" stroke="#0E1219" stroke-width="0.25" stroke-linecap="round"/>
<path d="M56.8701 42.0356H103.678C103.748 42.0356 103.805 42.0521 103.841 42.0728C103.879 42.0952 103.872 42.1078 103.872 42.0962V44.4165C103.872 44.405 103.879 44.4176 103.841 44.4399C103.805 44.4606 103.748 44.4771 103.678 44.4771H56.8701C56.8002 44.4771 56.7425 44.4606 56.707 44.4399C56.6687 44.4176 56.6758 44.405 56.6758 44.4165V42.0962C56.6758 42.1078 56.6685 42.0952 56.707 42.0728C56.7425 42.0521 56.8002 42.0356 56.8701 42.0356Z" fill="white" stroke="#0E1219" stroke-width="0.25" stroke-linecap="round"/>
<path d="M104.569 42.0356H109.703C109.773 42.0356 109.83 42.0522 109.865 42.0728C109.904 42.0952 109.897 42.1078 109.897 42.0962V44.4165C109.897 44.405 109.904 44.4175 109.865 44.4399C109.83 44.4605 109.773 44.4771 109.703 44.4771H104.569C104.499 44.4771 104.442 44.4606 104.406 44.4399C104.368 44.4176 104.375 44.405 104.375 44.4165V42.0962C104.375 42.1078 104.368 42.0952 104.406 42.0728C104.424 42.0624 104.447 42.0532 104.475 42.0464L104.569 42.0356Z" fill="white" stroke="#0E1219" stroke-width="0.25" stroke-linecap="round"/>
<path d="M110.597 42.0356H115.73C115.8 42.0356 115.858 42.0521 115.894 42.0728C115.932 42.0951 115.925 42.1078 115.925 42.0962V44.4165C115.925 44.405 115.932 44.4177 115.894 44.4399C115.858 44.4606 115.8 44.4771 115.73 44.4771H110.597C110.527 44.4771 110.469 44.4606 110.434 44.4399C110.395 44.4176 110.402 44.405 110.402 44.4165V42.0962C110.402 42.1078 110.395 42.0952 110.434 42.0728C110.451 42.0624 110.475 42.0532 110.502 42.0464L110.597 42.0356Z" fill="white" stroke="#0E1219" stroke-width="0.25" stroke-linecap="round"/>
<path d="M103.902 39.1419H115.616C115.686 39.1419 115.743 39.1585 115.778 39.179C115.817 39.2015 115.811 39.2141 115.811 39.2025V41.4554C115.811 41.444 115.817 41.4565 115.778 41.4789C115.743 41.4994 115.686 41.516 115.616 41.516H103.902C103.832 41.516 103.775 41.4995 103.739 41.4789C103.701 41.4565 103.708 41.444 103.708 41.4554V39.2025C103.708 39.2141 103.701 39.2015 103.739 39.179C103.775 39.1584 103.832 39.1419 103.902 39.1419Z" fill="white" stroke="#0E1219" stroke-width="0.25" stroke-linecap="round"/>
<path d="M52.082 33.7095H55.8691C55.9391 33.7095 55.9968 33.726 56.0322 33.7466C56.0706 33.769 56.0635 33.7817 56.0635 33.7701V35.9781C56.0636 35.9671 56.0699 35.9795 56.0322 36.0015C55.9968 36.0222 55.9391 36.0396 55.8691 36.0396H52.082C52.0121 36.0396 51.9544 36.0222 51.9189 36.0015C51.8811 35.9794 51.8876 35.9671 51.8877 35.9781V33.7701C51.8877 33.7817 51.8804 33.7691 51.9189 33.7466C51.9366 33.7363 51.9599 33.727 51.9873 33.7203L52.082 33.7095Z" fill="white" stroke="#0E1219" stroke-width="0.25" stroke-linecap="round"/>
<path d="M56.8701 33.7095H60.6572C60.7272 33.7095 60.7849 33.726 60.8203 33.7466C60.8587 33.769 60.8516 33.7817 60.8516 33.7701V35.9781C60.8517 35.9671 60.8579 35.9795 60.8203 36.0015C60.7849 36.0222 60.7272 36.0396 60.6572 36.0396H56.8701C56.8002 36.0396 56.7425 36.0222 56.707 36.0015C56.6692 35.9794 56.6756 35.9671 56.6758 35.9781V33.7701C56.6758 33.7817 56.6685 33.7691 56.707 33.7466C56.7247 33.7363 56.748 33.727 56.7754 33.7203L56.8701 33.7095Z" fill="white" stroke="#0E1219" stroke-width="0.25" stroke-linecap="round"/>
<path d="M61.6436 33.7095H65.4307C65.5006 33.7095 65.5583 33.726 65.5938 33.7466C65.6321 33.769 65.625 33.7817 65.625 33.7701V35.9781C65.6251 35.9671 65.6314 35.9795 65.5938 36.0015C65.5583 36.0222 65.5006 36.0396 65.4307 36.0396H61.6436C61.5736 36.0396 61.5159 36.0222 61.4805 36.0015C61.4426 35.9794 61.4491 35.9671 61.4492 35.9781V33.7701C61.4492 33.7817 61.4419 33.7691 61.4805 33.7466C61.4982 33.7363 61.5214 33.727 61.5488 33.7203L61.6436 33.7095Z" fill="white" stroke="#0E1219" stroke-width="0.25" stroke-linecap="round"/>
<path d="M66.4307 33.7095H70.2178C70.2877 33.7095 70.3454 33.726 70.3809 33.7466C70.4192 33.769 70.4121 33.7817 70.4121 33.7701V35.9781C70.4122 35.9671 70.4185 35.9795 70.3809 36.0015C70.3454 36.0222 70.2877 36.0396 70.2178 36.0396H66.4307C66.3607 36.0396 66.303 36.0222 66.2676 36.0015C66.2297 35.9794 66.2362 35.9671 66.2363 35.9781V33.7701C66.2363 33.7817 66.2291 33.7691 66.2676 33.7466C66.2853 33.7363 66.3085 33.727 66.3359 33.7203L66.4307 33.7095Z" fill="white" stroke="#0E1219" stroke-width="0.25" stroke-linecap="round"/>
<path d="M71.2051 33.7095H74.9922C75.0621 33.7095 75.1198 33.726 75.1553 33.7466C75.1936 33.769 75.1865 33.7817 75.1865 33.7701V35.9781C75.1867 35.9671 75.1929 35.9795 75.1553 36.0015C75.1198 36.0222 75.0621 36.0396 74.9922 36.0396H71.2051C71.1351 36.0396 71.0774 36.0222 71.042 36.0015C71.0041 35.9794 71.0106 35.9671 71.0107 35.9781V33.7701C71.0107 33.7817 71.0035 33.7691 71.042 33.7466C71.0597 33.7363 71.0829 33.727 71.1104 33.7203L71.2051 33.7095Z" fill="white" stroke="#0E1219" stroke-width="0.25" stroke-linecap="round"/>
<path d="M75.9922 33.7095H79.7793C79.8492 33.7095 79.9069 33.726 79.9424 33.7466C79.9807 33.769 79.9736 33.7817 79.9736 33.7701V35.9781C79.9738 35.9671 79.98 35.9795 79.9424 36.0015C79.9069 36.0222 79.8492 36.0396 79.7793 36.0396H75.9922C75.9223 36.0396 75.8645 36.0222 75.8291 36.0015C75.7912 35.9794 75.7977 35.9671 75.7979 35.9781V33.7701C75.7979 33.7817 75.7906 33.7691 75.8291 33.7466C75.8468 33.7363 75.87 33.727 75.8975 33.7203L75.9922 33.7095Z" fill="white" stroke="#0E1219" stroke-width="0.25" stroke-linecap="round"/>
<path d="M80.7666 33.7095H84.5537C84.6236 33.7095 84.6814 33.726 84.7168 33.7466C84.7552 33.769 84.748 33.7817 84.748 33.7701V35.9781C84.7482 35.9671 84.7544 35.9795 84.7168 36.0015C84.6814 36.0222 84.6236 36.0396 84.5537 36.0396H80.7666C80.6967 36.0396 80.639 36.0222 80.6035 36.0015C80.5657 35.9794 80.5721 35.9671 80.5723 35.9781V33.7701C80.5723 33.7817 80.565 33.7691 80.6035 33.7466C80.6212 33.7363 80.6445 33.727 80.6719 33.7203L80.7666 33.7095Z" fill="white" stroke="#0E1219" stroke-width="0.25" stroke-linecap="round"/>
<path d="M85.5537 33.7095H89.3408C89.4107 33.7095 89.4685 33.726 89.5039 33.7466C89.5423 33.769 89.5352 33.7817 89.5352 33.7701V35.9781C89.5353 35.9671 89.5415 35.9795 89.5039 36.0015C89.4685 36.0222 89.4107 36.0396 89.3408 36.0396H85.5537C85.4838 36.0396 85.4261 36.0222 85.3906 36.0015C85.3528 35.9794 85.3592 35.9671 85.3594 35.9781V33.7701C85.3594 33.7817 85.3521 33.7691 85.3906 33.7466C85.4083 33.7363 85.4316 33.727 85.459 33.7203L85.5537 33.7095Z" fill="white" stroke="#0E1219" stroke-width="0.25" stroke-linecap="round"/>
<path d="M90.3271 33.7095H94.1143C94.1842 33.7095 94.2419 33.726 94.2773 33.7466C94.3157 33.769 94.3086 33.7817 94.3086 33.7701V35.9781C94.3087 35.9671 94.315 35.9795 94.2773 36.0015C94.2419 36.0222 94.1842 36.0396 94.1143 36.0396H90.3271C90.2572 36.0396 90.1995 36.0222 90.1641 36.0015C90.1262 35.9794 90.1327 35.9671 90.1328 35.9781V33.7701C90.1328 33.7817 90.1255 33.7691 90.1641 33.7466C90.1818 33.7363 90.205 33.727 90.2324 33.7203L90.3271 33.7095Z" fill="white" stroke="#0E1219" stroke-width="0.25" stroke-linecap="round"/>
<path d="M95.1143 33.7095H98.9014C98.9713 33.7095 99.029 33.726 99.0645 33.7466C99.1028 33.769 99.0957 33.7817 99.0957 33.7701V35.9781C99.0958 35.9671 99.1021 35.9795 99.0645 36.0015C99.029 36.0222 98.9713 36.0396 98.9014 36.0396H95.1143C95.0443 36.0396 94.9866 36.0222 94.9512 36.0015C94.9133 35.9794 94.9198 35.9671 94.9199 35.9781V33.7701C94.9199 33.7817 94.9127 33.7691 94.9512 33.7466C94.9689 33.7363 94.9921 33.727 95.0195 33.7203L95.1143 33.7095Z" fill="white" stroke="#0E1219" stroke-width="0.25" stroke-linecap="round"/>
<path d="M99.8887 33.7095H103.676C103.746 33.7095 103.803 33.726 103.839 33.7466C103.877 33.769 103.87 33.7817 103.87 33.7701V35.9781C103.87 35.9671 103.876 35.9795 103.839 36.0015C103.803 36.0222 103.746 36.0396 103.676 36.0396H99.8887C99.8187 36.0396 99.761 36.0222 99.7256 36.0015C99.6877 35.9794 99.6942 35.9671 99.6943 35.9781V33.7701C99.6943 33.7817 99.6871 33.7691 99.7256 33.7466C99.7433 33.7363 99.7665 33.727 99.7939 33.7203L99.8887 33.7095Z" fill="white" stroke="#0E1219" stroke-width="0.25" stroke-linecap="round"/>
<path d="M104.663 33.7095H108.45C108.52 33.7095 108.578 33.726 108.613 33.7466C108.652 33.769 108.645 33.7817 108.645 33.7701V35.9781C108.645 35.9671 108.651 35.9795 108.613 36.0015C108.578 36.0222 108.52 36.0396 108.45 36.0396H104.663C104.593 36.0396 104.535 36.0222 104.5 36.0015C104.462 35.9794 104.469 35.9671 104.469 35.9781V33.7701C104.469 33.7817 104.461 33.7691 104.5 33.7466C104.518 33.7363 104.541 33.727 104.568 33.7203L104.663 33.7095Z" fill="white" stroke="#0E1219" stroke-width="0.25" stroke-linecap="round"/>
<path d="M53.043 36.3343H56.8301C56.9 36.3343 56.9577 36.3507 56.9932 36.3714C57.0315 36.3938 57.0244 36.4064 57.0244 36.3948V38.6028C57.0246 38.5919 57.0308 38.6042 56.9932 38.6263C56.9577 38.6469 56.9 38.6644 56.8301 38.6644H53.043C52.973 38.6644 52.9153 38.6469 52.8799 38.6263C52.842 38.6041 52.8485 38.5918 52.8486 38.6028V36.3948C52.8486 36.4065 52.8414 36.3939 52.8799 36.3714C52.8976 36.3611 52.9208 36.3518 52.9482 36.345L53.043 36.3343Z" fill="white" stroke="#0E1219" stroke-width="0.25" stroke-linecap="round"/>
<path d="M57.8564 36.3343H61.6436C61.7135 36.3343 61.7712 36.3507 61.8066 36.3714C61.845 36.3938 61.8379 36.4064 61.8379 36.3948V38.6028C61.838 38.5919 61.8443 38.6042 61.8066 38.6263C61.7712 38.6469 61.7135 38.6644 61.6436 38.6644H57.8564C57.7865 38.6644 57.7288 38.6469 57.6934 38.6263C57.6555 38.6041 57.662 38.5918 57.6621 38.6028V36.3948C57.6621 36.4065 57.6548 36.3939 57.6934 36.3714C57.7111 36.3611 57.7343 36.3518 57.7617 36.345L57.8564 36.3343Z" fill="white" stroke="#0E1219" stroke-width="0.25" stroke-linecap="round"/>
<path d="M62.6709 36.3343H66.458C66.5279 36.3343 66.5857 36.3507 66.6211 36.3714C66.6595 36.3938 66.6523 36.4064 66.6523 36.3948V38.6028C66.6525 38.5919 66.6587 38.6042 66.6211 38.6263C66.5857 38.6469 66.5279 38.6644 66.458 38.6644H62.6709C62.601 38.6644 62.5432 38.6469 62.5078 38.6263C62.47 38.6041 62.4764 38.5918 62.4766 38.6028V36.3948C62.4766 36.4065 62.4693 36.3939 62.5078 36.3714C62.5255 36.3611 62.5488 36.3518 62.5762 36.345L62.6709 36.3343Z" fill="white" stroke="#0E1219" stroke-width="0.25" stroke-linecap="round"/>
<path d="M67.4844 36.3343H71.2715C71.3414 36.3343 71.3991 36.3507 71.4346 36.3714C71.4729 36.3938 71.4658 36.4064 71.4658 36.3948V38.6028C71.466 38.5919 71.4722 38.6042 71.4346 38.6263C71.3991 38.6469 71.3414 38.6644 71.2715 38.6644H67.4844C67.4144 38.6644 67.3567 38.6469 67.3213 38.6263C67.2834 38.6041 67.2899 38.5918 67.29 38.6028V36.3948C67.29 36.4065 67.2828 36.3939 67.3213 36.3714C67.339 36.3611 67.3622 36.3518 67.3896 36.345L67.4844 36.3343Z" fill="white" stroke="#0E1219" stroke-width="0.25" stroke-linecap="round"/>
<path d="M72.2979 36.3343H76.085C76.1549 36.3343 76.2126 36.3507 76.248 36.3714C76.2864 36.3938 76.2793 36.4064 76.2793 36.3948V38.6028C76.2794 38.5919 76.2857 38.6042 76.248 38.6263C76.2126 38.6469 76.1549 38.6644 76.085 38.6644H72.2979C72.2279 38.6644 72.1702 38.6469 72.1348 38.6263C72.0969 38.6041 72.1034 38.5918 72.1035 38.6028V36.3948C72.1035 36.4065 72.0962 36.3939 72.1348 36.3714C72.1525 36.3611 72.1757 36.3518 72.2031 36.345L72.2979 36.3343Z" fill="white" stroke="#0E1219" stroke-width="0.25" stroke-linecap="round"/>
<path d="M77.0986 36.3343H80.8857C80.9557 36.3343 81.0134 36.3507 81.0488 36.3714C81.0872 36.3938 81.0801 36.4064 81.0801 36.3948V38.6028C81.0802 38.5919 81.0865 38.6042 81.0488 38.6263C81.0134 38.6469 80.9557 38.6644 80.8857 38.6644H77.0986C77.0287 38.6644 76.971 38.6469 76.9355 38.6263C76.8977 38.6041 76.9042 38.5918 76.9043 38.6028V36.3948C76.9043 36.4065 76.897 36.3939 76.9355 36.3714C76.9532 36.3611 76.9765 36.3518 77.0039 36.345L77.0986 36.3343Z" fill="white" stroke="#0E1219" stroke-width="0.25" stroke-linecap="round"/>
<path d="M81.9131 36.3343H85.7002C85.7701 36.3343 85.8278 36.3507 85.8633 36.3714C85.9016 36.3938 85.8945 36.4064 85.8945 36.3948V38.6028C85.8947 38.5919 85.9009 38.6042 85.8633 38.6263C85.8278 38.6469 85.7701 38.6644 85.7002 38.6644H81.9131C81.8432 38.6644 81.7854 38.6469 81.75 38.6263C81.7121 38.6041 81.7186 38.5918 81.7188 38.6028V36.3948C81.7188 36.4065 81.7115 36.3939 81.75 36.3714C81.7677 36.3611 81.7909 36.3518 81.8184 36.345L81.9131 36.3343Z" fill="white" stroke="#0E1219" stroke-width="0.25" stroke-linecap="round"/>
<path d="M86.7266 36.3343H90.5137C90.5836 36.3343 90.6413 36.3507 90.6768 36.3714C90.7151 36.3938 90.708 36.4064 90.708 36.3948V38.6028C90.7081 38.5919 90.7144 38.6042 90.6768 38.6263C90.6413 38.6469 90.5836 38.6644 90.5137 38.6644H86.7266C86.6566 38.6644 86.5989 38.6469 86.5635 38.6263C86.5256 38.6041 86.5321 38.5918 86.5322 38.6028V36.3948C86.5322 36.4065 86.525 36.3939 86.5635 36.3714C86.5812 36.3611 86.6044 36.3518 86.6318 36.345L86.7266 36.3343Z" fill="white" stroke="#0E1219" stroke-width="0.25" stroke-linecap="round"/>
<path d="M91.541 36.3343H95.3281C95.3981 36.3343 95.4558 36.3507 95.4912 36.3714C95.5296 36.3938 95.5225 36.4064 95.5225 36.3948V38.6028C95.5226 38.5919 95.5288 38.6042 95.4912 38.6263C95.4558 38.6469 95.3981 38.6644 95.3281 38.6644H91.541C91.4711 38.6644 91.4134 38.6469 91.3779 38.6263C91.3401 38.6041 91.3465 38.5918 91.3467 38.6028V36.3948C91.3467 36.4065 91.3394 36.3939 91.3779 36.3714C91.3956 36.3611 91.4189 36.3518 91.4463 36.345L91.541 36.3343Z" fill="white" stroke="#0E1219" stroke-width="0.25" stroke-linecap="round"/>
<path d="M96.3545 36.3343H100.142C100.212 36.3343 100.269 36.3507 100.305 36.3714C100.343 36.3938 100.336 36.4064 100.336 36.3948V38.6028C100.336 38.5919 100.342 38.6042 100.305 38.6263C100.269 38.6469 100.212 38.6644 100.142 38.6644H96.3545C96.2846 38.6644 96.2268 38.6469 96.1914 38.6263C96.1536 38.6041 96.16 38.5918 96.1602 38.6028V36.3948C96.1602 36.4065 96.1529 36.3939 96.1914 36.3714C96.2091 36.3611 96.2323 36.3518 96.2598 36.345L96.3545 36.3343Z" fill="white" stroke="#0E1219" stroke-width="0.25" stroke-linecap="round"/>
<path d="M101.169 36.3343H104.956C105.026 36.3343 105.084 36.3507 105.119 36.3714C105.158 36.3938 105.15 36.4064 105.15 36.3948V38.6028C105.151 38.5919 105.157 38.6042 105.119 38.6263C105.084 38.6469 105.026 38.6644 104.956 38.6644H101.169C101.099 38.6644 101.041 38.6469 101.006 38.6263C100.968 38.6041 100.974 38.5918 100.975 38.6028V36.3948C100.975 36.4065 100.967 36.3939 101.006 36.3714C101.024 36.3611 101.047 36.3518 101.074 36.345L101.169 36.3343Z" fill="white" stroke="#0E1219" stroke-width="0.25" stroke-linecap="round"/>
<path d="M105.983 36.3343H109.771C109.84 36.3343 109.898 36.3507 109.934 36.3714C109.972 36.3938 109.965 36.4064 109.965 36.3948V38.6028C109.965 38.5919 109.971 38.6042 109.934 38.6263C109.898 38.6469 109.84 38.6644 109.771 38.6644H105.983C105.913 38.6644 105.856 38.6469 105.82 38.6263C105.782 38.6041 105.789 38.5918 105.789 38.6028V36.3948C105.789 36.4065 105.782 36.3939 105.82 36.3714C105.838 36.3611 105.861 36.3518 105.889 36.345L105.983 36.3343Z" fill="white" stroke="#0E1219" stroke-width="0.25" stroke-linecap="round"/>
<path d="M50.749 39.1607H54.5361C54.6061 39.1607 54.6638 39.1771 54.6992 39.1978C54.7376 39.2202 54.7305 39.2328 54.7305 39.2212V41.4292C54.7306 41.4183 54.7368 41.4306 54.6992 41.4527C54.6638 41.4733 54.6061 41.4908 54.5361 41.4908H50.749C50.6791 41.4908 50.6214 41.4733 50.5859 41.4527C50.5481 41.4305 50.5546 41.4182 50.5547 41.4292V39.2212C50.5547 39.2328 50.5474 39.2202 50.5859 39.1978C50.6036 39.1875 50.6269 39.1782 50.6543 39.1714L50.749 39.1607Z" fill="white" stroke="#0E1219" stroke-width="0.25" stroke-linecap="round"/>
<path d="M55.5762 39.1607H59.3633C59.4332 39.1607 59.4909 39.1771 59.5264 39.1978C59.5647 39.2202 59.5576 39.2328 59.5576 39.2212V41.4292C59.5578 41.4183 59.564 41.4306 59.5264 41.4527C59.4909 41.4733 59.4332 41.4908 59.3633 41.4908H55.5762C55.5062 41.4908 55.4485 41.4733 55.4131 41.4527C55.3752 41.4305 55.3817 41.4182 55.3818 41.4292V39.2212C55.3818 39.2328 55.3746 39.2202 55.4131 39.1978C55.4308 39.1875 55.454 39.1782 55.4814 39.1714L55.5762 39.1607Z" fill="white" stroke="#0E1219" stroke-width="0.25" stroke-linecap="round"/>
<path d="M60.417 39.1607H64.2041C64.274 39.1607 64.3318 39.1771 64.3672 39.1978C64.4056 39.2202 64.3984 39.2328 64.3984 39.2212V41.4292C64.3986 41.4183 64.4048 41.4306 64.3672 41.4527C64.3318 41.4733 64.274 41.4908 64.2041 41.4908H60.417C60.3471 41.4908 60.2893 41.4733 60.2539 41.4527C60.2161 41.4305 60.2225 41.4182 60.2227 41.4292V39.2212C60.2227 39.2328 60.2154 39.2202 60.2539 39.1978C60.2716 39.1875 60.2948 39.1782 60.3223 39.1714L60.417 39.1607Z" fill="white" stroke="#0E1219" stroke-width="0.25" stroke-linecap="round"/>
<path d="M65.2441 39.1607H69.0312C69.1012 39.1607 69.1589 39.1771 69.1943 39.1978C69.2327 39.2202 69.2256 39.2328 69.2256 39.2212V41.4292C69.2257 41.4183 69.232 41.4306 69.1943 41.4527C69.1589 41.4733 69.1012 41.4908 69.0312 41.4908H65.2441C65.1742 41.4908 65.1165 41.4733 65.0811 41.4527C65.0432 41.4305 65.0497 41.4182 65.0498 41.4292V39.2212C65.0498 39.2328 65.0425 39.2202 65.0811 39.1978C65.0988 39.1875 65.122 39.1782 65.1494 39.1714L65.2441 39.1607Z" fill="white" stroke="#0E1219" stroke-width="0.25" stroke-linecap="round"/>
<path d="M70.085 39.1607H73.8721C73.942 39.1607 73.9997 39.1771 74.0352 39.1978C74.0735 39.2202 74.0664 39.2328 74.0664 39.2212V41.4292C74.0665 41.4183 74.0728 41.4306 74.0352 41.4527C73.9997 41.4733 73.942 41.4908 73.8721 41.4908H70.085C70.015 41.4908 69.9573 41.4733 69.9219 41.4527C69.884 41.4305 69.8905 41.4182 69.8906 41.4292V39.2212C69.8906 39.2328 69.8834 39.2202 69.9219 39.1978C69.9396 39.1875 69.9628 39.1782 69.9902 39.1714L70.085 39.1607Z" fill="white" stroke="#0E1219" stroke-width="0.25" stroke-linecap="round"/>
<path d="M74.9121 39.1607H78.6992C78.7691 39.1607 78.8269 39.1771 78.8623 39.1978C78.9007 39.2202 78.8936 39.2328 78.8936 39.2212V41.4292C78.8937 41.4183 78.8999 41.4306 78.8623 41.4527C78.8269 41.4733 78.7691 41.4908 78.6992 41.4908H74.9121C74.8422 41.4908 74.7845 41.4733 74.749 41.4527C74.7112 41.4305 74.7176 41.4182 74.7178 41.4292V39.2212C74.7178 39.2328 74.7105 39.2202 74.749 39.1978C74.7667 39.1875 74.79 39.1782 74.8174 39.1714L74.9121 39.1607Z" fill="white" stroke="#0E1219" stroke-width="0.25" stroke-linecap="round"/>
<path d="M79.7393 39.1607H83.5264C83.5963 39.1607 83.654 39.1771 83.6895 39.1978C83.7278 39.2202 83.7207 39.2328 83.7207 39.2212V41.4292C83.7208 41.4183 83.7271 41.4306 83.6895 41.4527C83.654 41.4733 83.5963 41.4908 83.5264 41.4908H79.7393C79.6693 41.4908 79.6116 41.4733 79.5762 41.4527C79.5383 41.4305 79.5448 41.4182 79.5449 41.4292V39.2212C79.5449 39.2328 79.5377 39.2202 79.5762 39.1978C79.5939 39.1875 79.6171 39.1782 79.6445 39.1714L79.7393 39.1607Z" fill="white" stroke="#0E1219" stroke-width="0.25" stroke-linecap="round"/>
<path d="M84.5801 39.1607H88.3672C88.4371 39.1607 88.4948 39.1771 88.5303 39.1978C88.5686 39.2202 88.5615 39.2328 88.5615 39.2212V41.4292C88.5617 41.4183 88.5679 41.4306 88.5303 41.4527C88.4948 41.4733 88.4371 41.4908 88.3672 41.4908H84.5801C84.5101 41.4908 84.4524 41.4733 84.417 41.4527C84.3791 41.4305 84.3856 41.4182 84.3857 41.4292V39.2212C84.3857 39.2328 84.3785 39.2202 84.417 39.1978C84.4347 39.1875 84.4579 39.1782 84.4854 39.1714L84.5801 39.1607Z" fill="white" stroke="#0E1219" stroke-width="0.25" stroke-linecap="round"/>
<path d="M89.4072 39.1607H93.1943C93.2643 39.1607 93.322 39.1771 93.3574 39.1978C93.3958 39.2202 93.3887 39.2328 93.3887 39.2212V41.4292C93.3888 41.4183 93.395 41.4306 93.3574 41.4527C93.322 41.4733 93.2643 41.4908 93.1943 41.4908H89.4072C89.3373 41.4908 89.2796 41.4733 89.2441 41.4527C89.2063 41.4305 89.2128 41.4182 89.2129 41.4292V39.2212C89.2129 39.2328 89.2056 39.2202 89.2441 39.1978C89.2618 39.1875 89.2851 39.1782 89.3125 39.1714L89.4072 39.1607Z" fill="white" stroke="#0E1219" stroke-width="0.25" stroke-linecap="round"/>
<path d="M94.248 39.1607H98.0352C98.1051 39.1607 98.1628 39.1771 98.1982 39.1978C98.2366 39.2202 98.2295 39.2328 98.2295 39.2212V41.4292C98.2296 41.4183 98.2359 41.4306 98.1982 41.4527C98.1628 41.4733 98.1051 41.4908 98.0352 41.4908H94.248C94.1781 41.4908 94.1204 41.4733 94.085 41.4527C94.0471 41.4305 94.0536 41.4182 94.0537 41.4292V39.2212C94.0537 39.2328 94.0464 39.2202 94.085 39.1978C94.1027 39.1875 94.1259 39.1782 94.1533 39.1714L94.248 39.1607Z" fill="white" stroke="#0E1219" stroke-width="0.25" stroke-linecap="round"/>
<path d="M99.0752 39.1607H102.862C102.932 39.1607 102.99 39.1771 103.025 39.1978C103.064 39.2202 103.057 39.2328 103.057 39.2212V41.4292C103.057 41.4183 103.063 41.4306 103.025 41.4527C102.99 41.4733 102.932 41.4908 102.862 41.4908H99.0752C99.0053 41.4908 98.9475 41.4733 98.9121 41.4527C98.8743 41.4305 98.8807 41.4182 98.8809 41.4292V39.2212C98.8809 39.2328 98.8736 39.2202 98.9121 39.1978C98.9298 39.1875 98.953 39.1782 98.9805 39.1714L99.0752 39.1607Z" fill="white" stroke="#0E1219" stroke-width="0.25" stroke-linecap="round"/>
<path d="M109.451 33.7578H115.852C115.92 33.7578 115.977 33.7747 116.014 33.7958C116.043 33.8132 116.047 33.8252 116.047 33.8251V38.6298C116.047 38.6168 116.055 38.6294 116.015 38.6523C115.978 38.673 115.92 38.6894 115.852 38.6894H110.718C110.649 38.6894 110.591 38.6731 110.555 38.6523C110.515 38.6294 110.522 38.6168 110.522 38.6298V36.2558C110.524 36.2515 110.526 36.2453 110.528 36.2392C110.532 36.2286 110.536 36.2118 110.536 36.1913V36.0663H109.451C109.375 36.0663 109.318 36.049 109.285 36.0292C109.251 36.0087 109.256 35.9962 109.256 36.0038V33.8203C109.256 33.8275 109.251 33.8152 109.285 33.7949C109.318 33.7751 109.375 33.7578 109.451 33.7578Z" fill="white" stroke="#0E1219" stroke-width="0.25" stroke-linecap="round"/>
<rect width="45.7143" height="40" transform="translate(26.1426 51)" fill="white"/>
<path d="M51.1356 82.3722L61.0901 82.1749C61.7524 82.1617 62.2964 82.695 62.2964 83.3575C62.2964 83.8433 61.9911 84.2831 61.5391 84.4611C49.7832 89.0926 49.2784 89.1022 36.5441 84.9345C36.0596 84.7759 35.723 84.3208 35.723 83.811C35.723 83.1684 36.2375 82.6441 36.8799 82.6319L46.3524 82.4527M51.1356 82.3722V79.6362M51.1356 82.3722L46.3524 82.4527M51.1356 79.6362C54.1238 79.6362 56.8129 79.6362 60.2963 79.6362C61.4008 79.6362 62.2964 78.7407 62.2964 77.6362V72.5951M51.1356 79.6362C49.8924 79.6362 47.6002 79.6462 46.3524 79.6462M46.3524 82.4527V79.6462M46.3524 79.6462C43.5317 79.6462 40.9882 79.6392 37.7235 79.6369C36.6189 79.6361 35.723 78.7407 35.723 77.6362V72.5951M33.2366 72.5951V76.87C33.2366 77.5644 32.2051 78.1274 31.4713 78.1274C30.7374 78.1274 30.1426 77.5644 30.1426 76.87V65.8054C30.1426 65.111 30.7374 64.5481 31.4713 64.5481C32.2051 64.5481 33.2366 65.111 33.2366 65.8054V70.5834M33.2366 72.5951H35.723M33.2366 72.5951V70.5834M35.723 72.5951V70.5834M33.2366 70.5834H35.723M35.723 70.5834V60.2221C35.723 59.4802 36.1343 58.7955 36.7972 58.4622C45.1352 54.2699 51.5092 53.62 61.1535 57.9802C61.8545 58.2971 62.2964 59.0023 62.2964 59.7716V70.5834M64.9538 72.5951V77.1215C64.9538 77.8159 66.0801 78.1274 66.8139 78.1274C67.5477 78.1274 68.1426 77.5644 68.1426 76.87V65.8054C68.1426 65.111 67.5477 64.5481 66.8139 64.5481C66.0801 64.5481 64.9538 65.3625 64.9538 66.0569V70.5834M64.9538 72.5951H62.2964M64.9538 72.5951V70.5834M62.2964 72.5951V70.5834M64.9538 70.5834H62.2964" stroke="black" stroke-miterlimit="2" stroke-linecap="round" stroke-linejoin="round"/>
<g clip-path="url(#clip1_1357_5187)">
<rect width="40" height="40" transform="translate(102 50)" fill="white"/>
<path d="M123.993 81.3722L133.948 81.1749C134.61 81.1617 135.154 81.695 135.154 82.3575C135.154 82.8433 134.849 83.2831 134.397 83.4611C122.641 88.0926 122.136 88.1022 109.402 83.9345C108.917 83.7759 108.58 83.3208 108.58 82.811C108.58 82.1684 109.095 81.6441 109.737 81.6319L119.21 81.4527M123.993 81.3722V78.6362M123.993 81.3722L119.21 81.4527M123.993 78.6362C126.981 78.6362 129.67 78.6362 133.154 78.6362C134.258 78.6362 135.154 77.7407 135.154 76.6362V71.5951M123.993 78.6362C122.75 78.6362 120.458 78.6462 119.21 78.6462M119.21 81.4527V78.6462M119.21 78.6462C116.389 78.6462 113.846 78.6392 110.581 78.6369C109.476 78.6361 108.58 77.7407 108.58 76.6362V71.5951M106.094 71.5951V75.87C106.094 76.5644 105.062 77.1274 104.329 77.1274C103.595 77.1274 103 76.5644 103 75.87V64.8054C103 64.111 103.595 63.5481 104.329 63.5481C105.062 63.5481 106.094 64.111 106.094 64.8054V69.5834M106.094 71.5951H108.58M106.094 71.5951V69.5834M108.58 71.5951V69.5834M106.094 69.5834H108.58M108.58 69.5834V59.2221C108.58 58.4802 108.992 57.7955 109.655 57.4622C117.993 53.2699 124.367 52.62 134.011 56.9802C134.712 57.2971 135.154 58.0023 135.154 58.7716V69.5834M137.811 71.5951V76.1215C137.811 76.8159 138.938 77.1274 139.671 77.1274C140.405 77.1274 141 76.5644 141 75.87V64.8054C141 64.111 140.405 63.5481 139.671 63.5481C138.938 63.5481 137.811 64.3625 137.811 65.0569V69.5834M137.811 71.5951H135.154M137.811 71.5951V69.5834M135.154 71.5951V69.5834M137.811 69.5834H135.154" stroke="black" stroke-miterlimit="2" stroke-linecap="round" stroke-linejoin="round"/>
</g>
<defs>
<clipPath id="clip0_1357_5187">
<rect width="30" height="30" fill="white" transform="translate(5 16)"/>
</clipPath>
<clipPath id="clip1_1357_5187">
<rect width="40" height="40" fill="white" transform="translate(102 50)"/>
</clipPath>
</defs>
</svg>
