<svg width="160" height="83" viewBox="0 0 160 83" fill="none" xmlns="http://www.w3.org/2000/svg">
<path d="M6 0.5H154C157.038 0.5 159.5 2.96243 159.5 6V40.4785C159.5 43.516 157.038 45.9785 154 45.9785H6C2.96248 45.9785 0.500066 43.516 0.5 40.4785V6C0.5 2.96243 2.96243 0.5 6 0.5Z" fill="#CCB4E9" stroke="#47505B"/>
<rect x="3.67871" y="2.93146" width="152.643" height="40.6155" rx="3.75" fill="#EFE7F6" stroke="#47505B" stroke-width="0.5"/>
<path d="M123.217 9.83197H48.2113C46.9306 9.83197 45.9799 11.0189 46.2596 12.2687L47.3646 17.2068C47.569 18.1205 48.38 18.7701 49.3163 18.7701H122.112C123.049 18.7701 123.86 18.1205 124.064 17.2068L125.169 12.2687C125.449 11.0189 124.498 9.83197 123.217 9.83197Z" fill="#FEFEFE" stroke="#47505B"/>
<path d="M74.2856 18.7701C78.8571 23.6861 91.9999 24.133 97.1428 18.7701" stroke="#47505B"/>
<path d="M46.8569 12.9603L125.714 12.5134" stroke="#47505B" stroke-width="0.5"/>
<path d="M132.139 30.6277H130.489C129.347 30.6277 128.422 31.1775 128.422 31.8558V36.3121C128.422 36.9904 129.347 37.5402 130.489 37.5402H132.139C133.28 37.5402 134.205 36.9904 134.205 36.3121V31.8558C134.205 31.1775 133.28 30.6277 132.139 30.6277Z" fill="#FEFEFE" stroke="#47505B" stroke-width="0.5" stroke-linecap="round" stroke-linejoin="round"/>
<path d="M128.531 32.6758H133.987" stroke="#47505B" stroke-width="0.5"/>
<path d="M131.259 30.7983V32.5905" stroke="#47505B" stroke-width="0.5"/>
<path d="M131.396 30.3703C131.396 30.3703 132.212 29.3625 131.367 28.8231C130.376 28.1895 129.449 29.4465 128 28.6021" stroke="#47505B" stroke-width="0.5" stroke-linecap="round"/>
<path d="M48.0295 26.8146H121.052C121.319 26.8146 121.546 26.9258 121.546 27.0647V40.2307C121.546 40.3694 121.319 40.481 121.052 40.481H48.0295C47.7628 40.481 47.5361 40.3694 47.5361 40.2306V27.0646C47.5361 26.9256 47.7628 26.8145 48.0295 26.8145V26.8146Z" fill="#FEFEFE" stroke="#47505B" stroke-width="0.6" stroke-linecap="round"/>
<path d="M48.936 27.617H52.7231C52.7952 27.617 52.8546 27.6322 52.8911 27.6512C52.9066 27.6593 52.914 27.6662 52.9175 27.6698V29.62C52.914 29.6235 52.9068 29.6303 52.8911 29.6385C52.8546 29.6575 52.7953 29.6727 52.7231 29.6727H48.936C48.864 29.6727 48.8046 29.6575 48.7681 29.6385C48.7526 29.6305 48.7452 29.6235 48.7417 29.62V27.6698C48.7453 27.6662 48.7527 27.6592 48.7681 27.6512C48.7863 27.6418 48.8101 27.633 48.8384 27.6268L48.936 27.617Z" fill="#FEFEFE" stroke="#47505B" stroke-width="0.25" stroke-linecap="round"/>
<path d="M53.7896 27.617H57.5767C57.6487 27.617 57.7081 27.6322 57.7446 27.6512C57.7602 27.6593 57.7675 27.6662 57.771 27.6698V29.62C57.7675 29.6235 57.7603 29.6303 57.7446 29.6385C57.7081 29.6575 57.6488 29.6727 57.5767 29.6727H53.7896C53.7176 29.6727 53.6581 29.6575 53.6216 29.6385C53.6061 29.6305 53.5987 29.6235 53.5952 29.62V27.6698C53.5988 27.6662 53.6063 27.6592 53.6216 27.6512C53.6398 27.6418 53.6637 27.633 53.6919 27.6268L53.7896 27.617Z" fill="#FEFEFE" stroke="#47505B" stroke-width="0.25" stroke-linecap="round"/>
<path d="M58.5366 27.617H62.3237C62.3958 27.617 62.4552 27.6322 62.4917 27.6512C62.5072 27.6593 62.5146 27.6662 62.5181 27.6698V29.62C62.5146 29.6235 62.5074 29.6303 62.4917 29.6385C62.4552 29.6575 62.3959 29.6727 62.3237 29.6727H58.5366C58.4646 29.6727 58.4052 29.6575 58.3687 29.6385C58.3532 29.6305 58.3458 29.6235 58.3423 29.62V27.6698C58.3458 27.6662 58.3533 27.6592 58.3687 27.6512C58.3869 27.6418 58.4107 27.633 58.439 27.6268L58.5366 27.617Z" fill="#FEFEFE" stroke="#47505B" stroke-width="0.25" stroke-linecap="round"/>
<path d="M63.4844 27.617H67.2715C67.3436 27.617 67.4029 27.6322 67.4395 27.6512C67.455 27.6593 67.4623 27.6662 67.4658 27.6698V29.62C67.4624 29.6235 67.4551 29.6303 67.4395 29.6385C67.4029 29.6575 67.3436 29.6727 67.2715 29.6727H63.4844C63.4124 29.6727 63.3529 29.6575 63.3164 29.6385C63.3009 29.6305 63.2936 29.6235 63.29 29.62V27.6698C63.2936 27.6662 63.3011 27.6592 63.3164 27.6512C63.3346 27.6418 63.3585 27.633 63.3867 27.6268L63.4844 27.617Z" fill="#FEFEFE" stroke="#47505B" stroke-width="0.25" stroke-linecap="round"/>
<path d="M68.3247 27.617H72.1118C72.1839 27.617 72.2433 27.6322 72.2798 27.6512C72.2953 27.6593 72.3027 27.6662 72.3062 27.6698V29.62C72.3027 29.6235 72.2955 29.6303 72.2798 29.6385C72.2433 29.6575 72.184 29.6727 72.1118 29.6727H68.3247C68.2527 29.6727 68.1933 29.6575 68.1567 29.6385C68.1413 29.6305 68.1339 29.6235 68.1304 29.62V27.6698C68.1339 27.6662 68.1414 27.6592 68.1567 27.6512C68.175 27.6418 68.1988 27.633 68.2271 27.6268L68.3247 27.617Z" fill="#FEFEFE" stroke="#47505B" stroke-width="0.25" stroke-linecap="round"/>
<path d="M73.165 27.617H76.9521C77.0242 27.617 77.0836 27.6322 77.1201 27.6512C77.1356 27.6593 77.143 27.6662 77.1465 27.6698V29.62C77.143 29.6235 77.1358 29.6303 77.1201 29.6385C77.0836 29.6575 77.0243 29.6727 76.9521 29.6727H73.165C73.093 29.6727 73.0336 29.6575 72.9971 29.6385C72.9816 29.6305 72.9742 29.6235 72.9707 29.62V27.6698C72.9743 27.6662 72.9817 27.6592 72.9971 27.6512C73.0153 27.6418 73.0391 27.633 73.0674 27.6268L73.165 27.617Z" fill="#FEFEFE" stroke="#47505B" stroke-width="0.25" stroke-linecap="round"/>
<path d="M78.0195 27.617H81.8066C81.8787 27.617 81.9381 27.6322 81.9746 27.6512C81.9901 27.6593 81.9975 27.6662 82.001 27.6698V29.62C81.9975 29.6235 81.9903 29.6303 81.9746 29.6385C81.9381 29.6575 81.8788 29.6727 81.8066 29.6727H78.0195C77.9475 29.6727 77.8881 29.6575 77.8516 29.6385C77.8361 29.6305 77.8287 29.6235 77.8252 29.62V27.6698C77.8288 27.6662 77.8362 27.6592 77.8516 27.6512C77.8698 27.6418 77.8936 27.633 77.9219 27.6268L78.0195 27.617Z" fill="#FEFEFE" stroke="#47505B" stroke-width="0.25" stroke-linecap="round"/>
<path d="M82.8599 27.617H86.647C86.7191 27.617 86.7784 27.6322 86.8149 27.6512C86.8305 27.6593 86.8378 27.6662 86.8413 27.6698V29.62C86.8379 29.6235 86.8306 29.6303 86.8149 29.6385C86.7784 29.6575 86.7191 29.6727 86.647 29.6727H82.8599C82.7879 29.6727 82.7284 29.6575 82.6919 29.6385C82.6764 29.6305 82.669 29.6235 82.6655 29.62V27.6698C82.6691 27.6662 82.6766 27.6592 82.6919 27.6512C82.7101 27.6418 82.734 27.633 82.7622 27.6268L82.8599 27.617Z" fill="#FEFEFE" stroke="#47505B" stroke-width="0.25" stroke-linecap="round"/>
<path d="M87.7139 27.617H91.501C91.5731 27.617 91.6324 27.6322 91.6689 27.6512C91.6845 27.6593 91.6918 27.6662 91.6953 27.6698V29.62C91.6919 29.6235 91.6846 29.6303 91.6689 29.6385C91.6324 29.6575 91.5731 29.6727 91.501 29.6727H87.7139C87.6419 29.6727 87.5824 29.6575 87.5459 29.6385C87.5304 29.6305 87.523 29.6235 87.5195 29.62V27.6698C87.5231 27.6662 87.5306 27.6592 87.5459 27.6512C87.5641 27.6418 87.588 27.633 87.6162 27.6268L87.7139 27.617Z" fill="#FEFEFE" stroke="#47505B" stroke-width="0.25" stroke-linecap="round"/>
<path d="M92.5547 27.617H96.3418C96.4139 27.617 96.4733 27.6322 96.5098 27.6512C96.5253 27.6593 96.5326 27.6662 96.5361 27.6698V29.62C96.5327 29.6235 96.5254 29.6303 96.5098 29.6385C96.4733 29.6575 96.4139 29.6727 96.3418 29.6727H92.5547C92.4827 29.6727 92.4232 29.6575 92.3867 29.6385C92.3712 29.6305 92.3639 29.6235 92.3604 29.62V27.6698C92.3639 27.6662 92.3714 27.6592 92.3867 27.6512C92.405 27.6418 92.4288 27.633 92.457 27.6268L92.5547 27.617Z" fill="#FEFEFE" stroke="#47505B" stroke-width="0.25" stroke-linecap="round"/>
<path d="M97.4087 27.617H101.196C101.268 27.617 101.327 27.6322 101.364 27.6512C101.379 27.6593 101.387 27.6662 101.39 27.6698V29.62C101.387 29.6235 101.379 29.6303 101.364 29.6385C101.327 29.6575 101.268 29.6727 101.196 29.6727H97.4087C97.3367 29.6727 97.2772 29.6575 97.2407 29.6385C97.2252 29.6305 97.2179 29.6235 97.2144 29.62V27.6698C97.2179 27.6662 97.2254 27.6592 97.2407 27.6512C97.259 27.6418 97.2828 27.633 97.311 27.6268L97.4087 27.617Z" fill="#FEFEFE" stroke="#47505B" stroke-width="0.25" stroke-linecap="round"/>
<path d="M102.25 27.617H106.037C106.109 27.617 106.168 27.6322 106.205 27.6512C106.22 27.6593 106.227 27.6662 106.231 27.6698V29.62C106.228 29.6235 106.22 29.6303 106.205 29.6385C106.168 29.6575 106.109 29.6727 106.037 29.6727H102.25C102.178 29.6727 102.118 29.6575 102.082 29.6385C102.066 29.6305 102.059 29.6235 102.055 29.62V27.6698C102.059 27.6662 102.066 27.6592 102.082 27.6512C102.1 27.6418 102.124 27.633 102.152 27.6268L102.25 27.617Z" fill="#FEFEFE" stroke="#47505B" stroke-width="0.25" stroke-linecap="round"/>
<path d="M107.09 27.617H110.877C110.949 27.617 111.008 27.6322 111.045 27.6512C111.06 27.6593 111.068 27.6662 111.071 27.6698V29.62C111.068 29.6235 111.061 29.6303 111.045 29.6385C111.008 29.6575 110.949 29.6727 110.877 29.6727H107.09C107.018 29.6727 106.958 29.6575 106.922 29.6385C106.906 29.6305 106.899 29.6235 106.896 29.62V27.6698C106.899 27.6662 106.907 27.6592 106.922 27.6512C106.94 27.6418 106.964 27.633 106.992 27.6268L107.09 27.617Z" fill="#FEFEFE" stroke="#47505B" stroke-width="0.25" stroke-linecap="round"/>
<path d="M111.917 27.6233H119.86C119.928 27.6233 119.984 27.6378 120.018 27.6555C120.03 27.6618 120.036 27.6679 120.04 27.6711V29.6272C120.036 29.6304 120.031 29.6372 120.018 29.6438C119.984 29.6615 119.928 29.676 119.86 29.676H111.917C111.848 29.676 111.792 29.6614 111.758 29.6438C111.745 29.6371 111.739 29.6304 111.736 29.6272V27.6711C111.739 27.6679 111.746 27.6619 111.758 27.6555C111.775 27.6468 111.797 27.6389 111.824 27.6331L111.917 27.6233Z" fill="#FEFEFE" stroke="#47505B" stroke-width="0.25" stroke-linecap="round"/>
<path d="M48.96 30.0677H55.1855C55.2607 30.0677 55.3229 30.0837 55.3613 30.1038C55.3791 30.1131 55.3872 30.1205 55.3906 30.1243V32.1243C55.3874 32.128 55.3799 32.1361 55.3613 32.1458C55.3229 32.1658 55.2607 32.1819 55.1855 32.1819H48.96C48.8848 32.1819 48.8227 32.1658 48.7842 32.1458C48.7657 32.1362 48.7582 32.128 48.7549 32.1243V30.1243C48.7584 30.1204 48.7664 30.113 48.7842 30.1038C48.8227 30.0837 48.8848 30.0677 48.96 30.0677Z" fill="#FEFEFE" stroke="#47505B" stroke-width="0.25" stroke-linecap="round"/>
<path d="M48.9238 32.5497H56.0947C56.1708 32.5497 56.2333 32.5664 56.2725 32.5868C56.2904 32.5961 56.299 32.6032 56.3027 32.6073V34.5067C56.2994 34.5105 56.2914 34.5183 56.2725 34.5282C56.2333 34.5486 56.1708 34.5652 56.0947 34.5653H48.9238C48.8476 34.5653 48.7843 34.5486 48.7451 34.5282C48.7261 34.5182 48.7181 34.5105 48.7148 34.5067V32.6073C48.7185 32.6033 48.7271 32.5962 48.7451 32.5868C48.7843 32.5663 48.8476 32.5497 48.9238 32.5497Z" fill="#FEFEFE" stroke="#47505B" stroke-width="0.25" stroke-linecap="round"/>
<path d="M48.9399 35.0026H53.7935C53.8701 35.0027 53.9334 35.0191 53.9731 35.0397C53.9931 35.0502 54.0021 35.0583 54.0054 35.0622V37.0427C54.0029 37.046 53.9953 37.0555 53.9731 37.0671C53.9334 37.0876 53.8701 37.1041 53.7935 37.1042H48.9399C48.8628 37.1042 48.799 37.0878 48.7593 37.0671C48.7388 37.0564 48.7311 37.0474 48.728 37.0436V35.0612C48.7317 35.0571 48.7405 35.0495 48.7593 35.0397C48.799 35.019 48.8628 35.0026 48.9399 35.0026Z" fill="#FEFEFE" stroke="#47505B" stroke-width="0.25" stroke-linecap="round"/>
<path d="M48.9092 37.5854H54.043C54.1151 37.5854 54.1744 37.6005 54.2109 37.6196C54.2265 37.6277 54.2338 37.6346 54.2373 37.6381V39.6879C54.234 39.6914 54.2269 39.6981 54.2109 39.7065C54.1744 39.7255 54.1151 39.7416 54.043 39.7416H48.9092C48.837 39.7416 48.7777 39.7255 48.7412 39.7065C48.7253 39.6982 48.7182 39.6914 48.7148 39.6879V37.6381C48.7184 37.6345 48.7259 37.6276 48.7412 37.6196C48.7594 37.6101 48.7833 37.6014 48.8115 37.5952L48.9092 37.5854Z" fill="#FEFEFE" stroke="#47505B" stroke-width="0.25" stroke-linecap="round"/>
<path d="M54.9365 37.5854H60.0703C60.1424 37.5854 60.2018 37.6005 60.2383 37.6196C60.2539 37.6277 60.2612 37.6346 60.2646 37.6381V39.6879C60.2614 39.6914 60.2543 39.6981 60.2383 39.7065C60.2018 39.7255 60.1424 39.7416 60.0703 39.7416H54.9365C54.8644 39.7416 54.8051 39.7255 54.7686 39.7065C54.7527 39.6982 54.7456 39.6914 54.7422 39.6879V37.6381C54.7457 37.6345 54.7532 37.6276 54.7686 37.6196C54.7868 37.6101 54.8106 37.6014 54.8389 37.5952L54.9365 37.5854Z" fill="#FEFEFE" stroke="#47505B" stroke-width="0.25" stroke-linecap="round"/>
<path d="M60.9771 37.5854H107.785C107.857 37.5854 107.916 37.6006 107.953 37.6196C107.968 37.6276 107.975 37.6345 107.979 37.6381V39.6879C107.976 39.6914 107.969 39.6982 107.953 39.7065C107.916 39.7255 107.857 39.7416 107.785 39.7416H60.9771C60.9049 39.7416 60.8456 39.7255 60.8091 39.7065C60.7932 39.6982 60.7861 39.6914 60.7827 39.6879V37.6381C60.7863 37.6345 60.7938 37.6276 60.8091 37.6196C60.8456 37.6006 60.9051 37.5854 60.9771 37.5854Z" fill="#FEFEFE" stroke="#47505B" stroke-width="0.25" stroke-linecap="round"/>
<path d="M108.677 37.5854H113.811C113.883 37.5854 113.942 37.6005 113.979 37.6196C113.994 37.6277 114.001 37.6346 114.005 37.6381V39.6879C114.002 39.6914 113.994 39.6981 113.979 39.7065C113.942 39.7255 113.883 39.7416 113.811 39.7416H108.677C108.605 39.7416 108.545 39.7255 108.509 39.7065C108.493 39.6982 108.486 39.6914 108.482 39.6879V37.6381C108.486 37.6345 108.493 37.6276 108.509 37.6196C108.527 37.6101 108.551 37.6014 108.579 37.5952L108.677 37.5854Z" fill="#FEFEFE" stroke="#47505B" stroke-width="0.25" stroke-linecap="round"/>
<path d="M114.704 37.5854H119.838C119.91 37.5854 119.969 37.6005 120.006 37.6196C120.021 37.6277 120.029 37.6346 120.032 37.6381V39.6879C120.029 39.6914 120.022 39.6981 120.006 39.7065C119.969 39.7255 119.91 39.7416 119.838 39.7416H114.704C114.632 39.7416 114.573 39.7255 114.536 39.7065C114.52 39.6982 114.513 39.6914 114.51 39.6879V37.6381C114.513 37.6345 114.521 37.6276 114.536 37.6196C114.554 37.6101 114.578 37.6014 114.606 37.5952L114.704 37.5854Z" fill="#FEFEFE" stroke="#47505B" stroke-width="0.25" stroke-linecap="round"/>
<path d="M108.01 34.9989H119.724C119.796 34.9989 119.856 35.0141 119.892 35.0331C119.908 35.0412 119.915 35.0481 119.918 35.0517V37.0419C119.915 37.0454 119.908 37.0523 119.892 37.0605C119.856 37.0795 119.796 37.0946 119.724 37.0946H108.01C107.938 37.0946 107.879 37.0794 107.842 37.0605C107.827 37.0524 107.819 37.0455 107.816 37.0419V35.0517C107.819 35.0481 107.827 35.0411 107.842 35.0331C107.879 35.0142 107.938 34.9989 108.01 34.9989Z" fill="#FEFEFE" stroke="#47505B" stroke-width="0.25" stroke-linecap="round"/>
<path d="M56.1899 30.1434H59.9771C60.0491 30.1434 60.1085 30.1585 60.145 30.1776C60.1605 30.1856 60.1679 30.1925 60.1714 30.1961V32.1463C60.1679 32.1498 60.1607 32.1567 60.145 32.1649C60.1085 32.1839 60.0492 32.199 59.9771 32.199H56.1899C56.1179 32.199 56.0585 32.1838 56.022 32.1649C56.0065 32.1568 55.9991 32.1499 55.9956 32.1463V30.1961C55.9992 30.1925 56.0066 30.1855 56.022 30.1776C56.0402 30.1681 56.064 30.1594 56.0923 30.1531L56.1899 30.1434Z" fill="#FEFEFE" stroke="#47505B" stroke-width="0.25" stroke-linecap="round"/>
<path d="M60.9771 30.1434H64.7642C64.8362 30.1434 64.8956 30.1585 64.9321 30.1776C64.9477 30.1856 64.955 30.1925 64.9585 30.1961V32.1463C64.955 32.1498 64.9478 32.1567 64.9321 32.1649C64.8956 32.1839 64.8363 32.199 64.7642 32.199H60.9771C60.9051 32.199 60.8456 32.1838 60.8091 32.1649C60.7936 32.1568 60.7862 32.1499 60.7827 32.1463V30.1961C60.7863 30.1925 60.7938 30.1855 60.8091 30.1776C60.8273 30.1681 60.8512 30.1594 60.8794 30.1531L60.9771 30.1434Z" fill="#FEFEFE" stroke="#47505B" stroke-width="0.25" stroke-linecap="round"/>
<path d="M65.751 30.1434H69.5381C69.6102 30.1434 69.6695 30.1585 69.7061 30.1776C69.7216 30.1856 69.7289 30.1925 69.7324 30.1961V32.1463C69.729 32.1498 69.7217 32.1567 69.7061 32.1649C69.6695 32.1839 69.6102 32.199 69.5381 32.199H65.751C65.679 32.199 65.6195 32.1838 65.583 32.1649C65.5675 32.1568 65.5602 32.1499 65.5566 32.1463V30.1961C65.5602 30.1925 65.5677 30.1855 65.583 30.1776C65.6012 30.1681 65.6251 30.1594 65.6533 30.1531L65.751 30.1434Z" fill="#FEFEFE" stroke="#47505B" stroke-width="0.25" stroke-linecap="round"/>
<path d="M70.5386 30.1434H74.3257C74.3978 30.1434 74.4571 30.1585 74.4937 30.1776C74.5092 30.1856 74.5165 30.1925 74.52 30.1961V32.1463C74.5166 32.1498 74.5093 32.1567 74.4937 32.1649C74.4571 32.1839 74.3978 32.199 74.3257 32.199H70.5386C70.4666 32.199 70.4071 32.1838 70.3706 32.1649C70.3551 32.1568 70.3477 32.1499 70.3442 32.1463V30.1961C70.3478 30.1925 70.3553 30.1855 70.3706 30.1776C70.3888 30.1681 70.4127 30.1594 70.4409 30.1531L70.5386 30.1434Z" fill="#FEFEFE" stroke="#47505B" stroke-width="0.25" stroke-linecap="round"/>
<path d="M75.3125 30.1434H79.0996C79.1717 30.1434 79.2311 30.1585 79.2676 30.1776C79.2831 30.1856 79.2904 30.1925 79.2939 30.1961V32.1463C79.2905 32.1498 79.2833 32.1567 79.2676 32.1649C79.2311 32.1839 79.1717 32.199 79.0996 32.199H75.3125C75.2405 32.199 75.1811 32.1838 75.1445 32.1649C75.1291 32.1568 75.1217 32.1499 75.1182 32.1463V30.1961C75.1217 30.1925 75.1292 30.1855 75.1445 30.1776C75.1628 30.1681 75.1866 30.1594 75.2148 30.1531L75.3125 30.1434Z" fill="#FEFEFE" stroke="#47505B" stroke-width="0.25" stroke-linecap="round"/>
<path d="M80.1001 30.1434H83.8872C83.9593 30.1434 84.0187 30.1585 84.0552 30.1776C84.0707 30.1856 84.078 30.1925 84.0815 30.1961V32.1463C84.0781 32.1498 84.0709 32.1567 84.0552 32.1649C84.0187 32.1839 83.9593 32.199 83.8872 32.199H80.1001C80.0281 32.199 79.9687 32.1838 79.9321 32.1649C79.9166 32.1568 79.9093 32.1499 79.9058 32.1463V30.1961C79.9093 30.1925 79.9168 30.1855 79.9321 30.1776C79.9504 30.1681 79.9742 30.1594 80.0024 30.1531L80.1001 30.1434Z" fill="#FEFEFE" stroke="#47505B" stroke-width="0.25" stroke-linecap="round"/>
<path d="M84.874 30.1434H88.6611C88.7332 30.1434 88.7926 30.1585 88.8291 30.1776C88.8446 30.1856 88.852 30.1925 88.8555 30.1961V32.1463C88.852 32.1498 88.8448 32.1567 88.8291 32.1649C88.7926 32.1839 88.7333 32.199 88.6611 32.199H84.874C84.802 32.199 84.7426 32.1838 84.7061 32.1649C84.6906 32.1568 84.6832 32.1499 84.6797 32.1463V30.1961C84.6832 30.1925 84.6907 30.1855 84.7061 30.1776C84.7243 30.1681 84.7481 30.1594 84.7764 30.1531L84.874 30.1434Z" fill="#FEFEFE" stroke="#47505B" stroke-width="0.25" stroke-linecap="round"/>
<path d="M89.6606 30.1434H93.4478C93.5198 30.1434 93.5792 30.1585 93.6157 30.1776C93.6312 30.1856 93.6386 30.1925 93.6421 30.1961V32.1463C93.6386 32.1498 93.6314 32.1567 93.6157 32.1649C93.5792 32.1839 93.5199 32.199 93.4478 32.199H89.6606C89.5886 32.199 89.5292 32.1838 89.4927 32.1649C89.4772 32.1568 89.4698 32.1499 89.4663 32.1463V30.1961C89.4699 30.1925 89.4774 30.1855 89.4927 30.1776C89.5109 30.1681 89.5348 30.1594 89.563 30.1531L89.6606 30.1434Z" fill="#FEFEFE" stroke="#47505B" stroke-width="0.25" stroke-linecap="round"/>
<path d="M94.4346 30.1434H98.2217C98.2938 30.1434 98.3531 30.1585 98.3896 30.1776C98.4052 30.1856 98.4125 30.1925 98.416 30.1961V32.1463C98.4126 32.1498 98.4053 32.1567 98.3896 32.1649C98.3531 32.1839 98.2938 32.199 98.2217 32.199H94.4346C94.3626 32.199 94.3031 32.1838 94.2666 32.1649C94.2511 32.1568 94.2437 32.1499 94.2402 32.1463V30.1961C94.2438 30.1925 94.2513 30.1855 94.2666 30.1776C94.2848 30.1681 94.3087 30.1594 94.3369 30.1531L94.4346 30.1434Z" fill="#FEFEFE" stroke="#47505B" stroke-width="0.25" stroke-linecap="round"/>
<path d="M99.2222 30.1434H103.009C103.081 30.1434 103.141 30.1585 103.177 30.1776C103.193 30.1856 103.2 30.1925 103.204 30.1961V32.1463C103.2 32.1498 103.193 32.1567 103.177 32.1649C103.141 32.1839 103.081 32.199 103.009 32.199H99.2222C99.1502 32.199 99.0907 32.1838 99.0542 32.1649C99.0387 32.1568 99.0313 32.1499 99.0278 32.1463V30.1961C99.0314 30.1925 99.0389 30.1855 99.0542 30.1776C99.0724 30.1681 99.0963 30.1594 99.1245 30.1531L99.2222 30.1434Z" fill="#FEFEFE" stroke="#47505B" stroke-width="0.25" stroke-linecap="round"/>
<path d="M103.996 30.1434H107.783C107.855 30.1434 107.915 30.1585 107.951 30.1776C107.967 30.1856 107.974 30.1925 107.978 30.1961V32.1463C107.974 32.1498 107.967 32.1567 107.951 32.1649C107.915 32.1839 107.855 32.199 107.783 32.199H103.996C103.924 32.199 103.865 32.1838 103.828 32.1649C103.813 32.1568 103.805 32.1499 103.802 32.1463V30.1961C103.805 30.1925 103.813 30.1855 103.828 30.1776C103.846 30.1681 103.87 30.1594 103.898 30.1531L103.996 30.1434Z" fill="#FEFEFE" stroke="#47505B" stroke-width="0.25" stroke-linecap="round"/>
<path d="M108.77 30.1434H112.557C112.629 30.1434 112.689 30.1585 112.725 30.1776C112.741 30.1856 112.748 30.1925 112.751 30.1961V32.1463C112.748 32.1498 112.741 32.1567 112.725 32.1649C112.689 32.1839 112.629 32.199 112.557 32.199H108.77C108.698 32.199 108.639 32.1838 108.602 32.1649C108.587 32.1568 108.579 32.1499 108.576 32.1463V30.1961C108.579 30.1925 108.587 30.1855 108.602 30.1776C108.62 30.1681 108.644 30.1594 108.672 30.1531L108.77 30.1434Z" fill="#FEFEFE" stroke="#47505B" stroke-width="0.25" stroke-linecap="round"/>
<path d="M57.1499 32.4894H60.937C61.0091 32.4894 61.0685 32.5046 61.105 32.5236C61.1205 32.5317 61.1278 32.5386 61.1313 32.5421V34.4923C61.1279 34.4959 61.1207 34.5027 61.105 34.5109C61.0685 34.5299 61.0091 34.5451 60.937 34.5451H57.1499C57.0779 34.5451 57.0185 34.5299 56.9819 34.5109C56.9665 34.5028 56.9591 34.4959 56.9556 34.4923V32.5421C56.9591 32.5386 56.9666 32.5316 56.9819 32.5236C57.0002 32.5141 57.024 32.5054 57.0522 32.4992L57.1499 32.4894Z" fill="#FEFEFE" stroke="#47505B" stroke-width="0.25" stroke-linecap="round"/>
<path d="M61.9639 32.4894H65.751C65.8231 32.4894 65.8824 32.5046 65.9189 32.5236C65.9345 32.5317 65.9418 32.5386 65.9453 32.5421V34.4923C65.9419 34.4959 65.9346 34.5027 65.9189 34.5109C65.8824 34.5299 65.8231 34.5451 65.751 34.5451H61.9639C61.8919 34.5451 61.8324 34.5299 61.7959 34.5109C61.7804 34.5028 61.773 34.4959 61.7695 34.4923V32.5421C61.7731 32.5386 61.7806 32.5316 61.7959 32.5236C61.8141 32.5141 61.838 32.5054 61.8662 32.4992L61.9639 32.4894Z" fill="#FEFEFE" stroke="#47505B" stroke-width="0.25" stroke-linecap="round"/>
<path d="M66.7778 32.4894H70.5649C70.637 32.4894 70.6964 32.5046 70.7329 32.5236C70.7484 32.5317 70.7558 32.5386 70.7593 32.5421V34.4923C70.7558 34.4959 70.7486 34.5027 70.7329 34.5109C70.6964 34.5299 70.6371 34.5451 70.5649 34.5451H66.7778C66.7058 34.5451 66.6464 34.5299 66.6099 34.5109C66.5944 34.5028 66.587 34.4959 66.5835 34.4923V32.5421C66.5871 32.5386 66.5945 32.5316 66.6099 32.5236C66.6281 32.5141 66.6519 32.5054 66.6802 32.4992L66.7778 32.4894Z" fill="#FEFEFE" stroke="#47505B" stroke-width="0.25" stroke-linecap="round"/>
<path d="M71.5923 32.4894H75.3794C75.4515 32.4894 75.5108 32.5046 75.5474 32.5236C75.5629 32.5317 75.5702 32.5386 75.5737 32.5421V34.4923C75.5703 34.4959 75.563 34.5027 75.5474 34.5109C75.5109 34.5299 75.4515 34.5451 75.3794 34.5451H71.5923C71.5203 34.5451 71.4608 34.5299 71.4243 34.5109C71.4088 34.5028 71.4015 34.4959 71.3979 34.4923V32.5421C71.4015 32.5386 71.409 32.5316 71.4243 32.5236C71.4425 32.5141 71.4664 32.5054 71.4946 32.4992L71.5923 32.4894Z" fill="#FEFEFE" stroke="#47505B" stroke-width="0.25" stroke-linecap="round"/>
<path d="M76.4058 32.4894H80.1929C80.265 32.4894 80.3243 32.5046 80.3608 32.5236C80.3764 32.5317 80.3837 32.5386 80.3872 32.5421V34.4923C80.3838 34.4959 80.3765 34.5027 80.3608 34.5109C80.3243 34.5299 80.265 34.5451 80.1929 34.5451H76.4058C76.3338 34.5451 76.2743 34.5299 76.2378 34.5109C76.2223 34.5028 76.2149 34.4959 76.2114 34.4923V32.5421C76.215 32.5386 76.2225 32.5316 76.2378 32.5236C76.256 32.5141 76.2799 32.5054 76.3081 32.4992L76.4058 32.4894Z" fill="#FEFEFE" stroke="#47505B" stroke-width="0.25" stroke-linecap="round"/>
<path d="M81.2065 32.4894H84.9937C85.0657 32.4894 85.1251 32.5046 85.1616 32.5236C85.1771 32.5317 85.1845 32.5386 85.188 32.5421V34.4923C85.1845 34.4959 85.1773 34.5027 85.1616 34.5109C85.1251 34.5299 85.0658 34.5451 84.9937 34.5451H81.2065C81.1345 34.5451 81.0751 34.5299 81.0386 34.5109C81.0231 34.5028 81.0157 34.4959 81.0122 34.4923V32.5421C81.0158 32.5386 81.0232 32.5316 81.0386 32.5236C81.0568 32.5141 81.0807 32.5054 81.1089 32.4992L81.2065 32.4894Z" fill="#FEFEFE" stroke="#47505B" stroke-width="0.25" stroke-linecap="round"/>
<path d="M86.0205 32.4894H89.8076C89.8797 32.4894 89.9391 32.5046 89.9756 32.5236C89.9911 32.5317 89.9985 32.5386 90.002 32.5421V34.4923C89.9985 34.4959 89.9913 34.5027 89.9756 34.5109C89.9391 34.5299 89.8798 34.5451 89.8076 34.5451H86.0205C85.9485 34.5451 85.8891 34.5299 85.8525 34.5109C85.8371 34.5028 85.8297 34.4959 85.8262 34.4923V32.5421C85.8297 32.5386 85.8372 32.5316 85.8525 32.5236C85.8708 32.5141 85.8946 32.5054 85.9229 32.4992L86.0205 32.4894Z" fill="#FEFEFE" stroke="#47505B" stroke-width="0.25" stroke-linecap="round"/>
<path d="M90.8345 32.4894H94.6216C94.6937 32.4894 94.753 32.5046 94.7896 32.5236C94.8051 32.5317 94.8124 32.5386 94.8159 32.5421V34.4923C94.8125 34.4959 94.8052 34.5027 94.7896 34.5109C94.753 34.5299 94.6937 34.5451 94.6216 34.5451H90.8345C90.7625 34.5451 90.703 34.5299 90.6665 34.5109C90.651 34.5028 90.6436 34.4959 90.6401 34.4923V32.5421C90.6437 32.5386 90.6512 32.5316 90.6665 32.5236C90.6847 32.5141 90.7086 32.5054 90.7368 32.4992L90.8345 32.4894Z" fill="#FEFEFE" stroke="#47505B" stroke-width="0.25" stroke-linecap="round"/>
<path d="M95.6484 32.4894H99.4355C99.5076 32.4894 99.567 32.5046 99.6035 32.5236C99.619 32.5317 99.6264 32.5386 99.6299 32.5421V34.4923C99.6264 34.4959 99.6192 34.5027 99.6035 34.5109C99.567 34.5299 99.5077 34.5451 99.4355 34.5451H95.6484C95.5764 34.5451 95.517 34.5299 95.4805 34.5109C95.465 34.5028 95.4576 34.4959 95.4541 34.4923V32.5421C95.4577 32.5386 95.4651 32.5316 95.4805 32.5236C95.4987 32.5141 95.5225 32.5054 95.5508 32.4992L95.6484 32.4894Z" fill="#FEFEFE" stroke="#47505B" stroke-width="0.25" stroke-linecap="round"/>
<path d="M100.462 32.4894H104.249C104.321 32.4894 104.38 32.5046 104.417 32.5236C104.433 32.5317 104.44 32.5386 104.443 32.5421V34.4923C104.44 34.4959 104.433 34.5027 104.417 34.5109C104.38 34.5299 104.321 34.5451 104.249 34.5451H100.462C100.39 34.5451 100.33 34.5299 100.294 34.5109C100.278 34.5028 100.271 34.4959 100.268 34.4923V32.5421C100.271 32.5386 100.279 32.5316 100.294 32.5236C100.312 32.5141 100.336 32.5054 100.364 32.4992L100.462 32.4894Z" fill="#FEFEFE" stroke="#47505B" stroke-width="0.25" stroke-linecap="round"/>
<path d="M105.276 32.4894H109.063C109.136 32.4894 109.195 32.5046 109.231 32.5236C109.247 32.5317 109.254 32.5386 109.258 32.5421V34.4923C109.254 34.4959 109.247 34.5027 109.231 34.5109C109.195 34.5299 109.136 34.5451 109.063 34.5451H105.276C105.204 34.5451 105.145 34.5299 105.108 34.5109C105.093 34.5028 105.086 34.4959 105.082 34.4923V32.5421C105.086 32.5386 105.093 32.5316 105.108 32.5236C105.127 32.5141 105.15 32.5054 105.179 32.4992L105.276 32.4894Z" fill="#FEFEFE" stroke="#47505B" stroke-width="0.25" stroke-linecap="round"/>
<path d="M110.09 32.4894H113.877C113.95 32.4894 114.009 32.5046 114.045 32.5236C114.061 32.5317 114.068 32.5386 114.072 32.5421V34.4923C114.068 34.4959 114.061 34.5027 114.045 34.5109C114.009 34.5299 113.95 34.5451 113.877 34.5451H110.09C110.018 34.5451 109.959 34.5299 109.922 34.5109C109.907 34.5028 109.9 34.4959 109.896 34.4923V32.5421C109.9 32.5386 109.907 32.5316 109.922 32.5236C109.941 32.5141 109.964 32.5054 109.993 32.4992L110.09 32.4894Z" fill="#FEFEFE" stroke="#47505B" stroke-width="0.25" stroke-linecap="round"/>
<path d="M54.8564 35.0157H58.6436C58.7156 35.0157 58.775 35.0309 58.8115 35.0499C58.827 35.058 58.8344 35.0649 58.8379 35.0684V37.0186C58.8344 37.0222 58.8272 37.029 58.8115 37.0372C58.775 37.0562 58.7157 37.0714 58.6436 37.0714H54.8564C54.7844 37.0714 54.725 37.0561 54.6885 37.0372C54.673 37.0291 54.6656 37.0222 54.6621 37.0186V35.0684C54.6657 35.0648 54.6732 35.0579 54.6885 35.0499C54.7067 35.0404 54.7306 35.0317 54.7588 35.0255L54.8564 35.0157Z" fill="#FEFEFE" stroke="#47505B" stroke-width="0.25" stroke-linecap="round"/>
<path d="M59.6836 35.0157H63.4707C63.5428 35.0157 63.6022 35.0309 63.6387 35.0499C63.6542 35.058 63.6615 35.0649 63.665 35.0684V37.0186C63.6616 37.0222 63.6544 37.029 63.6387 37.0372C63.6022 37.0562 63.5428 37.0714 63.4707 37.0714H59.6836C59.6116 37.0714 59.5521 37.0561 59.5156 37.0372C59.5001 37.0291 59.4928 37.0222 59.4893 37.0186V35.0684C59.4928 35.0648 59.5003 35.0579 59.5156 35.0499C59.5339 35.0404 59.5577 35.0317 59.5859 35.0255L59.6836 35.0157Z" fill="#FEFEFE" stroke="#47505B" stroke-width="0.25" stroke-linecap="round"/>
<path d="M64.5244 35.0157H68.3115C68.3836 35.0157 68.443 35.0309 68.4795 35.0499C68.495 35.058 68.5024 35.0649 68.5059 35.0684V37.0186C68.5024 37.0222 68.4952 37.029 68.4795 37.0372C68.443 37.0562 68.3837 37.0714 68.3115 37.0714H64.5244C64.4524 37.0714 64.393 37.0561 64.3564 37.0372C64.341 37.0291 64.3336 37.0222 64.3301 37.0186V35.0684C64.3336 35.0648 64.3411 35.0579 64.3564 35.0499C64.3747 35.0404 64.3985 35.0317 64.4268 35.0255L64.5244 35.0157Z" fill="#FEFEFE" stroke="#47505B" stroke-width="0.25" stroke-linecap="round"/>
<path d="M69.3516 35.0157H73.1387C73.2108 35.0157 73.2701 35.0309 73.3066 35.0499C73.3222 35.058 73.3295 35.0649 73.333 35.0684V37.0186C73.3296 37.0222 73.3223 37.029 73.3066 37.0372C73.2701 37.0562 73.2108 37.0714 73.1387 37.0714H69.3516C69.2796 37.0714 69.2201 37.0561 69.1836 37.0372C69.1681 37.0291 69.1607 37.0222 69.1572 37.0186V35.0684C69.1608 35.0648 69.1683 35.0579 69.1836 35.0499C69.2018 35.0404 69.2257 35.0317 69.2539 35.0255L69.3516 35.0157Z" fill="#FEFEFE" stroke="#47505B" stroke-width="0.25" stroke-linecap="round"/>
<path d="M74.1919 35.0157H77.979C78.0511 35.0157 78.1105 35.0309 78.147 35.0499C78.1625 35.058 78.1698 35.0649 78.1733 35.0684V37.0186C78.1699 37.0222 78.1627 37.029 78.147 37.0372C78.1105 37.0562 78.0511 37.0714 77.979 37.0714H74.1919C74.1199 37.0714 74.0605 37.0561 74.0239 37.0372C74.0084 37.0291 74.0011 37.0222 73.9976 37.0186V35.0684C74.0011 35.0648 74.0086 35.0579 74.0239 35.0499C74.0422 35.0404 74.066 35.0317 74.0942 35.0255L74.1919 35.0157Z" fill="#FEFEFE" stroke="#47505B" stroke-width="0.25" stroke-linecap="round"/>
<path d="M79.0195 35.0157H82.8066C82.8787 35.0157 82.9381 35.0309 82.9746 35.0499C82.9901 35.058 82.9975 35.0649 83.001 35.0684V37.0186C82.9975 37.0222 82.9903 37.029 82.9746 37.0372C82.9381 37.0562 82.8788 37.0714 82.8066 37.0714H79.0195C78.9475 37.0714 78.8881 37.0561 78.8516 37.0372C78.8361 37.0291 78.8287 37.0222 78.8252 37.0186V35.0684C78.8288 35.0648 78.8362 35.0579 78.8516 35.0499C78.8698 35.0404 78.8936 35.0317 78.9219 35.0255L79.0195 35.0157Z" fill="#FEFEFE" stroke="#47505B" stroke-width="0.25" stroke-linecap="round"/>
<path d="M83.8472 35.0157H87.6343C87.7064 35.0157 87.7657 35.0309 87.8022 35.0499C87.8178 35.058 87.8251 35.0649 87.8286 35.0684V37.0186C87.8252 37.0222 87.8179 37.029 87.8022 37.0372C87.7657 37.0562 87.7064 37.0714 87.6343 37.0714H83.8472C83.7752 37.0714 83.7157 37.0561 83.6792 37.0372C83.6637 37.0291 83.6563 37.0222 83.6528 37.0186V35.0684C83.6564 35.0648 83.6639 35.0579 83.6792 35.0499C83.6974 35.0404 83.7213 35.0317 83.7495 35.0255L83.8472 35.0157Z" fill="#FEFEFE" stroke="#47505B" stroke-width="0.25" stroke-linecap="round"/>
<path d="M88.6875 35.0157H92.4746C92.5467 35.0157 92.6061 35.0309 92.6426 35.0499C92.6581 35.058 92.6654 35.0649 92.6689 35.0684V37.0186C92.6655 37.0222 92.6583 37.029 92.6426 37.0372C92.6061 37.0562 92.5467 37.0714 92.4746 37.0714H88.6875C88.6155 37.0714 88.5561 37.0561 88.5195 37.0372C88.5041 37.0291 88.4967 37.0222 88.4932 37.0186V35.0684C88.4967 35.0648 88.5042 35.0579 88.5195 35.0499C88.5378 35.0404 88.5616 35.0317 88.5898 35.0255L88.6875 35.0157Z" fill="#FEFEFE" stroke="#47505B" stroke-width="0.25" stroke-linecap="round"/>
<path d="M93.5146 35.0157H97.3018C97.3738 35.0157 97.4332 35.0309 97.4697 35.0499C97.4852 35.058 97.4926 35.0649 97.4961 35.0684V37.0186C97.4926 37.0222 97.4854 37.029 97.4697 37.0372C97.4332 37.0562 97.3739 37.0714 97.3018 37.0714H93.5146C93.4427 37.0714 93.3832 37.0561 93.3467 37.0372C93.3312 37.0291 93.3238 37.0222 93.3203 37.0186V35.0684C93.3239 35.0648 93.3314 35.0579 93.3467 35.0499C93.3649 35.0404 93.3888 35.0317 93.417 35.0255L93.5146 35.0157Z" fill="#FEFEFE" stroke="#47505B" stroke-width="0.25" stroke-linecap="round"/>
<path d="M98.3555 35.0157H102.143C102.215 35.0157 102.274 35.0309 102.311 35.0499C102.326 35.058 102.333 35.0649 102.337 35.0684V37.0186C102.333 37.0222 102.326 37.029 102.311 37.0372C102.274 37.0562 102.215 37.0714 102.143 37.0714H98.3555C98.2835 37.0714 98.224 37.0561 98.1875 37.0372C98.172 37.0291 98.1646 37.0222 98.1611 37.0186V35.0684C98.1647 35.0648 98.1722 35.0579 98.1875 35.0499C98.2057 35.0404 98.2296 35.0317 98.2578 35.0255L98.3555 35.0157Z" fill="#FEFEFE" stroke="#47505B" stroke-width="0.25" stroke-linecap="round"/>
<path d="M103.183 35.0157H106.97C107.042 35.0157 107.101 35.0309 107.138 35.0499C107.153 35.058 107.161 35.0649 107.164 35.0684V37.0186C107.161 37.0222 107.153 37.029 107.138 37.0372C107.101 37.0562 107.042 37.0714 106.97 37.0714H103.183C103.111 37.0714 103.051 37.0561 103.015 37.0372C102.999 37.0291 102.992 37.0222 102.988 37.0186V35.0684C102.992 35.0648 102.999 35.0579 103.015 35.0499C103.033 35.0404 103.057 35.0317 103.085 35.0255L103.183 35.0157Z" fill="#FEFEFE" stroke="#47505B" stroke-width="0.25" stroke-linecap="round"/>
<path d="M113.559 30.1865H119.959C120.029 30.1865 120.089 30.2021 120.127 30.2216C120.143 30.2299 120.151 30.2364 120.154 30.2402V34.5146C120.151 34.5182 120.143 34.5249 120.127 34.5331C120.089 34.5522 120.03 34.5683 119.959 34.5683H114.825C114.754 34.5683 114.695 34.5523 114.657 34.5331C114.641 34.5249 114.633 34.5182 114.63 34.5146V32.4111C114.631 32.4076 114.633 32.4036 114.635 32.3994C114.638 32.3887 114.643 32.3708 114.644 32.3486V32.2236H113.559C113.48 32.2236 113.422 32.2067 113.388 32.1884C113.373 32.1804 113.366 32.1741 113.363 32.1708V30.2382C113.366 30.2349 113.373 30.2284 113.388 30.2206C113.422 30.2024 113.481 30.1865 113.559 30.1865Z" fill="#FEFEFE" stroke="#47505B" stroke-width="0.25" stroke-linecap="round"/>
<g clip-path="url(#clip0_783_4070)">
<rect width="45.7143" height="35.7526" transform="translate(22.8569 46.4784)" fill="#FEFEFE"/>
<path d="M47.8499 75.8506L57.8044 75.6532C58.4668 75.6401 59.0108 76.1734 59.0108 76.8359C59.0108 77.3217 58.7055 77.7615 58.2535 77.9395C46.4975 82.571 45.9928 82.5806 33.2585 78.4129C32.774 78.2543 32.4374 77.7992 32.4374 77.2894C32.4374 76.6468 32.9518 76.1225 33.5943 76.1103L43.0667 75.9311M47.8499 75.8506V73.1146M47.8499 75.8506L43.0667 75.9311M47.8499 73.1146C50.8381 73.1146 53.5272 73.1146 57.0106 73.1146C58.1152 73.1146 59.0108 72.2191 59.0108 71.1146V66.0735M47.8499 73.1146C46.6067 73.1146 44.3146 73.1246 43.0667 73.1246M43.0667 75.9311V73.1246M43.0667 73.1246C40.246 73.1246 37.7025 73.1176 34.4379 73.1153C33.3333 73.1145 32.4374 72.2191 32.4374 71.1146V66.0735M29.9509 66.0735V70.3484C29.9509 71.0428 28.9194 71.6058 28.1856 71.6058C27.4518 71.6058 26.8569 71.0428 26.8569 70.3484V59.2838C26.8569 58.5894 27.4518 58.0265 28.1856 58.0265C28.9194 58.0265 29.9509 58.5894 29.9509 59.2838V64.0618M29.9509 66.0735H32.4374M29.9509 66.0735V64.0618M32.4374 66.0735V64.0618M29.9509 64.0618H32.4374M32.4374 64.0618V53.7005C32.4374 52.9586 32.8487 52.2739 33.5115 51.9406C41.8495 47.7483 48.2235 47.0984 57.8679 51.4585C58.5689 51.7755 59.0108 52.4807 59.0108 53.25V64.0618M61.6681 66.0735V70.5999C61.6681 71.2943 62.7945 71.6058 63.5283 71.6058C64.2621 71.6058 64.8569 71.0428 64.8569 70.3484V59.2838C64.8569 58.5894 64.2621 58.0265 63.5283 58.0265C62.7945 58.0265 61.6681 58.8409 61.6681 59.5353V64.0618M61.6681 66.0735H59.0108M61.6681 66.0735V64.0618M59.0108 66.0735V64.0618M61.6681 64.0618H59.0108" stroke="#0E1219" stroke-miterlimit="2" stroke-linecap="round" stroke-linejoin="round"/>
</g>
<defs>
<clipPath id="clip0_783_4070">
<rect width="45.7143" height="35.7526" fill="white" transform="translate(22.8569 46.4784)"/>
</clipPath>
</defs>
</svg>
