<svg width="161" height="74" viewBox="0 0 161 74" fill="none" xmlns="http://www.w3.org/2000/svg">
<path d="M159.667 0.5V14.1602H143.098V73.3457H16.3789V14.1602H0.5V0.5H159.667ZM80.373 50.334C76.0247 50.3341 72.293 53.1254 72.293 56.7969C72.2933 60.4733 76.0246 63.2635 80.373 63.2637C84.721 63.2637 88.4606 60.4739 88.4609 56.7969C88.4609 53.1248 84.7209 50.334 80.373 50.334ZM79.3242 13.3955C74.6166 13.3955 70.6057 14.2072 67.335 15.8643C62.563 18.2674 59.8152 22.2138 59.1484 27.6572C59.1154 27.8519 59.0865 28.2516 59.0664 28.5703C59.0559 28.7366 59.0471 28.8928 59.041 29.0068C59.038 29.0636 59.0358 29.1101 59.0342 29.1426C59.0334 29.1589 59.0327 29.172 59.0322 29.1807C59.032 29.1849 59.0314 29.1882 59.0312 29.1904V29.1943L59.0293 29.2383L59.0352 29.2832C59.3825 31.9448 62.1702 33.8553 65.3711 33.8555C66.9935 33.8555 68.4782 33.3769 69.6113 32.5684C70.7439 31.7601 71.5349 30.613 71.708 29.2822L71.707 29.2812C71.7396 29.0842 71.7393 28.8761 71.7393 28.7402V28.6875C71.8691 27.2351 72.4572 25.8301 73.5703 24.4365L73.5713 24.4355C74.7344 22.9711 76.7953 22.165 79.8486 22.165C82.9858 22.165 84.9918 22.833 86.0625 24.002V24.0029C87.179 25.2487 87.7363 26.6155 87.7363 28.0889C87.7363 29.3606 87.2623 30.5282 86.2627 31.5967L86.2549 31.6055L86.248 31.6133C85.7143 32.238 84.9607 32.8359 84.0156 33.4053L84.0107 33.4082L81.0508 35.2373C79.583 36.1394 78.3755 36.9987 77.4424 37.8145C76.5146 38.6255 75.8336 39.4142 75.4473 40.1816C74.6967 41.6545 74.2547 44.2334 74.0889 47.8301L74.0645 48.3535H86.0703L86.0791 47.8613C86.1066 46.1715 86.2726 44.9916 86.5664 44.2744C87.0402 43.1175 87.9742 42.079 89.4893 41.1631L89.4922 41.1611L92.3711 39.3965C95.2834 37.6065 97.2967 36.0988 98.376 34.9082L98.375 34.9072C100.203 32.9203 101.136 30.4695 101.136 27.584C101.136 22.8546 99.0122 19.2698 94.8213 16.8975H94.8223C90.68 14.5346 85.4994 13.3955 79.3242 13.3955Z" fill="#CCB4E9" stroke="#0E1219"/>
</svg>
