<svg width="48" height="48" viewBox="0 0 48 48" fill="none" xmlns="http://www.w3.org/2000/svg">
<g clip-path="url(#clip0_1384_5125)">
<path d="M24.4319 44.2231C22.5668 42.358 21.4131 39.7812 21.4131 36.9351V34.3662V13.9042V11.0646C21.4131 5.37236 26.0276 0.757812 31.7199 0.757812C37.4122 0.757812 42.0268 5.37236 42.0268 11.0646C42.0268 12.9757 41.5052 14.7644 40.5988 16.2987L40.5999 16.2991C40.5999 16.2991 37.6656 23.435 40.5999 31.7005L40.5988 31.7009C41.5052 33.2353 42.0268 35.0241 42.0268 36.9351C42.0268 42.6274 37.4122 47.2419 31.7199 47.2419C29.6792 47.2419 27.7769 46.6488 26.1761 45.6255" fill="#CCB4E9"/>
<path d="M29.3307 36.577C29.3307 37.5537 28.539 38.3454 27.5623 38.3454C26.5857 38.3454 25.7939 37.5537 25.7939 36.577C25.7939 35.6003 26.5857 34.8086 27.5623 34.8086C28.539 34.8086 29.3307 35.6003 29.3307 36.577Z" fill="#CDE0FF"/>
<path d="M37.527 36.577C37.527 37.5537 36.7353 38.3454 35.7586 38.3454C34.782 38.3454 33.9902 37.5537 33.9902 36.577C33.9902 35.6003 34.782 34.8086 35.7586 34.8086C36.7353 34.8086 37.527 35.6003 37.527 36.577Z" fill="#F5E199"/>
<path d="M33.4284 32.4781C33.4284 33.4548 32.6367 34.2465 31.66 34.2465C30.6833 34.2465 29.8916 33.4548 29.8916 32.4781C29.8916 31.5015 30.6833 30.7097 31.66 30.7097C32.6367 30.7097 33.4284 31.5015 33.4284 32.4781Z" fill="#BDEEBC"/>
<path d="M33.4284 40.6744C33.4284 41.6511 32.6367 42.4428 31.66 42.4428C30.6833 42.4428 29.8916 41.6511 29.8916 40.6744C29.8916 39.6977 30.6833 38.906 31.66 38.906C32.6367 38.906 33.4284 39.6977 33.4284 40.6744Z" fill="#FFB5B5"/>
<path d="M30.3468 13.5411V11.6716H28.4773C27.8076 11.6716 27.2646 11.1288 27.2646 10.459V10.2568C27.2646 9.58717 27.8076 9.04418 28.4773 9.04418H30.3468V7.17481C30.3468 6.50516 30.8898 5.96216 31.5594 5.96216H31.7615C32.4313 5.96216 32.9742 6.50516 32.9742 7.17481V9.04427H34.8436C35.5133 9.04427 36.0563 9.58727 36.0563 10.2569V10.459C36.0563 11.1288 35.5133 11.6717 34.8436 11.6717H32.9742V13.5412C32.9742 14.2108 32.4314 14.7538 31.7615 14.7538H31.5594C30.8898 14.7537 30.3468 14.2107 30.3468 13.5411Z" fill="#FEFEFE"/>
<path d="M24.031 23.7978V20.1599H21.4131V27.4356H24.031V26.0883" fill="#FEFEFE"/>
<g opacity="0.2">
<path d="M21.4131 22.5516V20.1599H24.031V22.5516H21.4131Z" fill="#0E1219"/>
</g>
<path d="M25.7672 46.2641C25.4146 46.0386 25.3115 45.5701 25.5369 45.2173C25.7624 44.8647 26.231 44.7616 26.5837 44.987C28.1157 45.9663 29.8916 46.484 31.7193 46.484C32.1307 46.484 32.5361 46.4578 32.9338 46.4071C33.093 46.3868 33.2508 46.3627 33.4075 46.3345C33.4857 46.3205 33.5636 46.3056 33.6414 46.2895C37.9885 45.3977 41.2682 41.5421 41.2683 36.9349C41.2683 36.9344 41.2683 36.9337 41.2683 36.9331C41.2683 36.8202 41.2658 36.7076 41.2619 36.5954C41.2599 36.5408 41.2566 36.4863 41.2537 36.4319C41.2509 36.3769 41.2483 36.3218 41.2445 36.267C41.2392 36.1918 41.2326 36.1168 41.2256 36.0418C41.2229 36.0119 41.2203 35.9819 41.2173 35.952C41.2077 35.859 41.1969 35.7661 41.1846 35.6735C41.1838 35.6674 41.1831 35.6614 41.1822 35.6554C41.0123 34.3976 40.5934 33.1826 39.9458 32.0864C39.9286 32.057 39.9137 32.0268 39.9007 31.9958C38.8567 30.2641 37.2647 28.873 35.2921 28.0766C34.9041 27.9199 34.7165 27.4784 34.873 27.0901C35.0298 26.702 35.4715 26.5144 35.8596 26.671C37.0143 27.1371 38.0558 27.7799 38.9609 28.5596C38.2598 24.9284 38.5274 21.714 38.9535 19.4463C38.0503 20.2232 37.0112 20.8637 35.8596 21.3286C35.4715 21.4854 35.0297 21.2977 34.873 20.9095C34.7165 20.5215 34.9041 20.0798 35.2921 19.9231C37.2654 19.1264 38.8579 17.7347 39.9017 16.0023C39.9146 15.972 39.9289 15.9421 39.9458 15.9133C40.5933 14.8173 41.0122 13.6026 41.1821 12.3452C41.1831 12.3386 41.1839 12.3318 41.1847 12.3251C41.1969 12.2331 41.2077 12.1409 41.2172 12.0484C41.2203 12.0179 41.2229 11.9873 41.2258 11.9566C41.2327 11.8823 41.2392 11.8078 41.2445 11.7332C41.2483 11.6777 41.2509 11.622 41.2538 11.5664C41.2566 11.5124 41.26 11.4585 41.2619 11.4045C41.2658 11.2917 41.2683 11.1784 41.2683 11.0647C41.2683 5.79935 36.9846 1.51574 31.7194 1.51574C26.4542 1.51574 22.1704 5.79935 22.1704 11.0647V19.402H24.0305C24.4492 19.402 24.7884 19.7414 24.7884 20.1599V23.7978C24.7884 24.2165 24.4492 24.5557 24.0305 24.5557C23.6119 24.5557 23.2727 24.2165 23.2727 23.7978V20.9178H22.1704V26.6778H23.2727V26.0883C23.2727 25.6697 23.612 25.3304 24.0305 25.3304C24.4492 25.3304 24.7884 25.6698 24.7884 26.0883V27.4357C24.7884 27.8544 24.4492 28.1936 24.0305 28.1936H22.1704V36.9352C22.1704 39.4858 23.1637 41.8838 24.9673 43.6872C25.2631 43.9833 25.2631 44.4631 24.9673 44.7591C24.6712 45.055 24.1914 45.055 23.8954 44.7591C21.8056 42.6691 20.6547 39.8906 20.6547 36.9351V27.4356V24.5557H17.8871C16.1153 24.5557 14.6738 25.9971 14.6738 27.7688V30.0125V31.6813V33.1672C14.6738 35.7748 12.5524 37.8961 9.94483 37.8961C7.33728 37.8961 5.21582 35.7748 5.21582 33.1672V31.6813V30.0125V23.5958C5.21582 23.1772 5.55519 22.8379 5.97369 22.8379C6.39219 22.8379 6.73156 23.1773 6.73156 23.5958V30.0125V31.6813V33.1672C6.73156 34.939 8.17306 36.3804 9.94483 36.3804C11.7166 36.3804 13.1581 34.939 13.1581 33.1672V31.6813V30.0125V27.7688C13.1581 25.1613 15.2796 23.0399 17.8871 23.0399H20.6547V20.1599V11.0647C20.6546 4.96357 25.6183 0 31.7194 0C37.8205 0 42.7841 4.96357 42.7841 11.0647C42.7841 11.1955 42.7814 11.3262 42.7767 11.4566C42.7745 11.5174 42.7707 11.578 42.7677 11.6385C42.7642 11.7042 42.7612 11.7697 42.7567 11.8351C42.751 11.9192 42.7436 12.0028 42.7359 12.0864C42.7325 12.123 42.7294 12.1598 42.7256 12.1965C42.715 12.3013 42.7027 12.4056 42.6892 12.5097C42.6882 12.5174 42.6872 12.525 42.6862 12.5326C42.4907 14.0175 42.002 15.4216 41.2662 16.6758C40.9573 17.4962 38.7009 23.9659 41.277 31.3427C42.0076 32.5934 42.4925 33.9928 42.6868 35.472C42.6877 35.4788 42.6886 35.4855 42.6894 35.4923C42.7029 35.5965 42.7152 35.7012 42.7258 35.8063C42.7295 35.8424 42.7325 35.8785 42.736 35.9146C42.7436 35.9985 42.7511 36.0823 42.7568 36.1665C42.7614 36.2313 42.7644 36.2964 42.7677 36.3614C42.7708 36.4223 42.7746 36.4831 42.7768 36.5443C42.7814 36.6739 42.7841 36.8038 42.7841 36.9338C42.7841 36.9343 42.7841 36.9348 42.7841 36.9353V36.9354V36.9355C42.7841 42.7505 38.2749 47.5323 32.5694 47.9678C32.2888 47.9892 32.0053 48.0001 31.7194 48.0001C29.6017 47.9998 27.5436 47.3996 25.7672 46.2641Z" fill="#0E1219"/>
<path d="M36.8133 10.2569V10.459C36.8133 11.5456 35.9293 12.4295 34.8427 12.4295H33.7311V13.5411C33.7311 14.6277 32.8472 15.5116 31.7606 15.5116H31.5585C30.4719 15.5116 29.588 14.6277 29.588 13.5411V12.4295H28.4764C27.3898 12.4295 26.5059 11.5456 26.5059 10.459V10.2569C26.5059 9.17033 27.3898 8.28636 28.4764 8.28636H29.588V7.17487C29.588 6.08831 30.4719 5.20435 31.5585 5.20435H31.7606C32.8472 5.20435 33.7311 6.08831 33.7311 7.17487V8.28646H34.8427C35.9293 8.28636 36.8133 9.17042 36.8133 10.2569ZM32.2154 7.17487C32.2154 6.92418 32.0114 6.72009 31.7606 6.72009H31.5585C31.3078 6.72009 31.1037 6.92409 31.1037 7.17487V9.04433C31.1037 9.46292 30.7645 9.8022 30.3458 9.8022H28.4764C28.2257 9.8022 28.0216 10.0062 28.0216 10.257V10.4591C28.0216 10.7098 28.2256 10.9139 28.4764 10.9139H30.3458C30.7645 10.9139 31.1037 11.2533 31.1037 11.6718V13.5412C31.1037 13.7919 31.3077 13.996 31.5585 13.996H31.7606C32.0113 13.996 32.2154 13.792 32.2154 13.5412V11.6718C32.2154 11.2532 32.5546 10.9139 32.9733 10.9139H34.8427C35.0935 10.9139 35.2975 10.7099 35.2975 10.4591V10.257C35.2975 10.0063 35.0936 9.8022 34.8427 9.8022H32.9733C32.5546 9.8022 32.2154 9.46283 32.2154 9.04433V7.17487Z" fill="#0E1219"/>
<path d="M30.0877 36.5768C30.0877 37.9698 28.9544 39.1031 27.5614 39.1031C26.1684 39.1031 25.0352 37.9697 25.0352 36.5768C25.0352 35.1838 26.1685 34.0505 27.5614 34.0505C28.9544 34.0504 30.0877 35.1838 30.0877 36.5768ZM26.5509 36.5768C26.5509 37.1341 27.0042 37.5873 27.5614 37.5873C28.1187 37.5873 28.572 37.1341 28.572 36.5768C28.572 36.0196 28.1187 35.5663 27.5614 35.5663C27.0043 35.5663 26.5509 36.0197 26.5509 36.5768Z" fill="#0E1219"/>
<path d="M38.285 36.5768C38.285 37.9698 37.1516 39.1031 35.7587 39.1031C34.3657 39.1031 33.2324 37.9697 33.2324 36.5768C33.2324 35.1838 34.3658 34.0505 35.7587 34.0505C37.1517 34.0504 38.285 35.1838 38.285 36.5768ZM34.7482 36.5768C34.7482 37.1341 35.2014 37.5873 35.7587 37.5873C36.3159 37.5873 36.7692 37.1341 36.7692 36.5768C36.7692 36.0196 36.3159 35.5663 35.7587 35.5663C35.2014 35.5663 34.7482 36.0197 34.7482 36.5768Z" fill="#0E1219"/>
<path d="M31.6601 29.9521C33.0531 29.9521 34.1863 31.0855 34.1863 32.4784C34.1863 33.8714 33.053 35.0047 31.6601 35.0047C30.267 35.0047 29.1338 33.8714 29.1338 32.4784C29.1337 31.0855 30.267 29.9521 31.6601 29.9521ZM31.6601 33.489C32.2173 33.489 32.6706 33.0358 32.6706 32.4785C32.6706 31.9213 32.2173 31.468 31.6601 31.468C31.1028 31.468 30.6495 31.9213 30.6495 32.4785C30.6495 33.0356 31.1028 33.489 31.6601 33.489Z" fill="#0E1219"/>
<path d="M31.6601 43.2012C30.267 43.2012 29.1338 42.0679 29.1338 40.675C29.1338 39.2819 30.2671 38.1487 31.6601 38.1487C33.0531 38.1487 34.1863 39.282 34.1863 40.675C34.1863 42.068 33.053 43.2012 31.6601 43.2012ZM31.6601 39.6644C31.1028 39.6644 30.6495 40.1177 30.6495 40.675C30.6495 41.2322 31.1028 41.6855 31.6601 41.6855C32.2173 41.6855 32.6706 41.2322 32.6706 40.675C32.6706 40.1177 32.2172 39.6644 31.6601 39.6644Z" fill="#0E1219"/>
<g opacity="0.2">
<path d="M31.7199 3.15987C26.0276 3.15987 21.4131 7.77432 21.4131 13.4667V11.0646C21.4131 5.37236 26.0276 0.757812 31.7199 0.757812C37.4122 0.757812 42.0268 5.37236 42.0268 11.0646C42.0268 11.4698 42.0019 11.8692 41.9564 12.2622C41.3596 7.13748 37.0047 3.15987 31.7199 3.15987Z" fill="#0E1219"/>
</g>
</g>
<defs>
<clipPath id="clip0_1384_5125">
<rect width="48" height="48" fill="white" transform="matrix(0 1 1 0 0 0)"/>
</clipPath>
</defs>
</svg>
