<svg width="161" height="74" viewBox="0 0 161 74" fill="none" xmlns="http://www.w3.org/2000/svg">
<path d="M159.667 0.5V14.1602H143.098V73.3457H16.3789V14.1602H0.5V0.5H159.667ZM54.4033 18.7891C53.2889 19.8832 51.654 22.8561 52.6963 27.4648C53.7039 31.92 57.2011 37.8632 65.9922 45.1445L66.8594 45.8535C76.8031 53.8682 85.019 57.0469 91.0605 57.9785C94.0801 58.4441 96.5554 58.3473 98.4277 58.0137C100.283 57.6832 101.587 57.1118 102.229 56.5859L102.712 56.1914L102.222 55.8057L88.9941 45.4023L88.6855 45.1592L88.376 45.4023C87.9913 45.7049 87.5923 45.8573 87.1426 45.8877C86.6821 45.9188 86.1417 45.8236 85.4814 45.584C84.1465 45.0996 82.4562 44.0785 80.1602 42.6055L80.1592 42.6045C77.1583 40.6861 73.7137 38.095 70.7256 35.1855C69.659 34.1472 68.724 33.146 68.2764 32.2451C68.0565 31.8025 67.9784 31.4307 68.0225 31.1182C68.0645 30.8203 68.227 30.5085 68.6289 30.1924L69.1289 29.7988L68.6279 29.4062L55.0625 18.7529L54.7168 18.4814L54.4033 18.7891ZM96.6719 41.6445C95.6725 40.8585 94.1048 40.8806 93.126 41.6504L89.377 44.5986L88.8779 44.9922L89.377 45.3848L102.64 55.8154L102.948 56.0586L103.258 55.8154L103.26 55.8135C103.262 55.8121 103.265 55.8104 103.269 55.8076C103.276 55.8021 103.286 55.7939 103.3 55.7832C103.327 55.7617 103.367 55.7296 103.418 55.6895C103.52 55.6091 103.666 55.4942 103.842 55.3564C104.193 55.0809 104.661 54.7143 105.129 54.3467C105.597 53.9792 106.064 53.6112 106.415 53.335C106.59 53.1968 106.737 53.0811 106.84 53C106.891 52.9596 106.932 52.9276 106.96 52.9053C106.974 52.8942 106.986 52.8848 106.994 52.8779C106.996 52.8766 106.997 52.8746 106.999 52.873L107.006 52.8672L107.008 52.8662C107.01 52.8644 107.011 52.8612 107.014 52.8594C107.015 52.8581 107.018 52.8579 107.02 52.8564C107.021 52.8554 107.023 52.8516 107.027 52.8477C107.548 52.4261 107.818 51.8642 107.801 51.2783C107.786 50.7726 107.56 50.2997 107.184 49.9316V49.9072L106.992 49.7568L106.99 49.7559C106.989 49.7549 106.988 49.7528 106.985 49.751C106.98 49.7471 106.973 49.7411 106.963 49.7334C106.943 49.7181 106.914 49.6955 106.877 49.666C106.801 49.6066 106.69 49.52 106.549 49.4092C106.267 49.1875 105.864 48.8702 105.381 48.4902C104.414 47.7302 103.125 46.7167 101.835 45.7031C100.545 44.6895 99.255 43.6758 98.2871 42.915C97.8033 42.5348 97.3999 42.2173 97.1172 41.9951C96.9758 41.884 96.864 41.797 96.7881 41.7373C96.7501 41.7075 96.7209 41.6844 96.7012 41.6689C96.6917 41.6615 96.6847 41.6553 96.6797 41.6514C96.6773 41.6495 96.6751 41.6475 96.6738 41.6465L96.6719 41.6455V41.6445ZM62.5781 14.8457C61.6425 14.2473 60.3357 14.2574 59.4131 14.8535L59.2217 14.9902L55.4795 17.9385L54.9805 18.332L55.4805 18.7246L69.0391 29.3828L69.3477 29.626L69.6572 29.3828L69.6592 29.3818C69.661 29.3804 69.6635 29.3778 69.667 29.375C69.6741 29.3695 69.6846 29.3613 69.6982 29.3506C69.7256 29.3291 69.7662 29.2979 69.8174 29.2578C69.9197 29.1777 70.0659 29.0632 70.2412 28.9258C70.592 28.6508 71.0597 28.2838 71.5273 27.917C71.9951 27.5501 72.4635 27.183 72.8145 26.9072C72.9899 26.7694 73.1366 26.6542 73.2393 26.5732C73.2905 26.5329 73.3313 26.4999 73.3594 26.4775C73.3731 26.4666 73.3842 26.457 73.3926 26.4502C73.3965 26.447 73.4017 26.4432 73.4062 26.4395C73.408 26.438 73.4134 26.4346 73.4189 26.4297C73.4209 26.428 73.4283 26.421 73.4375 26.4121C73.4425 26.4072 73.4545 26.3931 73.4639 26.3828C73.9575 25.9662 74.2155 25.421 74.2002 24.8516C74.1865 24.3452 73.9594 23.872 73.583 23.5039V23.4746L73.3916 23.3242L73.3896 23.3232C73.3884 23.3222 73.3863 23.3203 73.3838 23.3184C73.3787 23.3144 73.3712 23.3085 73.3613 23.3008C73.3412 23.285 73.3113 23.261 73.2725 23.2305C73.1947 23.1694 73.0804 23.0796 72.9355 22.9658C72.6454 22.7379 72.2306 22.413 71.7334 22.0225C70.7386 21.241 69.4127 20.1984 68.0859 19.1562C66.7591 18.1141 65.4313 17.0722 64.4355 16.29C63.9377 15.899 63.5232 15.5722 63.2324 15.3438C63.0872 15.2297 62.9726 15.1404 62.8945 15.0791C62.8555 15.0484 62.825 15.0247 62.8047 15.0088C62.7851 14.9934 62.7752 14.985 62.7744 14.9844L62.7725 14.9834L62.5781 14.8457Z" fill="#CCB4E9" stroke="#0E1219"/>
</svg>
