<svg width="35" height="42" viewBox="0 0 35 42" fill="none" xmlns="http://www.w3.org/2000/svg">
<path d="M10.0039 30.7443V36.904C10.0039 37.9442 10.8012 38.8107 11.8378 38.8971L31.8378 40.5638C33.0039 40.6609 34.0039 39.7407 34.0039 38.5707V2.91786C34.0039 1.74778 33.0039 0.8276 31.8378 0.92477L11.8378 2.59144C10.8012 2.67782 10.0039 3.54435 10.0039 4.58453V10.7443M10.0039 30.7443H6.29107M10.0039 30.7443L10.0039 27.2443M6.29107 30.7443C6.87106 34.71 6.77607 35.9455 8.00391 40.7443C-1.95937 22.7979 -2.04329 18.1906 8.00391 0.244263C6.7484 5.03431 6.83328 6.76568 6.25628 10.7443M6.29107 30.7443C5.44723 24.9744 5.29137 19.7757 5.83022 14.2443M10.0039 10.7443H6.25628M10.0039 10.7443V14.2443M6.25628 10.7443C6.08421 11.9307 5.94221 13.0947 5.83022 14.2443M10.0039 18.7443H6.00391M10.0039 18.7443V22.0437M10.0039 18.7443V14.2443M10.0039 22.0437H5.7489M10.0039 22.0437V27.2443M10.0039 14.2443H5.83022M10.0039 27.2443H5.50391" stroke="#0E1219"/>
</svg>
