<svg width="320" height="480" viewBox="0 0 320 480" fill="none" xmlns="http://www.w3.org/2000/svg">
<path d="M86 80.5H234C237.038 80.5 239.5 82.9624 239.5 86V394C239.5 397.038 237.038 399.5 234 399.5H86C82.9624 399.5 80.5 397.038 80.5 394V86C80.5 82.9624 82.9624 80.5 86 80.5Z" fill="#CCB4E9" stroke="#47505B"/>
<path d="M89 85.5H231C232.933 85.5 234.5 87.067 234.5 89V391C234.5 392.933 232.933 394.5 231 394.5H89C87.067 394.5 85.5 392.933 85.5 391V89C85.5 87.067 87.067 85.5 89 85.5Z" fill="#F9F6FC" stroke="#47505B"/>
<g clip-path="url(#clip0_788_274)">
<rect width="40" height="40" transform="translate(100 420)" fill="#FEFEFE"/>
<path d="M121.993 451.372L131.948 451.175C132.61 451.162 133.154 451.695 133.154 452.358C133.154 452.843 132.849 453.283 132.397 453.461C120.641 458.093 120.136 458.102 107.402 453.934C106.917 453.776 106.58 453.321 106.58 452.811C106.58 452.168 107.095 451.644 107.737 451.632L117.21 451.453M121.993 451.372V448.636M121.993 451.372L117.21 451.453M121.993 448.636C124.981 448.636 127.67 448.636 131.154 448.636C132.258 448.636 133.154 447.741 133.154 446.636V441.595M121.993 448.636C120.75 448.636 118.458 448.646 117.21 448.646M117.21 451.453V448.646M117.21 448.646C114.389 448.646 111.846 448.639 108.581 448.637C107.476 448.636 106.58 447.741 106.58 446.636V441.595M104.094 441.595V445.87C104.094 446.564 103.062 447.127 102.329 447.127C101.595 447.127 101 446.564 101 445.87V434.805C101 434.111 101.595 433.548 102.329 433.548C103.062 433.548 104.094 434.111 104.094 434.805V439.583M104.094 441.595H106.58M104.094 441.595V439.583M106.58 441.595V439.583M104.094 439.583H106.58M106.58 439.583V429.222C106.58 428.48 106.992 427.796 107.655 427.462C115.993 423.27 122.367 422.62 132.011 426.98C132.712 427.297 133.154 428.002 133.154 428.772V439.583M135.811 441.595V446.122C135.811 446.816 136.938 447.127 137.671 447.127C138.405 447.127 139 446.564 139 445.87V434.805C139 434.111 138.405 433.548 137.671 433.548C136.938 433.548 135.811 434.363 135.811 435.057V439.583M135.811 441.595H133.154M135.811 441.595V439.583M133.154 441.595V439.583M135.811 439.583H133.154" stroke="#0E1219" stroke-miterlimit="2" stroke-linecap="round" stroke-linejoin="round"/>
</g>
<g clip-path="url(#clip1_788_274)">
<rect width="40" height="40" transform="translate(180 420)" fill="#FEFEFE"/>
<path d="M201.993 451.372L211.948 451.175C212.61 451.162 213.154 451.695 213.154 452.358C213.154 452.843 212.849 453.283 212.397 453.461C200.641 458.093 200.136 458.102 187.402 453.934C186.917 453.776 186.58 453.321 186.58 452.811C186.58 452.168 187.095 451.644 187.737 451.632L197.21 451.453M201.993 451.372V448.636M201.993 451.372L197.21 451.453M201.993 448.636C204.981 448.636 207.67 448.636 211.154 448.636C212.258 448.636 213.154 447.741 213.154 446.636V441.595M201.993 448.636C200.75 448.636 198.458 448.646 197.21 448.646M197.21 451.453V448.646M197.21 448.646C194.389 448.646 191.846 448.639 188.581 448.637C187.476 448.636 186.58 447.741 186.58 446.636V441.595M184.094 441.595V445.87C184.094 446.564 183.062 447.127 182.329 447.127C181.595 447.127 181 446.564 181 445.87V434.805C181 434.111 181.595 433.548 182.329 433.548C183.062 433.548 184.094 434.111 184.094 434.805V439.583M184.094 441.595H186.58M184.094 441.595V439.583M186.58 441.595V439.583M184.094 439.583H186.58M186.58 439.583V429.222C186.58 428.48 186.992 427.796 187.655 427.462C195.993 423.27 202.367 422.62 212.011 426.98C212.712 427.297 213.154 428.002 213.154 428.772V439.583M215.811 441.595V446.122C215.811 446.816 216.938 447.127 217.671 447.127C218.405 447.127 219 446.564 219 445.87V434.805C219 434.111 218.405 433.548 217.671 433.548C216.938 433.548 215.811 434.363 215.811 435.057V439.583M215.811 441.595H213.154M215.811 441.595V439.583M213.154 441.595V439.583M215.811 439.583H213.154" stroke="#0E1219" stroke-miterlimit="2" stroke-linecap="round" stroke-linejoin="round"/>
</g>
<g clip-path="url(#clip2_788_274)">
<rect width="40" height="40" transform="matrix(0 -1 1 0 260 140)" fill="#FEFEFE"/>
<path d="M291.372 118.007L291.175 108.052C291.162 107.39 291.695 106.846 292.358 106.846C292.843 106.846 293.283 107.151 293.461 107.603C298.093 119.359 298.102 119.864 293.934 132.598C293.776 133.083 293.321 133.42 292.811 133.42C292.168 133.42 291.644 132.905 291.632 132.263L291.453 122.79M291.372 118.007H288.636M291.372 118.007L291.453 122.79M288.636 118.007C288.636 115.019 288.636 112.33 288.636 108.846C288.636 107.742 287.741 106.846 286.636 106.846H281.595M288.636 118.007C288.636 119.25 288.646 121.542 288.646 122.79M291.453 122.79H288.646M288.646 122.79C288.646 125.611 288.639 128.154 288.637 131.419C288.636 132.524 287.741 133.42 286.636 133.42H281.595M281.595 135.906H285.87C286.564 135.906 287.127 136.938 287.127 137.671C287.127 138.405 286.564 139 285.87 139H274.805C274.111 139 273.548 138.405 273.548 137.671C273.548 136.938 274.111 135.906 274.805 135.906H279.583M281.595 135.906V133.42M281.595 135.906H279.583M281.595 133.42H279.583M279.583 135.906V133.42M279.583 133.42H269.222C268.48 133.42 267.796 133.008 267.462 132.345C263.27 124.007 262.62 117.633 266.98 107.989C267.297 107.288 268.002 106.846 268.772 106.846H279.583M281.595 104.189H286.122C286.816 104.189 287.127 103.062 287.127 102.329C287.127 101.595 286.564 101 285.87 101H274.805C274.111 101 273.548 101.595 273.548 102.329C273.548 103.062 274.363 104.189 275.057 104.189H279.583M281.595 104.189V106.846M281.595 104.189H279.583M281.595 106.846H279.583M279.583 104.189V106.846" stroke="#0E1219" stroke-miterlimit="2" stroke-linecap="round" stroke-linejoin="round"/>
</g>
<g clip-path="url(#clip3_788_274)">
<rect width="40" height="40" transform="matrix(0 -1 1 0 260 220)" fill="#FEFEFE"/>
<path d="M291.372 198.007L291.175 188.052C291.162 187.39 291.695 186.846 292.358 186.846C292.843 186.846 293.283 187.151 293.461 187.603C298.093 199.359 298.102 199.864 293.934 212.598C293.776 213.083 293.321 213.42 292.811 213.42C292.168 213.42 291.644 212.905 291.632 212.263L291.453 202.79M291.372 198.007H288.636M291.372 198.007L291.453 202.79M288.636 198.007C288.636 195.019 288.636 192.33 288.636 188.846C288.636 187.742 287.741 186.846 286.636 186.846H281.595M288.636 198.007C288.636 199.25 288.646 201.542 288.646 202.79M291.453 202.79H288.646M288.646 202.79C288.646 205.611 288.639 208.154 288.637 211.419C288.636 212.524 287.741 213.42 286.636 213.42H281.595M281.595 215.906H285.87C286.564 215.906 287.127 216.938 287.127 217.671C287.127 218.405 286.564 219 285.87 219H274.805C274.111 219 273.548 218.405 273.548 217.671C273.548 216.938 274.111 215.906 274.805 215.906H279.583M281.595 215.906V213.42M281.595 215.906H279.583M281.595 213.42H279.583M279.583 215.906V213.42M279.583 213.42H269.222C268.48 213.42 267.796 213.008 267.462 212.345C263.27 204.007 262.62 197.633 266.98 187.989C267.297 187.288 268.002 186.846 268.772 186.846H279.583M281.595 184.189H286.122C286.816 184.189 287.127 183.062 287.127 182.329C287.127 181.595 286.564 181 285.87 181H274.805C274.111 181 273.548 181.595 273.548 182.329C273.548 183.062 274.363 184.189 275.057 184.189H279.583M281.595 184.189V186.846M281.595 184.189H279.583M281.595 186.846H279.583M279.583 184.189V186.846" stroke="#0E1219" stroke-miterlimit="2" stroke-linecap="round" stroke-linejoin="round"/>
</g>
<g clip-path="url(#clip4_788_274)">
<rect width="40" height="40" transform="matrix(0 -1 1 0 260 300)" fill="#FEFEFE"/>
<path d="M291.372 278.007L291.175 268.052C291.162 267.39 291.695 266.846 292.358 266.846C292.843 266.846 293.283 267.151 293.461 267.603C298.093 279.359 298.102 279.864 293.934 292.598C293.776 293.083 293.321 293.42 292.811 293.42C292.168 293.42 291.644 292.905 291.632 292.263L291.453 282.79M291.372 278.007H288.636M291.372 278.007L291.453 282.79M288.636 278.007C288.636 275.019 288.636 272.33 288.636 268.846C288.636 267.742 287.741 266.846 286.636 266.846H281.595M288.636 278.007C288.636 279.25 288.646 281.542 288.646 282.79M291.453 282.79H288.646M288.646 282.79C288.646 285.611 288.639 288.154 288.637 291.419C288.636 292.524 287.741 293.42 286.636 293.42H281.595M281.595 295.906H285.87C286.564 295.906 287.127 296.938 287.127 297.671C287.127 298.405 286.564 299 285.87 299H274.805C274.111 299 273.548 298.405 273.548 297.671C273.548 296.938 274.111 295.906 274.805 295.906H279.583M281.595 295.906V293.42M281.595 295.906H279.583M281.595 293.42H279.583M279.583 295.906V293.42M279.583 293.42H269.222C268.48 293.42 267.796 293.008 267.462 292.345C263.27 284.007 262.62 277.633 266.98 267.989C267.297 267.288 268.002 266.846 268.772 266.846H279.583M281.595 264.189H286.122C286.816 264.189 287.127 263.062 287.127 262.329C287.127 261.595 286.564 261 285.87 261H274.805C274.111 261 273.548 261.595 273.548 262.329C273.548 263.062 274.363 264.189 275.057 264.189H279.583M281.595 264.189V266.846M281.595 264.189H279.583M281.595 266.846H279.583M279.583 264.189V266.846" stroke="#0E1219" stroke-miterlimit="2" stroke-linecap="round" stroke-linejoin="round"/>
</g>
<g clip-path="url(#clip5_788_274)">
<rect width="40" height="40" transform="matrix(0 -1 1 0 260 380)" fill="#FEFEFE"/>
<path d="M291.372 358.007L291.175 348.052C291.162 347.39 291.695 346.846 292.358 346.846C292.843 346.846 293.283 347.151 293.461 347.603C298.093 359.359 298.102 359.864 293.934 372.598C293.776 373.083 293.321 373.42 292.811 373.42C292.168 373.42 291.644 372.905 291.632 372.263L291.453 362.79M291.372 358.007H288.636M291.372 358.007L291.453 362.79M288.636 358.007C288.636 355.019 288.636 352.33 288.636 348.846C288.636 347.742 287.741 346.846 286.636 346.846H281.595M288.636 358.007C288.636 359.25 288.646 361.542 288.646 362.79M291.453 362.79H288.646M288.646 362.79C288.646 365.611 288.639 368.154 288.637 371.419C288.636 372.524 287.741 373.42 286.636 373.42H281.595M281.595 375.906H285.87C286.564 375.906 287.127 376.938 287.127 377.671C287.127 378.405 286.564 379 285.87 379H274.805C274.111 379 273.548 378.405 273.548 377.671C273.548 376.938 274.111 375.906 274.805 375.906H279.583M281.595 375.906V373.42M281.595 375.906H279.583M281.595 373.42H279.583M279.583 375.906V373.42M279.583 373.42H269.222C268.48 373.42 267.796 373.008 267.462 372.345C263.27 364.007 262.62 357.633 266.98 347.989C267.297 347.288 268.002 346.846 268.772 346.846H279.583M281.595 344.189H286.122C286.816 344.189 287.127 343.062 287.127 342.329C287.127 341.595 286.564 341 285.87 341H274.805C274.111 341 273.548 341.595 273.548 342.329C273.548 343.062 274.363 344.189 275.057 344.189H279.583M281.595 344.189V346.846M281.595 344.189H279.583M281.595 346.846H279.583M279.583 344.189V346.846" stroke="#0E1219" stroke-miterlimit="2" stroke-linecap="round" stroke-linejoin="round"/>
</g>
<g clip-path="url(#clip6_788_274)">
<rect width="40" height="40" transform="matrix(0 1 -1 0 60 100)" fill="#FEFEFE"/>
<path d="M28.6278 121.993L28.8251 131.948C28.8383 132.61 28.305 133.154 27.6425 133.154C27.1567 133.154 26.7169 132.849 26.5389 132.397C21.9074 120.641 21.8978 120.136 26.0655 107.402C26.2241 106.917 26.6792 106.58 27.189 106.58C27.8316 106.58 28.3559 107.095 28.3681 107.737L28.5473 117.21M28.6278 121.993H31.3638M28.6278 121.993L28.5473 117.21M31.3638 121.993C31.3638 124.981 31.3638 127.67 31.3638 131.154C31.3638 132.258 32.2593 133.154 33.3638 133.154H38.4049M31.3638 121.993C31.3638 120.75 31.3538 118.458 31.3538 117.21M28.5473 117.21H31.3538M31.3538 117.21C31.3538 114.389 31.3608 111.846 31.3631 108.581C31.3639 107.476 32.2593 106.58 33.3638 106.58H38.4049M38.4049 104.094H34.13C33.4356 104.094 32.8726 103.062 32.8726 102.329C32.8726 101.595 33.4356 101 34.13 101H45.1946C45.889 101 46.4519 101.595 46.4519 102.329C46.4519 103.062 45.889 104.094 45.1946 104.094H40.4166M38.4049 104.094V106.58M38.4049 104.094H40.4166M38.4049 106.58H40.4166M40.4166 104.094V106.58M40.4166 106.58H50.7779C51.5198 106.58 52.2045 106.992 52.5378 107.655C56.7301 115.993 57.38 122.367 53.0198 132.011C52.7029 132.712 51.9977 133.154 51.2284 133.154H40.4166M38.4049 135.811H33.8785C33.1841 135.811 32.8726 136.938 32.8726 137.671C32.8726 138.405 33.4356 139 34.13 139H45.1946C45.889 139 46.4519 138.405 46.4519 137.671C46.4519 136.938 45.6375 135.811 44.9431 135.811H40.4166M38.4049 135.811V133.154M38.4049 135.811H40.4166M38.4049 133.154H40.4166M40.4166 135.811V133.154" stroke="#0E1219" stroke-miterlimit="2" stroke-linecap="round" stroke-linejoin="round"/>
</g>
<g clip-path="url(#clip7_788_274)">
<rect width="40" height="40" transform="matrix(0 1 -1 0 60 180)" fill="#FEFEFE"/>
<path d="M28.6278 201.993L28.8251 211.948C28.8383 212.61 28.305 213.154 27.6425 213.154C27.1567 213.154 26.7169 212.849 26.5389 212.397C21.9074 200.641 21.8978 200.136 26.0655 187.402C26.2241 186.917 26.6792 186.58 27.189 186.58C27.8316 186.58 28.3559 187.095 28.3681 187.737L28.5473 197.21M28.6278 201.993H31.3638M28.6278 201.993L28.5473 197.21M31.3638 201.993C31.3638 204.981 31.3638 207.67 31.3638 211.154C31.3638 212.258 32.2593 213.154 33.3638 213.154H38.4049M31.3638 201.993C31.3638 200.75 31.3538 198.458 31.3538 197.21M28.5473 197.21H31.3538M31.3538 197.21C31.3538 194.389 31.3608 191.846 31.3631 188.581C31.3639 187.476 32.2593 186.58 33.3638 186.58H38.4049M38.4049 184.094H34.13C33.4356 184.094 32.8726 183.062 32.8726 182.329C32.8726 181.595 33.4356 181 34.13 181H45.1946C45.889 181 46.4519 181.595 46.4519 182.329C46.4519 183.062 45.889 184.094 45.1946 184.094H40.4166M38.4049 184.094V186.58M38.4049 184.094H40.4166M38.4049 186.58H40.4166M40.4166 184.094V186.58M40.4166 186.58H50.7779C51.5198 186.58 52.2045 186.992 52.5378 187.655C56.7301 195.993 57.38 202.367 53.0198 212.011C52.7029 212.712 51.9977 213.154 51.2284 213.154H40.4166M38.4049 215.811H33.8785C33.1841 215.811 32.8726 216.938 32.8726 217.671C32.8726 218.405 33.4356 219 34.13 219H45.1946C45.889 219 46.4519 218.405 46.4519 217.671C46.4519 216.938 45.6375 215.811 44.9431 215.811H40.4166M38.4049 215.811V213.154M38.4049 215.811H40.4166M38.4049 213.154H40.4166M40.4166 215.811V213.154" stroke="#0E1219" stroke-miterlimit="2" stroke-linecap="round" stroke-linejoin="round"/>
</g>
<g clip-path="url(#clip8_788_274)">
<rect width="40" height="40" transform="matrix(0 1 -1 0 60 260)" fill="#FEFEFE"/>
<path d="M28.6278 281.993L28.8251 291.948C28.8383 292.61 28.305 293.154 27.6425 293.154C27.1567 293.154 26.7169 292.849 26.5389 292.397C21.9074 280.641 21.8978 280.136 26.0655 267.402C26.2241 266.917 26.6792 266.58 27.189 266.58C27.8316 266.58 28.3559 267.095 28.3681 267.737L28.5473 277.21M28.6278 281.993H31.3638M28.6278 281.993L28.5473 277.21M31.3638 281.993C31.3638 284.981 31.3638 287.67 31.3638 291.154C31.3638 292.258 32.2593 293.154 33.3638 293.154H38.4049M31.3638 281.993C31.3638 280.75 31.3538 278.458 31.3538 277.21M28.5473 277.21H31.3538M31.3538 277.21C31.3538 274.389 31.3608 271.846 31.3631 268.581C31.3639 267.476 32.2593 266.58 33.3638 266.58H38.4049M38.4049 264.094H34.13C33.4356 264.094 32.8726 263.062 32.8726 262.329C32.8726 261.595 33.4356 261 34.13 261H45.1946C45.889 261 46.4519 261.595 46.4519 262.329C46.4519 263.062 45.889 264.094 45.1946 264.094H40.4166M38.4049 264.094V266.58M38.4049 264.094H40.4166M38.4049 266.58H40.4166M40.4166 264.094V266.58M40.4166 266.58H50.7779C51.5198 266.58 52.2045 266.992 52.5378 267.655C56.7301 275.993 57.38 282.367 53.0198 292.011C52.7029 292.712 51.9977 293.154 51.2284 293.154H40.4166M38.4049 295.811H33.8785C33.1841 295.811 32.8726 296.938 32.8726 297.671C32.8726 298.405 33.4356 299 34.13 299H45.1946C45.889 299 46.4519 298.405 46.4519 297.671C46.4519 296.938 45.6375 295.811 44.9431 295.811H40.4166M38.4049 295.811V293.154M38.4049 295.811H40.4166M38.4049 293.154H40.4166M40.4166 295.811V293.154" stroke="#0E1219" stroke-miterlimit="2" stroke-linecap="round" stroke-linejoin="round"/>
</g>
<g clip-path="url(#clip9_788_274)">
<rect width="40" height="40" transform="matrix(0 1 -1 0 60 340)" fill="#FEFEFE"/>
<path d="M28.6278 361.993L28.8251 371.948C28.8383 372.61 28.305 373.154 27.6425 373.154C27.1567 373.154 26.7169 372.849 26.5389 372.397C21.9074 360.641 21.8978 360.136 26.0655 347.402C26.2241 346.917 26.6792 346.58 27.189 346.58C27.8316 346.58 28.3559 347.095 28.3681 347.737L28.5473 357.21M28.6278 361.993H31.3638M28.6278 361.993L28.5473 357.21M31.3638 361.993C31.3638 364.981 31.3638 367.67 31.3638 371.154C31.3638 372.258 32.2593 373.154 33.3638 373.154H38.4049M31.3638 361.993C31.3638 360.75 31.3538 358.458 31.3538 357.21M28.5473 357.21H31.3538M31.3538 357.21C31.3538 354.389 31.3608 351.846 31.3631 348.581C31.3639 347.476 32.2593 346.58 33.3638 346.58H38.4049M38.4049 344.094H34.13C33.4356 344.094 32.8726 343.062 32.8726 342.329C32.8726 341.595 33.4356 341 34.13 341H45.1946C45.889 341 46.4519 341.595 46.4519 342.329C46.4519 343.062 45.889 344.094 45.1946 344.094H40.4166M38.4049 344.094V346.58M38.4049 344.094H40.4166M38.4049 346.58H40.4166M40.4166 344.094V346.58M40.4166 346.58H50.7779C51.5198 346.58 52.2045 346.992 52.5378 347.655C56.7301 355.993 57.38 362.367 53.0198 372.011C52.7029 372.712 51.9977 373.154 51.2284 373.154H40.4166M38.4049 375.811H33.8785C33.1841 375.811 32.8726 376.938 32.8726 377.671C32.8726 378.405 33.4356 379 34.13 379H45.1946C45.889 379 46.4519 378.405 46.4519 377.671C46.4519 376.938 45.6375 375.811 44.9431 375.811H40.4166M38.4049 375.811V373.154M38.4049 375.811H40.4166M38.4049 373.154H40.4166M40.4166 375.811V373.154" stroke="#0E1219" stroke-miterlimit="2" stroke-linecap="round" stroke-linejoin="round"/>
</g>
<defs>
<clipPath id="clip0_788_274">
<rect width="40" height="40" fill="white" transform="translate(100 420)"/>
</clipPath>
<clipPath id="clip1_788_274">
<rect width="40" height="40" fill="white" transform="translate(180 420)"/>
</clipPath>
<clipPath id="clip2_788_274">
<rect width="40" height="40" fill="white" transform="matrix(0 -1 1 0 260 140)"/>
</clipPath>
<clipPath id="clip3_788_274">
<rect width="40" height="40" fill="white" transform="matrix(0 -1 1 0 260 220)"/>
</clipPath>
<clipPath id="clip4_788_274">
<rect width="40" height="40" fill="white" transform="matrix(0 -1 1 0 260 300)"/>
</clipPath>
<clipPath id="clip5_788_274">
<rect width="40" height="40" fill="white" transform="matrix(0 -1 1 0 260 380)"/>
</clipPath>
<clipPath id="clip6_788_274">
<rect width="40" height="40" fill="white" transform="matrix(0 1 -1 0 60 100)"/>
</clipPath>
<clipPath id="clip7_788_274">
<rect width="40" height="40" fill="white" transform="matrix(0 1 -1 0 60 180)"/>
</clipPath>
<clipPath id="clip8_788_274">
<rect width="40" height="40" fill="white" transform="matrix(0 1 -1 0 60 260)"/>
</clipPath>
<clipPath id="clip9_788_274">
<rect width="40" height="40" fill="white" transform="matrix(0 1 -1 0 60 340)"/>
</clipPath>
</defs>
</svg>
