<svg width="123" height="104" viewBox="0 0 123 104" fill="none" xmlns="http://www.w3.org/2000/svg">
<mask id="path-1-outside-1_1419_2319" maskUnits="userSpaceOnUse" x="-0.636719" y="-0.636353" width="124" height="105" fill="black">
<rect fill="white" x="-0.636719" y="-0.636353" width="124" height="105"/>
<path d="M36.3633 99.6364C29.5148 99.6364 23.6815 97.7727 18.8633 94.0455C14.0451 90.2879 10.3633 84.8485 7.81783 77.7273C5.27237 70.5758 3.99965 61.9394 3.99965 51.8182C3.99965 41.7576 5.27237 33.1667 7.81783 26.0455C10.3936 18.8939 14.0906 13.4394 18.9087 9.68182C23.7572 5.89395 29.5754 4.00001 36.3633 4.00001C43.1512 4.00001 48.9542 5.89395 53.7724 9.68182C58.6209 13.4394 62.3178 18.8939 64.8633 26.0455C67.439 33.1667 68.7269 41.7576 68.7269 51.8182C68.7269 61.9394 67.4542 70.5758 64.9087 77.7273C62.3633 84.8485 58.6815 90.2879 53.8633 94.0455C49.0451 97.7727 43.2118 99.6364 36.3633 99.6364ZM36.3633 89.6364C43.1512 89.6364 48.4239 86.3636 52.1815 79.8182C55.939 73.2727 57.8178 63.9394 57.8178 51.8182C57.8178 43.7576 56.9542 36.8939 55.2269 31.2273C53.53 25.5606 51.0754 21.2424 47.8633 18.2727C44.6815 15.303 40.8481 13.8182 36.3633 13.8182C29.636 13.8182 24.3784 17.1364 20.5906 23.7727C16.8027 30.3788 14.9087 39.7273 14.9087 51.8182C14.9087 59.8788 15.7572 66.7273 17.4542 72.3636C19.1512 78 21.5906 82.2879 24.7724 85.2273C27.9845 88.1667 31.8481 89.6364 36.3633 89.6364ZM118.727 5.27274V98.3636H107.454V17.0909H106.909L84.1815 32.1818V20.7273L107.454 5.27274H118.727Z"/>
</mask>
<path d="M18.8633 94.0455L16.4034 97.1997L16.4096 97.2045L16.4158 97.2093L18.8633 94.0455ZM7.81783 77.7273L4.04941 79.0686L4.05122 79.0736L7.81783 77.7273ZM7.81783 26.0455L4.05447 24.69L4.05122 24.6991L7.81783 26.0455ZM18.9087 9.68182L21.3686 12.836L21.3713 12.8339L18.9087 9.68182ZM53.7724 9.68182L51.3002 12.8264L51.3111 12.835L51.3221 12.8435L53.7724 9.68182ZM64.8633 26.0455L61.0949 27.3868L61.0983 27.3964L61.1018 27.406L64.8633 26.0455ZM64.9087 77.7273L68.6753 79.0736L68.6771 79.0686L64.9087 77.7273ZM53.8633 94.0455L56.3108 97.2093L56.317 97.2045L56.3232 97.1997L53.8633 94.0455ZM52.1815 79.8182L48.7125 77.8267L48.7125 77.8267L52.1815 79.8182ZM55.2269 31.2273L51.3951 32.3748L51.3979 32.3842L51.4007 32.3936L55.2269 31.2273ZM47.8633 18.2727L45.134 21.197L45.1409 21.2034L45.1479 21.2098L47.8633 18.2727ZM20.5906 23.7727L24.0606 25.7624L24.0645 25.7556L20.5906 23.7727ZM17.4542 72.3636L13.624 73.5168L13.624 73.5168L17.4542 72.3636ZM24.7724 85.2273L22.0581 88.1654L22.065 88.1718L22.072 88.1782L24.7724 85.2273ZM36.3633 99.6364V95.6364C30.2848 95.6364 25.3418 94 21.3108 90.8816L18.8633 94.0455L16.4158 97.2093C22.0212 101.546 28.7448 103.636 36.3633 103.636V99.6364ZM18.8633 94.0455L21.3232 90.8913C17.231 87.6999 13.9352 82.9576 11.5844 76.3809L7.81783 77.7273L4.05122 79.0736C6.79133 86.7394 10.8592 92.8759 16.4034 97.1997L18.8633 94.0455ZM7.81783 77.7273L11.5862 76.386C9.2356 69.7818 7.99965 61.6253 7.99965 51.8182H3.99965H-0.000354767C-0.000354767 62.2535 1.30915 71.3697 4.04942 79.0686L7.81783 77.7273ZM3.99965 51.8182H7.99965C7.99965 42.074 9.23501 33.9646 11.5844 27.3918L7.81783 26.0455L4.05122 24.6991C1.30974 32.3687 -0.000354767 41.4411 -0.000354767 51.8182H3.99965ZM7.81783 26.0455L11.5812 27.4009C13.9633 20.787 17.2761 16.0277 21.3686 12.836L18.9087 9.68182L16.4489 6.52762C10.905 10.8511 6.82387 17.0009 4.05448 24.69L7.81783 26.0455ZM18.9087 9.68182L21.3713 12.8339C25.4432 9.65272 30.3702 8.00001 36.3633 8.00001V4.00001V7.62939e-06C28.7806 7.62939e-06 22.0712 2.13517 16.4462 6.52973L18.9087 9.68182ZM36.3633 4.00001V8.00001C42.3567 8.00001 47.2632 9.65269 51.3002 12.8264L53.7724 9.68182L56.2445 6.53724C50.6451 2.13521 43.9456 7.62939e-06 36.3633 7.62939e-06V4.00001ZM53.7724 9.68182L51.3221 12.8435C55.4371 16.0326 58.7448 20.7843 61.0949 27.3868L64.8633 26.0455L68.6317 24.7042C65.8908 17.0036 61.8046 10.8462 56.2227 6.52016L53.7724 9.68182ZM64.8633 26.0455L61.1018 27.406C63.4774 33.974 64.7269 42.0782 64.7269 51.8182H68.7269H72.7269C72.7269 41.437 71.4007 32.3594 68.6248 24.6849L64.8633 26.0455ZM68.7269 51.8182H64.7269C64.7269 61.6253 63.491 69.7818 61.1403 76.386L64.9087 77.7273L68.6771 79.0686C71.4174 71.3697 72.7269 62.2535 72.7269 51.8182H68.7269ZM64.9087 77.7273L61.1421 76.3809C58.7913 82.9576 55.4956 87.6999 51.4034 90.8913L53.8633 94.0455L56.3232 97.1997C61.8674 92.8759 65.9352 86.7394 68.6753 79.0736L64.9087 77.7273ZM53.8633 94.0455L51.4158 90.8816C47.3848 94 42.4417 95.6364 36.3633 95.6364V99.6364V103.636C43.9818 103.636 50.7054 101.546 56.3108 97.2093L53.8633 94.0455ZM36.3633 89.6364V93.6364C44.7677 93.6364 51.2762 89.4293 55.6505 81.8097L52.1815 79.8182L48.7125 77.8267C45.5715 83.298 41.5346 85.6364 36.3633 85.6364V89.6364ZM52.1815 79.8182L55.6505 81.8097C59.9063 74.3963 61.8178 64.2569 61.8178 51.8182H57.8178H53.8178C53.8178 63.6219 51.9718 72.1491 48.7125 77.8267L52.1815 79.8182ZM57.8178 51.8182H61.8178C61.8178 43.4945 60.9287 36.2141 59.0531 30.061L55.2269 31.2273L51.4007 32.3936C52.9797 37.5738 53.8178 44.0207 53.8178 51.8182H57.8178ZM55.2269 31.2273L59.0588 30.0798C57.2262 23.9602 54.47 18.9332 50.5787 15.3356L47.8633 18.2727L45.1479 21.2098C47.6808 23.5516 49.8337 27.161 51.3951 32.3748L55.2269 31.2273ZM47.8633 18.2727L50.5926 15.3485C46.6455 11.6646 41.8272 9.81819 36.3633 9.81819V13.8182V17.8182C39.8691 17.8182 42.7175 18.9415 45.134 21.197L47.8633 18.2727ZM36.3633 13.8182V9.81819C27.9795 9.81819 21.5 14.1103 17.1166 21.7899L20.5906 23.7727L24.0645 25.7556C27.2569 20.1625 31.2925 17.8182 36.3633 17.8182V13.8182ZM20.5906 23.7727L17.1205 21.783C12.8384 29.2511 10.9087 39.4003 10.9087 51.8182H14.9087H18.9087C18.9087 40.0543 20.7669 31.5065 24.0606 25.7624L20.5906 23.7727ZM14.9087 51.8182H10.9087C10.9087 60.136 11.7815 67.3972 13.624 73.5168L17.4542 72.3636L21.2844 71.2105C19.7329 66.0574 18.9087 59.6216 18.9087 51.8182H14.9087ZM17.4542 72.3636L13.624 73.5168C15.4558 79.601 18.1961 84.5976 22.0581 88.1654L24.7724 85.2273L27.4867 82.2891C24.985 79.9781 22.8465 76.399 21.2844 71.2105L17.4542 72.3636ZM24.7724 85.2273L22.072 88.1782C26.0511 91.8194 30.8893 93.6364 36.3633 93.6364V89.6364V85.6364C32.807 85.6364 29.9179 84.5139 27.4728 82.2764L24.7724 85.2273ZM118.727 5.27274H122.727V1.27274H118.727V5.27274ZM118.727 98.3636V102.364H122.727V98.3636H118.727ZM107.454 98.3636H103.454V102.364H107.454V98.3636ZM107.454 17.0909H111.454V13.0909H107.454V17.0909ZM106.909 17.0909V13.0909H105.702L104.696 13.7586L106.909 17.0909ZM84.1815 32.1818H80.1815V39.6393L86.3941 35.5141L84.1815 32.1818ZM84.1815 20.7273L81.9687 17.3951L80.1815 18.5819V20.7273H84.1815ZM107.454 5.27274V1.27274H106.247L105.241 1.94053L107.454 5.27274ZM118.727 5.27274H114.727V98.3636H118.727H122.727V5.27274H118.727ZM118.727 98.3636V94.3636H107.454V98.3636V102.364H118.727V98.3636ZM107.454 98.3636H111.454V17.0909H107.454H103.454V98.3636H107.454ZM107.454 17.0909V13.0909H106.909V17.0909V21.0909H107.454V17.0909ZM106.909 17.0909L104.696 13.7586L81.9688 28.8495L84.1815 32.1818L86.3941 35.5141L109.121 20.4232L106.909 17.0909ZM84.1815 32.1818H88.1815V20.7273H84.1815H80.1815V32.1818H84.1815ZM84.1815 20.7273L86.3943 24.0595L109.667 8.60494L107.454 5.27274L105.241 1.94053L81.9687 17.3951L84.1815 20.7273ZM107.454 5.27274V9.27274H118.727V5.27274V1.27274H107.454V5.27274Z" fill="#AC92CB" mask="url(#path-1-outside-1_1419_2319)"/>
</svg>
