<svg width="149" height="104" viewBox="0 0 149 104" fill="none" xmlns="http://www.w3.org/2000/svg">
<mask id="path-1-outside-1_1419_2566" maskUnits="userSpaceOnUse" x="-0.636719" y="-0.636475" width="150" height="105" fill="black">
<rect fill="white" x="-0.636719" y="-0.636475" width="150" height="105"/>
<path d="M36.3633 99.6363C29.5148 99.6363 23.6815 97.7726 18.8633 94.0453C14.0451 90.2878 10.3633 84.8484 7.81783 77.7272C5.27237 70.5756 3.99965 61.9393 3.99965 51.8181C3.99965 41.7575 5.27237 33.1666 7.81783 26.0453C10.3936 18.8938 14.0906 13.4393 18.9087 9.6817C23.7572 5.89382 29.5754 3.99989 36.3633 3.99989C43.1512 3.99989 48.9542 5.89382 53.7724 9.6817C58.6209 13.4393 62.3178 18.8938 64.8633 26.0453C67.439 33.1666 68.7269 41.7575 68.7269 51.8181C68.7269 61.9393 67.4542 70.5756 64.9087 77.7272C62.3633 84.8484 58.6815 90.2878 53.8633 94.0453C49.0451 97.7726 43.2118 99.6363 36.3633 99.6363ZM36.3633 89.6363C43.1512 89.6363 48.4239 86.3635 52.1815 79.8181C55.939 73.2726 57.8178 63.9393 57.8178 51.8181C57.8178 43.7575 56.9542 36.8938 55.2269 31.2272C53.53 25.5605 51.0754 21.2423 47.8633 18.2726C44.6815 15.3029 40.8481 13.8181 36.3633 13.8181C29.636 13.8181 24.3784 17.1363 20.5906 23.7726C16.8027 30.3787 14.9087 39.7272 14.9087 51.8181C14.9087 59.8787 15.7572 66.7272 17.4542 72.3635C19.1512 77.9999 21.5906 82.2878 24.7724 85.2272C27.9845 88.1666 31.8481 89.6363 36.3633 89.6363ZM85.9996 98.3635V90.1817L116.727 56.5453C120.333 52.6059 123.303 49.1817 125.636 46.2726C127.969 43.3332 129.697 40.5756 130.818 37.9999C131.969 35.3938 132.545 32.6666 132.545 29.8181C132.545 26.5453 131.757 23.712 130.181 21.3181C128.636 18.9241 126.515 17.0756 123.818 15.7726C121.121 14.4696 118.091 13.8181 114.727 13.8181C111.151 13.8181 108.03 14.5605 105.363 16.0453C102.727 17.4999 100.681 19.5453 99.2269 22.1817C97.8027 24.8181 97.0906 27.909 97.0906 31.4544H86.3633C86.3633 25.9999 87.6209 21.212 90.136 17.0908C92.6512 12.9696 96.0754 9.75746 100.409 7.45443C104.772 5.1514 109.666 3.99989 115.091 3.99989C120.545 3.99989 125.378 5.1514 129.591 7.45443C133.803 9.75746 137.106 12.8635 139.5 16.7726C141.894 20.6817 143.091 25.0302 143.091 29.8181C143.091 33.2423 142.469 36.5908 141.227 39.8635C140.015 43.1059 137.894 46.7272 134.863 50.7272C131.863 54.6969 127.697 59.5453 122.363 65.2726L101.454 87.6363V88.3635H144.727V98.3635H85.9996Z"/>
</mask>
<path d="M18.8633 94.0453L16.4034 97.1995L16.4096 97.2044L16.4158 97.2092L18.8633 94.0453ZM7.81783 77.7272L4.04941 79.0685L4.05122 79.0735L7.81783 77.7272ZM7.81783 26.0453L4.05447 24.6899L4.05122 24.699L7.81783 26.0453ZM18.9087 9.6817L21.3686 12.8359L21.3713 12.8338L18.9087 9.6817ZM53.7724 9.6817L51.3002 12.8263L51.3111 12.8349L51.3221 12.8434L53.7724 9.6817ZM64.8633 26.0453L61.0949 27.3866L61.0983 27.3963L61.1018 27.4059L64.8633 26.0453ZM64.9087 77.7272L68.6753 79.0735L68.6771 79.0685L64.9087 77.7272ZM53.8633 94.0453L56.3108 97.2092L56.317 97.2044L56.3232 97.1995L53.8633 94.0453ZM52.1815 79.8181L48.7125 77.8266L48.7125 77.8266L52.1815 79.8181ZM55.2269 31.2272L51.3951 32.3747L51.3979 32.3841L51.4007 32.3934L55.2269 31.2272ZM47.8633 18.2726L45.134 21.1968L45.1409 21.2033L45.1479 21.2097L47.8633 18.2726ZM20.5906 23.7726L24.0606 25.7623L24.0645 25.7555L20.5906 23.7726ZM17.4542 72.3635L13.624 73.5167L13.624 73.5167L17.4542 72.3635ZM24.7724 85.2272L22.0581 88.1653L22.065 88.1717L22.072 88.1781L24.7724 85.2272ZM36.3633 99.6363V95.6363C30.2848 95.6363 25.3418 93.9998 21.3108 90.8815L18.8633 94.0453L16.4158 97.2092C22.0212 101.545 28.7448 103.636 36.3633 103.636V99.6363ZM18.8633 94.0453L21.3232 90.8911C17.231 87.6998 13.9352 82.9574 11.5844 76.3808L7.81783 77.7272L4.05122 79.0735C6.79133 86.7393 10.8592 92.8758 16.4034 97.1995L18.8633 94.0453ZM7.81783 77.7272L11.5862 76.3859C9.2356 69.7817 7.99965 61.6252 7.99965 51.8181H3.99965H-0.000354767C-0.000354767 62.2533 1.30915 71.3696 4.04942 79.0685L7.81783 77.7272ZM3.99965 51.8181H7.99965C7.99965 42.0739 9.23501 33.9645 11.5844 27.3917L7.81783 26.0453L4.05122 24.699C1.30974 32.3686 -0.000354767 41.441 -0.000354767 51.8181H3.99965ZM7.81783 26.0453L11.5812 27.4008C13.9633 20.7869 17.2761 16.0276 21.3686 12.8359L18.9087 9.6817L16.4489 6.5275C10.905 10.851 6.82387 17.0008 4.05448 24.6899L7.81783 26.0453ZM18.9087 9.6817L21.3713 12.8338C25.4432 9.6526 30.3702 7.99989 36.3633 7.99989V3.99989V-0.000114441C28.7806 -0.000114441 22.0712 2.13505 16.4462 6.5296L18.9087 9.6817ZM36.3633 3.99989V7.99989C42.3567 7.99989 47.2632 9.65257 51.3002 12.8263L53.7724 9.6817L56.2445 6.53711C50.6451 2.13508 43.9456 -0.000114441 36.3633 -0.000114441V3.99989ZM53.7724 9.6817L51.3221 12.8434C55.4371 16.0325 58.7448 20.7842 61.0949 27.3866L64.8633 26.0453L68.6317 24.704C65.8908 17.0035 61.8046 10.8461 56.2227 6.52004L53.7724 9.6817ZM64.8633 26.0453L61.1018 27.4059C63.4774 33.9738 64.7269 42.0781 64.7269 51.8181H68.7269H72.7269C72.7269 41.4369 71.4007 32.3593 68.6248 24.6848L64.8633 26.0453ZM68.7269 51.8181H64.7269C64.7269 61.6252 63.491 69.7817 61.1403 76.3859L64.9087 77.7272L68.6771 79.0685C71.4174 71.3696 72.7269 62.2533 72.7269 51.8181H68.7269ZM64.9087 77.7272L61.1421 76.3808C58.7913 82.9574 55.4956 87.6998 51.4034 90.8911L53.8633 94.0453L56.3232 97.1995C61.8674 92.8758 65.9352 86.7393 68.6753 79.0735L64.9087 77.7272ZM53.8633 94.0453L51.4158 90.8815C47.3848 93.9998 42.4417 95.6363 36.3633 95.6363V99.6363V103.636C43.9818 103.636 50.7054 101.545 56.3108 97.2092L53.8633 94.0453ZM36.3633 89.6363V93.6363C44.7677 93.6363 51.2762 89.4292 55.6505 81.8095L52.1815 79.8181L48.7125 77.8266C45.5715 83.2979 41.5346 85.6363 36.3633 85.6363V89.6363ZM52.1815 79.8181L55.6505 81.8095C59.9063 74.3962 61.8178 64.2568 61.8178 51.8181H57.8178H53.8178C53.8178 63.6217 51.9718 72.149 48.7125 77.8266L52.1815 79.8181ZM57.8178 51.8181H61.8178C61.8178 43.4944 60.9287 36.214 59.0531 30.0609L55.2269 31.2272L51.4007 32.3934C52.9797 37.5736 53.8178 44.0206 53.8178 51.8181H57.8178ZM55.2269 31.2272L59.0588 30.0796C57.2262 23.9601 54.47 18.9331 50.5787 15.3355L47.8633 18.2726L45.1479 21.2097C47.6808 23.5515 49.8337 27.1609 51.3951 32.3747L55.2269 31.2272ZM47.8633 18.2726L50.5926 15.3484C46.6455 11.6645 41.8272 9.81807 36.3633 9.81807V13.8181V17.8181C39.8691 17.8181 42.7175 18.9414 45.134 21.1968L47.8633 18.2726ZM36.3633 13.8181V9.81807C27.9795 9.81807 21.5 14.1101 17.1166 21.7898L20.5906 23.7726L24.0645 25.7555C27.2569 20.1624 31.2925 17.8181 36.3633 17.8181V13.8181ZM20.5906 23.7726L17.1205 21.7829C12.8384 29.2509 10.9087 39.4002 10.9087 51.8181H14.9087H18.9087C18.9087 40.0542 20.7669 31.5064 24.0606 25.7623L20.5906 23.7726ZM14.9087 51.8181H10.9087C10.9087 60.1359 11.7815 67.397 13.624 73.5167L17.4542 72.3635L21.2844 71.2104C19.7329 66.0573 18.9087 59.6214 18.9087 51.8181H14.9087ZM17.4542 72.3635L13.624 73.5167C15.4558 79.6009 18.1961 84.5975 22.0581 88.1653L24.7724 85.2272L27.4867 82.289C24.985 79.978 22.8465 76.3989 21.2844 71.2104L17.4542 72.3635ZM24.7724 85.2272L22.072 88.1781C26.0511 91.8193 30.8893 93.6363 36.3633 93.6363V89.6363V85.6363C32.807 85.6363 29.9179 84.5138 27.4728 82.2762L24.7724 85.2272ZM85.9996 98.3635H81.9996V102.364H85.9996V98.3635ZM85.9996 90.1817L83.0464 87.4839L81.9996 88.6297V90.1817H85.9996ZM116.727 56.5453L113.776 53.8445L113.774 53.8475L116.727 56.5453ZM125.636 46.2726L128.756 48.7754L128.763 48.7675L128.769 48.7596L125.636 46.2726ZM130.818 37.9999L127.159 36.3832L127.155 36.3933L127.15 36.4034L130.818 37.9999ZM130.181 21.3181L126.821 23.4875L126.831 23.5025L126.84 23.5173L130.181 21.3181ZM123.818 15.7726L125.558 12.171L125.558 12.171L123.818 15.7726ZM105.363 16.0453L107.296 19.5477L107.302 19.5439L107.309 19.5401L105.363 16.0453ZM99.2269 22.1817L95.7246 20.2494L95.7161 20.2649L95.7076 20.2805L99.2269 22.1817ZM97.0906 31.4544V35.4544H101.091V31.4544H97.0906ZM86.3633 31.4544H82.3633V35.4544H86.3633V31.4544ZM90.136 17.0908L93.5504 19.1746L93.5504 19.1746L90.136 17.0908ZM100.409 7.45443L98.5417 3.91688L98.5315 3.92229L100.409 7.45443ZM129.591 7.45443L131.51 3.94478L131.51 3.94478L129.591 7.45443ZM139.5 16.7726L136.088 18.8616L139.5 16.7726ZM141.227 39.8635L137.487 38.4439L137.484 38.4534L137.48 38.4629L141.227 39.8635ZM134.863 50.7272L131.675 48.3117L131.672 48.3155L134.863 50.7272ZM122.363 65.2726L125.285 68.0044L125.291 67.9986L122.363 65.2726ZM101.454 87.6363L98.5323 84.9044L97.4542 86.0576V87.6363H101.454ZM101.454 88.3635H97.4542V92.3635H101.454V88.3635ZM144.727 88.3635H148.727V84.3635H144.727V88.3635ZM144.727 98.3635V102.364H148.727V98.3635H144.727ZM85.9996 98.3635H89.9996V90.1817H85.9996H81.9996V98.3635H85.9996ZM85.9996 90.1817L88.9529 92.8795L119.68 59.2432L116.727 56.5453L113.774 53.8475L83.0464 87.4839L85.9996 90.1817ZM116.727 56.5453L119.677 59.2462C123.319 55.2675 126.351 51.7743 128.756 48.7754L125.636 46.2726L122.516 43.7699C120.254 46.5891 117.346 49.9444 113.776 53.8445L116.727 56.5453ZM125.636 46.2726L128.769 48.7596C131.251 45.6329 133.188 42.5771 134.485 39.5964L130.818 37.9999L127.15 36.4034C126.205 38.5742 124.688 41.0336 122.503 43.7857L125.636 46.2726ZM130.818 37.9999L134.477 39.6165C135.853 36.5013 136.545 33.2234 136.545 29.8181H132.545H128.545C128.545 32.1097 128.086 34.2863 127.159 36.3832L130.818 37.9999ZM132.545 29.8181H136.545C136.545 25.8778 135.587 22.255 133.523 19.1188L130.181 21.3181L126.84 23.5173C127.928 25.1691 128.545 27.2129 128.545 29.8181H132.545ZM130.181 21.3181L133.542 19.1486C131.577 16.1053 128.881 13.7764 125.558 12.171L123.818 15.7726L122.078 19.3743C124.149 20.3748 125.695 21.7429 126.821 23.4875L130.181 21.3181ZM123.818 15.7726L125.558 12.171C122.255 10.5751 118.619 9.81807 114.727 9.81807V13.8181V17.8181C117.563 17.8181 119.987 18.3641 122.078 19.3743L123.818 15.7726ZM114.727 13.8181V9.81807C110.588 9.81807 106.774 10.6816 103.417 12.5506L105.363 16.0453L107.309 19.5401C109.286 18.4394 111.715 17.8181 114.727 17.8181V13.8181ZM105.363 16.0453L103.431 12.543C100.134 14.3623 97.5438 16.952 95.7246 20.2494L99.2269 22.1817L102.729 24.114C103.819 22.1387 105.32 20.6375 107.296 19.5477L105.363 16.0453ZM99.2269 22.1817L95.7076 20.2805C93.9147 23.5992 93.0906 27.3668 93.0906 31.4544H97.0906H101.091C101.091 28.4512 101.691 26.0369 102.746 24.0829L99.2269 22.1817ZM97.0906 31.4544V27.4544H86.3633V31.4544V35.4544H97.0906V31.4544ZM86.3633 31.4544H90.3633C90.3633 26.6374 91.4661 22.5897 93.5504 19.1746L90.136 17.0908L86.7216 15.007C83.7756 19.8343 82.3633 25.3624 82.3633 31.4544H86.3633ZM90.136 17.0908L93.5504 19.1746C95.6858 15.6756 98.5746 12.959 102.286 10.9866L100.409 7.45443L98.5315 3.92229C93.5762 6.55587 89.6166 10.2636 86.7216 15.007L90.136 17.0908ZM100.409 7.45443L102.276 10.992C106.008 9.022 110.251 7.99989 115.091 7.99989V3.99989V-0.000114441C109.082 -0.000114441 103.536 1.2808 98.5417 3.91689L100.409 7.45443ZM115.091 3.99989V7.99989C119.967 7.99989 124.124 9.02443 127.672 10.9641L129.591 7.45443L131.51 3.94478C126.633 1.27837 121.123 -0.000114441 115.091 -0.000114441V3.99989ZM129.591 7.45443L127.672 10.9641C131.301 12.9485 134.077 15.5769 136.088 18.8616L139.5 16.7726L142.911 14.6836C140.135 10.1502 136.304 6.56644 131.51 3.94478L129.591 7.45443ZM139.5 16.7726L136.088 18.8616C138.08 22.1133 139.091 25.7331 139.091 29.8181H143.091H147.091C147.091 24.3273 145.707 19.2501 142.911 14.6836L139.5 16.7726ZM143.091 29.8181H139.091C139.091 32.7463 138.561 35.6143 137.487 38.4439L141.227 39.8635L144.967 41.2832C146.377 37.5673 147.091 33.7383 147.091 29.8181H143.091ZM141.227 39.8635L137.48 38.4629C136.45 41.2186 134.566 44.4952 131.675 48.3117L134.863 50.7272L138.052 53.1426C141.221 48.9592 143.58 44.9933 144.974 41.2642L141.227 39.8635ZM134.863 50.7272L131.672 48.3155C128.787 52.1327 124.722 56.8699 119.436 62.5467L122.363 65.2726L125.291 67.9986C130.671 62.2208 134.939 57.261 138.054 53.1388L134.863 50.7272ZM122.363 65.2726L119.441 62.5408L98.5323 84.9044L101.454 87.6363L104.376 90.3681L125.285 68.0044L122.363 65.2726ZM101.454 87.6363H97.4542V88.3635H101.454H105.454V87.6363H101.454ZM101.454 88.3635V92.3635H144.727V88.3635V84.3635H101.454V88.3635ZM144.727 88.3635H140.727V98.3635H144.727H148.727V88.3635H144.727ZM144.727 98.3635V94.3635H85.9996V98.3635V102.364H144.727V98.3635Z" fill="#AC92CB" mask="url(#path-1-outside-1_1419_2566)"/>
</svg>
