<svg width="153" height="104" viewBox="0 0 153 104" fill="none" xmlns="http://www.w3.org/2000/svg">
<mask id="path-1-outside-1_1419_2577" maskUnits="userSpaceOnUse" x="-0.636719" y="-0.636475" width="154" height="105" fill="black">
<rect fill="white" x="-0.636719" y="-0.636475" width="154" height="105"/>
<path d="M36.3633 99.6363C29.5148 99.6363 23.6815 97.7726 18.8633 94.0453C14.0451 90.2878 10.3633 84.8484 7.81783 77.7272C5.27237 70.5756 3.99965 61.9393 3.99965 51.8181C3.99965 41.7575 5.27237 33.1666 7.81783 26.0453C10.3936 18.8938 14.0906 13.4393 18.9087 9.6817C23.7572 5.89382 29.5754 3.99989 36.3633 3.99989C43.1512 3.99989 48.9542 5.89382 53.7724 9.6817C58.6209 13.4393 62.3178 18.8938 64.8633 26.0453C67.439 33.1666 68.7269 41.7575 68.7269 51.8181C68.7269 61.9393 67.4542 70.5756 64.9087 77.7272C62.3633 84.8484 58.6815 90.2878 53.8633 94.0453C49.0451 97.7726 43.2118 99.6363 36.3633 99.6363ZM36.3633 89.6363C43.1512 89.6363 48.4239 86.3635 52.1815 79.8181C55.939 73.2726 57.8178 63.9393 57.8178 51.8181C57.8178 43.7575 56.9542 36.8938 55.2269 31.2272C53.53 25.5605 51.0754 21.2423 47.8633 18.2726C44.6815 15.3029 40.8481 13.8181 36.3633 13.8181C29.636 13.8181 24.3784 17.1363 20.5906 23.7726C16.8027 30.3787 14.9087 39.7272 14.9087 51.8181C14.9087 59.8787 15.7572 66.7272 17.4542 72.3635C19.1512 77.9999 21.5906 82.2878 24.7724 85.2272C27.9845 88.1666 31.8481 89.6363 36.3633 89.6363ZM117.454 99.6363C111.454 99.6363 106.106 98.6059 101.409 96.5453C96.7421 94.4847 93.0299 91.6211 90.2724 87.9544C87.5451 84.2575 86.0603 79.9696 85.8178 75.0908H97.2724C97.5148 78.0908 98.5451 80.6817 100.363 82.8635C102.181 85.015 104.56 86.6817 107.5 87.8635C110.439 89.0453 113.697 89.6363 117.272 89.6363C121.272 89.6363 124.818 88.9393 127.909 87.5453C131 86.1514 133.424 84.212 135.181 81.7272C136.939 79.2423 137.818 76.3635 137.818 73.0908C137.818 69.6666 136.969 66.6514 135.272 64.0453C133.575 61.409 131.091 59.3484 127.818 57.8635C124.545 56.3787 120.545 55.6362 115.818 55.6362H108.363V45.6362H115.818C119.515 45.6362 122.757 44.9696 125.545 43.6362C128.363 42.3029 130.56 40.4241 132.136 37.9999C133.742 35.5756 134.545 32.7272 134.545 29.4544C134.545 26.3029 133.848 23.5605 132.454 21.2272C131.06 18.8938 129.091 17.0756 126.545 15.7726C124.03 14.4696 121.06 13.8181 117.636 13.8181C114.424 13.8181 111.394 14.409 108.545 15.5908C105.727 16.7423 103.424 18.4241 101.636 20.6363C99.8481 22.8181 98.8784 25.4544 98.7269 28.5453H87.8178C87.9996 23.6666 89.4693 19.3938 92.2269 15.7272C94.9845 12.0302 98.5906 9.1514 103.045 7.0908C107.53 5.03019 112.454 3.99989 117.818 3.99989C123.575 3.99989 128.515 5.16655 132.636 7.49989C136.757 9.80291 139.924 12.8484 142.136 16.6363C144.348 20.4241 145.454 24.515 145.454 28.909C145.454 34.1514 144.075 38.6211 141.318 42.3181C138.591 46.015 134.878 48.5756 130.181 49.9999V50.7272C136.06 51.6969 140.651 54.1969 143.954 58.2272C147.257 62.2272 148.909 67.1817 148.909 73.0908C148.909 78.1514 147.53 82.6969 144.772 86.7272C142.045 90.7272 138.318 93.8787 133.591 96.1817C128.863 98.4847 123.484 99.6363 117.454 99.6363Z"/>
</mask>
<path d="M18.8633 94.0453L16.4034 97.1995L16.4096 97.2044L16.4158 97.2092L18.8633 94.0453ZM7.81783 77.7272L4.04941 79.0685L4.05122 79.0735L7.81783 77.7272ZM7.81783 26.0453L4.05447 24.6899L4.05122 24.699L7.81783 26.0453ZM18.9087 9.6817L21.3686 12.8359L21.3713 12.8338L18.9087 9.6817ZM53.7724 9.6817L51.3002 12.8263L51.3111 12.8349L51.3221 12.8434L53.7724 9.6817ZM64.8633 26.0453L61.0949 27.3866L61.0983 27.3963L61.1018 27.4059L64.8633 26.0453ZM64.9087 77.7272L68.6753 79.0735L68.6771 79.0685L64.9087 77.7272ZM53.8633 94.0453L56.3108 97.2092L56.317 97.2044L56.3232 97.1995L53.8633 94.0453ZM52.1815 79.8181L48.7125 77.8266L48.7125 77.8266L52.1815 79.8181ZM55.2269 31.2272L51.3951 32.3747L51.3979 32.3841L51.4007 32.3934L55.2269 31.2272ZM47.8633 18.2726L45.134 21.1968L45.1409 21.2033L45.1479 21.2097L47.8633 18.2726ZM20.5906 23.7726L24.0606 25.7623L24.0645 25.7555L20.5906 23.7726ZM17.4542 72.3635L13.624 73.5167L13.624 73.5167L17.4542 72.3635ZM24.7724 85.2272L22.0581 88.1653L22.065 88.1717L22.072 88.1781L24.7724 85.2272ZM36.3633 99.6363V95.6363C30.2848 95.6363 25.3418 93.9998 21.3108 90.8815L18.8633 94.0453L16.4158 97.2092C22.0212 101.545 28.7448 103.636 36.3633 103.636V99.6363ZM18.8633 94.0453L21.3232 90.8911C17.231 87.6998 13.9352 82.9574 11.5844 76.3808L7.81783 77.7272L4.05122 79.0735C6.79133 86.7393 10.8592 92.8758 16.4034 97.1995L18.8633 94.0453ZM7.81783 77.7272L11.5862 76.3859C9.2356 69.7817 7.99965 61.6252 7.99965 51.8181H3.99965H-0.000354767C-0.000354767 62.2533 1.30915 71.3696 4.04942 79.0685L7.81783 77.7272ZM3.99965 51.8181H7.99965C7.99965 42.0739 9.23501 33.9645 11.5844 27.3917L7.81783 26.0453L4.05122 24.699C1.30974 32.3686 -0.000354767 41.441 -0.000354767 51.8181H3.99965ZM7.81783 26.0453L11.5812 27.4008C13.9633 20.7869 17.2761 16.0276 21.3686 12.8359L18.9087 9.6817L16.4489 6.5275C10.905 10.851 6.82387 17.0008 4.05448 24.6899L7.81783 26.0453ZM18.9087 9.6817L21.3713 12.8338C25.4432 9.6526 30.3702 7.99989 36.3633 7.99989V3.99989V-0.000114441C28.7806 -0.000114441 22.0712 2.13505 16.4462 6.5296L18.9087 9.6817ZM36.3633 3.99989V7.99989C42.3567 7.99989 47.2632 9.65257 51.3002 12.8263L53.7724 9.6817L56.2445 6.53711C50.6451 2.13508 43.9456 -0.000114441 36.3633 -0.000114441V3.99989ZM53.7724 9.6817L51.3221 12.8434C55.4371 16.0325 58.7448 20.7842 61.0949 27.3866L64.8633 26.0453L68.6317 24.704C65.8908 17.0035 61.8046 10.8461 56.2227 6.52004L53.7724 9.6817ZM64.8633 26.0453L61.1018 27.4059C63.4774 33.9738 64.7269 42.0781 64.7269 51.8181H68.7269H72.7269C72.7269 41.4369 71.4007 32.3593 68.6248 24.6848L64.8633 26.0453ZM68.7269 51.8181H64.7269C64.7269 61.6252 63.491 69.7817 61.1403 76.3859L64.9087 77.7272L68.6771 79.0685C71.4174 71.3696 72.7269 62.2533 72.7269 51.8181H68.7269ZM64.9087 77.7272L61.1421 76.3808C58.7913 82.9574 55.4956 87.6998 51.4034 90.8911L53.8633 94.0453L56.3232 97.1995C61.8674 92.8758 65.9352 86.7393 68.6753 79.0735L64.9087 77.7272ZM53.8633 94.0453L51.4158 90.8815C47.3848 93.9998 42.4417 95.6363 36.3633 95.6363V99.6363V103.636C43.9818 103.636 50.7054 101.545 56.3108 97.2092L53.8633 94.0453ZM36.3633 89.6363V93.6363C44.7677 93.6363 51.2762 89.4292 55.6505 81.8095L52.1815 79.8181L48.7125 77.8266C45.5715 83.2979 41.5346 85.6363 36.3633 85.6363V89.6363ZM52.1815 79.8181L55.6505 81.8095C59.9063 74.3962 61.8178 64.2568 61.8178 51.8181H57.8178H53.8178C53.8178 63.6217 51.9718 72.149 48.7125 77.8266L52.1815 79.8181ZM57.8178 51.8181H61.8178C61.8178 43.4944 60.9287 36.214 59.0531 30.0609L55.2269 31.2272L51.4007 32.3934C52.9797 37.5736 53.8178 44.0206 53.8178 51.8181H57.8178ZM55.2269 31.2272L59.0588 30.0796C57.2262 23.9601 54.47 18.9331 50.5787 15.3355L47.8633 18.2726L45.1479 21.2097C47.6808 23.5515 49.8337 27.1609 51.3951 32.3747L55.2269 31.2272ZM47.8633 18.2726L50.5926 15.3484C46.6455 11.6645 41.8272 9.81807 36.3633 9.81807V13.8181V17.8181C39.8691 17.8181 42.7175 18.9414 45.134 21.1968L47.8633 18.2726ZM36.3633 13.8181V9.81807C27.9795 9.81807 21.5 14.1101 17.1166 21.7898L20.5906 23.7726L24.0645 25.7555C27.2569 20.1624 31.2925 17.8181 36.3633 17.8181V13.8181ZM20.5906 23.7726L17.1205 21.7829C12.8384 29.2509 10.9087 39.4002 10.9087 51.8181H14.9087H18.9087C18.9087 40.0542 20.7669 31.5064 24.0606 25.7623L20.5906 23.7726ZM14.9087 51.8181H10.9087C10.9087 60.1359 11.7815 67.397 13.624 73.5167L17.4542 72.3635L21.2844 71.2104C19.7329 66.0573 18.9087 59.6214 18.9087 51.8181H14.9087ZM17.4542 72.3635L13.624 73.5167C15.4558 79.6009 18.1961 84.5975 22.0581 88.1653L24.7724 85.2272L27.4867 82.289C24.985 79.978 22.8465 76.3989 21.2844 71.2104L17.4542 72.3635ZM24.7724 85.2272L22.072 88.1781C26.0511 91.8193 30.8893 93.6363 36.3633 93.6363V89.6363V85.6363C32.807 85.6363 29.9179 84.5138 27.4728 82.2762L24.7724 85.2272ZM101.409 96.5453L99.793 100.205L99.8017 100.208L101.409 96.5453ZM90.2724 87.9544L87.0535 90.329L87.0644 90.3439L87.0755 90.3587L90.2724 87.9544ZM85.8178 75.0908V71.0908H81.6141L81.8228 75.2893L85.8178 75.0908ZM97.2724 75.0908L101.259 74.7686L100.962 71.0908H97.2724V75.0908ZM100.363 82.8635L97.2904 85.4243L97.2992 85.4348L97.3081 85.4454L100.363 82.8635ZM107.5 87.8635L106.007 91.5748L106.007 91.5748L107.5 87.8635ZM135.181 81.7272L131.916 79.4173L131.916 79.4173L135.181 81.7272ZM135.272 64.0453L131.909 66.2103L131.915 66.2192L131.92 66.228L135.272 64.0453ZM127.818 57.8635L126.165 61.5061L126.165 61.5061L127.818 57.8635ZM108.363 55.6362H104.363V59.6362H108.363V55.6362ZM108.363 45.6362V41.6362H104.363V45.6362H108.363ZM125.545 43.6362L123.834 40.0205L123.827 40.0241L123.819 40.0277L125.545 43.6362ZM132.136 37.9999L128.801 35.7907L128.792 35.8053L128.782 35.8199L132.136 37.9999ZM132.454 21.2272L135.888 19.1757L135.888 19.1757L132.454 21.2272ZM126.545 15.7726L124.705 19.3243L124.714 19.3288L124.722 19.3332L126.545 15.7726ZM108.545 15.5908L110.058 19.2936L110.068 19.2895L110.078 19.2854L108.545 15.5908ZM101.636 20.6363L104.73 23.1715L104.738 23.1611L104.747 23.1506L101.636 20.6363ZM98.7269 28.5453V32.5453H102.536L102.722 28.7412L98.7269 28.5453ZM87.8178 28.5453L83.8206 28.3964L83.666 32.5453H87.8178V28.5453ZM92.2269 15.7272L95.4237 18.1314L95.4285 18.1251L95.4332 18.1187L92.2269 15.7272ZM103.045 7.0908L101.375 3.45608L101.366 3.46041L103.045 7.0908ZM132.636 7.49989L130.665 10.9807L130.675 10.9862L130.685 10.9917L132.636 7.49989ZM142.136 16.6363L138.682 18.6535L138.682 18.6535L142.136 16.6363ZM141.318 42.3181L138.112 39.9265L138.105 39.935L138.099 39.9435L141.318 42.3181ZM130.181 49.9999L129.021 46.172L126.181 47.0329V49.9999H130.181ZM130.181 50.7272H126.181V54.1214L129.53 54.6738L130.181 50.7272ZM143.954 58.2272L140.86 60.7626L140.865 60.7684L140.87 60.7741L143.954 58.2272ZM144.772 86.7272L141.471 84.4684L141.467 84.4738L144.772 86.7272ZM133.591 96.1817L135.342 99.7777L135.342 99.7777L133.591 96.1817ZM117.454 99.6363V95.6363C111.914 95.6363 107.127 94.6862 103.016 92.8823L101.409 96.5453L99.8017 100.208C105.084 102.526 110.994 103.636 117.454 103.636V99.6363ZM101.409 96.5453L103.024 92.8862C98.9119 91.0703 95.7711 88.611 93.4692 85.5502L90.2724 87.9544L87.0755 90.3587C90.2888 94.6312 94.5722 97.8992 99.793 100.204L101.409 96.5453ZM90.2724 87.9544L93.4913 85.5798C91.2613 82.5569 90.0189 79.0374 89.8129 74.8923L85.8178 75.0908L81.8228 75.2893C82.1016 80.9018 83.8289 85.958 87.0535 90.329L90.2724 87.9544ZM85.8178 75.0908V79.0908H97.2724V75.0908V71.0908H85.8178V75.0908ZM97.2724 75.0908L93.2854 75.413C93.5901 79.1836 94.9114 82.5695 97.2904 85.4243L100.363 82.8635L103.436 80.3028C102.179 78.7939 101.44 76.998 101.259 74.7686L97.2724 75.0908ZM100.363 82.8635L97.3081 85.4454C99.5976 88.1546 102.539 90.1803 106.007 91.5748L107.5 87.8635L108.992 84.1523C106.581 83.1831 104.765 81.8755 103.418 80.2817L100.363 82.8635ZM107.5 87.8635L106.007 91.5748C109.478 92.9703 113.251 93.6363 117.272 93.6363V89.6363V85.6363C114.142 85.6363 111.4 85.1204 108.992 84.1523L107.5 87.8635ZM117.272 89.6363V93.6363C121.739 93.6363 125.861 92.8569 129.553 91.1917L127.909 87.5453L126.264 83.899C123.775 85.0217 120.806 85.6363 117.272 85.6363V89.6363ZM127.909 87.5453L129.553 91.1917C133.218 89.5389 136.232 87.1683 138.447 84.037L135.181 81.7272L131.916 79.4173C130.615 81.2557 128.781 82.7639 126.264 83.899L127.909 87.5453ZM135.181 81.7272L138.447 84.037C140.719 80.825 141.818 77.1252 141.818 73.0908H137.818H133.818C133.818 75.6019 133.159 77.6597 131.916 79.4173L135.181 81.7272ZM137.818 73.0908H141.818C141.818 68.973 140.787 65.1831 138.624 61.8626L135.272 64.0453L131.92 66.228C133.152 68.1197 133.818 70.3602 133.818 73.0908H137.818ZM135.272 64.0453L138.636 61.8804C136.464 58.5066 133.339 55.9759 129.47 54.2209L127.818 57.8635L126.165 61.5061C128.842 62.7209 130.687 64.3114 131.909 66.2103L135.272 64.0453ZM127.818 57.8635L129.471 54.2209C125.542 52.4387 120.944 51.6362 115.818 51.6362V55.6362V59.6362C120.147 59.6362 123.548 60.3187 126.165 61.5061L127.818 57.8635ZM115.818 55.6362V51.6362H108.363V55.6362V59.6362H115.818V55.6362ZM108.363 55.6362H112.363V45.6362H108.363H104.363V55.6362H108.363ZM108.363 45.6362V49.6362H115.818V45.6362V41.6362H108.363V45.6362ZM115.818 45.6362V49.6362C119.996 49.6362 123.849 48.8815 127.271 47.2448L125.545 43.6362L123.819 40.0277C121.666 41.0577 119.033 41.6362 115.818 41.6362V45.6362ZM125.545 43.6362L127.256 47.252C130.69 45.6274 133.478 43.2744 135.49 40.1798L132.136 37.9999L128.782 35.8199C127.642 37.5739 126.037 38.9785 123.834 40.0205L125.545 43.6362ZM132.136 37.9999L135.471 40.2091C137.564 37.0497 138.545 33.411 138.545 29.4544H134.545H130.545C130.545 32.0433 129.92 34.1016 128.801 35.7907L132.136 37.9999ZM134.545 29.4544H138.545C138.545 25.6974 137.708 22.2224 135.888 19.1757L132.454 21.2272L129.02 23.2786C129.988 24.8986 130.545 26.9084 130.545 29.4544H134.545ZM132.454 21.2272L135.888 19.1757C134.089 16.1639 131.545 13.8383 128.368 12.212L126.545 15.7726L124.722 19.3332C126.636 20.3129 128.032 21.6238 129.02 23.2786L132.454 21.2272ZM126.545 15.7726L128.385 12.2209C125.194 10.5679 121.568 9.81807 117.636 9.81807V13.8181V17.8181C120.552 17.8181 122.865 18.3712 124.705 19.3243L126.545 15.7726ZM117.636 13.8181V9.81807C113.92 9.81807 110.367 10.5044 107.012 11.8962L108.545 15.5908L110.078 19.2854C112.42 18.3136 114.928 17.8181 117.636 17.8181V13.8181ZM108.545 15.5908L107.032 11.888C103.635 13.2761 100.767 15.3485 98.525 18.1219L101.636 20.6363L104.747 23.1506C106.081 21.4998 107.819 20.2085 110.058 19.2936L108.545 15.5908ZM101.636 20.6363L98.5421 18.101C96.1577 21.0107 94.9209 24.49 94.7317 28.3495L98.7269 28.5453L102.722 28.7412C102.836 26.4189 103.539 24.6255 104.73 23.1715L101.636 20.6363ZM98.7269 28.5453V24.5453H87.8178V28.5453V32.5453H98.7269V28.5453ZM87.8178 28.5453L91.8151 28.6943C91.9685 24.5761 93.1891 21.1028 95.4237 18.1314L92.2269 15.7272L89.0301 13.3229C85.7496 17.6849 84.0308 22.757 83.8206 28.3964L87.8178 28.5453ZM92.2269 15.7272L95.4332 18.1187C97.7673 14.9895 100.834 12.5208 104.724 10.7212L103.045 7.0908L101.366 3.46041C96.347 5.78198 92.2017 9.07083 89.0206 13.3356L92.2269 15.7272ZM103.045 7.0908L104.715 10.7255C108.632 8.92587 112.98 7.99989 117.818 7.99989V3.99989V-0.000114441C111.928 -0.000114441 106.428 1.13451 101.375 3.45609L103.045 7.0908ZM117.818 3.99989V7.99989C123.033 7.99989 127.262 9.05397 130.665 10.9807L132.636 7.49989L134.607 4.01907C129.767 1.27913 124.118 -0.000114441 117.818 -0.000114441V3.99989ZM132.636 7.49989L130.685 10.9917C134.232 12.9737 136.857 15.5294 138.682 18.6535L142.136 16.6363L145.59 14.6191C142.99 10.1673 139.283 6.63212 134.587 4.00811L132.636 7.49989ZM142.136 16.6363L138.682 18.6535C140.536 21.8281 141.454 25.2227 141.454 28.909H145.454H149.454C149.454 23.8074 148.16 19.0202 145.59 14.619L142.136 16.6363ZM145.454 28.909H141.454C141.454 33.4126 140.285 37.0129 138.112 39.9265L141.318 42.3181L144.524 44.7097C147.866 40.2293 149.454 34.8902 149.454 28.909H145.454ZM141.318 42.3181L138.099 39.9435C135.919 42.8982 132.953 44.9796 129.021 46.172L130.181 49.9999L131.342 53.8278C136.804 52.1716 141.262 49.1319 144.537 44.6927L141.318 42.3181ZM130.181 49.9999H126.181V50.7272H130.181H134.181V49.9999H130.181ZM130.181 50.7272L129.53 54.6738C134.597 55.5096 138.261 57.5912 140.86 60.7626L143.954 58.2272L147.048 55.6917C143.041 50.8025 137.523 47.8841 130.832 46.7805L130.181 50.7272ZM143.954 58.2272L140.87 60.7741C143.499 63.9585 144.909 67.9745 144.909 73.0908H148.909H152.909C152.909 66.3889 151.015 60.4958 147.039 55.6802L143.954 58.2272ZM148.909 73.0908H144.909C144.909 77.3763 143.756 81.1286 141.471 84.4684L144.772 86.7272L148.074 88.9859C151.304 84.2651 152.909 78.9265 152.909 73.0908H148.909ZM144.772 86.7272L141.467 84.4738C139.166 87.8498 135.996 90.5605 131.839 92.5857L133.591 96.1817L135.342 99.7777C140.64 97.1969 144.925 93.6045 148.077 88.9805L144.772 86.7272ZM133.591 96.1817L131.839 92.5857C127.732 94.5864 122.967 95.6363 117.454 95.6363V99.6363V103.636C124.002 103.636 129.994 102.383 135.342 99.7777L133.591 96.1817Z" fill="#AC92CB" mask="url(#path-1-outside-1_1419_2577)"/>
</svg>
