<svg width="1144" height="504" viewBox="0 0 1144 504" fill="none" xmlns="http://www.w3.org/2000/svg">
<g opacity="0.8">
<g opacity="0.5">
<path d="M1139.45 406.27H1084.89V523.093H1139.45V406.27Z" fill="white"/>
<path d="M1139.44 523.817H1084.89C1084.7 523.817 1084.51 523.741 1084.38 523.605C1084.24 523.469 1084.16 523.285 1084.16 523.093V406.27C1084.16 406.078 1084.24 405.894 1084.38 405.758C1084.51 405.622 1084.7 405.546 1084.89 405.546H1139.44C1139.63 405.546 1139.82 405.622 1139.95 405.758C1140.09 405.894 1140.16 406.078 1140.16 406.27V523.093C1140.16 523.285 1140.09 523.469 1139.95 523.605C1139.82 523.741 1139.63 523.817 1139.44 523.817ZM1085.61 522.369H1138.71V406.98H1085.67L1085.61 522.369Z" fill="#263238"/>
<path d="M1139.44 406.27H1123.71V523.093H1139.44V406.27Z" fill="#263238"/>
<path d="M1139.44 523.817H1123.71C1123.52 523.813 1123.34 523.736 1123.2 523.601C1123.07 523.466 1122.99 523.284 1122.98 523.093V406.27C1122.98 406.078 1123.06 405.894 1123.2 405.758C1123.33 405.622 1123.52 405.546 1123.71 405.546H1139.44C1139.63 405.546 1139.82 405.622 1139.95 405.758C1140.09 405.894 1140.16 406.078 1140.16 406.27V523.093C1140.16 523.285 1140.09 523.469 1139.95 523.605C1139.82 523.741 1139.63 523.817 1139.44 523.817ZM1124.43 522.369H1138.72V406.98H1124.43V522.369Z" fill="#263238"/>
<path d="M1121.26 438.919H1087.03C1086.84 438.919 1086.66 438.843 1086.52 438.707C1086.38 438.571 1086.31 438.387 1086.31 438.195V411.195C1086.31 411.004 1086.39 410.822 1086.52 410.687C1086.66 410.552 1086.84 410.474 1087.03 410.471H1121.26C1121.45 410.474 1121.63 410.552 1121.77 410.687C1121.9 410.822 1121.98 411.004 1121.99 411.195V438.195C1121.99 438.387 1121.91 438.571 1121.77 438.707C1121.64 438.843 1121.45 438.919 1121.26 438.919ZM1087.76 437.471H1120.54V411.919H1087.76V437.471Z" fill="#263238"/>
<path d="M1106.76 422.392H1100.91V427.331H1106.76V422.392Z" fill="#263238"/>
<path d="M1106.76 428.056H1100.97C1100.77 428.056 1100.59 427.979 1100.45 427.844C1100.32 427.708 1100.24 427.523 1100.24 427.331V422.392C1100.24 422.2 1100.32 422.016 1100.45 421.88C1100.59 421.744 1100.77 421.668 1100.97 421.668H1106.76C1106.95 421.668 1107.14 421.744 1107.27 421.88C1107.41 422.016 1107.48 422.2 1107.48 422.392V427.331C1107.48 427.523 1107.41 427.708 1107.27 427.844C1107.14 427.979 1106.95 428.056 1106.76 428.056ZM1101.63 426.607H1105.98V423.116H1101.63V426.607Z" fill="#263238"/>
<path d="M1121.26 471.192H1087.03C1086.84 471.192 1086.66 471.116 1086.52 470.98C1086.38 470.845 1086.31 470.66 1086.31 470.468V443.468C1086.31 443.277 1086.39 443.095 1086.52 442.96C1086.66 442.825 1086.84 442.747 1087.03 442.744H1121.26C1121.45 442.747 1121.63 442.825 1121.77 442.96C1121.9 443.095 1121.98 443.277 1121.99 443.468V470.468C1121.99 470.66 1121.91 470.845 1121.77 470.98C1121.64 471.116 1121.45 471.192 1121.26 471.192ZM1087.76 469.744H1120.54V444.192H1087.76V469.744Z" fill="#263238"/>
<path d="M1106.76 454.665H1100.91V459.604H1106.76V454.665Z" fill="#263238"/>
<path d="M1106.76 460.328H1100.97C1100.77 460.328 1100.59 460.252 1100.45 460.116C1100.32 459.98 1100.24 459.796 1100.24 459.604V454.665C1100.24 454.473 1100.32 454.288 1100.45 454.153C1100.59 454.017 1100.77 453.94 1100.97 453.94H1106.76C1106.95 453.94 1107.14 454.017 1107.27 454.153C1107.41 454.288 1107.48 454.473 1107.48 454.665V459.604C1107.48 459.796 1107.41 459.98 1107.27 460.116C1107.14 460.252 1106.95 460.328 1106.76 460.328ZM1101.63 458.88H1105.98V455.389H1101.63V458.88Z" fill="#263238"/>
<path d="M1121.25 475.741H1087.03V502.741H1121.25V475.741Z" fill="white"/>
<path d="M1121.26 503.465H1087.03C1086.84 503.465 1086.66 503.389 1086.52 503.253C1086.38 503.117 1086.31 502.933 1086.31 502.741V475.741C1086.31 475.55 1086.39 475.368 1086.52 475.233C1086.66 475.098 1086.84 475.02 1087.03 475.017H1121.26C1121.45 475.02 1121.63 475.098 1121.77 475.233C1121.9 475.368 1121.98 475.55 1121.99 475.741V502.741C1121.99 502.933 1121.91 503.117 1121.77 503.253C1121.64 503.389 1121.45 503.465 1121.26 503.465ZM1087.76 502.017H1120.54V476.509H1087.76V502.017Z" fill="#263238"/>
<path d="M1106.76 486.938H1100.91V491.877H1106.76V486.938Z" fill="#263238"/>
<path d="M1106.76 492.601H1100.97C1100.77 492.601 1100.59 492.525 1100.45 492.389C1100.32 492.253 1100.24 492.069 1100.24 491.877V486.938C1100.24 486.746 1100.32 486.561 1100.45 486.425C1100.59 486.29 1100.77 486.213 1100.97 486.213H1106.76C1106.95 486.213 1107.14 486.29 1107.27 486.425C1107.41 486.561 1107.48 486.746 1107.48 486.938V491.877C1107.48 492.069 1107.41 492.253 1107.27 492.389C1107.14 492.525 1106.95 492.601 1106.76 492.601ZM1101.63 491.153H1105.98V487.662H1101.63V491.153Z" fill="#263238"/>
<path d="M1024.76 367.566H934.33V430.287H1024.76V367.566Z" fill="white"/>
<path d="M1024.83 431.011H934.331C934.139 431.011 933.954 430.935 933.819 430.799C933.683 430.663 933.606 430.479 933.606 430.287V367.566C933.61 367.375 933.688 367.193 933.823 367.058C933.958 366.923 934.14 366.845 934.331 366.842H1024.83C1025.03 366.842 1025.21 366.918 1025.35 367.054C1025.48 367.19 1025.56 367.374 1025.56 367.566V430.287C1025.56 430.479 1025.48 430.663 1025.35 430.799C1025.21 430.935 1025.03 431.011 1024.83 431.011ZM935.127 429.562H1024.11V368.29H935.026L935.127 429.562Z" fill="#263238"/>
<path d="M1020.5 370.521H938.603V427.317H1020.5V370.521Z" fill="#BFBFBF"/>
<path d="M1020.49 428.056H938.604C938.412 428.056 938.227 427.98 938.092 427.844C937.956 427.708 937.879 427.524 937.879 427.332V370.521C937.879 370.329 937.956 370.145 938.092 370.009C938.227 369.873 938.412 369.797 938.604 369.797H1020.49C1020.68 369.8 1020.86 369.878 1021 370.013C1021.13 370.148 1021.21 370.33 1021.21 370.521V427.332C1021.21 427.523 1021.13 427.705 1021 427.84C1020.86 427.975 1020.68 428.052 1020.49 428.056ZM939.371 426.607H1019.82V371.245H939.371V426.607Z" fill="#263238"/>
<path d="M957.289 379.762H945.614V394.479H957.289V379.762Z" fill="white"/>
<path d="M957.288 395.204H945.613C945.421 395.204 945.237 395.127 945.101 394.991C944.965 394.856 944.889 394.671 944.889 394.479V379.762C944.889 379.57 944.965 379.386 945.101 379.25C945.237 379.114 945.421 379.038 945.613 379.038H957.288C957.48 379.038 957.665 379.114 957.801 379.25C957.936 379.386 958.013 379.57 958.013 379.762V394.479C958.013 394.671 957.936 394.856 957.801 394.991C957.665 395.127 957.48 395.204 957.288 395.204ZM946.338 393.755H956.564V380.487H946.338V393.755Z" fill="#263238"/>
<path d="M986.723 387.382H973.527V408.197H986.723V387.382Z" fill="#BA68C8"/>
<path d="M986.723 408.907H973.527C973.335 408.907 973.151 408.83 973.015 408.695C972.879 408.559 972.803 408.374 972.803 408.182V387.382C972.803 387.19 972.879 387.005 973.015 386.87C973.151 386.734 973.335 386.657 973.527 386.657H986.723C986.915 386.657 987.099 386.734 987.235 386.87C987.371 387.005 987.447 387.19 987.447 387.382V408.182C987.447 408.374 987.371 408.559 987.235 408.695C987.099 408.83 986.915 408.907 986.723 408.907ZM974.251 407.458H985.999V388.149H974.251V407.458Z" fill="#263238"/>
<path d="M952.726 407.675H946.121V414.281H952.726V407.675Z" fill="#BA68C8"/>
<path d="M952.711 415.005H946.121C945.929 415.005 945.744 414.929 945.609 414.793C945.473 414.657 945.396 414.473 945.396 414.281V407.676C945.396 407.484 945.473 407.299 945.609 407.163C945.744 407.028 945.929 406.951 946.121 406.951H952.711C952.904 406.951 953.088 407.028 953.224 407.163C953.359 407.299 953.436 407.484 953.436 407.676V414.223C953.444 414.323 953.431 414.423 953.398 414.518C953.365 414.613 953.313 414.699 953.245 414.773C953.177 414.846 953.095 414.905 953.003 414.945C952.911 414.985 952.812 415.005 952.711 415.005ZM946.917 413.557H952.06V408.429H946.917V413.557Z" fill="#263238"/>
<path d="M1003.97 388.903H998.397V396.522H1003.97V388.903Z" fill="white"/>
<path d="M1003.98 397.232H998.399C998.206 397.232 998.022 397.155 997.886 397.02C997.751 396.884 997.674 396.7 997.674 396.507V388.903C997.674 388.711 997.751 388.526 997.886 388.391C998.022 388.255 998.206 388.178 998.399 388.178H1003.98C1004.17 388.178 1004.35 388.255 1004.49 388.391C1004.62 388.526 1004.7 388.711 1004.7 388.903V396.507C1004.7 396.7 1004.62 396.884 1004.49 397.02C1004.35 397.155 1004.17 397.232 1003.98 397.232ZM999.123 395.783H1003.25V389.598H999.123V395.783Z" fill="#263238"/>
<path d="M985.188 375.2H980.625V379.256H985.188V375.2Z" fill="white"/>
<path d="M985.202 379.98H980.625C980.433 379.98 980.249 379.903 980.113 379.768C979.977 379.632 979.901 379.448 979.901 379.255V375.2C979.901 375.008 979.977 374.823 980.113 374.688C980.249 374.552 980.433 374.475 980.625 374.475H985.202C985.395 374.475 985.579 374.552 985.715 374.688C985.85 374.823 985.927 375.008 985.927 375.2V379.255C985.927 379.448 985.85 379.632 985.715 379.768C985.579 379.903 985.395 379.98 985.202 379.98ZM981.349 378.531H984.478V375.924H981.378L981.349 378.531Z" fill="#263238"/>
<path d="M999.919 404.633H991.286V417.323H999.919V404.633Z" fill="white"/>
<path d="M999.919 418.047H991.228C991.036 418.047 990.851 417.971 990.716 417.835C990.58 417.699 990.503 417.515 990.503 417.323V404.634C990.503 404.442 990.58 404.258 990.716 404.122C990.851 403.986 991.036 403.91 991.228 403.91H999.919C1000.11 403.91 1000.3 403.986 1000.43 404.122C1000.57 404.258 1000.64 404.442 1000.64 404.634V417.323C1000.64 417.515 1000.57 417.699 1000.43 417.835C1000.3 417.971 1000.11 418.047 999.919 418.047ZM992.01 416.599H999.252V405.358H992.01V416.599Z" fill="#263238"/>
<path d="M1014.13 397.521H1007.52V407.675H1014.13V397.521Z" fill="#BA68C8"/>
<path d="M1014.13 408.429H1007.52C1007.33 408.429 1007.15 408.352 1007.01 408.216C1006.88 408.081 1006.8 407.896 1006.8 407.704V397.565C1006.8 397.374 1006.88 397.192 1007.02 397.057C1007.15 396.922 1007.33 396.844 1007.52 396.84H1014.13C1014.32 396.84 1014.5 396.917 1014.64 397.053C1014.78 397.188 1014.85 397.373 1014.85 397.565V407.704C1014.85 407.896 1014.78 408.081 1014.64 408.216C1014.5 408.352 1014.32 408.429 1014.13 408.429ZM1008.25 406.98H1013.4V398.289H1008.25V406.98Z" fill="#263238"/>
<path d="M994.124 462.994H967.066V523.093H994.124V462.994Z" fill="#263238"/>
<path d="M994.124 523.817H967.066C966.873 523.817 966.689 523.741 966.553 523.605C966.418 523.469 966.341 523.285 966.341 523.093V462.994C966.341 462.802 966.418 462.618 966.553 462.482C966.689 462.346 966.873 462.27 967.066 462.27H994.124C994.316 462.27 994.5 462.346 994.636 462.482C994.772 462.618 994.848 462.802 994.848 462.994V523.093C994.844 523.284 994.767 523.466 994.632 523.601C994.497 523.736 994.315 523.813 994.124 523.817ZM967.79 522.369H993.399V463.718H967.79V522.369Z" fill="#263238"/>
<path d="M1078.75 461.183H960.359C960.167 461.183 959.983 461.107 959.847 460.971C959.711 460.835 959.635 460.651 959.635 460.459V456.765C959.635 456.573 959.711 456.389 959.847 456.253C959.983 456.117 960.167 456.041 960.359 456.041H1078.75C1078.94 456.041 1079.12 456.117 1079.26 456.253C1079.39 456.389 1079.47 456.573 1079.47 456.765V460.459C1079.47 460.651 1079.39 460.835 1079.26 460.971C1079.12 461.107 1078.94 461.183 1078.75 461.183ZM961.083 459.735H1078.02V457.49H961.098L961.083 459.735Z" fill="#263238"/>
<path d="M1078.75 461.183H1051.31C1051.12 461.18 1050.94 461.102 1050.8 460.967C1050.67 460.832 1050.59 460.65 1050.59 460.459V456.765C1050.59 456.573 1050.66 456.389 1050.8 456.253C1050.94 456.117 1051.12 456.041 1051.31 456.041H1078.75C1078.94 456.041 1079.12 456.117 1079.26 456.253C1079.39 456.389 1079.47 456.573 1079.47 456.765V460.459C1079.47 460.651 1079.39 460.835 1079.26 460.971C1079.12 461.107 1078.94 461.183 1078.75 461.183ZM1052.04 459.735H1078.02V457.49H1052.04V459.735Z" fill="#263238"/>
<path d="M963.475 460.401V523.093H968.066V467.904H1018.14V523.093H1076.95V460.401H963.475Z" fill="white"/>
<path d="M1076.98 523.817H1018.13C1017.94 523.813 1017.75 523.736 1017.62 523.601C1017.48 523.466 1017.41 523.284 1017.4 523.093V468.628H968.805V523.093C968.802 523.284 968.724 523.466 968.589 523.601C968.454 523.736 968.272 523.813 968.081 523.817H963.475C963.283 523.817 963.098 523.741 962.963 523.605C962.827 523.469 962.75 523.285 962.75 523.093V460.401C962.75 460.209 962.827 460.025 962.963 459.889C963.098 459.753 963.283 459.677 963.475 459.677H1076.98C1077.17 459.68 1077.35 459.758 1077.49 459.893C1077.62 460.028 1077.7 460.21 1077.7 460.401V523.093C1077.7 523.284 1077.62 523.466 1077.49 523.601C1077.35 523.736 1077.17 523.813 1076.98 523.817ZM1018.88 522.368H1076.26V461.125H964.199V522.368H967.357V467.904C967.357 467.712 967.433 467.528 967.569 467.392C967.705 467.256 967.889 467.18 968.081 467.18H1018.13C1018.32 467.18 1018.5 467.256 1018.64 467.392C1018.77 467.528 1018.85 467.712 1018.85 467.904L1018.88 522.368Z" fill="#263238"/>
<path d="M1076.95 460.401H1049.89V523.093H1076.95V460.401Z" fill="#263238"/>
<path d="M1076.98 523.817H1049.89C1049.7 523.817 1049.52 523.741 1049.38 523.605C1049.24 523.469 1049.17 523.285 1049.17 523.093V460.401C1049.17 460.209 1049.24 460.025 1049.38 459.889C1049.52 459.753 1049.7 459.677 1049.89 459.677H1076.98C1077.17 459.68 1077.35 459.758 1077.49 459.893C1077.62 460.028 1077.7 460.21 1077.7 460.401V523.093C1077.7 523.284 1077.62 523.466 1077.49 523.601C1077.35 523.736 1077.17 523.813 1076.98 523.817ZM1050.65 522.368H1076.26V461.125H1050.62L1050.65 522.368Z" fill="#263238"/>
<path d="M1046.21 468.397H1021.28V480.984H1046.21V468.397Z" fill="white"/>
<path d="M1046.21 481.694H1021.28C1021.09 481.694 1020.91 481.618 1020.77 481.482C1020.64 481.346 1020.56 481.162 1020.56 480.97V468.397C1020.56 468.205 1020.64 468.021 1020.77 467.885C1020.91 467.749 1021.09 467.673 1021.28 467.673H1046.21C1046.4 467.673 1046.59 467.749 1046.72 467.885C1046.86 468.021 1046.94 468.205 1046.94 468.397V480.97C1046.94 481.162 1046.86 481.346 1046.72 481.482C1046.59 481.618 1046.4 481.694 1046.21 481.694ZM1022.01 480.246H1045.49V469.121H1022.01V480.246Z" fill="#263238"/>
<path d="M1036.52 475.162H1030.96C1030.77 475.162 1030.58 475.085 1030.45 474.949C1030.31 474.814 1030.24 474.629 1030.24 474.437C1030.24 474.245 1030.31 474.061 1030.45 473.925C1030.58 473.789 1030.77 473.713 1030.96 473.713H1036.52C1036.71 473.713 1036.9 473.789 1037.03 473.925C1037.17 474.061 1037.25 474.245 1037.25 474.437C1037.25 474.629 1037.17 474.814 1037.03 474.949C1036.9 475.085 1036.71 475.162 1036.52 475.162Z" fill="#263238"/>
<path d="M1046.21 484.606H1021.28V497.193H1046.21V484.606Z" fill="white"/>
<path d="M1046.21 497.918H1021.28C1021.09 497.918 1020.91 497.841 1020.77 497.706C1020.64 497.57 1020.56 497.385 1020.56 497.193V484.606C1020.56 484.414 1020.64 484.229 1020.77 484.094C1020.91 483.958 1021.09 483.882 1021.28 483.882H1046.21C1046.4 483.885 1046.59 483.963 1046.72 484.098C1046.86 484.233 1046.93 484.415 1046.94 484.606V497.193C1046.94 497.385 1046.86 497.57 1046.72 497.706C1046.59 497.841 1046.4 497.918 1046.21 497.918ZM1022.01 496.469H1045.49V485.33H1022.01V496.469Z" fill="#263238"/>
<path d="M1036.52 491.863H1030.96C1030.77 491.863 1030.58 491.786 1030.45 491.651C1030.31 491.515 1030.24 491.331 1030.24 491.139C1030.24 490.946 1030.31 490.762 1030.45 490.626C1030.58 490.491 1030.77 490.414 1030.96 490.414H1036.52C1036.71 490.414 1036.9 490.491 1037.03 490.626C1037.17 490.762 1037.25 490.946 1037.25 491.139C1037.25 491.331 1037.17 491.515 1037.03 491.651C1036.9 491.786 1036.71 491.863 1036.52 491.863Z" fill="#263238"/>
<path d="M1046.21 500.829H1021.28V513.417H1046.21V500.829Z" fill="white"/>
<path d="M1046.21 514.17H1021.28C1021.09 514.17 1020.91 514.094 1020.77 513.958C1020.64 513.822 1020.56 513.638 1020.56 513.446V500.873C1020.56 500.68 1020.64 500.496 1020.77 500.36C1020.91 500.225 1021.09 500.148 1021.28 500.148H1046.21C1046.4 500.148 1046.59 500.225 1046.72 500.36C1046.86 500.496 1046.94 500.68 1046.94 500.873V513.446C1046.94 513.638 1046.86 513.822 1046.72 513.958C1046.59 514.094 1046.4 514.17 1046.21 514.17ZM1022.01 512.721H1045.49V501.597H1022.01V512.721Z" fill="#263238"/>
<path d="M936.532 482.419H933.287V507.261H936.532V482.419Z" fill="#263238"/>
<path d="M936.473 507.985H933.286C933.094 507.985 932.91 507.909 932.774 507.773C932.638 507.637 932.562 507.453 932.562 507.261V482.419C932.562 482.227 932.638 482.042 932.774 481.907C932.91 481.771 933.094 481.694 933.286 481.694H936.473C936.665 481.694 936.849 481.771 936.985 481.907C937.121 482.042 937.197 482.227 937.197 482.419V507.261C937.197 507.356 937.179 507.45 937.142 507.538C937.106 507.626 937.052 507.706 936.985 507.773C936.918 507.84 936.838 507.894 936.75 507.93C936.662 507.966 936.568 507.985 936.473 507.985ZM933.953 506.537H935.749V483.143H934.011L933.953 506.537Z" fill="#263238"/>
<path d="M926.798 422.653C930.529 422.653 934.106 424.135 936.744 426.773C939.382 429.41 940.863 432.988 940.863 436.718V478.102H912.733V436.718C912.733 432.988 914.215 429.41 916.853 426.773C919.491 424.135 923.068 422.653 926.798 422.653Z" fill="#BFBFBF"/>
<path d="M940.819 478.812H912.733C912.54 478.812 912.356 478.736 912.22 478.6C912.085 478.464 912.008 478.28 912.008 478.088V436.718C912.008 432.796 913.566 429.034 916.34 426.26C919.113 423.487 922.875 421.929 926.798 421.929C930.72 421.929 934.482 423.487 937.255 426.26C940.029 429.034 941.587 432.796 941.587 436.718V478.088C941.587 478.187 941.567 478.284 941.528 478.375C941.489 478.466 941.432 478.548 941.36 478.616C941.288 478.684 941.203 478.736 941.11 478.77C941.017 478.804 940.918 478.818 940.819 478.812ZM913.413 477.363H940.095V436.718C940.095 433.18 938.689 429.786 936.187 427.285C933.686 424.783 930.292 423.377 926.754 423.377C923.216 423.377 919.823 424.783 917.321 427.285C914.819 429.786 913.413 433.18 913.413 436.718V477.363Z" fill="#263238"/>
<path d="M945.729 478.088H917.643V436.718C917.643 432.988 919.124 429.41 921.762 426.773C924.4 424.135 927.977 422.653 931.708 422.653C935.438 422.653 939.015 424.135 941.653 426.773C944.291 429.41 945.773 432.988 945.773 436.718L945.729 478.088Z" fill="#BFBFBF"/>
<path d="M945.729 478.812H917.643C917.451 478.812 917.266 478.736 917.131 478.6C916.995 478.464 916.918 478.28 916.918 478.088V436.718C916.918 432.796 918.477 429.034 921.25 426.26C924.024 423.487 927.785 421.929 931.708 421.929C935.63 421.929 939.392 423.487 942.165 426.26C944.939 429.034 946.497 432.796 946.497 436.718V478.088C946.497 478.187 946.477 478.284 946.438 478.375C946.399 478.466 946.342 478.548 946.27 478.616C946.198 478.684 946.113 478.736 946.02 478.77C945.927 478.804 945.828 478.818 945.729 478.812ZM918.324 477.363H945.005V436.718C945.005 433.18 943.6 429.786 941.098 427.285C938.596 424.783 935.202 423.377 931.664 423.377C928.126 423.377 924.733 424.783 922.231 427.285C919.729 429.786 918.324 433.18 918.324 436.718V477.363Z" fill="#263238"/>
<path d="M961.143 471.874H912.733V478.088H961.143V471.874Z" fill="#BFBFBF"/>
<path d="M961.098 478.812H912.733C912.54 478.812 912.356 478.736 912.22 478.6C912.085 478.464 912.008 478.28 912.008 478.088V471.874C912.008 471.682 912.085 471.497 912.22 471.362C912.356 471.226 912.54 471.149 912.733 471.149H961.098C961.29 471.149 961.475 471.226 961.61 471.362C961.746 471.497 961.823 471.682 961.823 471.874V478.088C961.823 478.28 961.746 478.464 961.61 478.6C961.475 478.736 961.29 478.812 961.098 478.812ZM913.413 477.364H960.374V472.598H913.457L913.413 477.364Z" fill="#263238"/>
<path d="M961.141 471.874H936.531V478.088H961.141V471.874Z" fill="#BFBFBF"/>
<path d="M961.098 478.812H936.473C936.281 478.812 936.097 478.736 935.961 478.6C935.825 478.464 935.749 478.28 935.749 478.088V471.874C935.749 471.682 935.825 471.497 935.961 471.362C936.097 471.226 936.281 471.149 936.473 471.149H961.098C961.29 471.149 961.474 471.226 961.61 471.362C961.746 471.497 961.822 471.682 961.822 471.874V478.088C961.822 478.28 961.746 478.464 961.61 478.6C961.474 478.736 961.29 478.812 961.098 478.812ZM937.212 477.364H960.388V472.598H937.212V477.364Z" fill="#263238"/>
<path d="M944.107 478.363H926.797V482.144H944.107V478.363Z" fill="#263238"/>
<path d="M944.108 482.868H926.726C926.534 482.868 926.349 482.792 926.214 482.656C926.078 482.52 926.001 482.336 926.001 482.144V478.363C926.001 478.171 926.078 477.987 926.214 477.851C926.349 477.715 926.534 477.639 926.726 477.639H944.108C944.3 477.639 944.484 477.715 944.62 477.851C944.756 477.987 944.832 478.171 944.832 478.363V482.144C944.832 482.336 944.756 482.52 944.62 482.656C944.484 482.792 944.3 482.868 944.108 482.868ZM927.522 481.42H943.456V479.087H927.522V481.42Z" fill="#263238"/>
<path d="M869.481 495.426H851.229V523.093H869.481V495.426Z" fill="#263238"/>
<path d="M869.481 523.817H851.23C851.038 523.817 850.854 523.741 850.718 523.605C850.582 523.469 850.506 523.285 850.506 523.093V495.426C850.506 495.234 850.582 495.05 850.718 494.914C850.854 494.778 851.038 494.702 851.23 494.702H869.481C869.673 494.702 869.858 494.778 869.993 494.914C870.129 495.05 870.206 495.234 870.206 495.426V523.093C870.206 523.285 870.129 523.469 869.993 523.605C869.858 523.741 869.673 523.817 869.481 523.817ZM851.954 522.369H868.757V496.15H851.954V522.369Z" fill="#263238"/>
<path d="M860.442 460.662C860.442 460.662 855.633 446.582 856.719 442.555C856.94 441.738 857.416 441.012 858.077 440.483C858.739 439.955 859.552 439.65 860.398 439.615C861.244 439.579 862.079 439.814 862.783 440.286C863.486 440.757 864.021 441.441 864.31 442.237C865.396 445.641 860.442 460.662 860.442 460.662Z" fill="#BA68C8"/>
<path d="M860.442 461.386C860.291 461.389 860.142 461.344 860.017 461.259C859.893 461.173 859.798 461.05 859.747 460.908C859.558 460.314 854.894 446.553 856.024 442.367C856.257 441.386 856.811 440.51 857.598 439.88C858.386 439.251 859.361 438.902 860.369 438.89C861.37 438.854 862.356 439.138 863.185 439.701C864.013 440.263 864.64 441.076 864.976 442.019C866.091 445.554 861.615 459.329 861.094 460.85C861.044 460.992 860.952 461.114 860.83 461.202C860.709 461.29 860.563 461.339 860.413 461.342L860.442 461.386ZM860.514 440.339H860.442C859.739 440.335 859.055 440.571 858.505 441.008C857.954 441.446 857.57 442.058 857.414 442.744C856.705 445.409 858.935 453.564 860.427 458.315C862.267 452.405 864.28 444.525 863.614 442.454C863.399 441.808 862.981 441.249 862.422 440.86C861.864 440.471 861.195 440.273 860.514 440.296V440.339Z" fill="#263238"/>
<path d="M860.47 496.426C860.278 496.426 860.094 496.349 859.958 496.214C859.822 496.078 859.746 495.894 859.746 495.702V447.22C859.746 447.028 859.822 446.843 859.958 446.708C860.094 446.572 860.278 446.495 860.47 446.495C860.662 446.495 860.846 446.572 860.982 446.708C861.118 446.843 861.194 447.028 861.194 447.22V495.702C861.194 495.894 861.118 496.078 860.982 496.214C860.846 496.349 860.662 496.426 860.47 496.426Z" fill="#263238"/>
<path d="M860.586 491.182C860.586 491.182 863.063 484.056 867.713 480.956C872.363 477.856 877.317 480.652 877.317 483.273C877.317 485.895 865.859 486.069 860.586 491.182Z" fill="#BA68C8"/>
<path d="M860.586 491.892C860.449 491.893 860.314 491.858 860.195 491.79C860.061 491.698 859.96 491.565 859.908 491.411C859.856 491.257 859.855 491.09 859.905 490.936C860.007 490.631 862.513 483.548 867.307 480.347C868.481 479.512 869.86 479.012 871.297 478.899C872.733 478.787 874.173 479.067 875.462 479.71C876.17 480.021 876.782 480.515 877.236 481.141C877.689 481.767 877.967 482.503 878.041 483.273C878.041 485.04 875.491 485.764 871.957 486.764C868.423 487.763 863.802 489.067 861.093 491.689C861.028 491.757 860.949 491.81 860.861 491.845C860.774 491.88 860.68 491.896 860.586 491.892ZM872.015 480.304C870.621 480.319 869.263 480.753 868.118 481.549C865.607 483.478 863.615 486.002 862.324 488.893C865.22 487.309 868.313 486.116 871.522 485.344C873.652 484.751 876.563 483.896 876.563 483.259C876.48 482.755 876.27 482.281 875.953 481.88C875.637 481.48 875.224 481.167 874.753 480.97C873.905 480.537 872.966 480.313 872.015 480.318V480.304Z" fill="#263238"/>
<path d="M860.122 491.182C860.122 491.182 857.645 484.056 852.995 480.956C848.346 477.856 843.406 480.652 843.406 483.273C843.406 485.895 854.864 486.069 860.122 491.182Z" fill="#BA68C8"/>
<path d="M860.124 491.892C860.03 491.893 859.937 491.876 859.85 491.841C859.763 491.806 859.684 491.755 859.617 491.689C856.908 489.067 852.374 487.792 848.767 486.764C845.161 485.735 842.684 485.04 842.684 483.273C842.756 482.505 843.032 481.77 843.482 481.144C843.933 480.518 844.542 480.023 845.247 479.71C846.537 479.067 847.977 478.787 849.413 478.899C850.85 479.012 852.228 479.512 853.403 480.347C858.197 483.548 860.645 490.631 860.804 490.936C860.848 491.044 860.864 491.162 860.851 491.278C860.837 491.394 860.795 491.505 860.727 491.601C860.659 491.696 860.568 491.773 860.462 491.824C860.357 491.874 860.241 491.898 860.124 491.892ZM848.709 480.304C847.742 480.297 846.788 480.526 845.928 480.97C845.46 481.169 845.05 481.483 844.736 481.883C844.422 482.283 844.214 482.756 844.132 483.259C844.132 483.925 847.029 484.707 849.158 485.344C852.372 486.118 855.469 487.311 858.371 488.893C857.08 486.002 855.089 483.478 852.577 481.549C851.438 480.766 850.092 480.337 848.709 480.318V480.304Z" fill="#263238"/>
<path d="M860.586 479.565C860.586 479.565 863.063 472.438 867.713 469.339C872.363 466.239 877.317 469.034 877.317 471.671C877.317 474.307 865.859 474.452 860.586 479.565Z" fill="#BA68C8"/>
<path d="M860.586 480.289C860.448 480.285 860.313 480.245 860.195 480.173C860.061 480.081 859.96 479.948 859.908 479.794C859.856 479.64 859.855 479.473 859.905 479.319C860.007 479.029 862.513 471.931 867.307 468.745C868.479 467.906 869.858 467.402 871.294 467.287C872.731 467.172 874.172 467.451 875.462 468.093C876.172 468.405 876.786 468.901 877.239 469.53C877.692 470.159 877.969 470.898 878.041 471.671C878.041 473.423 875.491 474.148 871.957 475.147C868.423 476.146 863.802 477.45 861.093 480.086C860.957 480.218 860.775 480.29 860.586 480.289ZM872.015 468.701C870.621 468.716 869.263 469.15 868.118 469.947C865.61 471.878 863.619 474.401 862.324 477.291C865.219 475.707 868.312 474.518 871.522 473.756C873.652 473.148 876.563 472.308 876.563 471.671C876.482 471.164 876.273 470.687 875.957 470.284C875.64 469.881 875.225 469.566 874.753 469.367C873.906 468.929 872.968 468.701 872.015 468.701Z" fill="#263238"/>
<path d="M860.122 479.565C860.122 479.565 857.645 472.438 852.995 469.339C848.346 466.239 843.406 469.034 843.406 471.671C843.406 474.307 854.864 474.452 860.122 479.565Z" fill="#BA68C8"/>
<path d="M860.124 480.289C859.936 480.285 859.756 480.213 859.617 480.086C856.908 477.45 852.374 476.175 848.767 475.147C845.161 474.119 842.684 473.423 842.684 471.671C842.754 470.9 843.028 470.162 843.479 469.533C843.93 468.904 844.54 468.407 845.247 468.093C846.538 467.451 847.979 467.172 849.415 467.287C850.852 467.402 852.23 467.906 853.403 468.745C858.197 471.931 860.645 479.029 860.804 479.319C860.86 479.473 860.862 479.641 860.809 479.797C860.756 479.952 860.653 480.085 860.515 480.173C860.398 480.249 860.262 480.289 860.124 480.289ZM848.709 468.701C847.746 468.69 846.795 468.919 845.943 469.367C845.47 469.566 845.055 469.881 844.739 470.284C844.422 470.687 844.213 471.164 844.132 471.671C844.132 472.322 847.029 473.119 849.158 473.756C852.373 474.518 855.471 475.707 858.371 477.291C857.076 474.401 855.086 471.878 852.577 469.947C851.439 469.158 850.093 468.725 848.709 468.701Z" fill="#263238"/>
<path d="M860.586 467.948C860.586 467.948 863.063 460.821 867.713 457.721C872.363 454.622 877.317 457.417 877.317 460.053C877.317 462.69 865.859 462.835 860.586 467.948Z" fill="#BA68C8"/>
<path d="M860.586 468.672C860.448 468.667 860.313 468.628 860.195 468.556C860.061 468.464 859.96 468.331 859.908 468.177C859.856 468.023 859.855 467.856 859.905 467.702C860.007 467.412 862.513 460.314 867.307 457.127C868.479 456.289 869.858 455.785 871.294 455.67C872.731 455.555 874.172 455.834 875.462 456.476C876.172 456.788 876.786 457.284 877.239 457.913C877.692 458.542 877.969 459.281 878.041 460.053C878.041 461.806 875.491 462.53 871.957 463.53C868.423 464.529 863.802 465.833 861.093 468.469C860.957 468.601 860.775 468.673 860.586 468.672ZM872.015 457.084C870.622 457.094 869.264 457.523 868.118 458.315C865.606 460.249 863.614 462.778 862.324 465.674C865.214 464.077 868.309 462.883 871.522 462.125C873.652 461.516 876.563 460.676 876.563 460.039C876.491 459.531 876.285 459.052 875.967 458.65C875.649 458.248 875.23 457.937 874.753 457.75C873.907 457.311 872.967 457.087 872.015 457.099V457.084Z" fill="#263238"/>
<path d="M860.122 467.948C860.122 467.948 857.645 460.821 852.995 457.721C848.346 454.622 843.406 457.417 843.406 460.053C843.406 462.69 854.864 462.835 860.122 467.948Z" fill="#BA68C8"/>
<path d="M860.124 468.672C859.936 468.668 859.756 468.596 859.617 468.469C856.908 465.833 852.374 464.558 848.767 463.53C845.161 462.501 842.684 461.806 842.684 460.053C842.754 459.283 843.028 458.545 843.479 457.916C843.93 457.287 844.54 456.79 845.247 456.476C846.538 455.834 847.979 455.555 849.415 455.67C850.852 455.785 852.23 456.289 853.403 457.127C858.197 460.314 860.645 467.412 860.804 467.702C860.863 467.856 860.866 468.025 860.813 468.181C860.76 468.337 860.655 468.47 860.515 468.556C860.398 468.632 860.262 468.672 860.124 468.672ZM848.709 457.084C847.741 457.07 846.785 457.299 845.928 457.75C845.458 457.946 845.045 458.259 844.731 458.66C844.416 459.06 844.21 459.535 844.132 460.039C844.132 460.691 847.029 461.488 849.158 462.125C852.376 462.886 855.475 464.079 858.371 465.674C857.081 462.778 855.09 460.249 852.577 458.315C851.437 457.535 850.091 457.112 848.709 457.099V457.084Z" fill="#263238"/>
<path d="M679.899 378.009H628.752V442.295H679.899V378.009Z" fill="white"/>
<path d="M679.915 443.019H628.754C628.561 443.019 628.377 442.943 628.241 442.807C628.106 442.671 628.029 442.487 628.029 442.295V378.009C628.029 377.817 628.106 377.633 628.241 377.497C628.377 377.361 628.561 377.285 628.754 377.285H679.915C680.107 377.285 680.291 377.361 680.427 377.497C680.563 377.633 680.639 377.817 680.639 378.009V442.295C680.639 442.487 680.563 442.671 680.427 442.807C680.291 442.943 680.107 443.019 679.915 443.019ZM629.478 441.57H679.191V378.734H629.478V441.57Z" fill="#263238"/>
<path d="M675.091 384.064H633.577V436.24H675.091V384.064Z" fill="white"/>
<path d="M675.091 436.964H633.577C633.385 436.964 633.2 436.888 633.065 436.752C632.929 436.616 632.853 436.432 632.853 436.24V384.093C632.853 383.901 632.929 383.717 633.065 383.581C633.2 383.445 633.385 383.369 633.577 383.369H675.091C675.283 383.369 675.467 383.445 675.603 383.581C675.739 383.717 675.815 383.901 675.815 384.093V436.24C675.815 436.432 675.739 436.616 675.603 436.752C675.467 436.888 675.283 436.964 675.091 436.964ZM634.301 435.516H674.367V384.818H634.301V435.516Z" fill="#263238"/>
<path d="M663.328 398.854H645.337V421.465H663.328V398.854Z" fill="#BA68C8"/>
<path d="M663.328 422.189H645.323C645.131 422.189 644.947 422.113 644.811 421.977C644.675 421.841 644.599 421.657 644.599 421.465V398.853C644.599 398.661 644.675 398.477 644.811 398.341C644.947 398.205 645.131 398.129 645.323 398.129H663.328C663.52 398.129 663.704 398.205 663.84 398.341C663.976 398.477 664.052 398.661 664.052 398.853V421.465C664.052 421.657 663.976 421.841 663.84 421.977C663.704 422.113 663.52 422.189 663.328 422.189ZM646.062 420.741H662.604V399.578H646.062V420.741Z" fill="#263238"/>
<path d="M787.147 397H730.684V438.587H787.147V397Z" fill="white"/>
<path d="M787.148 439.311H730.656C730.464 439.311 730.28 439.234 730.144 439.099C730.008 438.963 729.932 438.779 729.932 438.587V397C729.932 396.807 730.008 396.623 730.144 396.487C730.28 396.352 730.464 396.275 730.656 396.275H787.148C787.34 396.275 787.524 396.352 787.66 396.487C787.796 396.623 787.872 396.807 787.872 397V438.587C787.872 438.779 787.796 438.963 787.66 439.099C787.524 439.234 787.34 439.311 787.148 439.311ZM731.409 437.862H786.452V397.724H731.409V437.862Z" fill="#263238"/>
<path d="M785.38 397H728.917V438.587H785.38V397Z" fill="white"/>
<path d="M785.381 439.311H728.889C728.697 439.311 728.513 439.234 728.377 439.099C728.241 438.963 728.165 438.779 728.165 438.587V397C728.165 396.807 728.241 396.623 728.377 396.487C728.513 396.352 728.697 396.275 728.889 396.275H785.381C785.573 396.275 785.757 396.352 785.893 396.487C786.029 396.623 786.105 396.807 786.105 397V438.587C786.105 438.779 786.029 438.963 785.893 439.099C785.757 439.234 785.573 439.311 785.381 439.311ZM729.642 437.862H784.685V397.724H729.642V437.862Z" fill="#263238"/>
<path d="M781.151 400.114H733.147V435.472H781.151V400.114Z" fill="white"/>
<path d="M781.152 436.197H733.148C732.956 436.197 732.772 436.12 732.636 435.984C732.5 435.849 732.424 435.664 732.424 435.472V400.114C732.424 399.922 732.5 399.738 732.636 399.602C732.772 399.466 732.956 399.39 733.148 399.39H781.152C781.344 399.39 781.528 399.466 781.664 399.602C781.8 399.738 781.876 399.922 781.876 400.114V435.472C781.876 435.664 781.8 435.849 781.664 435.984C781.528 436.12 781.344 436.197 781.152 436.197ZM733.872 434.748H780.427V400.838H733.872V434.748Z" fill="#263238"/>
<path d="M765.086 438.63H753.802V454.202H765.086V438.63Z" fill="white"/>
<path d="M765.101 454.926H753.802C753.611 454.922 753.429 454.845 753.294 454.71C753.159 454.575 753.082 454.393 753.078 454.202V438.63C753.078 438.438 753.154 438.254 753.29 438.118C753.426 437.982 753.61 437.906 753.802 437.906H765.101C765.293 437.906 765.477 437.982 765.613 438.118C765.749 438.254 765.825 438.438 765.825 438.63V454.202C765.825 454.394 765.749 454.578 765.613 454.714C765.477 454.85 765.293 454.926 765.101 454.926ZM754.527 453.478H764.376V439.355H754.527V453.478Z" fill="#263238"/>
<path d="M762.784 438.63H751.5V454.202H762.784V438.63Z" fill="white"/>
<path d="M762.798 454.926H751.5C751.309 454.922 751.127 454.845 750.992 454.71C750.857 454.575 750.78 454.393 750.776 454.202V438.63C750.776 438.438 750.852 438.254 750.988 438.118C751.124 437.982 751.308 437.906 751.5 437.906H762.798C762.991 437.906 763.175 437.982 763.311 438.118C763.446 438.254 763.523 438.438 763.523 438.63V454.202C763.523 454.394 763.446 454.578 763.311 454.714C763.175 454.85 762.991 454.926 762.798 454.926ZM752.224 453.478H762.074V439.355H752.224V453.478Z" fill="#263238"/>
<path d="M770.663 453.854H743.634V456.591H770.663V453.854Z" fill="white"/>
<path d="M770.662 457.316H743.633C743.441 457.316 743.257 457.24 743.121 457.104C742.985 456.968 742.909 456.784 742.909 456.592V453.854C742.909 453.662 742.985 453.478 743.121 453.342C743.257 453.206 743.441 453.13 743.633 453.13H770.662C770.854 453.13 771.038 453.206 771.174 453.342C771.31 453.478 771.386 453.662 771.386 453.854V456.592C771.386 456.784 771.31 456.968 771.174 457.104C771.038 457.24 770.854 457.316 770.662 457.316ZM744.357 455.868H769.894V454.578H744.357V455.868Z" fill="#263238"/>
<path d="M720.386 462.994H693.328V523.093H720.386V462.994Z" fill="#263238"/>
<path d="M720.387 523.817H693.329C693.137 523.817 692.952 523.741 692.817 523.605C692.681 523.469 692.604 523.285 692.604 523.093V462.994C692.604 462.802 692.681 462.618 692.817 462.482C692.952 462.346 693.137 462.27 693.329 462.27H720.387C720.579 462.27 720.763 462.346 720.899 462.482C721.035 462.618 721.111 462.802 721.111 462.994V523.093C721.107 523.284 721.03 523.466 720.895 523.601C720.76 523.736 720.578 523.814 720.387 523.817ZM694.053 522.369H719.663V463.718H694.053V522.369Z" fill="#263238"/>
<path d="M805.008 461.184H686.622C686.43 461.184 686.245 461.107 686.11 460.971C685.974 460.836 685.897 460.651 685.897 460.459V456.766C685.897 456.573 685.974 456.389 686.11 456.253C686.245 456.118 686.43 456.041 686.622 456.041H805.008C805.2 456.041 805.385 456.118 805.52 456.253C805.656 456.389 805.733 456.573 805.733 456.766V460.459C805.733 460.651 805.656 460.836 805.52 460.971C805.385 461.107 805.2 461.184 805.008 461.184ZM687.346 459.735H804.284V457.49H687.331L687.346 459.735Z" fill="#263238"/>
<path d="M805.008 461.184H777.573C777.382 461.18 777.2 461.102 777.065 460.967C776.93 460.832 776.852 460.65 776.849 460.459V456.766C776.849 456.573 776.925 456.389 777.061 456.253C777.197 456.118 777.381 456.041 777.573 456.041H805.008C805.2 456.041 805.384 456.118 805.52 456.253C805.656 456.389 805.732 456.573 805.732 456.766V460.459C805.732 460.651 805.656 460.836 805.52 460.971C805.384 461.107 805.2 461.184 805.008 461.184ZM778.297 459.735H804.283V457.49H778.297V459.735Z" fill="#263238"/>
<path d="M689.736 460.401V523.093H694.342V467.905H744.388V523.093H803.212V460.401H689.736Z" fill="white"/>
<path d="M803.211 523.817H744.387C744.196 523.814 744.014 523.736 743.879 523.601C743.744 523.466 743.666 523.284 743.662 523.093V468.629H695.065V523.093C695.061 523.284 694.984 523.466 694.849 523.601C694.714 523.736 694.532 523.814 694.341 523.817H689.735C689.542 523.817 689.358 523.741 689.222 523.605C689.087 523.469 689.01 523.285 689.01 523.093V460.401C689.01 460.209 689.087 460.025 689.222 459.889C689.358 459.753 689.542 459.677 689.735 459.677H803.211C803.402 459.681 803.584 459.758 803.719 459.893C803.854 460.028 803.931 460.21 803.935 460.401V523.093C803.931 523.284 803.854 523.466 803.719 523.601C803.584 523.736 803.402 523.814 803.211 523.817ZM745.111 522.369H802.486V461.126H690.459V522.369H693.616V467.905C693.616 467.713 693.693 467.528 693.829 467.393C693.964 467.257 694.149 467.18 694.341 467.18H744.387C744.579 467.18 744.763 467.257 744.899 467.393C745.035 467.528 745.111 467.713 745.111 467.905V522.369Z" fill="#263238"/>
<path d="M803.211 460.401H776.153V523.093H803.211V460.401Z" fill="#263238"/>
<path d="M803.211 523.817H776.153C775.961 523.817 775.777 523.741 775.641 523.605C775.505 523.469 775.429 523.285 775.429 523.093V460.401C775.429 460.209 775.505 460.025 775.641 459.889C775.777 459.753 775.961 459.677 776.153 459.677H803.211C803.402 459.681 803.584 459.758 803.719 459.893C803.854 460.028 803.932 460.21 803.935 460.401V523.093C803.932 523.284 803.854 523.466 803.719 523.601C803.584 523.736 803.402 523.814 803.211 523.817ZM776.877 522.369H802.487V461.126H776.877V522.369Z" fill="#263238"/>
<path d="M772.475 468.397H747.546V480.985H772.475V468.397Z" fill="white"/>
<path d="M772.475 481.694H747.546C747.354 481.694 747.17 481.618 747.034 481.482C746.898 481.347 746.822 481.162 746.822 480.97V468.397C746.822 468.205 746.898 468.021 747.034 467.885C747.17 467.749 747.354 467.673 747.546 467.673H772.475C772.667 467.673 772.851 467.749 772.987 467.885C773.123 468.021 773.199 468.205 773.199 468.397V480.97C773.199 481.162 773.123 481.347 772.987 481.482C772.851 481.618 772.667 481.694 772.475 481.694ZM748.27 480.246H771.751V469.121H748.27V480.246Z" fill="#263238"/>
<path d="M762.784 475.162H757.221C757.029 475.162 756.845 475.085 756.709 474.95C756.573 474.814 756.497 474.63 756.497 474.437C756.497 474.245 756.573 474.061 756.709 473.925C756.845 473.79 757.029 473.713 757.221 473.713H762.784C762.976 473.713 763.16 473.79 763.296 473.925C763.432 474.061 763.508 474.245 763.508 474.437C763.508 474.63 763.432 474.814 763.296 474.95C763.16 475.085 762.976 475.162 762.784 475.162Z" fill="#263238"/>
<path d="M772.475 484.606H747.546V497.194H772.475V484.606Z" fill="white"/>
<path d="M772.475 497.918H747.546C747.354 497.918 747.17 497.841 747.034 497.706C746.898 497.57 746.822 497.386 746.822 497.193V484.606C746.822 484.414 746.898 484.23 747.034 484.094C747.17 483.958 747.354 483.882 747.546 483.882H772.475C772.666 483.885 772.848 483.963 772.983 484.098C773.118 484.233 773.195 484.415 773.199 484.606V497.193C773.199 497.386 773.123 497.57 772.987 497.706C772.851 497.841 772.667 497.918 772.475 497.918ZM748.27 496.469H771.751V485.33H748.27V496.469Z" fill="#263238"/>
<path d="M762.784 491.863H757.221C757.029 491.863 756.845 491.787 756.709 491.651C756.573 491.515 756.497 491.331 756.497 491.139C756.497 490.947 756.573 490.762 756.709 490.627C756.845 490.491 757.029 490.414 757.221 490.414H762.784C762.976 490.414 763.16 490.491 763.296 490.627C763.432 490.762 763.508 490.947 763.508 491.139C763.508 491.331 763.432 491.515 763.296 491.651C763.16 491.787 762.976 491.863 762.784 491.863Z" fill="#263238"/>
<path d="M772.475 500.83H747.546V513.417H772.475V500.83Z" fill="white"/>
<path d="M772.475 514.17H747.546C747.354 514.17 747.17 514.094 747.034 513.958C746.898 513.822 746.822 513.638 746.822 513.446V500.873C746.822 500.681 746.898 500.497 747.034 500.361C747.17 500.225 747.354 500.149 747.546 500.149H772.475C772.667 500.149 772.851 500.225 772.987 500.361C773.123 500.497 773.199 500.681 773.199 500.873V513.446C773.199 513.638 773.123 513.822 772.987 513.958C772.851 514.094 772.667 514.17 772.475 514.17ZM748.27 512.722H771.751V501.597H748.27V512.722Z" fill="#263238"/>
<path d="M690.213 482.419H686.968V507.261H690.213V482.419Z" fill="#263238"/>
<path d="M690.228 507.985H686.968C686.776 507.985 686.592 507.909 686.456 507.773C686.32 507.637 686.244 507.453 686.244 507.261V482.419C686.244 482.227 686.32 482.042 686.456 481.907C686.592 481.771 686.776 481.694 686.968 481.694H690.228C690.42 481.694 690.604 481.771 690.74 481.907C690.875 482.042 690.952 482.227 690.952 482.419V507.261C690.952 507.356 690.933 507.45 690.897 507.538C690.86 507.626 690.807 507.706 690.74 507.773C690.672 507.84 690.593 507.894 690.505 507.93C690.417 507.966 690.323 507.985 690.228 507.985ZM687.707 506.537H689.503V483.143H687.693L687.707 506.537Z" fill="#263238"/>
<path d="M694.573 478.088H666.414V436.718C666.414 432.988 667.895 429.41 670.533 426.773C673.171 424.135 676.748 422.653 680.479 422.653C682.328 422.649 684.16 423.01 685.87 423.715C687.58 424.421 689.134 425.456 690.443 426.762C691.752 428.069 692.791 429.621 693.499 431.329C694.208 433.037 694.573 434.869 694.573 436.718V478.088Z" fill="#BFBFBF"/>
<path d="M694.574 478.812H666.415C666.223 478.812 666.038 478.736 665.903 478.6C665.767 478.464 665.69 478.28 665.69 478.088V436.718C665.69 432.796 667.249 429.034 670.022 426.26C672.796 423.487 676.557 421.929 680.48 421.929C684.402 421.929 688.164 423.487 690.937 426.26C693.711 429.034 695.269 432.796 695.269 436.718V478.088C695.269 478.275 695.197 478.455 695.067 478.59C694.938 478.725 694.761 478.804 694.574 478.812ZM667.168 477.363H693.82V436.718C693.82 433.18 692.415 429.786 689.913 427.285C687.411 424.783 684.018 423.377 680.48 423.377C676.942 423.377 673.548 424.783 671.046 427.285C668.544 429.786 667.139 433.18 667.139 436.718L667.168 477.363Z" fill="#263238"/>
<path d="M699.411 478.088H671.281V436.718C671.281 432.988 672.763 429.41 675.401 426.773C678.039 424.135 681.616 422.653 685.346 422.653C689.077 422.653 692.654 424.135 695.292 426.773C697.929 429.41 699.411 432.988 699.411 436.718V478.088Z" fill="#BFBFBF"/>
<path d="M699.411 478.812H671.281C671.089 478.812 670.905 478.736 670.769 478.6C670.633 478.464 670.557 478.28 670.557 478.088V436.718C670.557 432.796 672.115 429.034 674.888 426.26C677.662 423.487 681.424 421.929 685.346 421.929C689.268 421.929 693.03 423.487 695.804 426.26C698.577 429.034 700.135 432.796 700.135 436.718V478.088C700.135 478.28 700.059 478.464 699.923 478.6C699.787 478.736 699.603 478.812 699.411 478.812ZM672.005 477.363H698.687V436.718C698.687 433.18 697.281 429.786 694.779 427.285C692.277 424.783 688.884 423.377 685.346 423.377C681.808 423.377 678.414 424.783 675.913 427.285C673.411 429.786 672.005 433.18 672.005 436.718V477.363Z" fill="#263238"/>
<path d="M714.823 471.874H666.414V478.088H714.823V471.874Z" fill="#BFBFBF"/>
<path d="M714.853 478.812H666.415C666.223 478.812 666.038 478.736 665.903 478.6C665.767 478.464 665.69 478.28 665.69 478.088V471.874C665.69 471.682 665.767 471.497 665.903 471.362C666.038 471.226 666.223 471.149 666.415 471.149H714.853C715.045 471.149 715.229 471.226 715.365 471.362C715.501 471.497 715.577 471.682 715.577 471.874V478.088C715.577 478.28 715.501 478.464 715.365 478.6C715.229 478.736 715.045 478.812 714.853 478.812ZM667.168 477.364H714.1V472.598H667.139L667.168 477.364Z" fill="#263238"/>
<path d="M714.824 471.874H690.213V478.088H714.824V471.874Z" fill="#BFBFBF"/>
<path d="M714.853 478.812H690.229C690.037 478.812 689.852 478.736 689.717 478.6C689.581 478.464 689.504 478.28 689.504 478.088V471.874C689.504 471.682 689.581 471.497 689.717 471.362C689.852 471.226 690.037 471.149 690.229 471.149H714.853C715.045 471.149 715.23 471.226 715.365 471.362C715.501 471.497 715.578 471.682 715.578 471.874V478.088C715.578 478.28 715.501 478.464 715.365 478.6C715.23 478.736 715.045 478.812 714.853 478.812ZM690.967 477.364H714.144V472.598H690.967V477.364Z" fill="#263238"/>
<path d="M697.788 478.363H680.479V482.144H697.788V478.363Z" fill="#263238"/>
<path d="M697.789 482.868H680.407C680.215 482.868 680.031 482.792 679.895 482.656C679.759 482.52 679.683 482.336 679.683 482.144V478.363C679.683 478.171 679.759 477.987 679.895 477.851C680.031 477.715 680.215 477.639 680.407 477.639H697.789C697.982 477.639 698.166 477.715 698.302 477.851C698.437 477.987 698.514 478.171 698.514 478.363V482.144C698.514 482.336 698.437 482.52 698.302 482.656C698.166 482.792 697.982 482.868 697.789 482.868ZM681.204 481.42H697.138V479.087H681.204V481.42Z" fill="#263238"/>
</g>
<g opacity="0.5">
<path d="M614.336 372.201H548.396V523.245H614.336V372.201Z" fill="white"/>
<path d="M614.336 523.945H548.397C548.211 523.945 548.033 523.871 547.902 523.74C547.771 523.609 547.697 523.431 547.697 523.245V372.173C547.697 371.988 547.771 371.81 547.902 371.679C548.033 371.547 548.211 371.474 548.397 371.474H614.336C614.522 371.474 614.7 371.547 614.831 371.679C614.962 371.81 615.036 371.988 615.036 372.173V523.245C615.036 523.431 614.962 523.609 614.831 523.74C614.7 523.871 614.522 523.945 614.336 523.945ZM549.096 522.546H613.665V372.873H549.096V522.546Z" fill="#263238"/>
<path d="M607.036 379.475H554.72V436.63H607.036V379.475Z" fill="white"/>
<path d="M607.048 437.414H554.719C554.535 437.41 554.359 437.336 554.228 437.205C554.098 437.075 554.023 436.899 554.02 436.715V379.475C554.023 379.291 554.098 379.115 554.228 378.984C554.359 378.854 554.535 378.779 554.719 378.776H607.048C607.233 378.779 607.409 378.854 607.539 378.984C607.669 379.115 607.744 379.291 607.748 379.475V436.645C607.755 436.742 607.743 436.839 607.712 436.932C607.68 437.024 607.63 437.108 607.564 437.181C607.499 437.253 607.419 437.311 607.331 437.351C607.242 437.391 607.146 437.412 607.048 437.414ZM555.418 436.015H606.349V380.174H555.418V436.015Z" fill="#263238"/>
<path d="M607.036 463.865H554.72V517.454H607.036V463.865Z" fill="white"/>
<path d="M607.048 518.153H554.719C554.533 518.153 554.356 518.08 554.224 517.948C554.093 517.817 554.02 517.639 554.02 517.454V463.865C554.023 463.681 554.098 463.505 554.228 463.375C554.359 463.244 554.535 463.169 554.719 463.166H607.048C607.233 463.169 607.409 463.244 607.539 463.375C607.669 463.505 607.744 463.681 607.748 463.865V517.454C607.748 517.639 607.674 517.817 607.543 517.948C607.412 518.08 607.234 518.153 607.048 518.153ZM555.418 516.754H606.349V464.565H555.418V516.754Z" fill="#263238"/>
<path d="M609.091 450.003C609.072 449.197 608.815 448.414 608.353 447.753C607.891 447.092 607.244 446.582 606.494 446.287C605.744 445.991 604.923 445.924 604.134 446.093C603.346 446.262 602.625 446.66 602.061 447.237C601.498 447.814 601.117 448.544 600.967 449.336C600.817 450.129 600.903 450.948 601.216 451.691C601.529 452.434 602.054 453.069 602.726 453.515C603.398 453.961 604.186 454.199 604.992 454.199C605.539 454.199 606.08 454.09 606.584 453.878C607.087 453.666 607.544 453.355 607.926 452.964C608.307 452.573 608.607 452.11 608.807 451.601C609.008 451.093 609.104 450.549 609.091 450.003Z" fill="white"/>
<path d="M604.993 454.829C604.041 454.832 603.109 454.552 602.316 454.025C601.523 453.498 600.904 452.747 600.537 451.868C600.171 450.989 600.074 450.021 600.258 449.087C600.442 448.152 600.899 447.294 601.571 446.619C602.244 445.945 603.101 445.485 604.035 445.298C604.969 445.112 605.937 445.206 606.817 445.57C607.697 445.934 608.45 446.55 608.979 447.342C609.508 448.134 609.791 449.065 609.791 450.017C609.791 451.291 609.286 452.512 608.386 453.414C607.487 454.316 606.267 454.825 604.993 454.829ZM604.993 446.618C604.317 446.615 603.655 446.813 603.091 447.187C602.528 447.561 602.088 448.094 601.828 448.718C601.568 449.342 601.499 450.03 601.631 450.693C601.762 451.357 602.087 451.966 602.565 452.444C603.044 452.922 603.653 453.248 604.316 453.379C604.98 453.51 605.667 453.442 606.291 453.181C606.916 452.921 607.449 452.482 607.823 451.918C608.197 451.355 608.395 450.693 608.392 450.017C608.392 449.115 608.034 448.251 607.396 447.613C606.759 446.976 605.894 446.618 604.993 446.618Z" fill="#263238"/>
<path d="M527.12 410.15H474.427V522.965H527.12V410.15Z" fill="white"/>
<path d="M527.107 523.664H474.428C474.242 523.664 474.065 523.591 473.933 523.46C473.802 523.328 473.729 523.151 473.729 522.965V410.151C473.729 409.965 473.802 409.787 473.933 409.656C474.065 409.525 474.242 409.451 474.428 409.451H527.107C527.293 409.451 527.47 409.525 527.602 409.656C527.733 409.787 527.806 409.965 527.806 410.151V522.965C527.806 523.151 527.733 523.328 527.602 523.46C527.47 523.591 527.293 523.664 527.107 523.664ZM475.127 522.266H526.408V410.836H475.183L475.127 522.266Z" fill="#263238"/>
<path d="M527.107 410.15H511.916V522.965H527.107V410.15Z" fill="#263238"/>
<path d="M527.108 523.664H511.917C511.732 523.661 511.556 523.586 511.426 523.455C511.296 523.325 511.221 523.149 511.217 522.965V410.15C511.217 409.965 511.291 409.787 511.422 409.656C511.553 409.525 511.731 409.451 511.917 409.451H527.108C527.293 409.451 527.471 409.525 527.602 409.656C527.733 409.787 527.807 409.965 527.807 410.15V522.965C527.807 523.15 527.733 523.328 527.602 523.459C527.471 523.591 527.293 523.664 527.108 523.664ZM512.616 522.265H526.408V410.836H512.616V522.265Z" fill="#263238"/>
<path d="M509.552 441.68H476.498C476.313 441.68 476.135 441.606 476.004 441.475C475.873 441.344 475.799 441.166 475.799 440.98V414.906C475.802 414.722 475.877 414.546 476.008 414.416C476.138 414.285 476.314 414.21 476.498 414.207H509.552C509.736 414.21 509.912 414.285 510.043 414.416C510.173 414.546 510.248 414.722 510.251 414.906V440.98C510.251 441.166 510.178 441.344 510.047 441.475C509.915 441.606 509.738 441.68 509.552 441.68ZM477.198 440.281H508.853V415.606H477.198V440.281Z" fill="#263238"/>
<path d="M495.55 425.719H489.899V430.489H495.55V425.719Z" fill="#263238"/>
<path d="M495.55 431.189H489.955C489.769 431.189 489.591 431.115 489.46 430.984C489.329 430.853 489.255 430.675 489.255 430.489V425.719C489.255 425.534 489.329 425.356 489.46 425.225C489.591 425.093 489.769 425.02 489.955 425.02H495.55C495.735 425.02 495.913 425.093 496.045 425.225C496.176 425.356 496.249 425.534 496.249 425.719V430.489C496.249 430.675 496.176 430.853 496.045 430.984C495.913 431.115 495.735 431.189 495.55 431.189ZM490.598 429.79H494.795V426.419H490.598V429.79Z" fill="#263238"/>
<path d="M509.552 472.845H476.498C476.313 472.845 476.135 472.772 476.004 472.64C475.873 472.509 475.799 472.331 475.799 472.146V446.072C475.802 445.887 475.877 445.712 476.008 445.581C476.138 445.451 476.314 445.376 476.498 445.372H509.552C509.736 445.376 509.912 445.451 510.043 445.581C510.173 445.712 510.248 445.887 510.251 446.072V472.146C510.251 472.331 510.178 472.509 510.047 472.64C509.915 472.772 509.738 472.845 509.552 472.845ZM477.198 471.446H508.853V446.771H477.198V471.446Z" fill="#263238"/>
<path d="M495.55 456.885H489.899V461.655H495.55V456.885Z" fill="#263238"/>
<path d="M495.55 462.354H489.955C489.769 462.354 489.591 462.28 489.46 462.149C489.329 462.018 489.255 461.84 489.255 461.655V456.885C489.255 456.699 489.329 456.521 489.46 456.39C489.591 456.259 489.769 456.185 489.955 456.185H495.55C495.735 456.185 495.913 456.259 496.045 456.39C496.176 456.521 496.249 456.699 496.249 456.885V461.655C496.249 461.84 496.176 462.018 496.045 462.149C495.913 462.28 495.735 462.354 495.55 462.354ZM490.598 460.955H494.795V457.584H490.598V460.955Z" fill="#263238"/>
<path d="M509.538 477.237H476.499V503.311H509.538V477.237Z" fill="white"/>
<path d="M509.552 504.011H476.498C476.313 504.011 476.135 503.937 476.004 503.806C475.873 503.675 475.799 503.497 475.799 503.312V477.238C475.802 477.053 475.877 476.877 476.008 476.747C476.138 476.617 476.314 476.542 476.498 476.538H509.552C509.736 476.542 509.912 476.617 510.043 476.747C510.173 476.877 510.248 477.053 510.251 477.238V503.312C510.251 503.497 510.178 503.675 510.047 503.806C509.915 503.937 509.738 504.011 509.552 504.011ZM477.198 502.612H508.853V477.979H477.198V502.612Z" fill="#263238"/>
<path d="M495.55 488.05H489.899V492.82H495.55V488.05Z" fill="#263238"/>
<path d="M495.55 493.519H489.955C489.769 493.519 489.591 493.446 489.46 493.315C489.329 493.183 489.255 493.006 489.255 492.82V488.05C489.255 487.865 489.329 487.687 489.46 487.556C489.591 487.424 489.769 487.351 489.955 487.351H495.55C495.735 487.351 495.913 487.424 496.045 487.556C496.176 487.687 496.249 487.865 496.249 488.05V492.82C496.249 493.006 496.176 493.183 496.045 493.315C495.913 493.446 495.735 493.519 495.55 493.519ZM490.598 492.121H494.795V488.75H490.598V492.121Z" fill="#263238"/>
<path d="M416.362 372.774H329.034V433.343H416.362V372.774Z" fill="white"/>
<path d="M416.434 434.042H329.036C328.851 434.042 328.673 433.969 328.542 433.838C328.411 433.706 328.337 433.529 328.337 433.343V372.774C328.34 372.59 328.415 372.414 328.546 372.284C328.676 372.153 328.852 372.078 329.036 372.075H416.434C416.619 372.075 416.797 372.149 416.928 372.28C417.06 372.411 417.133 372.589 417.133 372.774V433.343C417.133 433.529 417.06 433.706 416.928 433.838C416.797 433.969 416.619 434.042 416.434 434.042ZM329.806 432.644H415.734V373.474H329.708L329.806 432.644Z" fill="#263238"/>
<path d="M412.251 375.628H333.162V430.476H412.251V375.628Z" fill="#BFBFBF"/>
<path d="M412.237 431.189H333.163C332.977 431.189 332.799 431.115 332.668 430.984C332.537 430.853 332.463 430.675 332.463 430.489V375.628C332.463 375.442 332.537 375.264 332.668 375.133C332.799 375.002 332.977 374.928 333.163 374.928H412.237C412.422 374.932 412.598 375.007 412.728 375.137C412.858 375.268 412.933 375.444 412.937 375.628V430.489C412.933 430.674 412.858 430.85 412.728 430.98C412.598 431.11 412.422 431.185 412.237 431.189ZM333.904 429.79H411.594V376.327H333.904V429.79Z" fill="#263238"/>
<path d="M351.207 384.552H339.933V398.764H351.207V384.552Z" fill="white"/>
<path d="M351.207 399.464H339.932C339.747 399.464 339.569 399.39 339.438 399.259C339.307 399.128 339.233 398.95 339.233 398.764V384.552C339.233 384.367 339.307 384.189 339.438 384.058C339.569 383.927 339.747 383.853 339.932 383.853H351.207C351.392 383.853 351.57 383.927 351.701 384.058C351.832 384.189 351.906 384.367 351.906 384.552V398.764C351.906 398.95 351.832 399.128 351.701 399.259C351.57 399.39 351.392 399.464 351.207 399.464ZM340.632 398.065H350.507V385.252H340.632V398.065Z" fill="#263238"/>
<path d="M379.63 391.91H366.887V412.011H379.63V391.91Z" fill="#BA68C8"/>
<path d="M379.631 412.697H366.888C366.702 412.697 366.525 412.623 366.393 412.492C366.262 412.361 366.188 412.183 366.188 411.997V391.91C366.188 391.725 366.262 391.547 366.393 391.416C366.525 391.284 366.702 391.211 366.888 391.211H379.631C379.817 391.211 379.994 391.284 380.126 391.416C380.257 391.547 380.33 391.725 380.33 391.91V411.997C380.33 412.183 380.257 412.361 380.126 412.492C379.994 412.623 379.817 412.697 379.631 412.697ZM367.587 411.298H378.932V392.652H367.587V411.298Z" fill="#263238"/>
<path d="M346.8 411.508H340.422V417.886H346.8V411.508Z" fill="#BA68C8"/>
<path d="M346.787 418.586H340.422C340.237 418.586 340.059 418.512 339.927 418.381C339.796 418.25 339.723 418.072 339.723 417.886V411.508C339.723 411.322 339.796 411.144 339.927 411.013C340.059 410.882 340.237 410.808 340.422 410.808H346.787C346.972 410.808 347.15 410.882 347.281 411.013C347.412 411.144 347.486 411.322 347.486 411.508V417.83C347.494 417.927 347.481 418.024 347.45 418.115C347.418 418.207 347.368 418.291 347.302 418.362C347.236 418.433 347.157 418.489 347.068 418.528C346.979 418.566 346.883 418.586 346.787 418.586ZM341.191 417.187H346.157V412.235H341.191V417.187Z" fill="#263238"/>
<path d="M396.29 393.379H390.905V400.737H396.29V393.379Z" fill="white"/>
<path d="M396.291 401.422H390.905C390.72 401.422 390.542 401.349 390.411 401.217C390.28 401.086 390.206 400.908 390.206 400.723V393.379C390.206 393.193 390.28 393.016 390.411 392.884C390.542 392.753 390.72 392.68 390.905 392.68H396.291C396.476 392.68 396.654 392.753 396.785 392.884C396.917 393.016 396.99 393.193 396.99 393.379V400.723C396.99 400.908 396.917 401.086 396.785 401.217C396.654 401.349 396.476 401.422 396.291 401.422ZM391.605 400.023H395.591V394.05H391.605V400.023Z" fill="#263238"/>
<path d="M378.149 380.146H373.743V384.063H378.149V380.146Z" fill="white"/>
<path d="M378.162 384.762H373.742C373.556 384.762 373.378 384.689 373.247 384.557C373.116 384.426 373.042 384.248 373.042 384.063V380.146C373.042 379.961 373.116 379.783 373.247 379.652C373.378 379.52 373.556 379.447 373.742 379.447H378.162C378.348 379.447 378.526 379.52 378.657 379.652C378.788 379.783 378.862 379.961 378.862 380.146V384.063C378.862 384.248 378.788 384.426 378.657 384.557C378.526 384.689 378.348 384.762 378.162 384.762ZM374.441 383.363H377.463V380.846H374.469L374.441 383.363Z" fill="#263238"/>
<path d="M392.373 408.57H384.036V420.824H392.373V408.57Z" fill="white"/>
<path d="M392.374 421.523H383.981C383.795 421.523 383.617 421.45 383.486 421.319C383.355 421.187 383.281 421.009 383.281 420.824V408.57C383.281 408.385 383.355 408.207 383.486 408.076C383.617 407.945 383.795 407.871 383.981 407.871H392.374C392.559 407.871 392.737 407.945 392.868 408.076C392.999 408.207 393.073 408.385 393.073 408.57V420.824C393.073 421.009 392.999 421.187 392.868 421.319C392.737 421.45 392.559 421.523 392.374 421.523ZM384.736 420.125H391.73V409.27H384.736V420.125Z" fill="#263238"/>
<path d="M406.096 401.702H399.717V411.508H406.096V401.702Z" fill="#BA68C8"/>
<path d="M406.096 412.235H399.717C399.532 412.235 399.354 412.161 399.223 412.03C399.092 411.899 399.018 411.721 399.018 411.535V401.744C399.022 401.559 399.097 401.384 399.227 401.253C399.357 401.123 399.533 401.048 399.717 401.044H406.096C406.282 401.044 406.459 401.118 406.591 401.249C406.722 401.38 406.795 401.558 406.795 401.744V411.535C406.795 411.721 406.722 411.899 406.591 412.03C406.459 412.161 406.282 412.235 406.096 412.235ZM400.417 410.836H405.397V402.443H400.417V410.836Z" fill="#263238"/>
<path d="M386.779 464.928H360.649V522.965H386.779V464.928Z" fill="#263238"/>
<path d="M386.777 523.664H360.648C360.462 523.664 360.284 523.591 360.153 523.46C360.022 523.328 359.948 523.15 359.948 522.965V464.928C359.948 464.743 360.022 464.565 360.153 464.434C360.284 464.302 360.462 464.229 360.648 464.229H386.777C386.963 464.229 387.141 464.302 387.272 464.434C387.403 464.565 387.477 464.743 387.477 464.928V522.965C387.473 523.149 387.398 523.325 387.268 523.456C387.138 523.586 386.962 523.661 386.777 523.664ZM361.347 522.266H386.078V465.628H361.347V522.266Z" fill="#263238"/>
<path d="M468.497 463.179H354.172C353.987 463.179 353.809 463.106 353.678 462.975C353.546 462.843 353.473 462.666 353.473 462.48V458.913C353.473 458.728 353.546 458.55 353.678 458.418C353.809 458.287 353.987 458.214 354.172 458.214H468.497C468.682 458.214 468.86 458.287 468.991 458.418C469.122 458.55 469.196 458.728 469.196 458.913V462.48C469.196 462.666 469.122 462.843 468.991 462.975C468.86 463.106 468.682 463.179 468.497 463.179ZM354.871 461.781H467.797V459.612H354.885L354.871 461.781Z" fill="#263238"/>
<path d="M468.497 463.18H442.004C441.819 463.176 441.643 463.101 441.513 462.971C441.383 462.84 441.308 462.665 441.304 462.48V458.913C441.304 458.728 441.378 458.55 441.509 458.419C441.64 458.288 441.818 458.214 442.004 458.214H468.497C468.683 458.214 468.86 458.288 468.992 458.419C469.123 458.55 469.196 458.728 469.196 458.913V462.48C469.196 462.666 469.123 462.844 468.992 462.975C468.86 463.106 468.683 463.18 468.497 463.18ZM442.703 461.781H467.798V459.613H442.703V461.781Z" fill="#263238"/>
<path d="M357.18 462.424V522.965H361.614V469.67H409.971V522.965H466.763V462.424H357.18Z" fill="white"/>
<path d="M466.79 523.664H409.956C409.772 523.661 409.596 523.586 409.466 523.455C409.335 523.325 409.261 523.149 409.257 522.965V470.369H362.327V522.965C362.323 523.149 362.249 523.325 362.118 523.455C361.988 523.586 361.812 523.661 361.628 523.664H357.179C356.994 523.664 356.816 523.591 356.685 523.459C356.554 523.328 356.48 523.15 356.48 522.965V462.424C356.48 462.239 356.554 462.061 356.685 461.93C356.816 461.798 356.994 461.725 357.179 461.725H466.79C466.974 461.728 467.15 461.803 467.281 461.933C467.411 462.064 467.486 462.24 467.489 462.424V522.965C467.486 523.149 467.411 523.325 467.281 523.455C467.15 523.586 466.974 523.661 466.79 523.664ZM410.684 522.265H466.091V463.123H357.879V522.265H360.928V469.67C360.928 469.484 361.002 469.307 361.133 469.175C361.264 469.044 361.442 468.971 361.628 468.971H409.956C410.142 468.971 410.32 469.044 410.451 469.175C410.582 469.307 410.656 469.484 410.656 469.67L410.684 522.265Z" fill="#263238"/>
<path d="M466.763 462.424H440.633V522.965H466.763V462.424Z" fill="#263238"/>
<path d="M466.79 523.664H440.633C440.447 523.664 440.269 523.591 440.138 523.459C440.007 523.328 439.933 523.15 439.933 522.965V462.424C439.933 462.239 440.007 462.061 440.138 461.93C440.269 461.798 440.447 461.725 440.633 461.725H466.79C466.975 461.728 467.15 461.803 467.281 461.933C467.411 462.064 467.486 462.24 467.49 462.424V522.965C467.486 523.149 467.411 523.325 467.281 523.455C467.15 523.586 466.975 523.661 466.79 523.664ZM441.36 522.265H466.091V463.123H441.332L441.36 522.265Z" fill="#263238"/>
<path d="M437.079 470.146H413.005V482.301H437.079V470.146Z" fill="white"/>
<path d="M437.079 482.987H413.005C412.82 482.987 412.642 482.913 412.511 482.782C412.379 482.651 412.306 482.473 412.306 482.287V470.146C412.306 469.96 412.379 469.782 412.511 469.651C412.642 469.52 412.82 469.446 413.005 469.446H437.079C437.264 469.446 437.442 469.52 437.573 469.651C437.704 469.782 437.778 469.96 437.778 470.146V482.287C437.778 482.473 437.704 482.651 437.573 482.782C437.442 482.913 437.264 482.987 437.079 482.987ZM413.704 481.588H436.379V470.845H413.704V481.588Z" fill="#263238"/>
<path d="M427.721 476.678H422.349C422.164 476.678 421.986 476.605 421.855 476.473C421.724 476.342 421.65 476.164 421.65 475.979C421.65 475.793 421.724 475.615 421.855 475.484C421.986 475.353 422.164 475.279 422.349 475.279H427.721C427.906 475.279 428.084 475.353 428.215 475.484C428.346 475.615 428.42 475.793 428.42 475.979C428.42 476.164 428.346 476.342 428.215 476.473C428.084 476.605 427.906 476.678 427.721 476.678Z" fill="#263238"/>
<path d="M437.079 485.798H413.005V497.954H437.079V485.798Z" fill="white"/>
<path d="M437.079 498.654H413.005C412.82 498.654 412.642 498.58 412.511 498.449C412.379 498.318 412.306 498.14 412.306 497.954V485.798C412.306 485.613 412.379 485.435 412.511 485.304C412.642 485.173 412.82 485.099 413.005 485.099H437.079C437.263 485.103 437.439 485.177 437.569 485.308C437.7 485.438 437.774 485.614 437.778 485.798V497.954C437.778 498.14 437.704 498.318 437.573 498.449C437.442 498.58 437.264 498.654 437.079 498.654ZM413.704 497.255H436.379V486.498H413.704V497.255Z" fill="#263238"/>
<path d="M427.721 492.807H422.349C422.164 492.807 421.986 492.733 421.855 492.602C421.724 492.471 421.65 492.293 421.65 492.107C421.65 491.922 421.724 491.744 421.855 491.613C421.986 491.482 422.164 491.408 422.349 491.408H427.721C427.906 491.408 428.084 491.482 428.215 491.613C428.346 491.744 428.42 491.922 428.42 492.107C428.42 492.293 428.346 492.471 428.215 492.602C428.084 492.733 427.906 492.807 427.721 492.807Z" fill="#263238"/>
<path d="M437.079 501.465H413.005V513.621H437.079V501.465Z" fill="white"/>
<path d="M437.079 514.349H413.005C412.82 514.349 412.642 514.275 412.511 514.144C412.379 514.012 412.306 513.835 412.306 513.649V501.507C412.306 501.322 412.379 501.144 412.511 501.013C412.642 500.882 412.82 500.808 413.005 500.808H437.079C437.264 500.808 437.442 500.882 437.573 501.013C437.704 501.144 437.778 501.322 437.778 501.507V513.649C437.778 513.835 437.704 514.012 437.573 514.144C437.442 514.275 437.264 514.349 437.079 514.349ZM413.704 512.95H436.379V502.207H413.704V512.95Z" fill="#263238"/>
<path d="M331.162 483.686H328.028V507.676H331.162V483.686Z" fill="#263238"/>
<path d="M331.105 508.375H328.028C327.843 508.375 327.665 508.302 327.533 508.171C327.402 508.039 327.329 507.862 327.329 507.676V483.686C327.329 483.501 327.402 483.323 327.533 483.192C327.665 483.061 327.843 482.987 328.028 482.987H331.105C331.291 482.987 331.469 483.061 331.6 483.192C331.731 483.323 331.805 483.501 331.805 483.686V507.676C331.805 507.768 331.787 507.859 331.752 507.944C331.716 508.029 331.665 508.106 331.6 508.171C331.535 508.236 331.458 508.287 331.373 508.322C331.288 508.357 331.197 508.375 331.105 508.375ZM328.671 506.977H330.406V484.386H328.727L328.671 506.977Z" fill="#263238"/>
<path d="M321.762 425.971C325.364 425.971 328.819 427.402 331.366 429.95C333.913 432.497 335.344 435.952 335.344 439.554V479.518H308.179V439.554C308.179 435.952 309.61 432.497 312.157 429.95C314.705 427.402 318.159 425.971 321.762 425.971Z" fill="#BFBFBF"/>
<path d="M335.303 480.203H308.18C307.994 480.203 307.816 480.13 307.685 479.999C307.554 479.867 307.48 479.689 307.48 479.504V439.554C307.48 435.766 308.985 432.133 311.664 429.455C314.342 426.777 317.975 425.272 321.762 425.272C325.55 425.272 329.183 426.777 331.861 429.455C334.539 432.133 336.044 435.766 336.044 439.554V479.504C336.044 479.599 336.025 479.694 335.987 479.782C335.949 479.869 335.894 479.948 335.825 480.014C335.755 480.079 335.673 480.13 335.583 480.163C335.494 480.195 335.398 480.209 335.303 480.203ZM308.837 478.805H334.603V439.554C334.603 436.137 333.246 432.86 330.83 430.444C328.414 428.028 325.137 426.671 321.72 426.671C318.304 426.671 315.027 428.028 312.611 430.444C310.195 432.86 308.837 436.137 308.837 439.554V478.805Z" fill="#263238"/>
<path d="M340.044 479.504H312.921V439.554C312.921 435.952 314.352 432.497 316.9 429.95C319.447 427.402 322.902 425.971 326.504 425.971C330.106 425.971 333.561 427.402 336.108 429.95C338.655 432.497 340.086 435.952 340.086 439.554L340.044 479.504Z" fill="#BFBFBF"/>
<path d="M340.043 480.203H312.92C312.735 480.203 312.557 480.13 312.426 479.999C312.294 479.867 312.221 479.689 312.221 479.504V439.554C312.221 435.766 313.725 432.133 316.404 429.455C319.082 426.777 322.715 425.272 326.503 425.272C330.29 425.272 333.923 426.777 336.601 429.455C339.28 432.133 340.784 435.766 340.784 439.554V479.504C340.785 479.599 340.765 479.694 340.727 479.782C340.69 479.869 340.634 479.948 340.565 480.014C340.495 480.079 340.413 480.13 340.324 480.163C340.234 480.195 340.138 480.209 340.043 480.203ZM313.578 478.805H339.344V439.554C339.344 436.137 337.986 432.86 335.57 430.444C333.154 428.028 329.877 426.671 326.461 426.671C323.044 426.671 319.767 428.028 317.351 430.444C314.935 432.86 313.578 436.137 313.578 439.554V478.805Z" fill="#263238"/>
<path d="M354.927 473.503H308.179V479.504H354.927V473.503Z" fill="#BFBFBF"/>
<path d="M354.886 480.203H308.18C307.994 480.203 307.816 480.13 307.685 479.999C307.554 479.867 307.48 479.689 307.48 479.504V473.503C307.48 473.318 307.554 473.14 307.685 473.009C307.816 472.877 307.994 472.804 308.18 472.804H354.886C355.072 472.804 355.249 472.877 355.381 473.009C355.512 473.14 355.585 473.318 355.585 473.503V479.504C355.585 479.689 355.512 479.867 355.381 479.999C355.249 480.13 355.072 480.203 354.886 480.203ZM308.837 478.805H354.187V474.202H308.879L308.837 478.805Z" fill="#263238"/>
<path d="M354.927 473.503H331.162V479.504H354.927V473.503Z" fill="#BFBFBF"/>
<path d="M354.885 480.203H331.105C330.92 480.203 330.742 480.13 330.611 479.999C330.479 479.867 330.406 479.689 330.406 479.504V473.503C330.406 473.318 330.479 473.14 330.611 473.009C330.742 472.877 330.92 472.804 331.105 472.804H354.885C355.07 472.804 355.248 472.877 355.379 473.009C355.511 473.14 355.584 473.318 355.584 473.503V479.504C355.584 479.689 355.511 479.867 355.379 479.999C355.248 480.13 355.07 480.203 354.885 480.203ZM331.819 478.805H354.199V474.202H331.819V478.805Z" fill="#263238"/>
<path d="M338.477 479.77H321.761V483.421H338.477V479.77Z" fill="#263238"/>
<path d="M338.477 484.12H321.692C321.506 484.12 321.328 484.046 321.197 483.915C321.066 483.784 320.992 483.606 320.992 483.421V479.77C320.992 479.584 321.066 479.406 321.197 479.275C321.328 479.144 321.506 479.07 321.692 479.07H338.477C338.663 479.07 338.841 479.144 338.972 479.275C339.103 479.406 339.177 479.584 339.177 479.77V483.421C339.177 483.606 339.103 483.784 338.972 483.915C338.841 484.046 338.663 484.12 338.477 484.12ZM322.461 482.721H337.848V480.469H322.461V482.721Z" fill="#263238"/>
<path d="M266.41 496.247H248.785V522.965H266.41V496.247Z" fill="#263238"/>
<path d="M266.411 523.664H248.786C248.6 523.664 248.422 523.59 248.291 523.459C248.16 523.328 248.086 523.15 248.086 522.965V496.247C248.086 496.062 248.16 495.884 248.291 495.753C248.422 495.621 248.6 495.548 248.786 495.548H266.411C266.596 495.548 266.774 495.621 266.905 495.753C267.037 495.884 267.11 496.062 267.11 496.247V522.965C267.11 523.15 267.037 523.328 266.905 523.459C266.774 523.59 266.596 523.664 266.411 523.664ZM249.485 522.265H265.711V496.947H249.485V522.265Z" fill="#263238"/>
<path d="M257.682 462.676C257.682 462.676 253.038 449.079 254.087 445.191C254.301 444.401 254.76 443.7 255.399 443.19C256.038 442.679 256.822 442.385 257.64 442.351C258.457 442.317 259.263 442.544 259.943 442.999C260.622 443.454 261.138 444.114 261.417 444.883C262.466 448.17 257.682 462.676 257.682 462.676Z" fill="#BA68C8"/>
<path d="M257.682 463.375C257.536 463.378 257.392 463.335 257.272 463.252C257.151 463.169 257.06 463.051 257.01 462.913C256.828 462.34 252.324 449.051 253.415 445.009C253.64 444.061 254.175 443.216 254.936 442.607C255.696 441.999 256.638 441.663 257.612 441.651C258.578 441.616 259.531 441.891 260.33 442.434C261.13 442.977 261.736 443.762 262.06 444.673C263.137 448.086 258.815 461.389 258.311 462.857C258.263 462.994 258.174 463.113 258.057 463.198C257.939 463.283 257.799 463.33 257.654 463.333L257.682 463.375ZM257.752 443.05H257.682C257.003 443.046 256.343 443.274 255.811 443.697C255.279 444.119 254.908 444.71 254.758 445.372C254.073 447.946 256.227 455.821 257.668 460.409C259.444 454.702 261.389 447.093 260.745 445.092C260.537 444.469 260.134 443.929 259.594 443.553C259.055 443.178 258.409 442.987 257.752 443.008V443.05Z" fill="#263238"/>
<path d="M257.71 497.212C257.524 497.212 257.346 497.139 257.215 497.008C257.084 496.876 257.01 496.699 257.01 496.513V449.695C257.01 449.509 257.084 449.331 257.215 449.2C257.346 449.069 257.524 448.995 257.71 448.995C257.895 448.995 258.073 449.069 258.204 449.2C258.335 449.331 258.409 449.509 258.409 449.695V496.513C258.409 496.699 258.335 496.876 258.204 497.008C258.073 497.139 257.895 497.212 257.71 497.212Z" fill="#263238"/>
<path d="M257.823 492.149C257.823 492.149 260.215 485.267 264.705 482.273C269.195 479.28 273.979 481.979 273.979 484.511C273.979 487.043 262.914 487.211 257.823 492.149Z" fill="#BA68C8"/>
<path d="M257.822 492.834C257.689 492.835 257.559 492.801 257.444 492.736C257.315 492.647 257.217 492.519 257.167 492.37C257.116 492.221 257.116 492.06 257.164 491.911C257.262 491.617 259.682 484.777 264.312 481.686C265.446 480.879 266.778 480.396 268.165 480.288C269.552 480.179 270.942 480.45 272.188 481.07C272.871 481.37 273.462 481.847 273.9 482.452C274.338 483.057 274.606 483.768 274.677 484.511C274.677 486.218 272.215 486.917 268.802 487.882C265.389 488.847 260.927 490.106 258.311 492.638C258.248 492.704 258.172 492.755 258.088 492.789C258.003 492.822 257.913 492.838 257.822 492.834ZM268.858 481.644C267.512 481.658 266.201 482.077 265.096 482.847C262.67 484.709 260.747 487.146 259.5 489.939C262.297 488.409 265.283 487.256 268.383 486.511C270.439 485.938 273.251 485.113 273.251 484.497C273.17 484.011 272.968 483.553 272.662 483.166C272.356 482.78 271.957 482.477 271.502 482.287C270.684 481.869 269.777 481.653 268.858 481.658V481.644Z" fill="#263238"/>
<path d="M257.374 492.149C257.374 492.149 254.982 485.267 250.492 482.273C246.002 479.28 241.232 481.979 241.232 484.511C241.232 487.043 252.296 487.211 257.374 492.149Z" fill="#BA68C8"/>
<path d="M257.375 492.834C257.285 492.835 257.195 492.819 257.111 492.785C257.027 492.752 256.95 492.702 256.886 492.638C254.27 490.106 249.892 488.875 246.409 487.882C242.926 486.889 240.534 486.218 240.534 484.511C240.604 483.769 240.87 483.06 241.305 482.455C241.74 481.85 242.329 481.372 243.01 481.07C244.255 480.45 245.645 480.179 247.032 480.288C248.419 480.396 249.751 480.879 250.885 481.686C255.515 484.777 257.879 491.617 258.033 491.911C258.075 492.016 258.091 492.129 258.078 492.242C258.064 492.354 258.023 492.461 257.958 492.553C257.892 492.645 257.804 492.719 257.703 492.768C257.601 492.817 257.488 492.84 257.375 492.834ZM246.353 481.644C245.419 481.637 244.497 481.858 243.667 482.287C243.215 482.479 242.819 482.782 242.515 483.169C242.212 483.555 242.012 484.012 241.932 484.497C241.932 485.141 244.73 485.896 246.786 486.511C249.889 487.259 252.881 488.411 255.683 489.939C254.436 487.146 252.513 484.709 250.088 482.847C248.987 482.09 247.688 481.676 246.353 481.658V481.644Z" fill="#263238"/>
<path d="M257.823 480.93C257.823 480.93 260.215 474.048 264.705 471.055C269.195 468.061 273.979 470.761 273.979 473.307C273.979 475.853 262.914 475.992 257.823 480.93Z" fill="#BA68C8"/>
<path d="M257.822 481.63C257.688 481.625 257.558 481.587 257.444 481.518C257.315 481.429 257.217 481.301 257.167 481.152C257.116 481.003 257.116 480.842 257.164 480.693C257.262 480.413 259.682 473.559 264.312 470.481C265.444 469.671 266.775 469.185 268.163 469.074C269.55 468.963 270.941 469.232 272.188 469.852C272.873 470.153 273.465 470.632 273.903 471.24C274.341 471.848 274.608 472.561 274.677 473.307C274.677 474.999 272.215 475.699 268.802 476.664C265.389 477.629 260.927 478.888 258.311 481.434C258.18 481.561 258.004 481.631 257.822 481.63ZM268.858 470.439C267.512 470.454 266.201 470.873 265.096 471.642C262.673 473.507 260.75 475.944 259.5 478.734C262.295 477.205 265.283 476.057 268.383 475.321C270.439 474.734 273.251 473.922 273.251 473.307C273.172 472.818 272.971 472.357 272.665 471.968C272.359 471.579 271.959 471.274 271.502 471.083C270.685 470.66 269.778 470.439 268.858 470.439Z" fill="#263238"/>
<path d="M257.374 480.93C257.374 480.93 254.982 474.048 250.492 471.055C246.002 468.061 241.232 470.761 241.232 473.307C241.232 475.853 252.296 475.992 257.374 480.93Z" fill="#BA68C8"/>
<path d="M257.375 481.63C257.194 481.625 257.02 481.556 256.886 481.434C254.27 478.888 249.892 477.657 246.409 476.664C242.926 475.671 240.534 474.999 240.534 473.307C240.601 472.563 240.867 471.85 241.302 471.243C241.737 470.635 242.327 470.155 243.01 469.852C244.256 469.232 245.647 468.963 247.035 469.074C248.422 469.185 249.753 469.671 250.885 470.481C255.515 473.559 257.879 480.413 258.033 480.693C258.086 480.841 258.088 481.004 258.037 481.154C257.986 481.304 257.886 481.432 257.753 481.518C257.64 481.591 257.509 481.629 257.375 481.63ZM246.353 470.439C245.423 470.428 244.504 470.649 243.681 471.083C243.224 471.274 242.824 471.579 242.518 471.968C242.212 472.357 242.011 472.818 241.932 473.307C241.932 473.936 244.73 474.706 246.786 475.321C249.891 476.057 252.883 477.205 255.683 478.734C254.433 475.944 252.51 473.507 250.088 471.642C248.989 470.881 247.689 470.462 246.353 470.439Z" fill="#263238"/>
<path d="M257.823 469.712C257.823 469.712 260.215 462.83 264.705 459.836C269.195 456.843 273.979 459.542 273.979 462.088C273.979 464.634 262.914 464.774 257.823 469.712Z" fill="#BA68C8"/>
<path d="M257.822 470.411C257.688 470.407 257.558 470.368 257.444 470.299C257.315 470.21 257.217 470.082 257.167 469.933C257.116 469.784 257.116 469.623 257.164 469.474C257.262 469.194 259.682 462.34 264.312 459.263C265.444 458.453 266.775 457.966 268.163 457.855C269.55 457.744 270.941 458.013 272.188 458.633C272.873 458.935 273.465 459.414 273.903 460.021C274.341 460.629 274.608 461.343 274.677 462.088C274.677 463.781 272.215 464.48 268.802 465.445C265.389 466.411 260.927 467.67 258.311 470.215C258.18 470.342 258.004 470.412 257.822 470.411ZM268.858 459.221C267.513 459.23 266.202 459.645 265.096 460.41C262.669 462.277 260.746 464.719 259.5 467.516C262.291 465.974 265.28 464.821 268.383 464.089C270.439 463.501 273.251 462.69 273.251 462.074C273.181 461.584 272.982 461.121 272.675 460.733C272.368 460.345 271.963 460.045 271.502 459.864C270.686 459.44 269.778 459.224 268.858 459.235V459.221Z" fill="#263238"/>
<path d="M257.374 469.712C257.374 469.712 254.982 462.83 250.492 459.836C246.002 456.843 241.232 459.542 241.232 462.088C241.232 464.634 252.296 464.774 257.374 469.712Z" fill="#BA68C8"/>
<path d="M257.375 470.411C257.194 470.407 257.02 470.337 256.886 470.215C254.27 467.67 249.892 466.439 246.409 465.445C242.926 464.452 240.534 463.781 240.534 462.088C240.601 461.344 240.867 460.631 241.302 460.024C241.737 459.417 242.327 458.936 243.01 458.633C244.256 458.013 245.647 457.744 247.035 457.855C248.422 457.966 249.753 458.453 250.885 459.263C255.515 462.34 257.879 469.194 258.033 469.474C258.089 469.623 258.092 469.786 258.041 469.937C257.99 470.087 257.888 470.216 257.753 470.299C257.64 470.372 257.509 470.411 257.375 470.411ZM246.353 459.221C245.418 459.207 244.494 459.429 243.667 459.864C243.213 460.053 242.814 460.355 242.511 460.742C242.207 461.129 242.008 461.588 241.932 462.074C241.932 462.704 244.73 463.473 246.786 464.089C249.893 464.823 252.886 465.976 255.683 467.516C254.437 464.719 252.514 462.277 250.088 460.41C248.987 459.656 247.687 459.247 246.353 459.235V459.221Z" fill="#263238"/>
<path d="M83.3338 382.859H33.9419V444.939H83.3338V382.859Z" fill="white"/>
<path d="M83.3475 445.639H33.9416C33.7561 445.639 33.5782 445.565 33.447 445.434C33.3159 445.303 33.2422 445.125 33.2422 444.939V382.86C33.2422 382.674 33.3159 382.496 33.447 382.365C33.5782 382.234 33.7561 382.16 33.9416 382.16H83.3475C83.533 382.16 83.7109 382.234 83.842 382.365C83.9732 382.496 84.0469 382.674 84.0469 382.86V444.939C84.0469 445.125 83.9732 445.303 83.842 445.434C83.7109 445.565 83.533 445.639 83.3475 445.639ZM34.641 444.24H82.6481V383.559H34.641V444.24Z" fill="#263238"/>
<path d="M78.6899 388.707H38.6001V439.092H78.6899V388.707Z" fill="white"/>
<path d="M78.6906 439.791H38.6008C38.4153 439.791 38.2374 439.718 38.1062 439.587C37.9751 439.455 37.9014 439.278 37.9014 439.092V388.735C37.9014 388.549 37.9751 388.371 38.1062 388.24C38.2374 388.109 38.4153 388.035 38.6008 388.035H78.6906C78.8761 388.035 79.054 388.109 79.1852 388.24C79.3163 388.371 79.39 388.549 79.39 388.735V439.092C79.39 439.278 79.3163 439.455 79.1852 439.587C79.054 439.718 78.8761 439.791 78.6906 439.791ZM39.3002 438.393H77.9912V389.434H39.3002V438.393Z" fill="#263238"/>
<path d="M67.3317 402.989H49.9585V424.824H67.3317V402.989Z" fill="#BA68C8"/>
<path d="M67.3317 425.523H49.9445C49.759 425.523 49.5811 425.45 49.45 425.318C49.3188 425.187 49.2451 425.009 49.2451 424.824V402.988C49.2451 402.803 49.3188 402.625 49.45 402.494C49.5811 402.363 49.759 402.289 49.9445 402.289H67.3317C67.5172 402.289 67.6951 402.363 67.8263 402.494C67.9574 402.625 68.0311 402.803 68.0311 402.988V424.824C68.0311 425.009 67.9574 425.187 67.8263 425.318C67.6951 425.45 67.5172 425.523 67.3317 425.523ZM50.6579 424.124H66.6323V403.688H50.6579V424.124Z" fill="#263238"/>
<path d="M186.902 401.198H132.376V441.358H186.902V401.198Z" fill="white"/>
<path d="M186.903 442.058H132.35C132.164 442.058 131.986 441.984 131.855 441.853C131.724 441.722 131.65 441.544 131.65 441.358V401.198C131.65 401.013 131.724 400.835 131.855 400.704C131.986 400.572 132.164 400.499 132.35 400.499H186.903C187.089 400.499 187.267 400.572 187.398 400.704C187.529 400.835 187.603 401.013 187.603 401.198V441.358C187.603 441.544 187.529 441.722 187.398 441.853C187.267 441.984 187.089 442.058 186.903 442.058ZM133.077 440.659H186.232V401.898H133.077V440.659Z" fill="#263238"/>
<path d="M185.195 401.198H130.669V441.358H185.195V401.198Z" fill="white"/>
<path d="M185.197 442.058H130.643C130.458 442.058 130.28 441.984 130.149 441.853C130.018 441.722 129.944 441.544 129.944 441.358V401.198C129.944 401.013 130.018 400.835 130.149 400.704C130.28 400.572 130.458 400.499 130.643 400.499H185.197C185.382 400.499 185.56 400.572 185.691 400.704C185.822 400.835 185.896 401.013 185.896 401.198V441.358C185.896 441.544 185.822 441.722 185.691 441.853C185.56 441.984 185.382 442.058 185.197 442.058ZM131.371 440.659H184.525V401.898H131.371V440.659Z" fill="#263238"/>
<path d="M181.112 404.206H134.756V438.351H181.112V404.206Z" fill="white"/>
<path d="M181.111 439.05H134.754C134.569 439.05 134.391 438.977 134.26 438.845C134.128 438.714 134.055 438.536 134.055 438.351V404.206C134.055 404.02 134.128 403.842 134.26 403.711C134.391 403.58 134.569 403.506 134.754 403.506H181.111C181.296 403.506 181.474 403.58 181.605 403.711C181.736 403.842 181.81 404.02 181.81 404.206V438.351C181.81 438.536 181.736 438.714 181.605 438.845C181.474 438.977 181.296 439.05 181.111 439.05ZM135.453 437.652H180.411V404.905H135.453V437.652Z" fill="#263238"/>
<path d="M165.598 441.4H154.701V456.437H165.598V441.4Z" fill="white"/>
<path d="M165.611 457.137H154.7C154.516 457.133 154.34 457.058 154.21 456.928C154.079 456.798 154.005 456.622 154.001 456.437V441.4C154.001 441.215 154.075 441.037 154.206 440.906C154.337 440.775 154.515 440.701 154.7 440.701H165.611C165.797 440.701 165.974 440.775 166.106 440.906C166.237 441.037 166.31 441.215 166.31 441.4V456.437C166.31 456.623 166.237 456.801 166.106 456.932C165.974 457.063 165.797 457.137 165.611 457.137ZM155.4 455.738H164.912V442.1H155.4V455.738Z" fill="#263238"/>
<path d="M163.374 441.4H152.478V456.437H163.374V441.4Z" fill="white"/>
<path d="M163.388 457.137H152.478C152.293 457.133 152.118 457.058 151.987 456.928C151.857 456.798 151.782 456.622 151.778 456.437V441.4C151.778 441.215 151.852 441.037 151.983 440.906C152.114 440.775 152.292 440.701 152.478 440.701H163.388C163.574 440.701 163.752 440.775 163.883 440.906C164.014 441.037 164.088 441.215 164.088 441.4V456.437C164.088 456.623 164.014 456.801 163.883 456.932C163.752 457.063 163.574 457.137 163.388 457.137ZM153.177 455.738H162.689V442.1H153.177V455.738Z" fill="#263238"/>
<path d="M170.984 456.101H144.882V458.745H170.984V456.101Z" fill="white"/>
<path d="M170.983 459.445H144.881C144.696 459.445 144.518 459.371 144.386 459.24C144.255 459.109 144.182 458.931 144.182 458.745V456.102C144.182 455.916 144.255 455.738 144.386 455.607C144.518 455.476 144.696 455.402 144.881 455.402H170.983C171.168 455.402 171.346 455.476 171.477 455.607C171.609 455.738 171.682 455.916 171.682 456.102V458.745C171.682 458.931 171.609 459.109 171.477 459.24C171.346 459.371 171.168 459.445 170.983 459.445ZM145.58 458.046H170.241V456.801H145.58V458.046Z" fill="#263238"/>
<path d="M122.431 464.928H96.3008V522.965H122.431V464.928Z" fill="#263238"/>
<path d="M122.431 523.664H96.301C96.1155 523.664 95.9376 523.591 95.8064 523.459C95.6752 523.328 95.6016 523.15 95.6016 522.965V464.928C95.6016 464.742 95.6752 464.565 95.8064 464.433C95.9376 464.302 96.1155 464.229 96.301 464.229H122.431C122.616 464.229 122.794 464.302 122.925 464.433C123.056 464.565 123.13 464.742 123.13 464.928V522.965C123.127 523.149 123.052 523.325 122.921 523.455C122.791 523.586 122.615 523.661 122.431 523.664ZM97.0004 522.265H121.731V465.627H97.0004V522.265Z" fill="#263238"/>
<path d="M204.15 463.179H89.8254C89.6399 463.179 89.462 463.106 89.3308 462.975C89.1997 462.843 89.126 462.666 89.126 462.48V458.913C89.126 458.728 89.1997 458.55 89.3308 458.418C89.462 458.287 89.6399 458.214 89.8254 458.214H204.15C204.335 458.214 204.513 458.287 204.644 458.418C204.776 458.55 204.849 458.728 204.849 458.913V462.48C204.849 462.666 204.776 462.843 204.644 462.975C204.513 463.106 204.335 463.179 204.15 463.179ZM90.5248 461.781H203.451V459.612H90.5108L90.5248 461.781Z" fill="#263238"/>
<path d="M204.15 463.179H177.656C177.472 463.176 177.296 463.101 177.166 462.971C177.035 462.84 176.961 462.664 176.957 462.48V458.913C176.957 458.728 177.031 458.55 177.162 458.418C177.293 458.287 177.471 458.214 177.656 458.214H204.15C204.335 458.214 204.513 458.287 204.644 458.418C204.776 458.55 204.849 458.728 204.849 458.913V462.48C204.849 462.666 204.776 462.843 204.644 462.975C204.513 463.106 204.335 463.179 204.15 463.179ZM178.356 461.781H203.45V459.612H178.356V461.781Z" fill="#263238"/>
<path d="M92.832 462.424V522.965H97.2802V469.67H145.609V522.965H202.415V462.424H92.832Z" fill="white"/>
<path d="M202.414 523.664H145.608C145.424 523.661 145.248 523.586 145.118 523.456C144.987 523.325 144.912 523.149 144.909 522.965V470.37H97.9788V522.965C97.9753 523.149 97.9004 523.325 97.77 523.456C97.6396 523.586 97.4638 523.661 97.2794 523.664H92.8312C92.6457 523.664 92.4678 523.591 92.3367 523.46C92.2055 523.328 92.1318 523.151 92.1318 522.965V462.424C92.1318 462.239 92.2055 462.061 92.3367 461.93C92.4678 461.799 92.6457 461.725 92.8312 461.725H202.414C202.598 461.728 202.774 461.803 202.904 461.934C203.035 462.064 203.11 462.24 203.113 462.424V522.965C203.11 523.149 203.035 523.325 202.904 523.456C202.774 523.586 202.598 523.661 202.414 523.664ZM146.308 522.266H201.714V463.124H93.5306V522.266H96.58V469.67C96.58 469.485 96.6537 469.307 96.7849 469.176C96.9161 469.044 97.0939 468.971 97.2794 468.971H145.608C145.794 468.971 145.972 469.044 146.103 469.176C146.234 469.307 146.308 469.485 146.308 469.67V522.266Z" fill="#263238"/>
<path d="M202.414 462.424H176.285V522.965H202.414V462.424Z" fill="#263238"/>
<path d="M202.416 523.664H176.286C176.1 523.664 175.922 523.591 175.791 523.46C175.66 523.328 175.586 523.151 175.586 522.965V462.424C175.586 462.239 175.66 462.061 175.791 461.93C175.922 461.799 176.1 461.725 176.286 461.725H202.416C202.6 461.728 202.776 461.803 202.906 461.934C203.037 462.064 203.111 462.24 203.115 462.424V522.965C203.111 523.149 203.037 523.325 202.906 523.456C202.776 523.586 202.6 523.661 202.416 523.664ZM176.985 522.266H201.716V463.124H176.985V522.266Z" fill="#263238"/>
<path d="M172.733 470.146H148.66V482.301H172.733V470.146Z" fill="white"/>
<path d="M172.733 482.987H148.659C148.474 482.987 148.296 482.913 148.165 482.782C148.034 482.651 147.96 482.473 147.96 482.287V470.146C147.96 469.96 148.034 469.782 148.165 469.651C148.296 469.52 148.474 469.446 148.659 469.446H172.733C172.918 469.446 173.096 469.52 173.227 469.651C173.359 469.782 173.432 469.96 173.432 470.146V482.287C173.432 482.473 173.359 482.651 173.227 482.782C173.096 482.913 172.918 482.987 172.733 482.987ZM149.359 481.588H172.033V470.845H149.359V481.588Z" fill="#263238"/>
<path d="M163.375 476.678H158.004C157.818 476.678 157.64 476.604 157.509 476.473C157.378 476.342 157.304 476.164 157.304 475.979C157.304 475.793 157.378 475.615 157.509 475.484C157.64 475.353 157.818 475.279 158.004 475.279H163.375C163.561 475.279 163.738 475.353 163.87 475.484C164.001 475.615 164.074 475.793 164.074 475.979C164.074 476.164 164.001 476.342 163.87 476.473C163.738 476.604 163.561 476.678 163.375 476.678Z" fill="#263238"/>
<path d="M172.733 485.798H148.66V497.954H172.733V485.798Z" fill="white"/>
<path d="M172.733 498.653H148.659C148.474 498.653 148.296 498.58 148.165 498.448C148.034 498.317 147.96 498.139 147.96 497.954V485.798C147.96 485.613 148.034 485.435 148.165 485.304C148.296 485.173 148.474 485.099 148.659 485.099H172.733C172.917 485.102 173.093 485.177 173.223 485.308C173.354 485.438 173.429 485.614 173.432 485.798V497.954C173.432 498.139 173.359 498.317 173.227 498.448C173.096 498.58 172.918 498.653 172.733 498.653ZM149.359 497.255H172.033V486.498H149.359V497.255Z" fill="#263238"/>
<path d="M163.375 492.806H158.004C157.818 492.806 157.64 492.733 157.509 492.602C157.378 492.47 157.304 492.293 157.304 492.107C157.304 491.922 157.378 491.744 157.509 491.613C157.64 491.481 157.818 491.408 158.004 491.408H163.375C163.561 491.408 163.738 491.481 163.87 491.613C164.001 491.744 164.074 491.922 164.074 492.107C164.074 492.293 164.001 492.47 163.87 492.602C163.738 492.733 163.561 492.806 163.375 492.806Z" fill="#263238"/>
<path d="M172.733 501.465H148.66V513.621H172.733V501.465Z" fill="white"/>
<path d="M172.733 514.348H148.659C148.474 514.348 148.296 514.275 148.165 514.143C148.034 514.012 147.96 513.834 147.96 513.649V501.507C147.96 501.322 148.034 501.144 148.165 501.013C148.296 500.881 148.474 500.808 148.659 500.808H172.733C172.918 500.808 173.096 500.881 173.227 501.013C173.359 501.144 173.432 501.322 173.432 501.507V513.649C173.432 513.834 173.359 514.012 173.227 514.143C173.096 514.275 172.918 514.348 172.733 514.348ZM149.359 512.95H172.033V502.207H149.359V512.95Z" fill="#263238"/>
<path d="M93.2935 483.686H90.1602V507.676H93.2935V483.686Z" fill="#263238"/>
<path d="M93.3067 508.375H90.1594C89.9739 508.375 89.796 508.302 89.6648 508.171C89.5336 508.039 89.46 507.861 89.46 507.676V483.686C89.46 483.501 89.5336 483.323 89.6648 483.192C89.796 483.061 89.9739 482.987 90.1594 482.987H93.3067C93.4922 482.987 93.6701 483.061 93.8012 483.192C93.9324 483.323 94.0061 483.501 94.0061 483.686V507.676C94.0061 507.768 93.988 507.859 93.9528 507.944C93.9177 508.028 93.8662 508.106 93.8012 508.171C93.7363 508.235 93.6592 508.287 93.5743 508.322C93.4895 508.357 93.3985 508.375 93.3067 508.375ZM90.8728 506.977H92.6073V484.386H90.8588L90.8728 506.977Z" fill="#263238"/>
<path d="M97.5048 479.504H70.312V439.554C70.312 435.951 71.743 432.497 74.2902 429.95C76.8374 427.402 80.2921 425.971 83.8944 425.971C85.6804 425.968 87.4497 426.316 89.1008 426.997C90.7519 427.678 92.2525 428.678 93.5167 429.94C94.781 431.201 95.7839 432.7 96.4683 434.349C97.1526 435.999 97.5048 437.768 97.5048 439.554V479.504Z" fill="#BFBFBF"/>
<path d="M97.505 480.203H70.3122C70.1267 480.203 69.9488 480.13 69.8176 479.998C69.6865 479.867 69.6128 479.689 69.6128 479.504V439.554C69.6128 435.766 71.1175 432.133 73.7958 429.455C76.4742 426.776 80.1068 425.272 83.8946 425.272C87.6824 425.272 91.315 426.776 93.9934 429.455C96.6718 432.133 98.1764 435.766 98.1764 439.554V479.504C98.1766 479.685 98.1067 479.858 97.9816 479.989C97.8564 480.119 97.6856 480.196 97.505 480.203ZM71.0396 478.804H96.7776V439.554C96.7776 436.137 95.4203 432.86 93.0043 430.444C90.5883 428.028 87.3114 426.671 83.8946 426.671C80.4778 426.671 77.201 428.028 74.7849 430.444C72.3689 432.86 71.0116 436.137 71.0116 439.554L71.0396 478.804Z" fill="#263238"/>
<path d="M102.176 479.504H75.0107V439.554C75.0107 435.951 76.4417 432.497 78.9889 429.949C81.5361 427.402 84.9909 425.971 88.5932 425.971C92.1954 425.971 95.6502 427.402 98.1974 429.949C100.745 432.497 102.176 435.951 102.176 439.554V479.504Z" fill="#BFBFBF"/>
<path d="M102.176 480.203H75.0109C74.8254 480.203 74.6475 480.13 74.5164 479.998C74.3852 479.867 74.3115 479.689 74.3115 479.504V439.554C74.3115 435.766 75.8162 432.133 78.4946 429.455C81.1729 426.776 84.8056 425.272 88.5934 425.272C92.3811 425.272 96.0138 426.776 98.6921 429.455C101.37 432.133 102.875 435.766 102.875 439.554V479.504C102.875 479.689 102.801 479.867 102.67 479.998C102.539 480.13 102.361 480.203 102.176 480.203ZM75.7103 478.804H101.476V439.554C101.476 436.137 100.119 432.86 97.703 430.444C95.287 428.028 92.0101 426.671 88.5934 426.671C85.1766 426.671 81.8997 428.028 79.4837 430.444C77.0676 432.86 75.7103 436.137 75.7103 439.554V478.804Z" fill="#263238"/>
<path d="M117.06 473.503H70.312V479.504H117.06V473.503Z" fill="#BFBFBF"/>
<path d="M117.088 480.203H70.3122C70.1267 480.203 69.9488 480.13 69.8176 479.998C69.6865 479.867 69.6128 479.689 69.6128 479.504V473.503C69.6128 473.318 69.6865 473.14 69.8176 473.008C69.9488 472.877 70.1267 472.804 70.3122 472.804H117.088C117.274 472.804 117.452 472.877 117.583 473.008C117.714 473.14 117.788 473.318 117.788 473.503V479.504C117.788 479.689 117.714 479.867 117.583 479.998C117.452 480.13 117.274 480.203 117.088 480.203ZM71.0396 478.805H116.361V474.202H71.0116L71.0396 478.805Z" fill="#263238"/>
<path d="M117.06 473.503H93.2944V479.504H117.06V473.503Z" fill="#BFBFBF"/>
<path d="M117.087 480.203H93.3073C93.1218 480.203 92.9439 480.13 92.8128 479.998C92.6816 479.867 92.6079 479.689 92.6079 479.504V473.503C92.6079 473.318 92.6816 473.14 92.8128 473.008C92.9439 472.877 93.1218 472.804 93.3073 472.804H117.087C117.273 472.804 117.45 472.877 117.582 473.008C117.713 473.14 117.786 473.318 117.786 473.503V479.504C117.786 479.689 117.713 479.867 117.582 479.998C117.45 480.13 117.273 480.203 117.087 480.203ZM94.0207 478.805H116.402V474.202H94.0207V478.805Z" fill="#263238"/>
<path d="M100.61 479.77H83.894V483.421H100.61V479.77Z" fill="#263238"/>
<path d="M100.61 484.12H83.8244C83.6389 484.12 83.461 484.046 83.3299 483.915C83.1987 483.784 83.125 483.606 83.125 483.421V479.77C83.125 479.584 83.1987 479.406 83.3299 479.275C83.461 479.144 83.6389 479.07 83.8244 479.07H100.61C100.796 479.07 100.973 479.144 101.105 479.275C101.236 479.406 101.309 479.584 101.309 479.77V483.421C101.309 483.606 101.236 483.784 101.105 483.915C100.973 484.046 100.796 484.12 100.61 484.12ZM84.5937 482.721H99.9806V480.469H84.5937V482.721Z" fill="#263238"/>
</g>
</g>
</svg>
