<svg width="109" height="40" viewBox="0 0 109 40" fill="none" xmlns="http://www.w3.org/2000/svg">
<rect width="109" height="40" rx="12" fill="#B12A27"/>
<path d="M11.4091 25.5V13.8636H12.8182V24.25H18.2273V25.5H11.4091ZM23.8864 25.6818C23.0455 25.6818 22.3201 25.4962 21.7102 25.125C21.1042 24.75 20.6364 24.2273 20.3068 23.5568C19.9811 22.8826 19.8182 22.0985 19.8182 21.2045C19.8182 20.3106 19.9811 19.5227 20.3068 18.8409C20.6364 18.1553 21.0947 17.6212 21.6818 17.2386C22.2727 16.8523 22.9621 16.6591 23.75 16.6591C24.2045 16.6591 24.6534 16.7348 25.0966 16.8864C25.5398 17.0379 25.9432 17.2841 26.3068 17.625C26.6705 17.9621 26.9602 18.4091 27.1761 18.9659C27.392 19.5227 27.5 20.2083 27.5 21.0227V21.5909H20.7727V20.4318H26.1364C26.1364 19.9394 26.0379 19.5 25.8409 19.1136C25.6477 18.7273 25.3712 18.4223 25.0114 18.1989C24.6553 17.9754 24.2348 17.8636 23.75 17.8636C23.2159 17.8636 22.7538 17.9962 22.3636 18.2614C21.9773 18.5227 21.6799 18.8636 21.4716 19.2841C21.2633 19.7045 21.1591 20.1553 21.1591 20.6364V21.4091C21.1591 22.0682 21.2727 22.6269 21.5 23.0852C21.7311 23.5398 22.0511 23.8864 22.4602 24.125C22.8693 24.3598 23.3447 24.4773 23.8864 24.4773C24.2386 24.4773 24.5568 24.428 24.8409 24.3295C25.1288 24.2273 25.3769 24.0758 25.5852 23.875C25.7936 23.6705 25.9545 23.4167 26.0682 23.1136L27.3636 23.4773C27.2273 23.9167 26.9981 24.303 26.6761 24.6364C26.3542 24.9659 25.9564 25.2235 25.483 25.4091C25.0095 25.5909 24.4773 25.6818 23.8864 25.6818ZM32.108 25.7045C31.5549 25.7045 31.053 25.6004 30.6023 25.392C30.1515 25.1799 29.7936 24.875 29.5284 24.4773C29.2633 24.0758 29.1307 23.5909 29.1307 23.0227C29.1307 22.5227 29.2292 22.1174 29.4261 21.8068C29.6231 21.4924 29.8864 21.2462 30.2159 21.0682C30.5455 20.8902 30.9091 20.7576 31.3068 20.6705C31.7083 20.5795 32.1117 20.5076 32.517 20.4545C33.0473 20.3864 33.4773 20.3352 33.8068 20.3011C34.1402 20.2633 34.3826 20.2008 34.5341 20.1136C34.6894 20.0265 34.767 19.875 34.767 19.6591V19.6136C34.767 19.053 34.6136 18.6174 34.3068 18.3068C34.0038 17.9962 33.5436 17.8409 32.9261 17.8409C32.286 17.8409 31.7841 17.9811 31.4205 18.2614C31.0568 18.5417 30.8011 18.8409 30.6534 19.1591L29.3807 18.7045C29.608 18.1742 29.911 17.7614 30.2898 17.4659C30.6723 17.1667 31.089 16.9583 31.5398 16.8409C31.9943 16.7197 32.4413 16.6591 32.8807 16.6591C33.161 16.6591 33.483 16.6932 33.8466 16.7614C34.214 16.8258 34.5682 16.9602 34.9091 17.1648C35.2538 17.3693 35.5398 17.678 35.767 18.0909C35.9943 18.5038 36.108 19.0568 36.108 19.75V25.5H34.767V24.3182H34.6989C34.608 24.5076 34.4564 24.7102 34.2443 24.9261C34.0322 25.142 33.75 25.3258 33.3977 25.4773C33.0455 25.6288 32.6155 25.7045 32.108 25.7045ZM32.3125 24.5C32.8428 24.5 33.2898 24.3958 33.6534 24.1875C34.0208 23.9792 34.2973 23.7102 34.483 23.3807C34.6723 23.0511 34.767 22.7045 34.767 22.3409V21.1136C34.7102 21.1818 34.5852 21.2443 34.392 21.3011C34.2027 21.3542 33.983 21.4015 33.733 21.4432C33.4867 21.4811 33.2462 21.5152 33.0114 21.5455C32.7803 21.572 32.5928 21.5947 32.4489 21.6136C32.1004 21.6591 31.7746 21.733 31.4716 21.8352C31.1723 21.9337 30.9299 22.0833 30.7443 22.2841C30.5625 22.4811 30.4716 22.75 30.4716 23.0909C30.4716 23.5568 30.6439 23.9091 30.9886 24.1477C31.3371 24.3826 31.7784 24.5 32.3125 24.5ZM45.3793 16.7727L42.152 25.5H40.7884L37.5611 16.7727H39.0156L41.4247 23.7273H41.5156L43.9247 16.7727H45.3793ZM50.4957 25.6818C49.6548 25.6818 48.9295 25.4962 48.3196 25.125C47.7135 24.75 47.2457 24.2273 46.9162 23.5568C46.5904 22.8826 46.4276 22.0985 46.4276 21.2045C46.4276 20.3106 46.5904 19.5227 46.9162 18.8409C47.2457 18.1553 47.7041 17.6212 48.2912 17.2386C48.8821 16.8523 49.5715 16.6591 50.3594 16.6591C50.8139 16.6591 51.2628 16.7348 51.706 16.8864C52.1491 17.0379 52.5526 17.2841 52.9162 17.625C53.2798 17.9621 53.5696 18.4091 53.7855 18.9659C54.0014 19.5227 54.1094 20.2083 54.1094 21.0227V21.5909H47.3821V20.4318H52.7457C52.7457 19.9394 52.6473 19.5 52.4503 19.1136C52.2571 18.7273 51.9806 18.4223 51.6207 18.1989C51.2647 17.9754 50.8442 17.8636 50.3594 17.8636C49.8253 17.8636 49.3632 17.9962 48.973 18.2614C48.5866 18.5227 48.2893 18.8636 48.081 19.2841C47.8726 19.7045 47.7685 20.1553 47.7685 20.6364V21.4091C47.7685 22.0682 47.8821 22.6269 48.1094 23.0852C48.3404 23.5398 48.6605 23.8864 49.0696 24.125C49.4787 24.3598 49.9541 24.4773 50.4957 24.4773C50.848 24.4773 51.1662 24.428 51.4503 24.3295C51.7382 24.2273 51.9863 24.0758 52.1946 23.875C52.4029 23.6705 52.5639 23.4167 52.6776 23.1136L53.973 23.4773C53.8366 23.9167 53.6075 24.303 53.2855 24.6364C52.9635 24.9659 52.5658 25.2235 52.0923 25.4091C51.6188 25.5909 51.0866 25.6818 50.4957 25.6818ZM60.831 13.8636H62.5128L66.4673 23.5227H66.6037L70.5582 13.8636H72.2401V25.5H70.9219V16.6591H70.8082L67.1719 25.5H65.8991L62.2628 16.6591H62.1491V25.5H60.831V13.8636ZM78.5426 25.6818C77.7017 25.6818 76.9763 25.4962 76.3665 25.125C75.7604 24.75 75.2926 24.2273 74.9631 23.5568C74.6373 22.8826 74.4744 22.0985 74.4744 21.2045C74.4744 20.3106 74.6373 19.5227 74.9631 18.8409C75.2926 18.1553 75.7509 17.6212 76.3381 17.2386C76.929 16.8523 77.6184 16.6591 78.4062 16.6591C78.8608 16.6591 79.3097 16.7348 79.7528 16.8864C80.196 17.0379 80.5994 17.2841 80.9631 17.625C81.3267 17.9621 81.6165 18.4091 81.8324 18.9659C82.0483 19.5227 82.1562 20.2083 82.1562 21.0227V21.5909H75.429V20.4318H80.7926C80.7926 19.9394 80.6941 19.5 80.4972 19.1136C80.304 18.7273 80.0275 18.4223 79.6676 18.1989C79.3116 17.9754 78.8911 17.8636 78.4062 17.8636C77.8722 17.8636 77.41 17.9962 77.0199 18.2614C76.6335 18.5227 76.3362 18.8636 76.1278 19.2841C75.9195 19.7045 75.8153 20.1553 75.8153 20.6364V21.4091C75.8153 22.0682 75.929 22.6269 76.1562 23.0852C76.3873 23.5398 76.7074 23.8864 77.1165 24.125C77.5256 24.3598 78.0009 24.4773 78.5426 24.4773C78.8949 24.4773 79.2131 24.428 79.4972 24.3295C79.785 24.2273 80.0331 24.0758 80.2415 23.875C80.4498 23.6705 80.6108 23.4167 80.7244 23.1136L82.0199 23.4773C81.8835 23.9167 81.6544 24.303 81.3324 24.6364C81.0104 24.9659 80.6127 25.2235 80.1392 25.4091C79.6657 25.5909 79.1335 25.6818 78.5426 25.6818ZM87.8551 25.6818C87.0142 25.6818 86.2888 25.4962 85.679 25.125C85.0729 24.75 84.6051 24.2273 84.2756 23.5568C83.9498 22.8826 83.7869 22.0985 83.7869 21.2045C83.7869 20.3106 83.9498 19.5227 84.2756 18.8409C84.6051 18.1553 85.0634 17.6212 85.6506 17.2386C86.2415 16.8523 86.9309 16.6591 87.7188 16.6591C88.1733 16.6591 88.6222 16.7348 89.0653 16.8864C89.5085 17.0379 89.9119 17.2841 90.2756 17.625C90.6392 17.9621 90.929 18.4091 91.1449 18.9659C91.3608 19.5227 91.4688 20.2083 91.4688 21.0227V21.5909H84.7415V20.4318H90.1051C90.1051 19.9394 90.0066 19.5 89.8097 19.1136C89.6165 18.7273 89.34 18.4223 88.9801 18.1989C88.6241 17.9754 88.2036 17.8636 87.7188 17.8636C87.1847 17.8636 86.7225 17.9962 86.3324 18.2614C85.946 18.5227 85.6487 18.8636 85.4403 19.2841C85.232 19.7045 85.1278 20.1553 85.1278 20.6364V21.4091C85.1278 22.0682 85.2415 22.6269 85.4688 23.0852C85.6998 23.5398 86.0199 23.8864 86.429 24.125C86.8381 24.3598 87.3134 24.4773 87.8551 24.4773C88.2074 24.4773 88.5256 24.428 88.8097 24.3295C89.0975 24.2273 89.3456 24.0758 89.554 23.875C89.7623 23.6705 89.9233 23.4167 90.0369 23.1136L91.3324 23.4773C91.196 23.9167 90.9669 24.303 90.6449 24.6364C90.3229 24.9659 89.9252 25.2235 89.4517 25.4091C88.9782 25.5909 88.446 25.6818 87.8551 25.6818ZM97.304 16.7727V17.9091H92.7812V16.7727H97.304ZM94.0994 14.6818H95.4403V23C95.4403 23.3788 95.4953 23.6629 95.6051 23.8523C95.7188 24.0379 95.8627 24.1629 96.0369 24.2273C96.215 24.2879 96.4025 24.3182 96.5994 24.3182C96.7472 24.3182 96.8684 24.3106 96.9631 24.2955C97.0578 24.2765 97.1335 24.2614 97.1903 24.25L97.4631 25.4545C97.3722 25.4886 97.2453 25.5227 97.0824 25.5568C96.9195 25.5947 96.7131 25.6136 96.4631 25.6136C96.0843 25.6136 95.7131 25.5322 95.3494 25.3693C94.9896 25.2064 94.6903 24.9583 94.4517 24.625C94.2169 24.2917 94.0994 23.8712 94.0994 23.3636V14.6818Z" fill="#FEFEFE"/>
</svg>
