<svg width="20" height="20" viewBox="0 0 20 20" fill="none" xmlns="http://www.w3.org/2000/svg">
<path d="M10.0003 11.6667C9.30588 11.6667 8.7156 11.4236 8.22949 10.9375C7.74338 10.4514 7.50033 9.86113 7.50033 9.16669V4.16669C7.50033 3.47224 7.74338 2.88196 8.22949 2.39585C8.7156 1.90974 9.30588 1.66669 10.0003 1.66669C10.6948 1.66669 11.285 1.90974 11.7712 2.39585C12.2573 2.88196 12.5003 3.47224 12.5003 4.16669V9.16669C12.5003 9.86113 12.2573 10.4514 11.7712 10.9375C11.285 11.4236 10.6948 11.6667 10.0003 11.6667ZM9.16699 17.5V14.9375C7.72255 14.7431 6.5281 14.0972 5.58366 13C4.63921 11.9028 4.16699 10.625 4.16699 9.16669H5.83366C5.83366 10.3195 6.23991 11.3021 7.05241 12.1146C7.86491 12.9271 8.84755 13.3334 10.0003 13.3334C11.1531 13.3334 12.1357 12.9271 12.9482 12.1146C13.7607 11.3021 14.167 10.3195 14.167 9.16669H15.8337C15.8337 10.625 15.3614 11.9028 14.417 13C13.4725 14.0972 12.2781 14.7431 10.8337 14.9375V17.5H9.16699Z" fill="#FEFEFE"/>
</svg>
