<svg width="400" height="400" viewBox="0 0 400 400" fill="none" xmlns="http://www.w3.org/2000/svg">
<path d="M272.72 262.244C272.24 261.656 271.556 261.212 270.748 261.004C260.02 258.224 252.604 249.168 252.604 238.852V194.04C252.604 180.668 248.256 168.788 239.56 158.392C239.316 158.104 239.076 157.82 238.828 157.536C230.208 147.6 217.992 141.076 204.648 138.836C204.6 131.444 198.116 125.464 190.124 125.464C182.132 125.464 175.676 131.42 175.604 138.792C162.148 140.984 149.824 147.528 141.144 157.536C140.9 157.82 140.652 158.108 140.412 158.392C131.716 168.784 127.368 180.668 127.368 194.04V238.852C127.368 244.008 125.516 248.852 122.32 252.756C119.124 256.656 114.588 259.616 109.224 261.004C107.612 261.42 106.496 262.784 106.496 264.336V277.584C106.496 279.496 108.168 281.044 110.232 281.044H169.228L169.12 281.108C169.12 286.424 171.164 290.976 175.252 294.764C179.34 298.552 184.252 300.444 189.992 300.444C195.732 300.444 200.648 298.552 204.732 294.764C208.82 290.976 210.864 286.428 210.864 281.108L210.712 281.044H269.748C271.812 281.044 273.484 279.496 273.484 277.584V264.336C273.484 263.56 273.208 262.832 272.724 262.248L272.72 262.244Z" fill="url(#paint0_linear_2698_28630)"/>
<path d="M273.477 259.536V272.784C273.477 274.696 271.929 276.244 270.017 276.244H122.265C120.353 276.244 118.805 274.696 118.805 272.784V259.536C118.805 257.984 119.841 256.62 121.333 256.204C126.301 254.816 130.501 251.856 133.461 247.956C136.421 244.052 138.137 239.212 138.137 234.052V189.24C138.137 175.868 142.165 163.988 150.221 153.592C150.445 153.304 150.673 153.02 150.901 152.736C158.945 142.728 170.357 136.184 182.821 133.992C185.889 133.448 189.021 133.172 192.181 133.172H200.097C203.345 133.172 206.565 133.464 209.717 134.036C222.081 136.276 233.393 142.796 241.377 152.736C241.605 153.02 241.833 153.308 242.057 153.592C250.113 163.984 254.141 175.868 254.141 189.24V234.052C254.141 244.368 261.009 253.424 270.949 256.204C271.697 256.412 272.329 256.856 272.773 257.444C273.221 258.028 273.477 258.756 273.477 259.532V259.536Z" fill="url(#paint1_linear_2698_28630)"/>
<path d="M196.145 295.64C190.829 295.64 186.277 293.748 182.489 289.96C178.701 286.172 176.809 281.624 176.809 276.304H215.477C215.477 281.62 213.585 286.172 209.797 289.96C206.009 293.748 201.461 295.64 196.141 295.64H196.145Z" fill="url(#paint2_linear_2698_28630)"/>
<path d="M209.72 134.04C206.568 133.468 203.348 133.176 200.1 133.176H192.184C189.024 133.176 185.892 133.452 182.824 133.996C182.888 126.624 188.884 120.668 196.272 120.668C203.66 120.668 209.68 126.648 209.724 134.04H209.72Z" fill="url(#paint3_linear_2698_28630)"/>
<path d="M283.848 99.876H240.9C235.43 99.876 230.996 104.31 230.996 109.78V152.728C230.996 158.198 235.43 162.632 240.9 162.632H283.848C289.318 162.632 293.752 158.198 293.752 152.728V109.78C293.752 104.31 289.318 99.876 283.848 99.876Z" fill="url(#paint4_linear_2698_28630)"/>
<path d="M251.084 130.864C251.084 126.94 251.488 123.784 252.296 121.392C253.104 119 254.304 117.156 255.896 115.856C257.488 114.56 259.492 113.908 261.904 113.908C263.684 113.908 265.248 114.268 266.588 114.984C267.932 115.7 269.04 116.736 269.916 118.084C270.792 119.436 271.476 121.08 271.976 123.02C272.472 124.96 272.724 127.572 272.724 130.864C272.724 134.756 272.324 137.9 271.524 140.292C270.724 142.684 269.528 144.532 267.936 145.836C266.344 147.14 264.332 147.792 261.904 147.792C258.704 147.792 256.192 146.644 254.368 144.352C252.18 141.592 251.088 137.096 251.088 130.86L251.084 130.864ZM255.272 130.864C255.272 136.312 255.908 139.936 257.184 141.74C258.46 143.544 260.032 144.444 261.904 144.444C263.776 144.444 265.348 143.54 266.624 141.728C267.9 139.916 268.536 136.296 268.536 130.864C268.536 125.432 267.9 121.772 266.624 119.976C265.348 118.18 263.76 117.284 261.86 117.284C259.96 117.284 258.496 118.076 257.38 119.66C255.976 121.684 255.276 125.416 255.276 130.864H255.272Z" fill="#C7C7D1"/>
<path d="M65 364H62.088L50.376 346.24V364H47.464V341.664H50.376L62.088 359.392V341.664H65V364ZM77.612 364.288C75.9693 364.288 74.476 363.915 73.132 363.168C71.8093 362.421 70.764 361.365 69.996 360C69.2493 358.613 68.876 357.013 68.876 355.2C68.876 353.408 69.26 351.829 70.028 350.464C70.8173 349.077 71.884 348.021 73.228 347.296C74.572 346.549 76.076 346.176 77.74 346.176C79.404 346.176 80.908 346.549 82.252 347.296C83.596 348.021 84.652 349.067 85.42 350.432C86.2093 351.797 86.604 353.387 86.604 355.2C86.604 357.013 86.1987 358.613 85.388 360C84.5987 361.365 83.5213 362.421 82.156 363.168C80.7907 363.915 79.276 364.288 77.612 364.288ZM77.612 361.728C78.6573 361.728 79.6387 361.483 80.556 360.992C81.4733 360.501 82.2093 359.765 82.764 358.784C83.34 357.803 83.628 356.608 83.628 355.2C83.628 353.792 83.3507 352.597 82.796 351.616C82.2413 350.635 81.516 349.909 80.62 349.44C79.724 348.949 78.7533 348.704 77.708 348.704C76.6413 348.704 75.66 348.949 74.764 349.44C73.8893 349.909 73.1853 350.635 72.652 351.616C72.1187 352.597 71.852 353.792 71.852 355.2C71.852 356.629 72.108 357.835 72.62 358.816C73.1533 359.797 73.8573 360.533 74.732 361.024C75.6067 361.493 76.5667 361.728 77.612 361.728ZM116.5 364H113.588L101.876 346.24V364H98.964V341.664H101.876L113.588 359.392V341.664H116.5V364ZM129.112 364.288C127.469 364.288 125.976 363.915 124.632 363.168C123.309 362.421 122.264 361.365 121.496 360C120.749 358.613 120.376 357.013 120.376 355.2C120.376 353.408 120.76 351.829 121.528 350.464C122.317 349.077 123.384 348.021 124.728 347.296C126.072 346.549 127.576 346.176 129.24 346.176C130.904 346.176 132.408 346.549 133.752 347.296C135.096 348.021 136.152 349.067 136.92 350.432C137.709 351.797 138.104 353.387 138.104 355.2C138.104 357.013 137.699 358.613 136.888 360C136.099 361.365 135.021 362.421 133.656 363.168C132.291 363.915 130.776 364.288 129.112 364.288ZM129.112 361.728C130.157 361.728 131.139 361.483 132.056 360.992C132.973 360.501 133.709 359.765 134.264 358.784C134.84 357.803 135.128 356.608 135.128 355.2C135.128 353.792 134.851 352.597 134.296 351.616C133.741 350.635 133.016 349.909 132.12 349.44C131.224 348.949 130.253 348.704 129.208 348.704C128.141 348.704 127.16 348.949 126.264 349.44C125.389 349.909 124.685 350.635 124.152 351.616C123.619 352.597 123.352 353.792 123.352 355.2C123.352 356.629 123.608 357.835 124.12 358.816C124.653 359.797 125.357 360.533 126.232 361.024C127.107 361.493 128.067 361.728 129.112 361.728ZM145.485 348.864V359.2C145.485 360.053 145.666 360.661 146.029 361.024C146.391 361.365 147.021 361.536 147.917 361.536H150.061V364H147.437C145.815 364 144.599 363.627 143.789 362.88C142.978 362.133 142.573 360.907 142.573 359.2V348.864H140.301V346.464H142.573V342.048H145.485V346.464H150.061V348.864H145.485ZM155.093 343.616C154.538 343.616 154.069 343.424 153.685 343.04C153.301 342.656 153.109 342.187 153.109 341.632C153.109 341.077 153.301 340.608 153.685 340.224C154.069 339.84 154.538 339.648 155.093 339.648C155.626 339.648 156.074 339.84 156.437 340.224C156.821 340.608 157.013 341.077 157.013 341.632C157.013 342.187 156.821 342.656 156.437 343.04C156.074 343.424 155.626 343.616 155.093 343.616ZM156.501 346.464V364H153.589V346.464H156.501ZM168.6 348.864H164.92V364H162.008V348.864H159.736V346.464H162.008V345.216C162.008 343.253 162.509 341.824 163.512 340.928C164.536 340.011 166.168 339.552 168.408 339.552V341.984C167.128 341.984 166.221 342.24 165.688 342.752C165.176 343.243 164.92 344.064 164.92 345.216V346.464H168.6V348.864ZM173.499 343.616C172.945 343.616 172.475 343.424 172.091 343.04C171.707 342.656 171.515 342.187 171.515 341.632C171.515 341.077 171.707 340.608 172.091 340.224C172.475 339.84 172.945 339.648 173.499 339.648C174.033 339.648 174.481 339.84 174.843 340.224C175.227 340.608 175.419 341.077 175.419 341.632C175.419 342.187 175.227 342.656 174.843 343.04C174.481 343.424 174.033 343.616 173.499 343.616ZM174.907 346.464V364H171.995V346.464H174.907ZM178.782 355.2C178.782 353.387 179.145 351.808 179.87 350.464C180.596 349.099 181.598 348.043 182.878 347.296C184.18 346.549 185.662 346.176 187.326 346.176C189.481 346.176 191.252 346.699 192.638 347.744C194.046 348.789 194.974 350.24 195.422 352.096H192.286C191.988 351.029 191.401 350.187 190.526 349.568C189.673 348.949 188.606 348.64 187.326 348.64C185.662 348.64 184.318 349.216 183.294 350.368C182.27 351.499 181.758 353.109 181.758 355.2C181.758 357.312 182.27 358.944 183.294 360.096C184.318 361.248 185.662 361.824 187.326 361.824C188.606 361.824 189.673 361.525 190.526 360.928C191.38 360.331 191.966 359.477 192.286 358.368H195.422C194.953 360.16 194.014 361.6 192.606 362.688C191.198 363.755 189.438 364.288 187.326 364.288C185.662 364.288 184.18 363.915 182.878 363.168C181.598 362.421 180.596 361.365 179.87 360C179.145 358.635 178.782 357.035 178.782 355.2ZM198.22 355.168C198.22 353.376 198.582 351.808 199.308 350.464C200.033 349.099 201.025 348.043 202.284 347.296C203.564 346.549 204.982 346.176 206.54 346.176C208.076 346.176 209.409 346.507 210.54 347.168C211.67 347.829 212.513 348.661 213.068 349.664V346.464H216.012V364H213.068V360.736C212.492 361.76 211.628 362.613 210.476 363.296C209.345 363.957 208.022 364.288 206.508 364.288C204.95 364.288 203.542 363.904 202.284 363.136C201.025 362.368 200.033 361.291 199.308 359.904C198.582 358.517 198.22 356.939 198.22 355.168ZM213.068 355.2C213.068 353.877 212.801 352.725 212.268 351.744C211.734 350.763 211.009 350.016 210.092 349.504C209.196 348.971 208.204 348.704 207.116 348.704C206.028 348.704 205.036 348.96 204.14 349.472C203.244 349.984 202.529 350.731 201.996 351.712C201.462 352.693 201.196 353.845 201.196 355.168C201.196 356.512 201.462 357.685 201.996 358.688C202.529 359.669 203.244 360.427 204.14 360.96C205.036 361.472 206.028 361.728 207.116 361.728C208.204 361.728 209.196 361.472 210.092 360.96C211.009 360.427 211.734 359.669 212.268 358.688C212.801 357.685 213.068 356.523 213.068 355.2ZM224.485 348.864V359.2C224.485 360.053 224.666 360.661 225.029 361.024C225.391 361.365 226.021 361.536 226.917 361.536H229.061V364H226.437C224.815 364 223.599 363.627 222.789 362.88C221.978 362.133 221.573 360.907 221.573 359.2V348.864H219.301V346.464H221.573V342.048H224.485V346.464H229.061V348.864H224.485ZM234.093 343.616C233.538 343.616 233.069 343.424 232.685 343.04C232.301 342.656 232.109 342.187 232.109 341.632C232.109 341.077 232.301 340.608 232.685 340.224C233.069 339.84 233.538 339.648 234.093 339.648C234.626 339.648 235.074 339.84 235.437 340.224C235.821 340.608 236.013 341.077 236.013 341.632C236.013 342.187 235.821 342.656 235.437 343.04C235.074 343.424 234.626 343.616 234.093 343.616ZM235.501 346.464V364H232.589V346.464H235.501ZM248.112 364.288C246.469 364.288 244.976 363.915 243.632 363.168C242.309 362.421 241.264 361.365 240.496 360C239.749 358.613 239.376 357.013 239.376 355.2C239.376 353.408 239.76 351.829 240.528 350.464C241.317 349.077 242.384 348.021 243.728 347.296C245.072 346.549 246.576 346.176 248.24 346.176C249.904 346.176 251.408 346.549 252.752 347.296C254.096 348.021 255.152 349.067 255.92 350.432C256.709 351.797 257.104 353.387 257.104 355.2C257.104 357.013 256.699 358.613 255.888 360C255.099 361.365 254.021 362.421 252.656 363.168C251.291 363.915 249.776 364.288 248.112 364.288ZM248.112 361.728C249.157 361.728 250.139 361.483 251.056 360.992C251.973 360.501 252.709 359.765 253.264 358.784C253.84 357.803 254.128 356.608 254.128 355.2C254.128 353.792 253.851 352.597 253.296 351.616C252.741 350.635 252.016 349.909 251.12 349.44C250.224 348.949 249.253 348.704 248.208 348.704C247.141 348.704 246.16 348.949 245.264 349.44C244.389 349.909 243.685 350.635 243.152 351.616C242.619 352.597 242.352 353.792 242.352 355.2C242.352 356.629 242.608 357.835 243.12 358.816C243.653 359.797 244.357 360.533 245.232 361.024C246.107 361.493 247.067 361.728 248.112 361.728ZM269.477 346.144C271.61 346.144 273.338 346.795 274.661 348.096C275.983 349.376 276.645 351.232 276.645 353.664V364H273.765V354.08C273.765 352.331 273.327 350.997 272.453 350.08C271.578 349.141 270.383 348.672 268.869 348.672C267.333 348.672 266.106 349.152 265.189 350.112C264.293 351.072 263.845 352.469 263.845 354.304V364H260.933V346.464H263.845V348.96C264.421 348.064 265.199 347.371 266.181 346.88C267.183 346.389 268.282 346.144 269.477 346.144ZM287.61 364.288C286.266 364.288 285.06 364.064 283.994 363.616C282.927 363.147 282.084 362.507 281.466 361.696C280.847 360.864 280.506 359.915 280.442 358.848H283.45C283.535 359.723 283.94 360.437 284.666 360.992C285.412 361.547 286.383 361.824 287.578 361.824C288.687 361.824 289.562 361.579 290.202 361.088C290.842 360.597 291.162 359.979 291.162 359.232C291.162 358.464 290.82 357.899 290.138 357.536C289.455 357.152 288.399 356.779 286.97 356.416C285.668 356.075 284.602 355.733 283.77 355.392C282.959 355.029 282.255 354.507 281.658 353.824C281.082 353.12 280.794 352.203 280.794 351.072C280.794 350.176 281.06 349.355 281.594 348.608C282.127 347.861 282.884 347.275 283.866 346.848C284.847 346.4 285.967 346.176 287.226 346.176C289.167 346.176 290.735 346.667 291.93 347.648C293.124 348.629 293.764 349.973 293.85 351.68H290.938C290.874 350.763 290.5 350.027 289.818 349.472C289.156 348.917 288.26 348.64 287.13 348.64C286.084 348.64 285.252 348.864 284.634 349.312C284.015 349.76 283.706 350.347 283.706 351.072C283.706 351.648 283.887 352.128 284.25 352.512C284.634 352.875 285.103 353.173 285.658 353.408C286.234 353.621 287.023 353.867 288.026 354.144C289.284 354.485 290.308 354.827 291.098 355.168C291.887 355.488 292.559 355.979 293.114 356.64C293.69 357.301 293.988 358.165 294.01 359.232C294.01 360.192 293.743 361.056 293.21 361.824C292.676 362.592 291.919 363.2 290.938 363.648C289.978 364.075 288.868 364.288 287.61 364.288ZM322.267 341.696L315.004 355.584V364H312.092V355.584L304.796 341.696H308.028L313.532 352.992L319.036 341.696H322.267ZM341.339 354.56C341.339 355.115 341.307 355.701 341.243 356.32H327.227C327.334 358.048 327.92 359.403 328.987 360.384C330.075 361.344 331.387 361.824 332.923 361.824C334.182 361.824 335.227 361.536 336.059 360.96C336.912 360.363 337.51 359.573 337.851 358.592H340.987C340.518 360.277 339.579 361.653 338.171 362.72C336.763 363.765 335.014 364.288 332.923 364.288C331.259 364.288 329.766 363.915 328.443 363.168C327.142 362.421 326.118 361.365 325.371 360C324.624 358.613 324.251 357.013 324.251 355.2C324.251 353.387 324.614 351.797 325.339 350.432C326.064 349.067 327.078 348.021 328.379 347.296C329.702 346.549 331.216 346.176 332.923 346.176C334.587 346.176 336.059 346.539 337.339 347.264C338.619 347.989 339.6 348.992 340.283 350.272C340.987 351.531 341.339 352.96 341.339 354.56ZM338.331 353.952C338.331 352.843 338.086 351.893 337.595 351.104C337.104 350.293 336.432 349.685 335.579 349.28C334.747 348.853 333.819 348.64 332.795 348.64C331.323 348.64 330.064 349.109 329.019 350.048C327.995 350.987 327.408 352.288 327.259 353.952H338.331ZM348.735 348.864V359.2C348.735 360.053 348.916 360.661 349.279 361.024C349.641 361.365 350.271 361.536 351.167 361.536H353.311V364H350.687C349.065 364 347.849 363.627 347.039 362.88C346.228 362.133 345.823 360.907 345.823 359.2V348.864H343.551V346.464H345.823V342.048H348.735V346.464H353.311V348.864H348.735Z" fill="black"/>
<defs>
<linearGradient id="paint0_linear_2698_28630" x1="189.984" y1="125.468" x2="189.984" y2="300.44" gradientUnits="userSpaceOnUse">
<stop stop-color="#C7C7D1"/>
<stop offset="1" stop-color="#C7C7D1" stop-opacity="0.1"/>
</linearGradient>
<linearGradient id="paint1_linear_2698_28630" x1="196.141" y1="276.244" x2="196.141" y2="133.176" gradientUnits="userSpaceOnUse">
<stop stop-color="#C7C7D1"/>
<stop offset="1" stop-color="#7A8496"/>
</linearGradient>
<linearGradient id="paint2_linear_2698_28630" x1="196.145" y1="295.64" x2="196.145" y2="276.308" gradientUnits="userSpaceOnUse">
<stop stop-color="#7A8496"/>
<stop offset="1" stop-color="#363D56"/>
</linearGradient>
<linearGradient id="paint3_linear_2698_28630" x1="196.272" y1="120.668" x2="196.272" y2="134.04" gradientUnits="userSpaceOnUse">
<stop stop-color="#C7C7D1"/>
<stop offset="1" stop-color="#7A8496"/>
</linearGradient>
<linearGradient id="paint4_linear_2698_28630" x1="262.376" y1="162.632" x2="262.376" y2="99.876" gradientUnits="userSpaceOnUse">
<stop stop-color="#363D56"/>
<stop offset="1" stop-color="#1D1D33"/>
</linearGradient>
</defs>
</svg>
