<svg width="383" height="112" viewBox="0 0 383 112" fill="none" xmlns="http://www.w3.org/2000/svg">
<g filter="url(#filter0_d_1528_3091)">
<path d="M42.2454 11.6274L42.2683 10.1276L40.9443 10.1074L40.76 11.4187L42.2454 11.6274ZM53.6999 13.8189L53.2643 15.2543L53.2709 15.2563L53.6999 13.8189ZM56.843 14.9069L58.3284 15.1157L58.4871 13.9867L57.4417 13.5316L56.843 14.9069ZM55.5693 23.9699L55.2622 25.4381L56.8316 25.7664L57.0547 24.1786L55.5693 23.9699ZM52.445 23.2076L52.8211 21.7555L52.8097 21.7526L52.445 23.2076ZM43.2731 21.7893L43.1938 23.2873L43.222 23.2887L43.2502 23.2892L43.2731 21.7893ZM40.7935 21.9579L39.3081 21.7491L38.9998 23.9431L41.1514 23.4146L40.7935 21.9579ZM29.2904 54.1422L28.6507 55.499L28.6646 55.5055L28.6785 55.5117L29.2904 54.1422ZM24.2387 49.6191L25.5608 48.9104L25.5553 48.9003L24.2387 49.6191ZM22.6211 42.735L21.1212 42.7545L21.1214 42.7677L21.1218 42.7808L22.6211 42.735ZM25.3435 21.9839L23.8997 21.5775L23.8963 21.5895L23.8931 21.6016L25.3435 21.9839ZM27.9999 15.959L26.773 15.096L26.7688 15.102L26.7647 15.108L27.9999 15.959ZM32.427 12.5096L32.96 13.9117L32.9717 13.9072L32.427 12.5096ZM39.5479 11.5068L41.0333 11.7156L41.2685 10.0423L39.5791 10.0072L39.5479 11.5068ZM35.6219 40.3613L34.1296 40.2097L34.1287 40.2183L34.128 40.2269L35.6219 40.3613ZM36.0382 44.2975L34.679 44.932L34.6899 44.9553L34.7016 44.9783L36.0382 44.2975ZM38.5407 46.2649L39.0561 44.8562L39.0276 44.8458L38.9988 44.8366L38.5407 46.2649ZM49.9397 47.9316L50.0554 46.436L50.0091 46.4325L49.9626 46.4317L49.9397 47.9316ZM52.4559 47.9621L53.9413 48.1708L54.1895 46.4048L52.4071 46.4629L52.4559 47.9621ZM51.1644 57.1518L51.2861 58.6468L52.4827 58.5494L52.6498 57.3605L51.1644 57.1518ZM43.9959 57.1137L44.1086 55.618L44.091 55.6166L44.0733 55.6157L43.9959 57.1137ZM42.2454 11.6274L42.2225 13.1272C42.4677 13.131 42.9214 13.1725 43.6299 13.2721L43.8387 11.7867L44.0475 10.3013C43.3195 10.199 42.711 10.1344 42.2683 10.1276L42.2454 11.6274ZM43.8387 11.7867L43.6299 13.2721L45.2778 13.5037L45.4865 12.0183L45.6953 10.5329L44.0475 10.3013L43.8387 11.7867ZM45.4865 12.0183L45.2778 13.5037C48.0344 13.8911 50.6963 14.475 53.2643 15.2543L53.6999 13.8189L54.1354 12.3835C51.414 11.5577 48.6003 10.9412 45.6953 10.5329L45.4865 12.0183ZM53.6999 13.8189L53.2709 15.2563C54.6151 15.6574 55.5957 15.9999 56.2443 16.2823L56.843 14.9069L57.4417 13.5316C56.6287 13.1777 55.5138 12.7949 54.1288 12.3815L53.6999 13.8189ZM56.843 14.9069L55.3576 14.6982L54.0839 23.7611L55.5693 23.9699L57.0547 24.1786L58.3284 15.1157L56.843 14.9069ZM55.5693 23.9699L55.8764 22.5016C55.2865 22.3783 54.2753 22.1322 52.821 21.7555L52.445 23.2076L52.0689 24.6597C53.5247 25.0368 54.5964 25.2988 55.2622 25.4381L55.5693 23.9699ZM52.445 23.2076L52.8097 21.7526C50.8187 21.2535 49.0472 20.8922 47.5013 20.675L47.2926 22.1604L47.0838 23.6458C48.4956 23.8442 50.159 24.181 52.0803 24.6626L52.445 23.2076ZM47.2926 22.1604L47.5013 20.675C45.8243 20.4393 44.4159 20.3066 43.296 20.2895L43.2731 21.7893L43.2502 23.2892C44.194 23.3036 45.4653 23.4183 47.0838 23.6458L47.2926 22.1604ZM43.2731 21.7893L43.3524 20.2914C42.2792 20.2346 41.2947 20.2902 40.4357 20.5012L40.7935 21.9579L41.1514 23.4146C41.6311 23.2967 42.2997 23.2399 43.1938 23.2873L43.2731 21.7893ZM40.7935 21.9579L42.2789 22.1667L43.7308 11.8362L42.2454 11.6274L40.76 11.4187L39.3081 21.7491L40.7935 21.9579ZM39.2159 56.6358L39.4247 55.1504C35.2631 54.5655 32.1111 53.7595 29.9022 52.7727L29.2904 54.1422L28.6785 55.5117C31.2535 56.6621 34.7185 57.5185 39.0072 58.1212L39.2159 56.6358ZM29.2904 54.1422L29.93 52.7854C27.819 51.7901 26.4048 50.4851 25.5607 48.9104L24.2387 49.6191L22.9167 50.3278C24.1207 52.574 26.0744 54.2844 28.6507 55.499L29.2904 54.1422ZM24.2387 49.6191L25.5553 48.9003C24.7059 47.3447 24.2002 45.2987 24.1204 42.6891L22.6211 42.735L21.1218 42.7808C21.2114 45.7101 21.7841 48.2535 22.9222 50.3379L24.2387 49.6191ZM22.6211 42.735L24.1209 42.7154C24.0858 40.0188 24.3771 36.4194 25.0136 31.8904L23.5282 31.6817L22.0428 31.4729C21.3967 36.0703 21.0832 39.8397 21.1212 42.7545L22.6211 42.735ZM23.5282 31.6817L25.0136 31.8904C25.5737 27.9049 26.1691 24.737 26.794 22.3662L25.3435 21.9839L23.8931 21.6016C23.2258 24.1333 22.6109 27.4307 22.0428 31.4729L23.5282 31.6817ZM25.3435 21.9839L26.7874 22.3904C27.445 20.0544 28.2713 18.209 29.2351 16.81L27.9999 15.959L26.7647 15.108C25.5634 16.8516 24.6188 19.0228 23.8997 21.5775L25.3435 21.9839ZM27.9999 15.959L29.2268 16.822C30.1869 15.4569 31.4219 14.4963 32.96 13.9117L32.427 12.5096L31.8941 11.1074C29.7908 11.9069 28.0744 13.2458 26.773 15.096L27.9999 15.959ZM32.427 12.5096L32.9717 13.9072C34.5958 13.2743 36.7563 12.9491 39.5167 13.0065L39.5479 11.5068L39.5791 10.0072C36.5828 9.94486 33.9961 10.2882 31.8824 11.1119L32.427 12.5096ZM39.5479 11.5068L38.0625 11.2981L34.9717 33.2899L36.4571 33.4987L37.9425 33.7075L41.0333 11.7156L39.5479 11.5068ZM36.4571 33.4987L34.9717 33.2899C34.6367 35.6736 34.356 37.9803 34.1296 40.2097L35.6219 40.3613L37.1143 40.5128C37.3365 38.3243 37.6125 36.0559 37.9425 33.7075L36.4571 33.4987ZM35.6219 40.3613L34.128 40.2269C33.9655 42.0342 34.0843 43.6582 34.679 44.932L36.0382 44.2975L37.3974 43.663C37.131 43.0924 36.9724 42.0922 37.1159 40.4956L35.6219 40.3613ZM36.0382 44.2975L34.7016 44.9783C35.3922 46.3341 36.5899 47.2145 38.0826 47.6933L38.5407 46.2649L38.9988 44.8366C38.1003 44.5484 37.6297 44.1172 37.3748 43.6167L36.0382 44.2975ZM38.5407 46.2649L38.0253 47.6736C39.3251 48.1491 41.1873 48.5394 43.5388 48.8699L43.7476 47.3845L43.9563 45.8991C41.6602 45.5764 40.0512 45.2203 39.0561 44.8562L38.5407 46.2649ZM43.7476 47.3845L43.5388 48.8699C45.9857 49.2138 48.1153 49.4039 49.9168 49.4314L49.9397 47.9316L49.9626 46.4317C48.3246 46.4067 46.3261 46.2321 43.9563 45.8991L43.7476 47.3845ZM49.9397 47.9316L49.824 49.4271C50.5792 49.4855 51.4767 49.4948 52.5048 49.4613L52.4559 47.9621L52.4071 46.4629C51.4441 46.4942 50.6641 46.4831 50.0554 46.436L49.9397 47.9316ZM52.4559 47.9621L50.9705 47.7533L49.679 56.943L51.1644 57.1518L52.6498 57.3605L53.9413 48.1708L52.4559 47.9621ZM51.1644 57.1518L51.0427 55.6567C49.0008 55.8229 46.6915 55.8126 44.1086 55.618L43.9959 57.1137L43.8832 58.6095C46.5871 58.8132 49.0567 58.8282 51.2861 58.6468L51.1644 57.1518ZM43.9959 57.1137L44.0733 55.6157C42.6706 55.5432 41.1218 55.3889 39.4247 55.1504L39.2159 56.6358L39.0072 58.1212C40.7747 58.3696 42.4125 58.5339 43.9185 58.6117L43.9959 57.1137ZM77.9861 40.7571L76.4933 40.6103L76.4921 40.6231L76.491 40.6359L77.9861 40.7571ZM77.9265 38.422L76.4652 38.7604L76.4699 38.7806L76.4751 38.8006L77.9265 38.422ZM77.055 37.2655L77.6472 35.8874L77.6326 35.8811L77.6178 35.8751L77.055 37.2655ZM74.103 36.6567L72.6176 36.448L72.4088 37.9334L73.8942 38.1421L74.103 36.6567ZM75.3589 27.7205L75.5677 26.2351L74.0823 26.0264L73.8735 27.5118L75.3589 27.7205ZM84.7408 29.9439L84.132 31.3148L84.145 31.3206L84.1581 31.3261L84.7408 29.9439ZM88.9754 33.3827L87.673 34.127L87.6784 34.1363L88.9754 33.3827ZM90.0819 38.3854L88.582 38.3664L88.5818 38.3844L88.582 38.4025L90.0819 38.3854ZM87.9463 54.501L86.4939 54.1259L86.4901 54.1407L86.4866 54.1556L87.9463 54.501ZM85.983 58.8137L87.1403 59.7679L87.1443 59.7631L85.983 58.8137ZM81.9518 61.2848L82.303 62.7431L82.3195 62.7391L82.3358 62.7348L81.9518 61.2848ZM75.128 61.5537L73.6426 61.3449L73.421 62.9216L75.0081 63.0489L75.128 61.5537ZM63.0576 59.1464L62.4749 60.5286L63.0576 59.1464ZM58.8229 55.7076L60.1253 54.9633L60.1199 54.954L58.8229 55.7076ZM57.6441 50.7593L56.1442 50.7445L56.144 50.7604L56.1442 50.7764L57.6441 50.7593ZM61.8787 30.2854L63.0546 31.2167L63.0629 31.2062L63.071 31.1956L61.8787 30.2854ZM65.8465 27.8055L66.1977 29.2638L66.2142 29.2598L66.2305 29.2555L65.8465 27.8055ZM72.6792 27.4732L74.1646 27.682L74.3862 26.1052L72.7991 25.978L72.6792 27.4732ZM69.8122 48.3332L71.305 48.4799L71.3065 48.4644L71.3077 48.4489L69.8122 48.3332ZM69.8718 50.6682L71.3232 50.2896L71.3232 50.2896L69.8718 50.6682ZM70.8156 51.7703L71.4424 50.4075L71.4107 50.393L71.3784 50.3799L70.8156 51.7703ZM73.7042 52.3702L75.1896 52.5789L75.3984 51.0935L73.913 50.8847L73.7042 52.3702ZM72.4483 61.3063L72.2396 62.7917L73.725 63.0005L73.9337 61.5151L72.4483 61.3063ZM77.4438 45.0756L78.9292 45.2844C79.2311 43.1368 79.4184 41.6537 79.4812 40.8782L77.9861 40.7571L76.491 40.6359C76.4365 41.3089 76.2623 42.7048 75.9584 44.8669L77.4438 45.0756ZM77.9861 40.7571L79.4789 40.9038C79.5844 39.8308 79.5858 38.8402 79.378 38.0434L77.9265 38.422L76.4751 38.8006C76.5473 39.0773 76.5884 39.6433 76.4933 40.6103L77.9861 40.7571ZM77.9265 38.422L79.3879 38.0837C79.1729 37.1552 78.6316 36.3104 77.6472 35.8874L77.055 37.2655L76.4628 38.6436C76.4602 38.6425 76.4496 38.6374 76.436 38.6267C76.4223 38.616 76.4136 38.606 76.4101 38.6014C76.4035 38.5925 76.4348 38.6294 76.4652 38.7604L77.9265 38.422ZM77.055 37.2655L77.6178 35.8751C76.9631 35.6101 76.1361 35.4277 75.199 35.296L74.9903 36.7814L74.7815 38.2668C75.6191 38.3845 76.1685 38.5249 76.4922 38.6559L77.055 37.2655ZM74.9903 36.7814L75.199 35.296L74.3118 35.1713L74.103 36.6567L73.8942 38.1421L74.7815 38.2668L74.9903 36.7814ZM74.103 36.6567L75.5884 36.8655L76.8443 27.9293L75.3589 27.7205L73.8735 27.5118L72.6176 36.448L74.103 36.6567ZM75.3589 27.7205L75.1501 29.206L76.0374 29.3307L76.2462 27.8452L76.4549 26.3598L75.5677 26.2351L75.3589 27.7205ZM76.2462 27.8452L76.0374 29.3307C79.6579 29.8395 82.3308 30.5149 84.132 31.3148L84.7408 29.9439L85.3496 28.573C83.1763 27.6079 80.1862 26.8842 76.4549 26.3598L76.2462 27.8452ZM84.7408 29.9439L84.1581 31.3261C85.9373 32.0761 87.0488 33.0347 87.6731 34.127L88.9754 33.3827L90.2777 32.6385C89.242 30.8261 87.5305 29.4921 85.3235 28.5617L84.7408 29.9439ZM88.9754 33.3827L87.6784 34.1363C88.2676 35.1502 88.6053 36.5291 88.582 38.3664L90.0819 38.3854L91.5818 38.4044C91.6097 36.1988 91.2098 34.2425 90.2724 32.6291L88.9754 33.3827ZM90.0819 38.3854L88.582 38.4025C88.6033 40.2742 88.3746 42.9745 87.8733 46.5414L89.3587 46.7501L90.8441 46.9589C91.3523 43.3431 91.6057 40.4669 91.5818 38.3683L90.0819 38.3854ZM89.3587 46.7501L87.8733 46.5414C87.407 49.8593 86.9455 52.3779 86.4939 54.1259L87.9463 54.501L89.3986 54.8761C89.8922 52.9654 90.3722 50.3167 90.8441 46.9589L89.3587 46.7501ZM87.9463 54.501L86.4866 54.1556C86.0987 55.7948 85.5239 57.0052 84.8216 57.8644L85.983 58.8137L87.1443 59.7631C88.2111 58.4581 88.9452 56.7933 89.406 54.8464L87.9463 54.501ZM85.983 58.8137L84.8256 57.8595C84.0645 58.7827 83.0074 59.4535 81.5678 59.8347L81.9518 61.2848L82.3358 62.7348C84.2974 62.2153 85.9277 61.2387 87.1403 59.7679L85.983 58.8137ZM81.9518 61.2848L81.6006 59.8264C80.1271 60.1813 78.0323 60.2817 75.2479 60.0585L75.128 61.5537L75.0081 63.0489C77.9329 63.2833 80.3873 63.2044 82.303 62.7431L81.9518 61.2848ZM75.128 61.5537L76.6134 61.7624L78.9292 45.2844L77.4438 45.0756L75.9584 44.8669L73.6426 61.3449L75.128 61.5537ZM71.5611 61.1816L71.7698 59.6962C68.1448 59.1868 65.4583 58.5306 63.6402 57.7642L63.0576 59.1464L62.4749 60.5286C64.6431 61.4426 67.6255 62.1433 71.3523 62.667L71.5611 61.1816ZM63.0576 59.1464L63.6402 57.7642C61.8611 57.0141 60.7495 56.0556 60.1253 54.9633L58.8229 55.7076L57.5206 56.4518C58.5563 58.2641 60.2678 59.5981 62.4749 60.5286L63.0576 59.1464ZM58.8229 55.7076L60.1199 54.954C59.5206 53.9226 59.1646 52.5457 59.144 50.7423L57.6441 50.7593L56.1442 50.7764C56.1689 52.9433 56.5987 54.8652 57.526 56.4611L58.8229 55.7076ZM57.6441 50.7593L59.144 50.7742C59.1627 48.8925 59.4143 46.1828 59.9161 42.6122L58.4307 42.4035L56.9453 42.1947C56.4376 45.8069 56.1648 48.6678 56.1442 50.7445L57.6441 50.7593ZM58.4307 42.4035L59.9161 42.6122C60.3763 39.3374 60.8349 36.8396 61.2866 35.0912L59.8342 34.716L58.3819 34.3409C57.8885 36.2511 57.4114 38.8783 56.9453 42.1947L58.4307 42.4035ZM59.8342 34.716L61.2866 35.0912C61.7226 33.4032 62.3283 32.1338 63.0546 31.2167L61.8787 30.2854L60.7029 29.3541C59.6482 30.6858 58.891 32.3701 58.3819 34.3409L59.8342 34.716ZM61.8787 30.2854L63.071 31.1956C63.7888 30.2554 64.798 29.6009 66.1977 29.2638L65.8465 27.8055L65.4953 26.3472C63.5058 26.8263 61.8698 27.8251 60.6865 29.3753L61.8787 30.2854ZM65.8465 27.8055L66.2305 29.2555C67.6963 28.8673 69.7816 28.7457 72.5594 28.9684L72.6792 27.4732L72.7991 25.978C69.8677 25.743 67.3978 25.843 65.4625 26.3555L65.8465 27.8055ZM72.6792 27.4732L71.1938 27.2644L68.8602 43.8693L70.3456 44.078L71.831 44.2868L74.1646 27.682L72.6792 27.4732ZM70.3456 44.078L68.8602 43.8693C68.5587 46.0143 68.3737 47.4804 68.3167 48.2175L69.8122 48.3332L71.3077 48.4489C71.3562 47.8221 71.5268 46.4514 71.831 44.2868L70.3456 44.078ZM69.8122 48.3332L68.3194 48.1865C68.2139 49.2594 68.2125 50.2501 68.4204 51.0468L69.8718 50.6682L71.3232 50.2896C71.2511 50.013 71.2099 49.4469 71.305 48.4799L69.8122 48.3332ZM69.8718 50.6682L68.4204 51.0468C68.6729 52.0149 69.2986 52.7745 70.2528 53.1607L70.8156 51.7703L71.3784 50.3799C71.3543 50.3701 71.3448 50.3634 71.3444 50.3631C71.344 50.3629 71.345 50.3635 71.3468 50.3652C71.3486 50.3668 71.3505 50.3687 71.3521 50.3706C71.3559 50.375 71.3545 50.3748 71.3496 50.3651C71.3445 50.3549 71.3341 50.3314 71.3232 50.2896L69.8718 50.6682ZM70.8156 51.7703L70.1888 53.1331C70.805 53.4165 71.6573 53.5972 72.6082 53.7309L72.817 52.2455L73.0257 50.7601C72.1176 50.6324 71.6356 50.4964 71.4424 50.4075L70.8156 51.7703ZM72.817 52.2455L72.6082 53.7309L73.4955 53.8556L73.7042 52.3702L73.913 50.8847L73.0257 50.7601L72.817 52.2455ZM73.7042 52.3702L72.2188 52.1614L70.9629 61.0976L72.4483 61.3063L73.9337 61.5151L75.1896 52.5789L73.7042 52.3702ZM72.4483 61.3063L72.6571 59.8209L71.7698 59.6962L71.5611 61.1816L71.3523 62.667L72.2396 62.7917L72.4483 61.3063ZM100.005 16.6429L100.214 15.1575L98.7288 14.9487L98.5201 16.4341L100.005 16.6429ZM111.73 18.2907L113.216 18.4994L113.424 17.014L111.939 16.8053L111.73 18.2907ZM105.112 65.3799L104.904 66.8653L106.389 67.0741L106.598 65.5887L105.112 65.3799ZM93.3875 63.7321L91.9021 63.5233L91.6934 65.0088L93.1788 65.2175L93.3875 63.7321ZM100.005 16.6429L99.7967 18.1283L111.521 19.7761L111.73 18.2907L111.939 16.8053L100.214 15.1575L100.005 16.6429ZM111.73 18.2907L110.245 18.0819L103.627 65.1712L105.112 65.3799L106.598 65.5887L113.216 18.4994L111.73 18.2907ZM105.112 65.3799L105.321 63.8945L93.5963 62.2467L93.3875 63.7321L93.1788 65.2175L104.904 66.8653L105.112 65.3799ZM93.3875 63.7321L94.8729 63.9409L101.491 16.8516L100.005 16.6429L98.5201 16.4341L91.9021 63.5233L93.3875 63.7321ZM118.944 19.3046L119.153 17.8192L117.668 17.6104L117.459 19.0958L118.944 19.3046ZM130.669 20.9524L132.155 21.1611L132.363 19.6757L130.878 19.467L130.669 20.9524ZM124.051 68.0416L123.842 69.527L125.328 69.7358L125.537 68.2504L124.051 68.0416ZM112.326 66.3938L110.841 66.185L110.632 67.6704L112.118 67.8792L112.326 66.3938ZM118.944 19.3046L118.736 20.79L130.46 22.4378L130.669 20.9524L130.878 19.467L119.153 17.8192L118.944 19.3046ZM130.669 20.9524L129.184 20.7436L122.566 67.8328L124.051 68.0416L125.537 68.2504L132.155 21.1611L130.669 20.9524ZM124.051 68.0416L124.26 66.5562L112.535 64.9084L112.326 66.3938L112.118 67.8792L123.842 69.527L124.051 68.0416ZM112.326 66.3938L113.812 66.6026L120.43 19.5133L118.944 19.3046L117.459 19.0958L110.841 66.185L112.326 66.3938ZM150.206 47.8694L149.302 49.0665L149.328 49.0861L149.355 49.1046L150.206 47.8694ZM148.114 47.1229L148.44 45.6589L148.431 45.6567L148.421 45.6546L148.114 47.1229ZM138.327 45.9413L138.202 47.4361L138.233 47.4387L138.263 47.44L138.327 45.9413ZM134.941 45.6594L133.456 45.4506L133.235 47.0225L134.817 47.1542L134.941 45.6594ZM136.099 37.4203L136.025 35.9222L134.786 35.9836L134.614 37.2116L136.099 37.4203ZM157.32 40.015L156.751 41.4027L156.758 41.4055L157.32 40.015ZM161.545 43.0647L162.801 42.2437L162.79 42.227L162.778 42.2106L161.545 43.0647ZM162.713 47.1712L161.213 47.2029L161.214 47.2225L161.215 47.2422L162.713 47.1712ZM159.531 73.028L159.323 74.5134L160.808 74.7222L161.017 73.2368L159.531 73.028ZM147.807 71.3802L146.321 71.1715L146.113 72.6569L147.598 72.8656L147.807 71.3802ZM132.239 67.1888L130.97 67.9889L130.975 67.997L130.98 68.0051L132.239 67.1888ZM132.319 54.662L133.714 55.2135L133.718 55.2028L132.319 54.662ZM134.258 51.8971L135.161 53.095L135.178 53.0821L135.195 53.0687L134.258 51.8971ZM137.46 50.7313L137.594 52.2252L137.617 52.2231L137.641 52.2203L137.46 50.7313ZM142.538 50.9279L142.782 49.4479L142.764 49.445L142.747 49.4425L142.538 50.9279ZM147.844 51.8029L149.329 52.0116L149.533 50.5612L148.088 50.3228L147.844 51.8029ZM147.051 57.4434L146.842 58.9288L148.328 59.1376L148.536 57.6522L147.051 57.4434ZM144.507 57.1505L144.373 58.6445L144.441 58.6507L144.51 58.6505L144.507 57.1505ZM143.007 58.1676L144.438 58.6177L144.462 58.5392L144.478 58.4585L143.007 58.1676ZM142.579 61.2097L141.079 61.1868L141.078 61.2774L141.088 61.3675L142.579 61.2097ZM142.844 62.0871L144.174 61.3936L144.155 61.3573L144.134 61.3222L142.844 62.0871ZM143.723 62.7277L144.14 61.2868L144.109 61.278L144.079 61.2704L143.723 62.7277ZM146.24 63.2107L147.726 63.4195L147.935 61.9341L146.449 61.7253L146.24 63.2107ZM145.332 69.6752L146.075 70.9782L146.715 70.6134L146.817 69.884L145.332 69.6752ZM142.157 70.6509L142.071 69.1534L142.035 69.1554L141.999 69.1592L142.157 70.6509ZM150.621 51.353L152.107 51.5618C152.262 50.4598 152.348 49.5542 152.323 48.93L150.824 48.9903L149.325 49.0506C149.339 49.3796 149.29 50.0492 149.136 51.1443L150.621 51.353ZM150.824 48.9903L152.323 48.93C152.285 47.9816 151.839 47.1726 151.057 46.6341L150.206 47.8694L149.355 49.1046C149.371 49.1153 149.373 49.1189 149.367 49.1128C149.361 49.1063 149.351 49.0941 149.342 49.0768C149.332 49.0595 149.327 49.0447 149.325 49.0361C149.323 49.0281 149.325 49.0317 149.325 49.0506L150.824 48.9903ZM150.206 47.8694L151.11 46.6723C150.472 46.1902 149.476 45.8899 148.44 45.6589L148.114 47.1229L147.787 48.5869C148.273 48.6953 148.645 48.8002 148.916 48.897C149.205 49.0002 149.304 49.0675 149.302 49.0665L150.206 47.8694ZM148.114 47.1229L148.421 45.6546C147.735 45.5112 146.312 45.2904 144.212 44.9951L144.003 46.4805L143.794 47.9659C145.919 48.2645 147.237 48.472 147.807 48.5911L148.114 47.1229ZM144.003 46.4805L144.212 44.9951C142.143 44.7044 140.202 44.5195 138.39 44.4427L138.327 45.9413L138.263 47.44C139.964 47.5121 141.807 47.6866 143.794 47.9659L144.003 46.4805ZM138.327 45.9413L138.451 44.4465L135.066 44.1645L134.941 45.6594L134.817 47.1542L138.202 47.4361L138.327 45.9413ZM134.941 45.6594L136.427 45.8681L137.584 37.6291L136.099 37.4203L134.614 37.2116L133.456 45.4506L134.941 45.6594ZM136.099 37.4203L136.173 38.9185C140.145 38.7214 144.392 38.9372 148.916 39.5731L149.125 38.0877L149.334 36.6023C144.647 35.9436 140.21 35.7146 136.025 35.9222L136.099 37.4203ZM149.125 38.0877L148.916 39.5731C152.418 40.0652 155.006 40.6864 156.751 41.4026L157.32 40.015L157.89 38.6275C155.806 37.7715 152.931 37.1078 149.334 36.6023L149.125 38.0877ZM157.32 40.015L156.758 41.4055C158.547 42.1299 159.673 42.9959 160.312 43.9188L161.545 43.0647L162.778 42.2106C161.698 40.6513 160.007 39.4843 157.883 38.6246L157.32 40.015ZM161.545 43.0647L160.29 43.8857C160.856 44.7508 161.184 45.8348 161.213 47.2029L162.713 47.1712L164.213 47.1395C164.174 45.3097 163.724 43.656 162.801 42.2437L161.545 43.0647ZM162.713 47.1712L161.215 47.2422C161.284 48.7092 161.141 50.7987 160.754 53.5526L162.239 53.7614L163.725 53.9701C164.121 51.1469 164.294 48.8429 164.211 47.1002L162.713 47.1712ZM162.239 53.7614L160.754 53.5526L158.046 72.8193L159.531 73.028L161.017 73.2368L163.725 53.9701L162.239 53.7614ZM159.531 73.028L159.74 71.5426L148.015 69.8948L147.807 71.3802L147.598 72.8656L159.323 74.5134L159.531 73.028ZM147.807 71.3802L149.292 71.589L152.107 51.5618L150.621 51.353L149.136 51.1443L146.321 71.1715L147.807 71.3802ZM138.365 70.5056L138.573 69.0202C135.921 68.6475 134.351 67.6884 133.497 66.3724L132.239 67.1888L130.98 68.0051C132.464 70.2921 134.977 71.5443 138.156 71.991L138.365 70.5056ZM132.239 67.1888L133.507 66.3886C132.611 64.9679 132.236 62.8101 132.675 59.6885L131.189 59.4797L129.704 59.2709C129.216 62.7406 129.54 65.7221 130.97 67.9889L132.239 67.1888ZM131.189 59.4797L132.675 59.6885C132.952 57.716 133.307 56.241 133.714 55.2135L132.319 54.662L130.924 54.1105C130.394 55.4505 129.997 57.1873 129.704 59.2709L131.189 59.4797ZM132.319 54.662L133.718 55.2028C134.119 54.1655 134.62 53.5026 135.161 53.095L134.258 51.8971L133.356 50.6991C132.258 51.5262 131.466 52.7066 130.92 54.1212L132.319 54.662ZM134.258 51.8971L135.195 53.0687C135.74 52.6334 136.506 52.323 137.594 52.2252L137.46 50.7313L137.326 49.2373C135.795 49.3748 134.427 49.8416 133.322 50.7254L134.258 51.8971ZM137.46 50.7313L137.641 52.2203C138.774 52.0825 140.323 52.1313 142.329 52.4133L142.538 50.9279L142.747 49.4425C140.612 49.1425 138.776 49.0603 137.279 49.2422L137.46 50.7313ZM142.538 50.9279L142.294 52.4079L147.6 53.2829L147.844 51.8029L148.088 50.3228L142.782 49.4479L142.538 50.9279ZM147.844 51.8029L146.358 51.5941L145.566 57.2347L147.051 57.4434L148.536 57.6522L149.329 52.0116L147.844 51.8029ZM147.051 57.4434L147.26 55.958L146.626 55.8689L146.417 57.3543L146.208 58.8398L146.842 58.9288L147.051 57.4434ZM146.417 57.3543L146.626 55.8689C145.678 55.7358 144.932 55.6495 144.504 55.6505L144.507 57.1505L144.51 58.6505C144.686 58.6501 145.212 58.6998 146.208 58.8398L146.417 57.3543ZM144.507 57.1505L144.641 55.6565C144.011 55.5999 143.287 55.6755 142.652 56.1059C141.992 56.5533 141.665 57.223 141.535 57.8768L143.007 58.1676L144.478 58.4585C144.489 58.4033 144.496 58.4081 144.474 58.4453C144.449 58.488 144.403 58.5435 144.335 58.5889C144.271 58.6327 144.223 58.643 144.221 58.6435C144.221 58.6435 144.232 58.6413 144.258 58.6403C144.284 58.6394 144.322 58.6399 144.373 58.6445L144.507 57.1505ZM143.007 58.1676L141.576 57.7175C141.454 58.1044 141.345 58.7562 141.235 59.5344L142.721 59.7432L144.206 59.9519C144.322 59.1245 144.404 58.726 144.438 58.6177L143.007 58.1676ZM142.721 59.7432L141.235 59.5344C141.144 60.187 141.086 60.7488 141.079 61.1868L142.579 61.2097L144.079 61.2326C144.083 60.9828 144.12 60.5668 144.206 59.9519L142.721 59.7432ZM142.579 61.2097L141.088 61.3675C141.141 61.8725 141.277 62.3861 141.553 62.852L142.844 62.0871L144.134 61.3222C144.132 61.318 144.092 61.2468 144.071 61.052L142.579 61.2097ZM142.844 62.0871L141.514 62.7806C141.917 63.5548 142.609 63.9999 143.368 64.185L143.723 62.7277L144.079 61.2704C144.027 61.2577 144.036 61.2514 144.074 61.2789C144.093 61.2924 144.113 61.3105 144.132 61.333C144.151 61.3554 144.165 61.3767 144.174 61.3936L142.844 62.0871ZM143.723 62.7277L143.306 64.1687C143.962 64.3584 144.661 64.5034 145.398 64.6071L145.607 63.1217L145.815 61.6363C145.201 61.5499 144.643 61.4323 144.14 61.2868L143.723 62.7277ZM145.607 63.1217L145.398 64.6071L146.032 64.6961L146.24 63.2107L146.449 61.7253L145.815 61.6363L145.607 63.1217ZM146.24 63.2107L144.755 63.002L143.847 69.4664L145.332 69.6752L146.817 69.884L147.726 63.4195L146.24 63.2107ZM145.332 69.6752L144.589 68.3722C143.741 68.8558 142.905 69.1051 142.071 69.1534L142.157 70.6509L142.244 72.1484C143.581 72.071 144.862 71.6699 146.075 70.9782L145.332 69.6752ZM142.157 70.6509L141.999 69.1592C141.111 69.2532 139.976 69.2174 138.573 69.0202L138.365 70.5056L138.156 71.991C139.71 72.2095 141.105 72.2705 142.315 72.1426L142.157 70.6509ZM173.223 26.933L173.432 25.4476L171.947 25.2388L171.738 26.7242L173.223 26.933ZM184.948 28.5808L186.434 28.7896L186.642 27.3042L185.157 27.0954L184.948 28.5808ZM178.33 75.67L178.121 77.1554L179.607 77.3642L179.816 75.8788L178.33 75.67ZM166.605 74.0222L165.12 73.8135L164.911 75.2989L166.397 75.5076L166.605 74.0222ZM183.772 76.4994L183.209 77.8898L183.216 77.8925L183.222 77.8951L183.772 76.4994ZM181.17 74.7766L179.685 74.5678L179.58 75.3105L180.112 75.8397L181.17 74.7766ZM182.301 66.7277L182.51 65.2423L181.025 65.0335L180.816 66.5189L182.301 66.7277ZM184.981 66.975L185.099 68.4703L185.154 68.466L185.208 68.4578L184.981 66.975ZM186.039 66.3481L187.236 67.252L187.272 67.2038L187.304 67.1528L186.039 66.3481ZM186.704 64.3735L185.236 64.0664L185.233 64.0803L185.23 64.0943L186.704 64.3735ZM187.808 56.5147L186.315 56.3736L186.314 56.3894L186.312 56.4052L187.808 56.5147ZM187.713 54.4332L186.256 54.791L186.271 54.8516L186.291 54.9108L187.713 54.4332ZM186.869 53.5391L187.34 52.115L187.313 52.106L187.286 52.0981L186.869 53.5391ZM184.225 53.0382L182.74 52.8295L182.531 54.3149L184.017 54.5236L184.225 53.0382ZM185.357 44.9893L184.592 43.699L183.971 44.0666L183.871 44.7806L185.357 44.9893ZM188.269 44.0414L188.38 45.5372L188.411 45.535L188.442 45.5314L188.269 44.0414ZM198.833 48.8868L200.222 48.3187L200.217 48.3084L200.213 48.2981L198.833 48.8868ZM195.172 74.9349L196.324 75.8956L196.33 75.8884L196.336 75.8811L195.172 74.9349ZM191.82 77.1781L191.403 75.7372L191.393 75.74L191.383 75.7429L191.82 77.1781ZM173.223 26.933L173.015 28.4184L184.739 30.0662L184.948 28.5808L185.157 27.0954L173.432 25.4476L173.223 26.933ZM184.948 28.5808L183.463 28.372L176.845 75.4613L178.33 75.67L179.816 75.8788L186.434 28.7896L184.948 28.5808ZM178.33 75.67L178.539 74.1846L166.814 72.5368L166.605 74.0222L166.397 75.5076L178.121 77.1554L178.33 75.67ZM166.605 74.0222L168.091 74.231L174.709 27.1418L173.223 26.933L171.738 26.7242L165.12 73.8135L166.605 74.0222ZM187.394 77.3963L187.603 75.9109C186.294 75.727 185.207 75.4523 184.321 75.1037L183.772 76.4994L183.222 77.8951C184.378 78.3504 185.705 78.6737 187.185 78.8817L187.394 77.3963ZM183.772 76.4994L184.335 75.109C183.543 74.7888 182.844 74.3265 182.228 73.7135L181.17 74.7766L180.112 75.8397C181.008 76.7317 182.043 77.418 183.209 77.8898L183.772 76.4994ZM181.17 74.7766L182.656 74.9853L183.787 66.9364L182.301 66.7277L180.816 66.5189L179.685 74.5678L181.17 74.7766ZM182.301 66.7277L182.093 68.2131L182.79 68.3111L182.999 66.8257L183.207 65.3403L182.51 65.2423L182.301 66.7277ZM182.999 66.8257L182.79 68.3111C183.72 68.4418 184.527 68.5157 185.099 68.4703L184.981 66.975L184.863 65.4797C184.651 65.4965 184.136 65.4708 183.207 65.3403L182.999 66.8257ZM184.981 66.975L185.208 68.4578C186.029 68.3322 186.732 67.9195 187.236 67.252L186.039 66.3481L184.842 65.4442C184.829 65.461 184.82 65.4696 184.816 65.4732C184.812 65.4766 184.811 65.4774 184.811 65.4775C184.811 65.4775 184.808 65.4791 184.801 65.4815C184.794 65.4841 184.779 65.4885 184.754 65.4923L184.981 66.975ZM186.039 66.3481L187.304 67.1528C187.732 66.4804 187.998 65.6033 188.178 64.6527L186.704 64.3735L185.23 64.0943C185.076 64.9064 184.898 65.3457 184.773 65.5434L186.039 66.3481ZM186.704 64.3735L188.172 64.6806C188.315 63.9952 188.527 62.6378 188.805 60.6618L187.32 60.453L185.834 60.2442C185.554 62.2399 185.355 63.4961 185.236 64.0664L186.704 64.3735ZM187.32 60.453L188.805 60.6618C189.083 58.6857 189.253 57.3225 189.304 56.6242L187.808 56.5147L186.312 56.4052C186.27 56.9863 186.115 58.2486 185.834 60.2442L187.32 60.453ZM187.808 56.5147L189.302 56.6558C189.394 55.6751 189.391 54.7189 189.135 53.9556L187.713 54.4332L186.291 54.9108C186.339 55.0519 186.399 55.4834 186.315 56.3736L187.808 56.5147ZM187.713 54.4332L189.17 54.0754C188.931 53.105 188.261 52.4194 187.34 52.115L186.869 53.5391L186.398 54.9632C186.427 54.9728 186.385 54.964 186.329 54.9045C186.303 54.877 186.284 54.8485 186.271 54.8237C186.258 54.7997 186.255 54.7866 186.256 54.791L187.713 54.4332ZM186.869 53.5391L187.286 52.0981C186.626 51.9073 185.906 51.7597 185.131 51.6508L184.922 53.1362L184.714 54.6216C185.375 54.7146 185.953 54.8356 186.453 54.98L186.869 53.5391ZM184.922 53.1362L185.131 51.6508L184.434 51.5528L184.225 53.0382L184.017 54.5236L184.714 54.6216L184.922 53.1362ZM184.225 53.0382L185.711 53.247L186.842 45.1981L185.357 44.9893L183.871 44.7806L182.74 52.8295L184.225 53.0382ZM185.357 44.9893L186.121 46.2796C186.88 45.8298 187.629 45.5932 188.38 45.5372L188.269 44.0414L188.157 42.5456C186.905 42.6389 185.713 43.0344 184.592 43.699L185.357 44.9893ZM188.269 44.0414L188.442 45.5314C189.275 45.4347 190.4 45.468 191.853 45.6721L192.061 44.1867L192.27 42.7013C190.68 42.4778 189.277 42.4143 188.096 42.5514L188.269 44.0414ZM192.061 44.1867L191.853 45.6721C194.823 46.0895 196.566 47.3953 197.454 49.4756L198.833 48.8868L200.213 48.2981C198.832 45.0616 196.06 43.2339 192.27 42.7013L192.061 44.1867ZM198.833 48.8868L197.445 49.455C198.405 51.8013 198.594 55.9089 197.731 62.0455L199.217 62.2543L200.702 62.463C201.573 56.2622 201.506 51.4583 200.222 48.3187L198.833 48.8868ZM199.217 62.2543L197.731 62.0455C196.861 68.2348 195.55 72.0922 194.009 73.9887L195.172 74.9349L196.336 75.8811C198.441 73.292 199.826 68.6957 200.702 62.463L199.217 62.2543ZM195.172 74.9349L194.02 73.9741C193.264 74.8807 192.396 75.4496 191.403 75.7372L191.82 77.1781L192.237 78.6189C193.848 78.1524 195.215 77.2259 196.324 75.8956L195.172 74.9349ZM191.82 77.1781L191.383 75.7429C190.384 76.0466 189.138 76.1267 187.603 75.9109L187.394 77.3963L187.185 78.8817C189.03 79.141 190.735 79.0755 192.256 78.6133L191.82 77.1781ZM224.113 61.2938L222.62 61.1471L222.619 61.1598L222.617 61.1726L224.113 61.2938ZM224.053 58.9588L222.592 59.2972L222.596 59.3173L222.602 59.3374L224.053 58.9588ZM223.181 57.8022L223.774 56.4241L223.759 56.4178L223.744 56.4118L223.181 57.8022ZM220.229 57.1935L218.744 56.9847L218.535 58.4701L220.021 58.6789L220.229 57.1935ZM221.485 48.2573L221.694 46.7719L220.209 46.5631L220 48.0485L221.485 48.2573ZM230.867 50.4806L230.258 51.8515L230.271 51.8573L230.285 51.8628L230.867 50.4806ZM235.102 53.9194L233.799 54.6637L233.805 54.673L235.102 53.9194ZM236.208 58.9221L234.708 58.9031L234.708 58.9212L234.708 58.9392L236.208 58.9221ZM234.073 75.0377L232.62 74.6626L232.617 74.6774L232.613 74.6923L234.073 75.0377ZM232.109 79.3505L233.267 80.3047L233.271 80.2998L232.109 79.3505ZM228.078 81.8215L228.429 83.2798L228.446 83.2758L228.462 83.2715L228.078 81.8215ZM221.254 82.0904L219.769 81.8816L219.547 83.4584L221.135 83.5856L221.254 82.0904ZM209.184 79.6831L208.601 81.0653L209.184 79.6831ZM204.949 76.2443L206.252 75.5L206.246 75.4907L204.949 76.2443ZM203.771 71.2961L202.271 71.2812L202.27 71.2972L202.271 71.3132L203.771 71.2961ZM208.005 50.8222L209.181 51.7535L209.189 51.743L209.197 51.7323L208.005 50.8222ZM211.973 48.3422L212.324 49.8005L212.341 49.7966L212.357 49.7922L211.973 48.3422ZM218.806 48.0099L220.291 48.2187L220.513 46.642L218.926 46.5147L218.806 48.0099ZM215.939 68.8699L217.431 69.0167L217.433 69.0012L217.434 68.9856L215.939 68.8699ZM215.998 71.2049L217.45 70.8263L215.998 71.2049ZM216.942 72.307L217.569 70.9443L217.537 70.9297L217.505 70.9166L216.942 72.307ZM219.831 72.9069L221.316 73.1156L221.525 71.6302L220.039 71.4215L219.831 72.9069ZM218.575 81.8431L218.366 83.3285L219.851 83.5372L220.06 82.0518L218.575 81.8431ZM223.57 65.6123L225.056 65.8211C225.357 63.6735 225.545 62.1904 225.608 61.415L224.113 61.2938L222.617 61.1726C222.563 61.8456 222.389 63.2415 222.085 65.4036L223.57 65.6123ZM224.113 61.2938L225.605 61.4405C225.711 60.3676 225.712 59.3769 225.504 58.5802L224.053 58.9588L222.602 59.3374C222.674 59.614 222.715 60.1801 222.62 61.1471L224.113 61.2938ZM224.053 58.9588L225.514 58.6204C225.299 57.6919 224.758 56.8471 223.774 56.4241L223.181 57.8022L222.589 59.1804C222.587 59.1792 222.576 59.1741 222.562 59.1635C222.549 59.1528 222.54 59.1428 222.537 59.1381C222.53 59.1293 222.561 59.1661 222.592 59.2972L224.053 58.9588ZM223.181 57.8022L223.744 56.4118C223.09 56.1468 222.262 55.9644 221.325 55.8328L221.117 57.3182L220.908 58.8036C221.745 58.9213 222.295 59.0616 222.619 59.1926L223.181 57.8022ZM221.117 57.3182L221.325 55.8328L220.438 55.7081L220.229 57.1935L220.021 58.6789L220.908 58.8036L221.117 57.3182ZM220.229 57.1935L221.715 57.4022L222.971 48.466L221.485 48.2573L220 48.0485L218.744 56.9847L220.229 57.1935ZM221.485 48.2573L221.277 49.7427L222.164 49.8674L222.373 48.382L222.581 46.8966L221.694 46.7719L221.485 48.2573ZM222.373 48.382L222.164 49.8674C225.784 50.3762 228.457 51.0517 230.258 51.8515L230.867 50.4806L231.476 49.1097C229.303 48.1446 226.313 47.421 222.581 46.8966L222.373 48.382ZM230.867 50.4806L230.285 51.8628C232.064 52.6129 233.175 53.5714 233.799 54.6637L235.102 53.9194L236.404 53.1752C235.368 51.3628 233.657 50.0288 231.45 49.0984L230.867 50.4806ZM235.102 53.9194L233.805 54.673C234.394 55.687 234.732 57.0658 234.708 58.9031L236.208 58.9221L237.708 58.9411C237.736 56.7355 237.336 54.7793 236.399 53.1659L235.102 53.9194ZM236.208 58.9221L234.708 58.9392C234.73 60.8109 234.501 63.5112 234 67.0781L235.485 67.2869L236.971 67.4956C237.479 63.8798 237.732 61.0036 237.708 58.905L236.208 58.9221ZM235.485 67.2869L234 67.0781C233.533 70.396 233.072 72.9146 232.62 74.6626L234.073 75.0377L235.525 75.4129C236.019 73.5021 236.499 70.8535 236.971 67.4956L235.485 67.2869ZM234.073 75.0377L232.613 74.6923C232.225 76.3315 231.65 77.5419 230.948 78.4011L232.109 79.3505L233.271 80.2998C234.337 78.9948 235.072 77.33 235.532 75.3832L234.073 75.0377ZM232.109 79.3505L230.952 78.3963C230.191 79.3194 229.134 79.9902 227.694 80.3715L228.078 81.8215L228.462 83.2715C230.424 82.752 232.054 81.7754 233.267 80.3047L232.109 79.3505ZM228.078 81.8215L227.727 80.3632C226.254 80.718 224.159 80.8184 221.374 80.5952L221.254 82.0904L221.135 83.5856C224.059 83.8201 226.514 83.7412 228.429 83.2798L228.078 81.8215ZM221.254 82.0904L222.74 82.2992L225.056 65.8211L223.57 65.6123L222.085 65.4036L219.769 81.8816L221.254 82.0904ZM217.687 81.7184L217.896 80.233C214.271 79.7235 211.585 79.0673 209.767 78.3009L209.184 79.6831L208.601 81.0653C210.77 81.9793 213.752 82.68 217.479 83.2038L217.687 81.7184ZM209.184 79.6831L209.767 78.3009C207.987 77.5509 206.876 76.5923 206.252 75.5L204.949 76.2443L203.647 76.9885C204.683 78.8009 206.394 80.1349 208.601 81.0653L209.184 79.6831ZM204.949 76.2443L206.246 75.4907C205.647 74.4593 205.291 73.0824 205.27 71.279L203.771 71.2961L202.271 71.3132C202.295 73.48 202.725 75.4019 203.652 76.9978L204.949 76.2443ZM203.771 71.2961L205.27 71.311C205.289 69.4293 205.541 66.7195 206.043 63.149L204.557 62.9402L203.072 62.7315C202.564 66.3436 202.291 69.2045 202.271 71.2812L203.771 71.2961ZM204.557 62.9402L206.043 63.149C206.503 59.8742 206.961 57.3764 207.413 55.6279L205.961 55.2527L204.508 54.8776C204.015 56.7879 203.538 59.4151 203.072 62.7315L204.557 62.9402ZM205.961 55.2527L207.413 55.6279C207.849 53.9399 208.455 52.6705 209.181 51.7535L208.005 50.8222L206.829 49.8909C205.775 51.2225 205.017 52.9068 204.508 54.8776L205.961 55.2527ZM208.005 50.8222L209.197 51.7323C209.915 50.7922 210.924 50.1377 212.324 49.8005L211.973 48.3422L211.622 46.8839C209.632 47.3631 207.996 48.3618 206.813 49.912L208.005 50.8222ZM211.973 48.3422L212.357 49.7922C213.823 49.404 215.908 49.2825 218.686 49.5051L218.806 48.0099L218.926 46.5147C215.994 46.2797 213.524 46.3797 211.589 46.8922L211.973 48.3422ZM218.806 48.0099L217.32 47.8012L214.987 64.406L216.472 64.6148L217.957 64.8235L220.291 48.2187L218.806 48.0099ZM216.472 64.6148L214.987 64.406C214.685 66.551 214.5 68.0171 214.443 68.7542L215.939 68.8699L217.434 68.9856C217.483 68.3588 217.653 66.9881 217.957 64.8235L216.472 64.6148ZM215.939 68.8699L214.446 68.7232C214.34 69.7961 214.339 70.7868 214.547 71.5836L215.998 71.2049L217.45 70.8263C217.378 70.5497 217.336 69.9837 217.431 69.0167L215.939 68.8699ZM215.998 71.2049L214.547 71.5836C214.799 72.5516 215.425 73.3112 216.379 73.6974L216.942 72.307L217.505 70.9166C217.481 70.9068 217.471 70.9001 217.471 70.8999C217.47 70.8996 217.471 70.9003 217.473 70.9019C217.475 70.9035 217.477 70.9054 217.478 70.9073C217.482 70.9117 217.481 70.9115 217.476 70.9019C217.471 70.8916 217.461 70.8681 217.45 70.8263L215.998 71.2049ZM216.942 72.307L216.315 73.6698C216.931 73.9532 217.784 74.1339 218.735 74.2676L218.943 72.7822L219.152 71.2968C218.244 71.1692 217.762 71.0331 217.569 70.9443L216.942 72.307ZM218.943 72.7822L218.735 74.2676L219.622 74.3923L219.831 72.9069L220.039 71.4215L219.152 71.2968L218.943 72.7822ZM219.831 72.9069L218.345 72.6981L217.089 81.6343L218.575 81.8431L220.06 82.0518L221.316 73.1156L219.831 72.9069ZM218.575 81.8431L218.784 80.3577L217.896 80.233L217.687 81.7184L217.479 83.2038L218.366 83.3285L218.575 81.8431ZM258.185 55.8063L257.312 54.5867L256.789 54.961L256.699 55.5976L258.185 55.8063ZM261.54 54.4682L261.747 55.9538L261.764 55.9515L261.781 55.9488L261.54 54.4682ZM266.12 54.5302L267.605 54.739L267.814 53.2536L266.328 53.0448L266.12 54.5302ZM264.632 65.1142L264.423 66.5996L265.909 66.8084L266.118 65.323L264.632 65.1142ZM259.889 64.8354L259.792 63.3384L259.782 63.3392L259.889 64.8354ZM256.786 65.7565L255.301 65.5478L254.855 68.7192L257.577 67.0313L256.786 65.7565ZM244.057 51.9465L244.265 50.4611L242.78 50.2523L242.571 51.7377L244.057 51.9465ZM255.781 53.5943L257.267 53.8031L257.475 52.3177L255.99 52.1089L255.781 53.5943ZM251.239 85.9167L251.03 87.4021L252.515 87.6108L252.724 86.1254L251.239 85.9167ZM239.514 84.2688L238.029 84.0601L237.82 85.5455L239.305 85.7542L239.514 84.2688ZM258.185 55.8063L259.058 57.0259C259.866 56.4474 260.756 56.0922 261.747 55.9538L261.54 54.4682L261.332 52.9826C259.863 53.1877 258.516 53.7246 257.312 54.5867L258.185 55.8063ZM261.54 54.4682L261.781 55.9488C262.866 55.7722 264.233 55.7798 265.911 56.0156L266.12 54.5302L266.328 53.0448C264.457 52.7819 262.771 52.7481 261.299 52.9877L261.54 54.4682ZM266.12 54.5302L264.634 54.3215L263.147 64.9055L264.632 65.1142L266.118 65.323L267.605 54.739L266.12 54.5302ZM264.632 65.1142L264.841 63.6288C262.885 63.3539 261.193 63.2481 259.792 63.3385L259.889 64.8354L259.985 66.3322C261.106 66.26 262.577 66.3401 264.423 66.5996L264.632 65.1142ZM259.889 64.8354L259.782 63.3392C258.374 63.44 257.093 63.8014 255.996 64.4818L256.786 65.7565L257.577 67.0313C258.179 66.6579 258.966 66.4052 259.996 66.3315L259.889 64.8354ZM256.786 65.7565L258.272 65.9653L259.67 56.0151L258.185 55.8063L256.699 55.5976L255.301 65.5478L256.786 65.7565ZM244.057 51.9465L243.848 53.4319L255.573 55.0797L255.781 53.5943L255.99 52.1089L244.265 50.4611L244.057 51.9465ZM255.781 53.5943L254.296 53.3855L249.753 85.7079L251.239 85.9167L252.724 86.1254L257.267 53.8031L255.781 53.5943ZM251.239 85.9167L251.447 84.4312L239.723 82.7834L239.514 84.2688L239.305 85.7542L251.03 87.4021L251.239 85.9167ZM239.514 84.2688L240.999 84.4776L245.542 52.1552L244.057 51.9465L242.571 51.7377L238.029 84.0601L239.514 84.2688ZM284.759 66.7795L283.855 67.9766L283.881 67.9962L283.908 68.0147L284.759 66.7795ZM282.666 66.033L282.993 64.569L282.983 64.5668L282.973 64.5648L282.666 66.033ZM272.88 64.8515L272.755 66.3463L272.785 66.3488L272.816 66.3501L272.88 64.8515ZM269.494 64.5695L268.008 64.3608L267.788 65.9326L269.369 66.0643L269.494 64.5695ZM270.652 56.3305L270.577 54.8323L269.339 54.8938L269.166 56.1217L270.652 56.3305ZM291.873 58.9252L291.303 60.3128L291.31 60.3156L291.873 58.9252ZM296.098 61.9748L297.353 61.1538L297.342 61.1371L297.331 61.1207L296.098 61.9748ZM297.266 66.0813L295.766 66.113L295.766 66.1327L295.767 66.1523L297.266 66.0813ZM294.084 91.9382L293.875 93.4236L295.361 93.6323L295.57 92.1469L294.084 91.9382ZM282.359 90.2904L280.874 90.0816L280.665 91.567L282.151 91.7758L282.359 90.2904ZM266.791 86.0989L265.522 86.899L265.528 86.9072L265.533 86.9153L266.791 86.0989ZM266.871 73.5722L268.266 74.1236L268.27 74.113L266.871 73.5722ZM268.811 70.8072L269.714 72.0052L269.731 71.9923L269.748 71.9789L268.811 70.8072ZM272.012 69.6414L272.147 71.1354L272.17 71.1333L272.193 71.1304L272.012 69.6414ZM277.091 69.838L277.335 68.358L277.317 68.3551L277.299 68.3526L277.091 69.838ZM282.396 70.713L283.882 70.9218L284.086 69.4713L282.64 69.233L282.396 70.713ZM281.604 76.3536L281.395 77.839L282.88 78.0477L283.089 76.5623L281.604 76.3536ZM279.06 76.0607L278.925 77.5546L278.994 77.5608L279.063 77.5607L279.06 76.0607ZM277.56 77.0778L278.99 77.5279L279.015 77.4494L279.031 77.3686L277.56 77.0778ZM277.132 80.1199L275.632 80.097L275.631 80.1875L275.64 80.2776L277.132 80.1199ZM277.396 80.9972L278.726 80.3037L278.708 80.2675L278.687 80.2323L277.396 80.9972ZM278.276 81.6378L278.693 80.1969L278.662 80.1881L278.631 80.1806L278.276 81.6378ZM280.793 82.1209L282.279 82.3296L282.487 80.8442L281.002 80.6355L280.793 82.1209ZM279.885 88.5854L280.628 89.8884L281.267 89.5235L281.37 88.7941L279.885 88.5854ZM276.71 89.561L276.623 88.0635L276.588 88.0656L276.552 88.0693L276.71 89.561ZM285.174 70.2632L286.659 70.472C286.814 69.37 286.901 68.4644 286.876 67.8401L285.377 67.9004L283.878 67.9607C283.891 68.2898 283.842 68.9594 283.689 70.0544L285.174 70.2632ZM285.377 67.9004L286.876 67.8401C286.837 66.8917 286.391 66.0828 285.61 65.5443L284.759 66.7795L283.908 68.0147C283.923 68.0255 283.925 68.0291 283.92 68.023C283.914 68.0165 283.904 68.0042 283.894 67.9869C283.885 67.9697 283.88 67.9549 283.877 67.9463C283.875 67.9383 283.877 67.9418 283.878 67.9607L285.377 67.9004ZM284.759 66.7795L285.663 65.5824C285.024 65.1004 284.029 64.8 282.993 64.569L282.666 66.033L282.34 67.497C282.826 67.6054 283.197 67.7103 283.469 67.8072C283.758 67.9103 283.856 67.9776 283.855 67.9766L284.759 66.7795ZM282.666 66.033L282.973 64.5648C282.287 64.4213 280.865 64.2005 278.764 63.9053L278.556 65.3907L278.347 66.8761C280.472 67.1747 281.79 67.3821 282.359 67.5013L282.666 66.033ZM278.556 65.3907L278.764 63.9053C276.696 63.6146 274.755 63.4296 272.943 63.3528L272.88 64.8515L272.816 66.3501C274.516 66.4222 276.359 66.5968 278.347 66.8761L278.556 65.3907ZM272.88 64.8515L273.004 63.3566L269.618 63.0747L269.494 64.5695L269.369 66.0643L272.755 66.3463L272.88 64.8515ZM269.494 64.5695L270.979 64.7783L272.137 56.5393L270.652 56.3305L269.166 56.1217L268.008 64.3608L269.494 64.5695ZM270.652 56.3305L270.726 57.8286C274.698 57.6316 278.945 57.8474 283.469 58.4832L283.678 56.9978L283.886 55.5124C279.2 54.8538 274.762 54.6247 270.577 54.8323L270.652 56.3305ZM283.678 56.9978L283.469 58.4832C286.97 58.9753 289.559 59.5965 291.303 60.3128L291.873 58.9252L292.443 57.5376C290.358 56.6817 287.483 56.018 283.886 55.5124L283.678 56.9978ZM291.873 58.9252L291.31 60.3156C293.1 61.04 294.226 61.9061 294.865 62.829L296.098 61.9748L297.331 61.1207C296.251 59.5615 294.56 58.3945 292.436 57.5348L291.873 58.9252ZM296.098 61.9748L294.842 62.7959C295.408 63.661 295.737 64.7449 295.766 66.113L297.266 66.0813L298.765 66.0496C298.727 64.2199 298.277 62.5662 297.353 61.1538L296.098 61.9748ZM297.266 66.0813L295.767 66.1523C295.837 67.6194 295.694 69.7089 295.307 72.4628L296.792 72.6715L298.277 72.8803C298.674 70.057 298.847 67.753 298.764 66.0103L297.266 66.0813ZM296.792 72.6715L295.307 72.4628L292.599 91.7294L294.084 91.9382L295.57 92.1469L298.277 72.8803L296.792 72.6715ZM294.084 91.9382L294.293 90.4528L282.568 88.805L282.359 90.2904L282.151 91.7758L293.875 93.4236L294.084 91.9382ZM282.359 90.2904L283.845 90.4991L286.659 70.472L285.174 70.2632L283.689 70.0544L280.874 90.0816L282.359 90.2904ZM272.917 89.4158L273.126 87.9304C270.474 87.5576 268.903 86.5986 268.05 85.2826L266.791 86.0989L265.533 86.9153C267.016 89.2023 269.53 90.4544 272.708 90.9012L272.917 89.4158ZM266.791 86.0989L268.06 85.2988C267.164 83.878 266.789 81.7202 267.227 78.5986L265.742 78.3898L264.256 78.1811C263.769 81.6507 264.093 84.6323 265.522 86.899L266.791 86.0989ZM265.742 78.3898L267.227 78.5986C267.504 76.6261 267.86 75.1512 268.266 74.1236L266.871 73.5722L265.476 73.0207C264.947 74.3606 264.549 76.0974 264.256 78.1811L265.742 78.3898ZM266.871 73.5722L268.27 74.113C268.671 73.0756 269.173 72.4127 269.714 72.0052L268.811 70.8072L267.908 69.6092C266.811 70.4363 266.019 71.6168 265.472 73.0313L266.871 73.5722ZM268.811 70.8072L269.748 71.9789C270.292 71.5435 271.059 71.2331 272.147 71.1354L272.012 69.6414L271.878 68.1474C270.348 68.2849 268.98 68.7517 267.874 69.6355L268.811 70.8072ZM272.012 69.6414L272.193 71.1304C273.327 70.9927 274.875 71.0415 276.882 71.3235L277.091 69.838L277.299 68.3526C275.165 68.0527 273.328 67.9704 271.831 68.1524L272.012 69.6414ZM277.091 69.838L276.846 71.3181L282.152 72.193L282.396 70.713L282.64 69.233L277.335 68.358L277.091 69.838ZM282.396 70.713L280.911 70.5042L280.118 76.1448L281.604 76.3536L283.089 76.5623L283.882 70.9218L282.396 70.713ZM281.604 76.3536L281.812 74.8682L281.179 74.7791L280.97 76.2645L280.761 77.7499L281.395 77.839L281.604 76.3536ZM280.97 76.2645L281.179 74.7791C280.231 74.6459 279.484 74.5597 279.056 74.5607L279.06 76.0607L279.063 77.5607C279.238 77.5603 279.765 77.6099 280.761 77.7499L280.97 76.2645ZM279.06 76.0607L279.194 74.5667C278.564 74.5101 277.839 74.5857 277.205 75.016C276.545 75.4634 276.217 76.1331 276.088 76.7869L277.56 77.0778L279.031 77.3686C279.042 77.3134 279.049 77.3182 279.027 77.3554C279.002 77.3982 278.955 77.4536 278.888 77.4991C278.824 77.5428 278.776 77.5532 278.773 77.5536C278.773 77.5537 278.785 77.5514 278.811 77.5505C278.837 77.5496 278.874 77.55 278.925 77.5546L279.06 76.0607ZM277.56 77.0778L276.129 76.6277C276.007 77.0146 275.897 77.6664 275.788 78.4445L277.273 78.6533L278.759 78.8621C278.875 78.0347 278.956 77.6361 278.99 77.5279L277.56 77.0778ZM277.273 78.6533L275.788 78.4445C275.696 79.0972 275.639 79.659 275.632 80.097L277.132 80.1199L278.632 80.1428C278.636 79.8929 278.672 79.477 278.759 78.8621L277.273 78.6533ZM277.132 80.1199L275.64 80.2776C275.694 80.7826 275.83 81.2963 276.106 81.7621L277.396 80.9972L278.687 80.2323C278.684 80.2282 278.644 80.1569 278.624 79.9621L277.132 80.1199ZM277.396 80.9972L276.066 81.6907C276.47 82.465 277.162 82.9101 277.92 83.0951L278.276 81.6378L278.631 80.1806C278.579 80.1679 278.589 80.1616 278.627 80.1891C278.645 80.2025 278.666 80.2207 278.685 80.2431C278.704 80.2655 278.718 80.2869 278.726 80.3037L277.396 80.9972ZM278.276 81.6378L277.859 83.0788C278.515 83.2685 279.213 83.4136 279.951 83.5172L280.159 82.0318L280.368 80.5464C279.753 80.46 279.196 80.3425 278.693 80.1969L278.276 81.6378ZM280.159 82.0318L279.951 83.5172L280.584 83.6063L280.793 82.1209L281.002 80.6355L280.368 80.5464L280.159 82.0318ZM280.793 82.1209L279.308 81.9121L278.399 88.3766L279.885 88.5854L281.37 88.7941L282.279 82.3296L280.793 82.1209ZM279.885 88.5854L279.142 87.2823C278.293 87.766 277.458 88.0152 276.623 88.0635L276.71 89.561L276.796 91.0585C278.134 90.9812 279.415 90.58 280.628 89.8884L279.885 88.5854ZM276.71 89.561L276.552 88.0693C275.663 88.1633 274.529 88.1276 273.126 87.9304L272.917 89.4158L272.708 90.9012C274.263 91.1196 275.657 91.1807 276.868 91.0527L276.71 89.561ZM302.92 60.2191L303.128 58.7337L301.643 58.525L301.434 60.0104L302.92 60.2191ZM308.877 61.0564L308.668 62.5418L310.154 62.7506L310.362 61.2652L308.877 61.0564ZM310.195 51.6766L310.404 50.1912L308.919 49.9824L308.71 51.4678L310.195 51.6766ZM321.92 53.3244L323.405 53.5332L323.614 52.0478L322.129 51.839L321.92 53.3244ZM320.602 62.7042L319.116 62.4955L318.908 63.9809L320.393 64.1896L320.602 62.7042ZM327.7 63.7018L329.185 63.9106L329.394 62.4252L327.909 62.2164L327.7 63.7018ZM326.444 72.638L326.235 74.1234L327.721 74.3322L327.93 72.8468L326.444 72.638ZM301.664 69.1553L300.178 68.9466L299.97 70.432L301.455 70.6407L301.664 69.1553ZM307.265 72.5277L307.474 71.0423L305.988 70.8335L305.779 72.3189L307.265 72.5277ZM318.99 74.1755L320.475 74.3842L320.684 72.8988L319.198 72.6901L318.99 74.1755ZM316.059 95.0266L315.85 96.512L317.336 96.7207L317.545 95.2353L316.059 95.0266ZM304.334 93.3788L302.849 93.17L302.64 94.6554L304.126 94.8642L304.334 93.3788ZM302.92 60.2191L302.711 61.7045L308.668 62.5418L308.877 61.0564L309.086 59.571L303.128 58.7337L302.92 60.2191ZM308.877 61.0564L310.362 61.2652L311.681 51.8854L310.195 51.6766L308.71 51.4678L307.392 60.8477L308.877 61.0564ZM310.195 51.6766L309.987 53.162L321.711 54.8098L321.92 53.3244L322.129 51.839L310.404 50.1912L310.195 51.6766ZM321.92 53.3244L320.435 53.1156L319.116 62.4955L320.602 62.7042L322.087 62.913L323.405 53.5332L321.92 53.3244ZM320.602 62.7042L320.393 64.1896L327.491 65.1872L327.7 63.7018L327.909 62.2164L320.811 61.2188L320.602 62.7042ZM327.7 63.7018L326.215 63.4931L324.959 72.4292L326.444 72.638L327.93 72.8468L329.185 63.9106L327.7 63.7018ZM326.444 72.638L326.653 71.1526L301.872 67.6699L301.664 69.1553L301.455 70.6407L326.235 74.1234L326.444 72.638ZM301.664 69.1553L303.149 69.3641L304.405 60.4279L302.92 60.2191L301.434 60.0104L300.178 68.9466L301.664 69.1553ZM307.265 72.5277L307.056 74.0131L318.781 75.6609L318.99 74.1755L319.198 72.6901L307.474 71.0423L307.265 72.5277ZM318.99 74.1755L317.504 73.9667L314.574 94.8178L316.059 95.0266L317.545 95.2353L320.475 74.3842L318.99 74.1755ZM316.059 95.0266L316.268 93.5412L304.543 91.8934L304.334 93.3788L304.126 94.8642L315.85 96.512L316.059 95.0266ZM304.334 93.3788L305.82 93.5875L308.75 72.7364L307.265 72.5277L305.779 72.3189L302.849 93.17L304.334 93.3788ZM343.675 79.1959L343.884 77.7105L342.399 77.5017L342.19 78.9872L343.675 79.1959ZM348.112 79.8194L347.903 81.3048L349.388 81.5136L349.597 80.0282L348.112 79.8194ZM348.056 75.1583L346.704 75.8085L346.709 75.8182L346.713 75.8278L348.056 75.1583ZM347.14 74.3186L346.513 75.6814L346.577 75.7109L346.644 75.7342L347.14 74.3186ZM344.441 73.7455L342.956 73.5367L342.747 75.0221L344.232 75.2309L344.441 73.7455ZM345.572 65.6966L345.781 64.2112L344.296 64.0024L344.087 65.4878L345.572 65.6966ZM354.701 67.8843L354.069 69.2446L354.077 69.2483L354.701 67.8843ZM358.664 71.4142L357.322 72.0837L357.328 72.0958L357.334 72.1077L358.664 71.4142ZM359.544 76.1911L358.046 76.1177L358.045 76.1346L358.044 76.1514L359.544 76.1911ZM358.329 87.1366L358.12 88.622L359.605 88.8307L359.814 87.3453L358.329 87.1366ZM342.865 84.9632L341.379 84.7545L341.17 86.2399L342.656 86.4486L342.865 84.9632ZM333.986 97.0936L333.35 98.4519L333.365 98.4592L333.381 98.466L333.986 97.0936ZM329.488 93.23L330.795 92.4935L330.794 92.4919L329.488 93.23ZM328.246 88.2729L326.746 88.2949L326.746 88.3001L328.246 88.2729ZM330.23 73.2347L331.68 73.6176L331.681 73.6136L330.23 73.2347ZM332.211 68.7952L331.007 67.9006L330.999 67.912L332.211 68.7952ZM336.151 66.0529L336.613 67.4799L336.621 67.4774L336.629 67.4748L336.151 66.0529ZM342.893 65.4492L344.378 65.658L344.604 64.0539L342.987 63.9522L342.893 65.4492ZM339.956 87.7213L338.459 87.8079L338.46 87.8182L338.46 87.8284L339.956 87.7213ZM340.657 89.177L341.654 88.0568L341.642 88.0462L341.63 88.0359L340.657 89.177ZM342.921 90.0769L343.222 88.6074L343.206 88.604L343.189 88.601L342.921 90.0769ZM353.134 91.4476L353.226 89.9504L353.207 89.9493L353.189 89.9486L353.134 91.4476ZM356.402 91.6483L357.887 91.8571L358.113 90.2506L356.494 90.1512L356.402 91.6483ZM355.253 99.824L355.48 101.307L356.583 101.138L356.738 100.033L355.253 99.824ZM348.139 99.8582L348.263 98.3633L348.24 98.3614L348.216 98.3602L348.139 99.8582ZM343.675 79.1959L343.466 80.6813L347.903 81.3048L348.112 79.8194L348.32 78.334L343.884 77.7105L343.675 79.1959ZM348.112 79.8194L349.597 80.0282C349.769 78.8054 349.857 77.7431 349.847 76.8616C349.837 76.023 349.738 75.1704 349.398 74.4888L348.056 75.1583L346.713 75.8278C346.743 75.8875 346.839 76.1824 346.847 76.8975C346.855 77.5697 346.787 78.4674 346.626 79.6106L348.112 79.8194ZM348.056 75.1583L349.407 74.508C349.047 73.7578 348.446 73.187 347.636 72.903L347.14 74.3186L346.644 75.7342C346.657 75.739 346.663 75.7425 346.664 75.7429C346.664 75.7432 346.664 75.7432 346.664 75.7428C346.664 75.7427 346.664 75.7426 346.663 75.7424C346.663 75.7423 346.663 75.7422 346.663 75.7422C346.663 75.7422 346.663 75.7424 346.664 75.7427C346.664 75.743 346.664 75.7435 346.665 75.7444C346.667 75.7459 346.669 75.7488 346.672 75.7534C346.679 75.7625 346.69 75.7798 346.704 75.8085L348.056 75.1583ZM347.14 74.3186L347.766 72.9558C347.162 72.6779 346.387 72.5042 345.537 72.3848L345.328 73.8702L345.12 75.3556C345.876 75.4618 346.308 75.587 346.513 75.6814L347.14 74.3186ZM345.328 73.8702L345.537 72.3848L344.65 72.2601L344.441 73.7455L344.232 75.2309L345.12 75.3556L345.328 73.8702ZM344.441 73.7455L345.927 73.9542L347.058 65.9053L345.572 65.6966L344.087 65.4878L342.956 73.5367L344.441 73.7455ZM345.572 65.6966L345.364 67.182L346.251 67.3067L346.46 65.8213L346.668 64.3359L345.781 64.2112L345.572 65.6966ZM346.46 65.8213L346.251 67.3067C349.834 67.8103 352.408 68.473 354.069 69.2446L354.701 67.8843L355.333 66.524C353.272 65.5662 350.352 64.8536 346.668 64.3359L346.46 65.8213ZM354.701 67.8843L354.077 69.2483C355.751 70.0145 356.772 70.9811 357.322 72.0837L358.664 71.4142L360.006 70.7447C359.077 68.882 357.456 67.4953 355.325 66.5203L354.701 67.8843ZM358.664 71.4142L357.334 72.1077C357.859 73.1153 358.128 74.4269 358.046 76.1177L359.544 76.1911L361.042 76.2646C361.144 74.1898 360.826 72.3168 359.994 70.7207L358.664 71.4142ZM359.544 76.1911L358.044 76.1514C357.997 77.9523 357.72 80.6874 357.2 84.3927L358.685 84.6015L360.17 84.8102C360.695 81.0793 360.991 78.2075 361.043 76.2309L359.544 76.1911ZM358.685 84.6015L357.2 84.3927L356.843 86.9278L358.329 87.1366L359.814 87.3453L360.17 84.8102L358.685 84.6015ZM358.329 87.1366L358.537 85.6512L343.073 83.4778L342.865 84.9632L342.656 86.4486L358.12 88.622L358.329 87.1366ZM342.865 84.9632L344.35 85.172L345.161 79.4047L343.675 79.1959L342.19 78.9872L341.379 84.7545L342.865 84.9632ZM343.042 99.3358L343.251 97.8504C339.422 97.3123 336.559 96.5891 334.591 95.7212L333.986 97.0936L333.381 98.466C335.713 99.4951 338.888 100.267 342.833 100.821L343.042 99.3358ZM333.986 97.0936L334.622 95.7353C332.726 94.8469 331.501 93.7468 330.795 92.4935L329.488 93.23L328.181 93.9665C329.268 95.8951 331.042 97.3707 333.35 98.4519L333.986 97.0936ZM329.488 93.23L330.794 92.4919C330.143 91.3407 329.776 89.9415 329.745 88.2457L328.246 88.2729L326.746 88.3001C326.784 90.4055 327.245 92.3111 328.182 93.9681L329.488 93.23ZM328.246 88.2729L329.746 88.2508C329.719 86.4205 329.924 83.8887 330.383 80.6239L328.898 80.4151L327.412 80.2064C326.945 83.5328 326.716 86.2395 326.746 88.2949L328.246 88.2729ZM328.898 80.4151L330.383 80.6239C330.807 77.6059 331.242 75.2792 331.68 73.6176L330.23 73.2347L328.78 72.8518C328.297 74.6799 327.843 77.1401 327.412 80.2064L328.898 80.4151ZM330.23 73.2347L331.681 73.6136C332.113 71.9606 332.705 70.6641 333.423 69.6784L332.211 68.7952L330.999 67.912C330.008 69.2714 329.28 70.9346 328.779 72.8558L330.23 73.2347ZM332.211 68.7952L333.415 69.6898C334.168 68.6764 335.21 67.9342 336.613 67.4799L336.151 66.0529L335.689 64.6258C333.752 65.2531 332.167 66.3391 331.007 67.9006L332.211 68.7952ZM336.151 66.0529L336.629 67.4748C338.092 66.9834 340.123 66.7779 342.798 66.9463L342.893 65.4492L342.987 63.9522C340.11 63.7711 337.647 63.968 335.673 64.6309L336.151 66.0529ZM342.893 65.4492L341.407 65.2405L338.717 84.3804L340.203 84.5891L341.688 84.7979L344.378 65.658L342.893 65.4492ZM340.203 84.5891L338.717 84.3804C338.514 85.8259 338.412 86.9967 338.459 87.8079L339.956 87.7213L341.454 87.6347C341.425 87.1428 341.488 86.2255 341.688 84.7979L340.203 84.5891ZM339.956 87.7213L338.46 87.8284C338.529 88.7952 338.923 89.6693 339.683 90.3181L340.657 89.177L341.63 88.0359C341.544 87.9625 341.471 87.8662 341.453 87.6142L339.956 87.7213ZM340.657 89.177L339.659 90.2971C340.426 90.9798 341.506 91.3445 342.654 91.5528L342.921 90.0769L343.189 88.601C342.236 88.4279 341.807 88.1926 341.654 88.0568L340.657 89.177ZM342.921 90.0769L342.62 91.5464C343.995 91.8279 345.456 92.0772 347.005 92.2947L347.213 90.8093L347.422 89.3239C345.928 89.114 344.529 88.875 343.222 88.6074L342.921 90.0769ZM347.213 90.8093L347.005 92.2947C349.714 92.6756 351.753 92.8981 353.079 92.9466L353.134 91.4476L353.189 89.9486C352.029 89.9062 350.121 89.7032 347.422 89.3239L347.213 90.8093ZM353.134 91.4476L353.042 92.9448L356.31 93.1455L356.402 91.6483L356.494 90.1512L353.226 89.9504L353.134 91.4476ZM356.402 91.6483L354.917 91.4396L353.768 99.6152L355.253 99.824L356.738 100.033L357.887 91.8571L356.402 91.6483ZM355.253 99.824L355.026 98.3412C353.433 98.585 351.195 98.6059 348.263 98.3633L348.139 99.8582L348.015 101.353C351.046 101.604 353.551 101.602 355.48 101.307L355.253 99.824ZM348.139 99.8582L348.216 98.3602C346.818 98.288 345.165 98.1194 343.251 97.8504L343.042 99.3358L342.833 100.821C344.807 101.099 346.551 101.278 348.062 101.356L348.139 99.8582Z" fill="#F47710"/>
</g>
<defs>
<filter id="filter0_d_1528_3091" x="11.1181" y="0" width="359.942" height="111.535" filterUnits="userSpaceOnUse" color-interpolation-filters="sRGB">
<feFlood flood-opacity="0" result="BackgroundImageFix"/>
<feColorMatrix in="SourceAlpha" type="matrix" values="0 0 0 0 0 0 0 0 0 0 0 0 0 0 0 0 0 0 127 0" result="hardAlpha"/>
<feOffset/>
<feGaussianBlur stdDeviation="5"/>
<feComposite in2="hardAlpha" operator="out"/>
<feColorMatrix type="matrix" values="0 0 0 0 0.958308 0 0 0 0 0.465081 0 0 0 0 0.061532 0 0 0 1 0"/>
<feBlend mode="normal" in2="BackgroundImageFix" result="effect1_dropShadow_1528_3091"/>
<feBlend mode="normal" in="SourceGraphic" in2="effect1_dropShadow_1528_3091" result="shape"/>
</filter>
</defs>
</svg>
