<svg width="18" height="18" viewBox="0 0 18 18" fill="none" xmlns="http://www.w3.org/2000/svg">
<path d="M17.7 5.46165L12.5143 0.26596C12.3429 0.0942017 12.0429 -0.0346173 11.7857 0.00832231C11.5286 0.0512619 11.2714 0.180081 11.1429 0.394779L7.37143 5.93398L3.38571 6.83571C3.08571 6.92159 2.82857 7.13629 2.7 7.47981C2.61429 7.78038 2.7 8.1239 2.91429 8.38154L5.61429 11.0867L0.257143 16.4542C-0.0857143 16.7977 -0.0857143 17.3559 0.257143 17.7424C0.428571 17.9141 0.642857 18 0.9 18C1.15714 18 1.37143 17.9141 1.54286 17.7424L6.94286 12.332L9.64286 15.0372C9.81429 15.2089 10.0286 15.2948 10.2857 15.2948C10.3714 15.2948 10.4571 15.2948 10.5429 15.2519C10.8429 15.166 11.1 14.9084 11.1857 14.5648L12.0857 10.5715L17.6143 6.83571C17.8286 6.66396 17.9571 6.44926 18 6.19162C17.9571 5.89104 17.9143 5.63341 17.7 5.46165ZM10.8 9.32621C10.6286 9.45503 10.5 9.66973 10.4143 9.88442L9.77143 12.6326L5.35714 8.20978L8.1 7.60863C8.31429 7.56569 8.52857 7.43687 8.65714 7.22217L12 2.32706L15.6429 5.97692L10.8 9.32621Z" fill="#707070"/>
</svg>
