<svg width="54" height="157" viewBox="0 0 54 157" fill="none" xmlns="http://www.w3.org/2000/svg">
<path d="M52.4049 156.744C52.9156 156.954 53.5001 156.711 53.7104 156.2C53.9206 155.689 53.6771 155.105 53.1664 154.895L52.7857 155.819L52.4049 156.744ZM43.163 5.79924C43.428 5.3147 43.2501 4.70705 42.7656 4.44201L34.8697 0.12292C34.3851 -0.142121 33.7775 0.0358119 33.5124 0.520344C33.2474 1.00488 33.4253 1.61253 33.9099 1.87757L40.9285 5.71676L37.0893 12.7353C36.8242 13.2199 37.0022 13.8275 37.4867 14.0926C37.9712 14.3576 38.5789 14.1797 38.8439 13.6951L43.163 5.79924ZM52.7857 155.819L53.1664 154.895C52.2385 154.513 51.0037 153.717 49.5049 152.492C48.0184 151.278 46.3191 149.679 44.4648 147.739C40.7568 143.859 36.4643 138.649 32.06 132.495C23.249 120.185 14.0341 104.159 8.16636 87.5489C2.2916 70.9193 -0.182516 53.8343 4.31145 39.3263C8.78073 24.8981 20.2028 12.8277 42.5667 6.27904L42.2857 5.31934L42.0047 4.35963C19.1188 11.0611 7.10351 23.5533 2.40101 38.7345C-2.27681 53.836 0.342849 71.4072 6.28058 88.2151C12.2253 105.043 21.5416 121.235 30.4336 133.659C34.8809 139.873 39.2328 145.159 43.0189 149.121C44.9116 151.101 46.6717 152.76 48.2392 154.041C49.7943 155.312 51.2079 156.251 52.4049 156.744L52.7857 155.819Z" fill="#530D94"/>
</svg>
