<svg width="421" height="113" viewBox="0 0 421 113" fill="none" xmlns="http://www.w3.org/2000/svg">
<mask id="path-1-outside-1_1528_3080" maskUnits="userSpaceOnUse" x="-4.84711" y="-9.0479" width="429.198" height="125.357" fill="black">
<rect fill="white" x="-4.84711" y="-9.0479" width="429.198" height="125.357"/>
<path d="M43.7935 101.243C42.1569 101.861 40.4602 102.358 38.7035 102.734C36.9949 103.146 35.2956 103.471 33.6056 103.709C31.9578 103.941 30.6632 104.079 29.7217 104.126C28.8226 104.166 27.6099 104.121 26.0836 103.991C24.5572 103.86 23.1399 103.586 21.8315 103.166C20.523 102.747 19.0915 102.065 17.5369 101.12C16.0245 100.169 14.6937 98.9776 13.5445 97.545C10.879 94.2142 9.14243 89.6757 8.33486 83.9295C7.7945 80.0846 7.908 76.6002 8.67538 73.4764C9.48501 70.3466 10.622 67.8601 12.0864 66.017C13.5931 64.168 15.3767 62.6032 17.4372 61.3227C20.7607 59.2183 24.2181 57.9138 27.8095 57.4091C32.9641 56.6846 36.7205 56.5875 39.0786 57.1179C40.1461 57.3556 41.1376 57.8195 42.0532 58.5094C42.9688 59.1994 43.5335 60.3049 43.7473 61.8259C43.961 63.347 43.851 65.3229 43.417 67.7536C43.0253 70.1783 42.1324 71.4887 40.7381 71.6847C40.3155 71.7441 38.7047 71.6257 35.9056 71.3298C33.1065 71.0338 31.2211 70.9541 30.2493 71.0906C28.7705 71.2985 27.6188 72.3005 26.7941 74.0968C26.0116 75.8871 25.8341 78.3033 26.2617 81.3454C26.6892 84.3875 27.4654 86.6912 28.5902 88.2566C29.7573 89.816 31.0802 90.4918 32.559 90.284C33.6153 90.1355 35.4572 89.4458 38.0848 88.2148C40.7487 86.9356 42.313 86.2634 42.7778 86.198C44.0876 86.014 45.2708 87.0756 46.3276 89.383C47.4266 91.6844 48.08 93.5746 48.2878 95.0534C48.4957 96.5322 48.1972 97.7805 47.3923 98.7984C46.6238 99.7682 45.4242 100.583 43.7935 101.243ZM72.9786 98.1755C69.8098 98.6208 67.0459 98.7292 64.6872 98.5006C62.3284 98.272 60.1215 97.5911 58.0665 96.4581C53.8297 94.2099 51.1769 89.2831 50.108 81.6779C49.1579 74.9176 50.4427 69.8037 53.9624 66.3361C57.2582 63.1154 61.8215 61.0954 67.6522 60.2759C70.145 59.9256 72.2965 59.7525 74.1067 59.7566C75.911 59.7184 77.775 59.9519 79.6986 60.4571C81.6646 60.9564 83.2889 61.7837 84.5715 62.9391C85.8964 64.0886 87.0812 65.7748 88.1261 67.9976C89.165 70.1783 89.9072 72.853 90.3525 76.0219C91.2551 82.4441 90.1182 87.5372 86.9418 91.3013C83.7595 95.023 79.1051 97.3144 72.9786 98.1755ZM69.0235 86.1287C69.5331 87.6081 69.9565 88.475 70.2938 88.7292C70.6734 88.9774 71.1167 89.0659 71.6237 88.9947C72.173 88.9175 72.5747 88.7102 72.8289 88.3729C73.1254 88.0296 73.2934 87.0797 73.3332 85.523C73.4152 83.9604 73.2958 82.0383 72.9752 79.7567C72.6486 77.4329 72.3358 75.6672 72.0369 74.4597C71.7742 73.2041 71.5109 72.2501 71.2469 71.5978C71.0251 70.9396 70.7608 70.4382 70.4538 70.0936C69.9963 69.5977 69.493 69.3884 68.9437 69.4656C68.4367 69.5369 68.0379 69.7652 67.7474 70.1508C67.451 70.494 67.2647 71.4681 67.1887 73.073C67.1067 74.6356 67.2646 76.8323 67.6625 79.6632C68.0603 82.494 68.514 84.6492 69.0235 86.1287ZM107.338 45.3272L113.662 90.325C113.728 90.7897 112.577 91.3392 110.21 91.9735C107.838 92.5654 105.363 93.0425 102.785 93.4047C100.25 93.761 98.5875 93.887 97.7973 93.7826C97.0434 93.6301 96.6278 93.2791 96.5506 92.7299L90.3869 48.8729C90.2563 47.9433 91.3117 46.8687 93.5531 45.6489C95.8367 44.4231 98.3517 43.6173 101.098 43.2313C104.985 42.685 107.065 43.3836 107.338 45.3272ZM128.877 42.3002L135.201 87.2979C135.266 87.7627 134.115 88.3122 131.749 88.9464C129.376 89.5384 126.901 90.0155 124.324 90.3777C121.788 90.734 120.126 90.86 119.336 90.7556C118.582 90.603 118.166 90.2521 118.089 89.7029L111.925 45.8459C111.795 44.9163 112.85 43.8417 115.091 42.6218C117.375 41.3961 119.89 40.5902 122.636 40.2043C126.523 39.658 128.604 40.3566 128.877 42.3002ZM151.963 87.0749C148.118 87.6153 144.969 87.1315 142.517 85.6234C141.523 84.9876 140.584 83.9778 139.7 82.594C138.858 81.2043 138.298 79.5165 138.019 77.5307C137.74 75.5449 137.961 73.7472 138.683 72.1378C139.447 70.5224 140.448 69.2183 141.688 68.2255C142.927 67.2328 144.419 66.3552 146.165 65.5928C148.81 64.4886 151.781 63.7049 155.076 63.2417L157.168 62.9478C156.924 61.2155 156.161 60.0733 154.877 59.5213C154.328 59.2968 153.526 59.2588 152.469 59.4072C151.455 59.5497 150.247 59.9995 148.846 60.7566C147.486 61.5078 146.362 62.2474 145.474 62.9755C144.579 63.6614 143.963 64.028 143.625 64.0755C142.864 64.1824 141.69 63.335 140.101 61.5333C138.506 59.6893 137.593 57.9434 137.361 56.2956C137.284 55.7463 137.965 54.9182 139.403 53.8112C140.842 52.7042 142.926 51.5926 145.656 50.4765C148.422 49.3122 151.157 48.54 153.861 48.16C156.566 47.78 158.922 47.6857 160.931 47.8774C162.976 48.0208 164.656 48.3233 165.97 48.7849C167.327 49.2405 168.502 49.9371 169.495 50.8746C170.531 51.8062 171.32 52.6648 171.861 53.4504C172.444 54.2301 172.937 55.2812 173.338 56.6035C173.854 58.1253 174.272 60.0269 174.592 62.3085L177.273 81.385C177.339 81.8498 176.251 82.3904 174.011 83.0068C171.808 83.575 169.586 84.0165 167.347 84.3312C165.15 84.64 163.704 84.7785 163.01 84.7468C162.359 84.7091 161.958 84.6146 161.807 84.4635C161.657 84.3123 161.51 84.0313 161.366 83.6207L160.351 80.0795L159.844 80.1507C159.322 84.1018 156.695 86.4099 151.963 87.0749ZM158.977 75.3608L157.935 67.9457C156.836 68.1 156.014 68.6895 155.469 69.7141C154.923 70.7386 154.734 71.8424 154.9 73.0254C155.292 75.814 156.122 77.1192 157.389 76.9411C157.939 76.8639 158.343 76.6778 158.603 76.3827C158.9 76.0394 159.024 75.6988 158.977 75.3608ZM185.324 81.1584C182.917 80.8934 181.631 80.1695 181.464 78.9864L175.817 38.8053C175.687 37.8758 176.805 36.7922 179.173 35.5546C181.542 34.3169 184.099 33.5051 186.845 33.1192C190.563 32.5966 192.559 33.3071 192.832 35.2507L193.839 42.4123L193.756 46.8833L194.263 46.8121C194.463 46.3962 194.863 45.8661 195.461 45.2218C196.102 44.5716 196.777 44.0029 197.484 43.5158C199.206 42.2827 201.187 41.5088 203.426 41.1941C205.666 40.8794 207.461 40.9287 208.811 41.3421C210.198 41.7073 211.337 42.3012 212.229 43.1238C213.156 43.8983 213.95 44.95 214.611 46.279C215.752 48.5745 216.575 51.518 217.08 55.1093C217.917 61.0668 217.882 65.7249 216.976 69.0838C216.069 72.4427 214.187 74.9908 211.329 76.7281C208.471 78.4655 204.274 79.7231 198.739 80.501C193.204 81.2788 188.733 81.498 185.324 81.1584ZM197.81 71.1311L199.775 70.855C201.127 70.6649 201.349 67.3377 200.44 60.8732C199.526 54.3665 198.371 51.2111 196.977 51.4071L195.076 51.6743L197.81 71.1311ZM243.862 74.1594C240.693 74.6048 237.929 74.7131 235.57 74.4845C233.212 74.2559 231.005 73.5751 228.95 72.4421C224.713 70.1938 222.06 65.2671 220.991 57.6618C220.041 50.9016 221.326 45.7877 224.846 42.3201C228.141 39.0994 232.705 37.0793 238.535 36.2599C241.028 35.9095 243.18 35.7364 244.99 35.7405C246.794 35.7024 248.658 35.9359 250.582 36.4411C252.548 36.9403 254.172 37.7677 255.455 38.9231C256.779 40.0725 257.964 41.7587 259.009 43.9816C260.048 46.1622 260.79 48.837 261.236 52.0058C262.138 58.428 261.001 63.5212 257.825 67.2852C254.643 71.007 249.988 73.2984 243.862 74.1594ZM239.907 62.1126C240.416 63.5921 240.84 64.4589 241.177 64.7131C241.557 64.9614 242 65.0499 242.507 64.9786C243.056 64.9014 243.458 64.6942 243.712 64.3568C244.008 64.0136 244.177 63.0636 244.216 61.5069C244.298 59.9443 244.179 58.0222 243.858 55.7406C243.532 53.4168 243.219 51.6511 242.92 50.4437C242.657 49.188 242.394 48.234 242.13 47.5818C241.908 46.9235 241.644 46.4221 241.337 46.0775C240.879 45.5817 240.376 45.3723 239.827 45.4495C239.32 45.5208 238.921 45.7492 238.631 46.1347C238.334 46.478 238.148 47.452 238.072 49.0569C237.99 50.6195 238.148 52.8163 238.546 55.6471C238.943 58.4779 239.397 60.6331 239.907 62.1126ZM281.945 47.8028L284.546 66.3089C284.611 66.7737 283.46 67.3232 281.093 67.9574C278.763 68.5434 276.309 69.0176 273.732 69.3798C271.197 69.7361 269.534 69.862 268.744 69.7576C267.948 69.611 267.511 69.2631 267.434 68.7138L263.043 37.4689C262.93 36.6661 263.97 35.6366 266.163 34.3805C268.399 33.1185 270.889 32.2944 273.636 31.9085C276.424 31.5166 278.095 32.0574 278.646 33.5309L279.69 36.3572L280.134 36.2948C280.499 34.6062 281.725 33.0552 283.81 31.6419C285.889 30.1864 288.048 29.3013 290.287 28.9866C292.527 28.6719 294.14 28.8113 295.129 29.4049C296.159 29.9925 296.754 30.8567 296.915 31.9975C297.069 33.0961 297.184 34.5234 297.258 36.2794C297.332 38.0355 297.174 39.9751 296.783 42.0981C296.434 44.2153 295.732 45.3481 294.676 45.4965C294.253 45.5559 292.878 45.4261 290.549 45.107C288.221 44.788 286.317 44.7323 284.839 44.9402C283.402 45.1421 282.523 45.481 282.202 45.957C281.924 46.427 281.838 47.0422 281.945 47.8028ZM316.904 63.8939C313.06 64.4343 309.911 63.9504 307.458 62.4424C306.464 61.8066 305.525 60.7968 304.641 59.413C303.8 58.0233 303.24 56.3355 302.96 54.3497C302.681 52.3638 302.903 50.5662 303.624 48.9568C304.388 47.3414 305.39 46.0373 306.629 45.0445C307.868 44.0517 309.361 43.1742 311.106 42.4118C313.752 41.3076 316.722 40.5238 320.018 40.0607L322.109 39.7667C321.866 38.0344 321.102 36.8923 319.818 36.3403C319.269 36.1158 318.467 36.0777 317.411 36.2262C316.397 36.3687 315.189 36.8185 313.787 37.5756C312.428 38.3268 311.304 39.0664 310.415 39.7945C309.521 40.4803 308.904 40.847 308.566 40.8945C307.806 41.0014 306.631 40.154 305.042 38.3522C303.447 36.5083 302.534 34.7624 302.303 33.1146C302.225 32.5653 302.906 31.7372 304.345 30.6302C305.783 29.5232 307.868 28.4116 310.598 27.2955C313.364 26.1312 316.099 25.359 318.803 24.979C321.507 24.5989 323.864 24.5047 325.872 24.6963C327.918 24.8398 329.597 25.1423 330.912 25.6038C332.268 26.0595 333.443 26.756 334.437 27.6936C335.473 28.6252 336.261 29.4838 336.802 30.2694C337.386 31.0491 337.878 32.1002 338.28 33.4225C338.795 34.9443 339.213 36.8459 339.534 39.1275L342.215 58.204C342.28 58.6688 341.193 59.2094 338.953 59.8258C336.749 60.394 334.528 60.8355 332.288 61.1502C330.091 61.459 328.646 61.5975 327.952 61.5657C327.3 61.5281 326.899 61.4336 326.749 61.2824C326.598 61.1312 326.451 60.8503 326.307 60.4397L325.292 56.8984L324.785 56.9697C324.264 60.9208 321.637 63.2289 316.904 63.8939ZM323.918 52.1798L322.876 44.7646C321.778 44.919 320.956 45.5085 320.41 46.533C319.865 47.5576 319.675 48.6614 319.842 49.8444C320.234 52.633 321.063 53.9382 322.331 53.7601C322.88 53.6829 323.285 53.4968 323.545 53.2017C323.841 52.8584 323.966 52.5178 323.918 52.1798ZM371.696 55.0301C371.036 55.8553 369.355 56.4579 366.651 56.8379C363.946 57.218 361.683 57.3637 359.861 57.2751C358.033 57.1442 356.242 56.6634 354.488 55.8328C351.113 54.196 348.965 50.1031 348.045 43.5541L346.655 33.6672L343.486 34.1126C343.022 34.1779 342.552 33.7484 342.077 32.8242C341.603 31.8999 341.247 30.5927 341.009 28.9027C340.772 27.2126 340.817 25.6982 341.146 24.3594C341.511 22.9724 342.116 22.2195 342.962 22.1007L344.99 21.8157L343.912 14.1471C343.728 12.8373 344.847 11.6029 347.269 10.4438C349.734 9.2788 352.191 8.5241 354.642 8.17969C358.487 7.63933 360.543 8.3198 360.81 10.2211L362.101 19.4108L366.791 18.7517C367.89 18.5973 368.662 20.1045 369.107 23.2734C369.398 25.3437 369.385 27.0905 369.068 28.5138C368.787 29.8889 368.267 30.6299 367.506 30.7368L363.767 31.2623L365.397 42.8604C365.557 44.0011 366.159 44.7568 367.202 45.1272C368.239 45.4554 369.117 45.569 369.835 45.4681C370.596 45.3612 371.111 45.655 371.381 46.3495C371.651 47.044 371.887 48.1096 372.089 49.5461C372.486 52.377 372.356 54.205 371.696 55.0301ZM392.099 38.1382C392.485 40.8846 393.987 42.0737 396.607 41.7055C398.128 41.4918 400.043 40.7056 402.351 39.3472C404.653 37.9465 405.867 37.2373 405.994 37.2194C406.797 37.1066 408.022 38.1623 409.671 40.3866C411.319 42.6108 412.223 44.2934 412.384 45.4341C412.615 47.082 411.1 48.5659 407.839 49.886C404.578 51.206 401.32 52.0947 398.067 52.5519C394.856 53.0032 392.116 53.1297 389.848 52.9315C387.622 52.7273 385.758 52.343 384.257 51.7784C382.792 51.1656 381.451 50.3631 380.235 49.3707C379.06 48.3725 378.148 47.4019 377.499 46.4592C376.843 45.4741 376.279 44.3686 375.805 43.1426C375.121 41.343 374.639 39.4502 374.36 37.4644C373.28 29.7746 374.541 24.19 378.145 20.7106C379.923 18.9527 381.996 17.6058 384.364 16.6698C386.731 15.7339 389.584 15.0314 392.922 14.5623C403.611 13.06 409.479 16.0269 410.524 23.4632C411.634 31.3642 406.19 36.1579 394.19 37.8443L392.099 38.1382ZM390.672 28.903L391.259 33.0859C392.485 32.9137 393.409 32.2882 394.033 31.2096C394.699 30.125 394.935 28.8855 394.739 27.4912C394.382 24.9561 393.549 23.7806 392.24 23.9647C390.761 24.1725 390.238 25.8186 390.672 28.903Z"/>
</mask>
<path d="M43.7935 101.243C42.1569 101.861 40.4602 102.358 38.7035 102.734C36.9949 103.146 35.2956 103.471 33.6056 103.709C31.9578 103.941 30.6632 104.079 29.7217 104.126C28.8226 104.166 27.6099 104.121 26.0836 103.991C24.5572 103.86 23.1399 103.586 21.8315 103.166C20.523 102.747 19.0915 102.065 17.5369 101.12C16.0245 100.169 14.6937 98.9776 13.5445 97.545C10.879 94.2142 9.14243 89.6757 8.33486 83.9295C7.7945 80.0846 7.908 76.6002 8.67538 73.4764C9.48501 70.3466 10.622 67.8601 12.0864 66.017C13.5931 64.168 15.3767 62.6032 17.4372 61.3227C20.7607 59.2183 24.2181 57.9138 27.8095 57.4091C32.9641 56.6846 36.7205 56.5875 39.0786 57.1179C40.1461 57.3556 41.1376 57.8195 42.0532 58.5094C42.9688 59.1994 43.5335 60.3049 43.7473 61.8259C43.961 63.347 43.851 65.3229 43.417 67.7536C43.0253 70.1783 42.1324 71.4887 40.7381 71.6847C40.3155 71.7441 38.7047 71.6257 35.9056 71.3298C33.1065 71.0338 31.2211 70.9541 30.2493 71.0906C28.7705 71.2985 27.6188 72.3005 26.7941 74.0968C26.0116 75.8871 25.8341 78.3033 26.2617 81.3454C26.6892 84.3875 27.4654 86.6912 28.5902 88.2566C29.7573 89.816 31.0802 90.4918 32.559 90.284C33.6153 90.1355 35.4572 89.4458 38.0848 88.2148C40.7487 86.9356 42.313 86.2634 42.7778 86.198C44.0876 86.014 45.2708 87.0756 46.3276 89.383C47.4266 91.6844 48.08 93.5746 48.2878 95.0534C48.4957 96.5322 48.1972 97.7805 47.3923 98.7984C46.6238 99.7682 45.4242 100.583 43.7935 101.243ZM72.9786 98.1755C69.8098 98.6208 67.0459 98.7292 64.6872 98.5006C62.3284 98.272 60.1215 97.5911 58.0665 96.4581C53.8297 94.2099 51.1769 89.2831 50.108 81.6779C49.1579 74.9176 50.4427 69.8037 53.9624 66.3361C57.2582 63.1154 61.8215 61.0954 67.6522 60.2759C70.145 59.9256 72.2965 59.7525 74.1067 59.7566C75.911 59.7184 77.775 59.9519 79.6986 60.4571C81.6646 60.9564 83.2889 61.7837 84.5715 62.9391C85.8964 64.0886 87.0812 65.7748 88.1261 67.9976C89.165 70.1783 89.9072 72.853 90.3525 76.0219C91.2551 82.4441 90.1182 87.5372 86.9418 91.3013C83.7595 95.023 79.1051 97.3144 72.9786 98.1755ZM69.0235 86.1287C69.5331 87.6081 69.9565 88.475 70.2938 88.7292C70.6734 88.9774 71.1167 89.0659 71.6237 88.9947C72.173 88.9175 72.5747 88.7102 72.8289 88.3729C73.1254 88.0296 73.2934 87.0797 73.3332 85.523C73.4152 83.9604 73.2958 82.0383 72.9752 79.7567C72.6486 77.4329 72.3358 75.6672 72.0369 74.4597C71.7742 73.2041 71.5109 72.2501 71.2469 71.5978C71.0251 70.9396 70.7608 70.4382 70.4538 70.0936C69.9963 69.5977 69.493 69.3884 68.9437 69.4656C68.4367 69.5369 68.0379 69.7652 67.7474 70.1508C67.451 70.494 67.2647 71.4681 67.1887 73.073C67.1067 74.6356 67.2646 76.8323 67.6625 79.6632C68.0603 82.494 68.514 84.6492 69.0235 86.1287ZM107.338 45.3272L113.662 90.325C113.728 90.7897 112.577 91.3392 110.21 91.9735C107.838 92.5654 105.363 93.0425 102.785 93.4047C100.25 93.761 98.5875 93.887 97.7973 93.7826C97.0434 93.6301 96.6278 93.2791 96.5506 92.7299L90.3869 48.8729C90.2563 47.9433 91.3117 46.8687 93.5531 45.6489C95.8367 44.4231 98.3517 43.6173 101.098 43.2313C104.985 42.685 107.065 43.3836 107.338 45.3272ZM128.877 42.3002L135.201 87.2979C135.266 87.7627 134.115 88.3122 131.749 88.9464C129.376 89.5384 126.901 90.0155 124.324 90.3777C121.788 90.734 120.126 90.86 119.336 90.7556C118.582 90.603 118.166 90.2521 118.089 89.7029L111.925 45.8459C111.795 44.9163 112.85 43.8417 115.091 42.6218C117.375 41.3961 119.89 40.5902 122.636 40.2043C126.523 39.658 128.604 40.3566 128.877 42.3002ZM151.963 87.0749C148.118 87.6153 144.969 87.1315 142.517 85.6234C141.523 84.9876 140.584 83.9778 139.7 82.594C138.858 81.2043 138.298 79.5165 138.019 77.5307C137.74 75.5449 137.961 73.7472 138.683 72.1378C139.447 70.5224 140.448 69.2183 141.688 68.2255C142.927 67.2328 144.419 66.3552 146.165 65.5928C148.81 64.4886 151.781 63.7049 155.076 63.2417L157.168 62.9478C156.924 61.2155 156.161 60.0733 154.877 59.5213C154.328 59.2968 153.526 59.2588 152.469 59.4072C151.455 59.5497 150.247 59.9995 148.846 60.7566C147.486 61.5078 146.362 62.2474 145.474 62.9755C144.579 63.6614 143.963 64.028 143.625 64.0755C142.864 64.1824 141.69 63.335 140.101 61.5333C138.506 59.6893 137.593 57.9434 137.361 56.2956C137.284 55.7463 137.965 54.9182 139.403 53.8112C140.842 52.7042 142.926 51.5926 145.656 50.4765C148.422 49.3122 151.157 48.54 153.861 48.16C156.566 47.78 158.922 47.6857 160.931 47.8774C162.976 48.0208 164.656 48.3233 165.97 48.7849C167.327 49.2405 168.502 49.9371 169.495 50.8746C170.531 51.8062 171.32 52.6648 171.861 53.4504C172.444 54.2301 172.937 55.2812 173.338 56.6035C173.854 58.1253 174.272 60.0269 174.592 62.3085L177.273 81.385C177.339 81.8498 176.251 82.3904 174.011 83.0068C171.808 83.575 169.586 84.0165 167.347 84.3312C165.15 84.64 163.704 84.7785 163.01 84.7468C162.359 84.7091 161.958 84.6146 161.807 84.4635C161.657 84.3123 161.51 84.0313 161.366 83.6207L160.351 80.0795L159.844 80.1507C159.322 84.1018 156.695 86.4099 151.963 87.0749ZM158.977 75.3608L157.935 67.9457C156.836 68.1 156.014 68.6895 155.469 69.7141C154.923 70.7386 154.734 71.8424 154.9 73.0254C155.292 75.814 156.122 77.1192 157.389 76.9411C157.939 76.8639 158.343 76.6778 158.603 76.3827C158.9 76.0394 159.024 75.6988 158.977 75.3608ZM185.324 81.1584C182.917 80.8934 181.631 80.1695 181.464 78.9864L175.817 38.8053C175.687 37.8758 176.805 36.7922 179.173 35.5546C181.542 34.3169 184.099 33.5051 186.845 33.1192C190.563 32.5966 192.559 33.3071 192.832 35.2507L193.839 42.4123L193.756 46.8833L194.263 46.8121C194.463 46.3962 194.863 45.8661 195.461 45.2218C196.102 44.5716 196.777 44.0029 197.484 43.5158C199.206 42.2827 201.187 41.5088 203.426 41.1941C205.666 40.8794 207.461 40.9287 208.811 41.3421C210.198 41.7073 211.337 42.3012 212.229 43.1238C213.156 43.8983 213.95 44.95 214.611 46.279C215.752 48.5745 216.575 51.518 217.08 55.1093C217.917 61.0668 217.882 65.7249 216.976 69.0838C216.069 72.4427 214.187 74.9908 211.329 76.7281C208.471 78.4655 204.274 79.7231 198.739 80.501C193.204 81.2788 188.733 81.498 185.324 81.1584ZM197.81 71.1311L199.775 70.855C201.127 70.6649 201.349 67.3377 200.44 60.8732C199.526 54.3665 198.371 51.2111 196.977 51.4071L195.076 51.6743L197.81 71.1311ZM243.862 74.1594C240.693 74.6048 237.929 74.7131 235.57 74.4845C233.212 74.2559 231.005 73.5751 228.95 72.4421C224.713 70.1938 222.06 65.2671 220.991 57.6618C220.041 50.9016 221.326 45.7877 224.846 42.3201C228.141 39.0994 232.705 37.0793 238.535 36.2599C241.028 35.9095 243.18 35.7364 244.99 35.7405C246.794 35.7024 248.658 35.9359 250.582 36.4411C252.548 36.9403 254.172 37.7677 255.455 38.9231C256.779 40.0725 257.964 41.7587 259.009 43.9816C260.048 46.1622 260.79 48.837 261.236 52.0058C262.138 58.428 261.001 63.5212 257.825 67.2852C254.643 71.007 249.988 73.2984 243.862 74.1594ZM239.907 62.1126C240.416 63.5921 240.84 64.4589 241.177 64.7131C241.557 64.9614 242 65.0499 242.507 64.9786C243.056 64.9014 243.458 64.6942 243.712 64.3568C244.008 64.0136 244.177 63.0636 244.216 61.5069C244.298 59.9443 244.179 58.0222 243.858 55.7406C243.532 53.4168 243.219 51.6511 242.92 50.4437C242.657 49.188 242.394 48.234 242.13 47.5818C241.908 46.9235 241.644 46.4221 241.337 46.0775C240.879 45.5817 240.376 45.3723 239.827 45.4495C239.32 45.5208 238.921 45.7492 238.631 46.1347C238.334 46.478 238.148 47.452 238.072 49.0569C237.99 50.6195 238.148 52.8163 238.546 55.6471C238.943 58.4779 239.397 60.6331 239.907 62.1126ZM281.945 47.8028L284.546 66.3089C284.611 66.7737 283.46 67.3232 281.093 67.9574C278.763 68.5434 276.309 69.0176 273.732 69.3798C271.197 69.7361 269.534 69.862 268.744 69.7576C267.948 69.611 267.511 69.2631 267.434 68.7138L263.043 37.4689C262.93 36.6661 263.97 35.6366 266.163 34.3805C268.399 33.1185 270.889 32.2944 273.636 31.9085C276.424 31.5166 278.095 32.0574 278.646 33.5309L279.69 36.3572L280.134 36.2948C280.499 34.6062 281.725 33.0552 283.81 31.6419C285.889 30.1864 288.048 29.3013 290.287 28.9866C292.527 28.6719 294.14 28.8113 295.129 29.4049C296.159 29.9925 296.754 30.8567 296.915 31.9975C297.069 33.0961 297.184 34.5234 297.258 36.2794C297.332 38.0355 297.174 39.9751 296.783 42.0981C296.434 44.2153 295.732 45.3481 294.676 45.4965C294.253 45.5559 292.878 45.4261 290.549 45.107C288.221 44.788 286.317 44.7323 284.839 44.9402C283.402 45.1421 282.523 45.481 282.202 45.957C281.924 46.427 281.838 47.0422 281.945 47.8028ZM316.904 63.8939C313.06 64.4343 309.911 63.9504 307.458 62.4424C306.464 61.8066 305.525 60.7968 304.641 59.413C303.8 58.0233 303.24 56.3355 302.96 54.3497C302.681 52.3638 302.903 50.5662 303.624 48.9568C304.388 47.3414 305.39 46.0373 306.629 45.0445C307.868 44.0517 309.361 43.1742 311.106 42.4118C313.752 41.3076 316.722 40.5238 320.018 40.0607L322.109 39.7667C321.866 38.0344 321.102 36.8923 319.818 36.3403C319.269 36.1158 318.467 36.0777 317.411 36.2262C316.397 36.3687 315.189 36.8185 313.787 37.5756C312.428 38.3268 311.304 39.0664 310.415 39.7945C309.521 40.4803 308.904 40.847 308.566 40.8945C307.806 41.0014 306.631 40.154 305.042 38.3522C303.447 36.5083 302.534 34.7624 302.303 33.1146C302.225 32.5653 302.906 31.7372 304.345 30.6302C305.783 29.5232 307.868 28.4116 310.598 27.2955C313.364 26.1312 316.099 25.359 318.803 24.979C321.507 24.5989 323.864 24.5047 325.872 24.6963C327.918 24.8398 329.597 25.1423 330.912 25.6038C332.268 26.0595 333.443 26.756 334.437 27.6936C335.473 28.6252 336.261 29.4838 336.802 30.2694C337.386 31.0491 337.878 32.1002 338.28 33.4225C338.795 34.9443 339.213 36.8459 339.534 39.1275L342.215 58.204C342.28 58.6688 341.193 59.2094 338.953 59.8258C336.749 60.394 334.528 60.8355 332.288 61.1502C330.091 61.459 328.646 61.5975 327.952 61.5657C327.3 61.5281 326.899 61.4336 326.749 61.2824C326.598 61.1312 326.451 60.8503 326.307 60.4397L325.292 56.8984L324.785 56.9697C324.264 60.9208 321.637 63.2289 316.904 63.8939ZM323.918 52.1798L322.876 44.7646C321.778 44.919 320.956 45.5085 320.41 46.533C319.865 47.5576 319.675 48.6614 319.842 49.8444C320.234 52.633 321.063 53.9382 322.331 53.7601C322.88 53.6829 323.285 53.4968 323.545 53.2017C323.841 52.8584 323.966 52.5178 323.918 52.1798ZM371.696 55.0301C371.036 55.8553 369.355 56.4579 366.651 56.8379C363.946 57.218 361.683 57.3637 359.861 57.2751C358.033 57.1442 356.242 56.6634 354.488 55.8328C351.113 54.196 348.965 50.1031 348.045 43.5541L346.655 33.6672L343.486 34.1126C343.022 34.1779 342.552 33.7484 342.077 32.8242C341.603 31.8999 341.247 30.5927 341.009 28.9027C340.772 27.2126 340.817 25.6982 341.146 24.3594C341.511 22.9724 342.116 22.2195 342.962 22.1007L344.99 21.8157L343.912 14.1471C343.728 12.8373 344.847 11.6029 347.269 10.4438C349.734 9.2788 352.191 8.5241 354.642 8.17969C358.487 7.63933 360.543 8.3198 360.81 10.2211L362.101 19.4108L366.791 18.7517C367.89 18.5973 368.662 20.1045 369.107 23.2734C369.398 25.3437 369.385 27.0905 369.068 28.5138C368.787 29.8889 368.267 30.6299 367.506 30.7368L363.767 31.2623L365.397 42.8604C365.557 44.0011 366.159 44.7568 367.202 45.1272C368.239 45.4554 369.117 45.569 369.835 45.4681C370.596 45.3612 371.111 45.655 371.381 46.3495C371.651 47.044 371.887 48.1096 372.089 49.5461C372.486 52.377 372.356 54.205 371.696 55.0301ZM392.099 38.1382C392.485 40.8846 393.987 42.0737 396.607 41.7055C398.128 41.4918 400.043 40.7056 402.351 39.3472C404.653 37.9465 405.867 37.2373 405.994 37.2194C406.797 37.1066 408.022 38.1623 409.671 40.3866C411.319 42.6108 412.223 44.2934 412.384 45.4341C412.615 47.082 411.1 48.5659 407.839 49.886C404.578 51.206 401.32 52.0947 398.067 52.5519C394.856 53.0032 392.116 53.1297 389.848 52.9315C387.622 52.7273 385.758 52.343 384.257 51.7784C382.792 51.1656 381.451 50.3631 380.235 49.3707C379.06 48.3725 378.148 47.4019 377.499 46.4592C376.843 45.4741 376.279 44.3686 375.805 43.1426C375.121 41.343 374.639 39.4502 374.36 37.4644C373.28 29.7746 374.541 24.19 378.145 20.7106C379.923 18.9527 381.996 17.6058 384.364 16.6698C386.731 15.7339 389.584 15.0314 392.922 14.5623C403.611 13.06 409.479 16.0269 410.524 23.4632C411.634 31.3642 406.19 36.1579 394.19 37.8443L392.099 38.1382ZM390.672 28.903L391.259 33.0859C392.485 32.9137 393.409 32.2882 394.033 31.2096C394.699 30.125 394.935 28.8855 394.739 27.4912C394.382 24.9561 393.549 23.7806 392.24 23.9647C390.761 24.1725 390.238 25.8186 390.672 28.903Z" fill="#E2C81B"/>
<path d="M43.7935 101.243L46.6188 108.728L46.7073 108.694L46.7951 108.659L43.7935 101.243ZM38.7035 102.734L37.0285 94.9113L36.927 94.933L36.8261 94.9574L38.7035 102.734ZM29.7217 104.126L30.079 112.118L30.0962 112.117L30.1133 112.116L29.7217 104.126ZM26.0836 103.991L25.4037 111.962L26.0836 103.991ZM21.8315 103.166L19.39 110.785L19.39 110.785L21.8315 103.166ZM17.5369 101.12L13.2791 107.893L13.3303 107.925L13.382 107.957L17.5369 101.12ZM13.5445 97.545L7.29831 102.544L7.30412 102.551L13.5445 97.545ZM8.67538 73.4764L0.930322 71.4729L0.918046 71.5203L0.906352 71.5679L8.67538 73.4764ZM12.0864 66.017L5.88466 60.9635L5.85352 61.0018L5.82286 61.0403L12.0864 66.017ZM17.4372 61.3227L21.66 68.1174L21.6885 68.0997L21.7168 68.0817L17.4372 61.3227ZM39.0786 57.1179L37.3233 64.9229L37.3314 64.9247L37.3394 64.9265L39.0786 57.1179ZM42.0532 58.5094L46.8677 52.1203L46.8677 52.1203L42.0532 58.5094ZM43.417 67.7536L35.5415 66.3476L35.5299 66.4126L35.5194 66.4778L43.417 67.7536ZM26.7941 74.0968L19.5237 70.7588L19.493 70.8256L19.4636 70.893L26.7941 74.0968ZM28.5902 88.2566L22.0935 92.9249L22.1388 92.9879L22.1853 93.05L28.5902 88.2566ZM38.0848 88.2148L41.4787 95.4592L41.5133 95.443L41.5478 95.4264L38.0848 88.2148ZM46.3276 89.383L39.0541 92.7141L39.0808 92.7724L39.1084 92.8303L46.3276 89.383ZM47.3923 98.7984L53.6621 103.767L53.6678 103.76L47.3923 98.7984ZM43.7935 101.243L40.9683 93.7586C39.716 94.2313 38.4045 94.6167 37.0285 94.9113L38.7035 102.734L40.3785 110.557C42.516 110.099 44.5978 109.49 46.6188 108.728L43.7935 101.243ZM38.7035 102.734L36.8261 94.9574C35.3622 95.3108 33.9179 95.5865 32.4922 95.7868L33.6056 103.709L34.7189 111.631C36.6734 111.356 38.6276 110.982 40.5809 110.511L38.7035 102.734ZM33.6056 103.709L32.4922 95.7868C30.9327 96.006 29.9147 96.1065 29.3302 96.1351L29.7217 104.126L30.1133 112.116C31.4116 112.052 32.9828 111.875 34.7189 111.631L33.6056 103.709ZM29.7217 104.126L29.3645 96.1335C28.9679 96.1513 28.1479 96.1376 26.7634 96.0195L26.0836 103.991L25.4037 111.962C27.0718 112.104 28.6773 112.18 30.079 112.118L29.7217 104.126ZM26.0836 103.991L26.7634 96.0195C25.7682 95.9346 24.9482 95.7644 24.2729 95.548L21.8315 103.166L19.39 110.785C21.3316 111.407 23.3462 111.786 25.4037 111.962L26.0836 103.991ZM21.8315 103.166L24.2729 95.548C23.7217 95.3713 22.8703 94.9999 21.6918 94.2837L17.5369 101.12L13.382 107.957C15.3127 109.13 17.3244 110.123 19.39 110.785L21.8315 103.166ZM17.5369 101.12L21.7947 94.3473C21.0582 93.8843 20.3922 93.2963 19.7848 92.5391L13.5445 97.545L7.30412 102.551C8.99524 104.659 10.9908 106.454 13.2791 107.893L17.5369 101.12ZM13.5445 97.545L19.7906 92.5464C18.2893 90.6703 16.934 87.6332 16.257 82.8161L8.33486 83.9295L0.412714 85.0429C1.35087 91.7182 3.46867 97.758 7.29831 102.544L13.5445 97.545ZM8.33486 83.9295L16.257 82.8161C15.8297 79.7757 15.9644 77.3387 16.4444 75.3848L8.67538 73.4764L0.906352 71.5679C-0.148427 75.8617 -0.240707 80.3935 0.412714 85.0429L8.33486 83.9295ZM8.67538 73.4764L16.4204 75.4799C17.048 73.0539 17.7906 71.6979 18.35 70.9937L12.0864 66.017L5.82286 61.0403C3.45349 64.0224 1.92203 67.6392 0.930322 71.4729L8.67538 73.4764ZM12.0864 66.017L18.2882 71.0705C19.2264 69.9192 20.3378 68.9391 21.66 68.1174L17.4372 61.3227L13.2144 54.528C10.4156 56.2674 7.95982 58.4168 5.88466 60.9635L12.0864 66.017ZM17.4372 61.3227L21.7168 68.0817C24.1619 66.5335 26.5503 65.6646 28.9228 65.3312L27.8095 57.4091L26.6961 49.4869C21.8859 50.1629 17.3594 51.9031 13.1575 54.5637L17.4372 61.3227ZM27.8095 57.4091L28.9228 65.3312C33.9675 64.6222 36.4822 64.7338 37.3233 64.9229L39.0786 57.1179L40.8339 49.3128C36.9589 48.4413 31.9608 48.747 26.6961 49.4869L27.8095 57.4091ZM39.0786 57.1179L37.3394 64.9265C37.3234 64.923 37.3047 64.9178 37.2847 64.911C37.2647 64.9042 37.2471 64.897 37.233 64.8903C37.2022 64.876 37.2038 64.8722 37.2387 64.8985L42.0532 58.5094L46.8677 52.1203C45.0851 50.777 43.0537 49.8072 40.8178 49.3092L39.0786 57.1179ZM42.0532 58.5094L37.2387 64.8985C36.6496 64.4546 36.2618 63.9312 36.039 63.4951C35.834 63.0937 35.8137 62.8584 35.8251 62.9393L43.7473 61.8259L51.6694 60.7125C51.2638 57.8267 49.9913 54.4741 46.8677 52.1203L42.0532 58.5094ZM43.7473 61.8259L35.8251 62.9393C35.872 63.2725 35.9056 64.3082 35.5415 66.3476L43.417 67.7536L51.2925 69.1595C51.7963 66.3376 52.0501 63.4215 51.6694 60.7125L43.7473 61.8259ZM43.417 67.7536L35.5194 66.4778C35.4182 67.1046 35.3657 66.7496 35.8427 66.0498C36.1155 65.6494 36.5772 65.1167 37.2897 64.6475C38.0223 64.165 38.8334 63.8737 39.6247 63.7625L40.7381 71.6847L41.8514 79.6068C48.9491 78.6093 50.8339 72.0056 51.3147 69.0293L43.417 67.7536ZM40.7381 71.6847L39.6247 63.7625C40.0261 63.7061 40.3139 63.7012 40.3576 63.7003C40.4419 63.6986 40.4739 63.7005 40.4301 63.6992C40.3418 63.6967 40.1435 63.6873 39.799 63.662C39.1188 63.612 38.1137 63.5186 36.7469 63.3741L35.9056 71.3298L35.0644 79.2854C36.4966 79.4369 37.6966 79.5506 38.6271 79.619C39.142 79.6568 40.6096 79.7814 41.8514 79.6068L40.7381 71.6847ZM35.9056 71.3298L36.7469 63.3741C34.0847 63.0926 31.2347 62.8735 29.1359 63.1685L30.2493 71.0906L31.3627 79.0128C31.1826 79.0381 31.1409 79.0305 31.3087 79.0272C31.4574 79.0242 31.6996 79.0259 32.0543 79.0409C32.7691 79.0711 33.7596 79.1474 35.0644 79.2854L35.9056 71.3298ZM30.2493 71.0906L29.1359 63.1685C24.1074 63.8752 21.0738 67.3825 19.5237 70.7588L26.7941 74.0968L34.0644 77.4348C34.1368 77.2771 34.0216 77.6036 33.5274 78.0335C32.9632 78.5244 32.1918 78.8963 31.3627 79.0128L30.2493 71.0906ZM26.7941 74.0968L19.4636 70.893C17.8402 74.6074 17.8137 78.7172 18.3395 82.4588L26.2617 81.3454L34.1838 80.232C34.0292 79.1317 34.0149 78.3518 34.0526 77.8376C34.0903 77.3242 34.171 77.1941 34.1245 77.3005L26.7941 74.0968ZM26.2617 81.3454L18.3395 82.4588C18.8514 86.1007 19.8928 89.8622 22.0935 92.9249L28.5902 88.2566L35.0869 83.5883C35.0921 83.5955 34.9427 83.3851 34.7457 82.8005C34.5505 82.2209 34.3458 81.3848 34.1838 80.232L26.2617 81.3454ZM28.5902 88.2566L22.1853 93.05C24.4843 96.122 28.4121 98.9454 33.6724 98.2061L32.559 90.284L31.4456 82.3618C32.3256 82.2382 33.2857 82.3943 34.097 82.8087C34.8073 83.1716 35.0655 83.5572 34.9952 83.4632L28.5902 88.2566ZM32.559 90.284L33.6724 98.2061C36.0882 97.8666 38.963 96.6378 41.4787 95.4592L38.0848 88.2148L34.6908 80.9704C33.4886 81.5337 32.5795 81.9191 31.9272 82.1634C31.6045 82.2842 31.393 82.3522 31.2759 82.3861C31.1413 82.425 31.2168 82.394 31.4456 82.3618L32.559 90.284ZM38.0848 88.2148L41.5478 95.4264C42.8406 94.8056 43.7825 94.3729 44.4146 94.1013C44.7353 93.9634 44.903 93.8988 44.9561 93.8795C44.9818 93.8702 44.9234 93.8924 44.8046 93.9273C44.7281 93.9497 44.3835 94.051 43.8912 94.1202L42.7778 86.198L41.6644 78.2759C40.6436 78.4194 39.7699 78.7404 39.49 78.8421C39.0358 79.0072 38.5588 79.2029 38.0973 79.4012C37.1651 79.8018 35.9929 80.3448 34.6218 81.0032L38.0848 88.2148ZM42.7778 86.198L43.8912 94.1202C42.9512 94.2523 41.9779 94.1557 41.0801 93.8397C40.2211 93.5373 39.6362 93.1079 39.305 92.8108C38.7374 92.3015 38.7413 92.0312 39.0541 92.7141L46.3276 89.383L53.6011 86.0519C52.8571 84.4274 51.741 82.4726 49.9901 80.9016C48.0324 79.1451 45.1299 77.7888 41.6644 78.2759L42.7778 86.198ZM46.3276 89.383L39.1084 92.8303C40.067 94.8376 40.3242 95.8713 40.3657 96.1668L48.2878 95.0534L56.21 93.94C55.8358 91.2778 54.7862 88.5313 53.5467 85.9357L46.3276 89.383ZM48.2878 95.0534L40.3657 96.1668C40.3527 96.0744 40.3208 95.7331 40.4392 95.2383C40.5634 94.7188 40.8063 94.2295 41.1169 93.8367L47.3923 98.7984L53.6678 103.76C56.0368 100.764 56.672 97.2272 56.21 93.94L48.2878 95.0534ZM47.3923 98.7984L41.1225 93.8296C41.3207 93.5795 41.4615 93.4917 41.4209 93.5193C41.376 93.5499 41.1894 93.6667 40.792 93.8275L43.7935 101.243L46.7951 108.659C49.1981 107.686 51.7469 106.184 53.6621 103.767L47.3923 98.7984ZM64.6872 98.5006L65.4589 90.5379L64.6872 98.5006ZM58.0665 96.4581L61.9291 89.4524L61.873 89.4214L61.8164 89.3914L58.0665 96.4581ZM53.9624 66.3361L48.3711 60.6144L48.3595 60.6258L48.3478 60.6373L53.9624 66.3361ZM74.1067 59.7566L74.0886 67.7565L74.1822 67.7568L74.2758 67.7548L74.1067 59.7566ZM79.6986 60.4571L77.6666 68.1948L77.6981 68.203L77.7296 68.211L79.6986 60.4571ZM84.5715 62.9391L79.2171 68.8831L79.2725 68.933L79.3288 68.9818L84.5715 62.9391ZM88.1261 67.9976L80.886 71.4008L80.8949 71.4197L80.9039 71.4386L88.1261 67.9976ZM86.9418 91.3013L93.0221 96.5003L93.039 96.4805L93.0557 96.4607L86.9418 91.3013ZM69.0235 86.1287L61.4596 88.7337L69.0235 86.1287ZM70.2938 88.7292L65.4793 95.1183L65.692 95.2786L65.915 95.4244L70.2938 88.7292ZM72.8289 88.3729L66.7742 83.144L66.6001 83.3456L66.4398 83.5584L72.8289 88.3729ZM73.3332 85.523L65.3442 85.1038L65.3385 85.2113L65.3358 85.3188L73.3332 85.523ZM72.0369 74.4597L64.2063 76.0976L64.2362 76.2406L64.2713 76.3824L72.0369 74.4597ZM71.2469 71.5978L63.6656 74.1521L63.7418 74.3782L63.8313 74.5994L71.2469 71.5978ZM70.4538 70.0936L76.4278 64.7727L76.3812 64.7203L76.3336 64.6688L70.4538 70.0936ZM67.7474 70.1508L73.8021 75.3796L73.9762 75.178L74.1365 74.9653L67.7474 70.1508ZM67.1887 73.073L75.1777 73.4921L75.1788 73.4719L75.1797 73.4516L67.1887 73.073ZM72.9786 98.1755L71.8652 90.2533C69.1188 90.6393 67.0149 90.6887 65.4589 90.5379L64.6872 98.5006L63.9154 106.463C67.077 106.77 70.5007 106.602 74.092 106.098L72.9786 98.1755ZM64.6872 98.5006L65.4589 90.5379C64.1738 90.4133 63.0201 90.0539 61.9291 89.4524L58.0665 96.4581L54.2039 103.464C57.2229 105.128 60.483 106.131 63.9154 106.463L64.6872 98.5006ZM58.0665 96.4581L61.8164 89.3914C60.9395 88.9261 58.9599 87.1796 58.0302 80.5645L50.108 81.6779L42.1859 82.7913C43.3939 91.3866 46.7199 99.4937 54.3166 103.525L58.0665 96.4581ZM50.108 81.6779L58.0302 80.5645C57.2883 75.2857 58.4905 73.1053 59.5769 72.035L53.9624 66.3361L48.3478 60.6373C42.3949 66.5021 41.0276 74.5496 42.1859 82.7913L50.108 81.6779ZM53.9624 66.3361L59.5536 72.0578C61.3281 70.3238 64.1523 68.8464 68.7656 68.1981L67.6522 60.2759L66.5388 52.3538C59.4907 53.3443 53.1883 55.9071 48.3711 60.6144L53.9624 66.3361ZM67.6522 60.2759L68.7656 68.1981C71.0165 67.8817 72.7709 67.7536 74.0886 67.7565L74.1067 59.7566L74.1249 51.7566C71.8221 51.7514 69.2735 51.9694 66.5388 52.3538L67.6522 60.2759ZM74.1067 59.7566L74.2758 67.7548C75.2664 67.7338 76.3885 67.8591 77.6666 68.1948L79.6986 60.4571L81.7307 52.7195C79.1614 52.0448 76.5555 51.703 73.9376 51.7584L74.1067 59.7566ZM79.6986 60.4571L77.7296 68.211C78.6571 68.4466 79.055 68.7371 79.2171 68.8831L84.5715 62.9391L89.9259 56.9952C87.5227 54.8303 84.6721 53.4662 81.6677 52.7033L79.6986 60.4571ZM84.5715 62.9391L79.3288 68.9818C79.5451 69.1695 80.1386 69.8107 80.886 71.4008L88.1261 67.9976L95.3661 64.5945C94.0239 61.7389 92.2476 59.0077 89.8142 56.8964L84.5715 62.9391ZM88.1261 67.9976L80.9039 71.4386C81.4997 72.689 82.0639 74.5279 82.4304 77.1353L90.3525 76.0219L98.2747 74.9085C97.7504 71.1781 96.8304 67.6676 95.3483 64.5567L88.1261 67.9976ZM90.3525 76.0219L82.4304 77.1353C83.1223 82.0584 82.1088 84.6239 80.8279 86.1418L86.9418 91.3013L93.0557 96.4607C98.1276 90.4506 99.3879 82.8298 98.2747 74.9085L90.3525 76.0219ZM86.9418 91.3013L80.8615 86.1022C79.2545 87.9816 76.5853 89.5899 71.8652 90.2533L72.9786 98.1755L74.092 106.098C81.6248 105.039 88.2644 102.064 93.0221 96.5003L86.9418 91.3013ZM69.0235 86.1287L61.4596 88.7337C61.7642 89.6182 62.1194 90.5488 62.535 91.3997C62.7631 91.8667 63.6455 93.7364 65.4793 95.1183L70.2938 88.7292L75.1083 82.3401C75.6005 82.711 75.9489 83.0702 76.1662 83.317C76.3899 83.5708 76.5473 83.7884 76.6443 83.9314C76.7442 84.0785 76.8115 84.1932 76.8487 84.2593C76.887 84.3273 76.9076 84.3692 76.9115 84.3771C76.9167 84.3878 76.8866 84.3264 76.8234 84.1675C76.7622 84.0136 76.6834 83.8021 76.5875 83.5236L69.0235 86.1287ZM70.2938 88.7292L65.915 95.4244C68.1265 96.8708 70.5755 97.2206 72.7371 96.9168L71.6237 88.9947L70.5103 81.0725C71.0312 80.9993 71.7077 80.9829 72.4772 81.1366C73.2614 81.2931 74.0099 81.6005 74.6727 82.034L70.2938 88.7292ZM71.6237 88.9947L72.7371 96.9168C74.7039 96.6404 77.3242 95.7006 79.218 93.1874L72.8289 88.3729L66.4398 83.5584C67.8253 81.7198 69.642 81.1946 70.5103 81.0725L71.6237 88.9947ZM72.8289 88.3729L78.8836 93.6017C80.5594 91.6613 80.9443 89.4222 81.0549 88.7969C81.2375 87.7652 81.3059 86.6941 81.3306 85.7271L73.3332 85.523L65.3358 85.3188C65.3207 85.9085 65.2852 86.0908 65.2997 86.0091C65.3077 85.964 65.3558 85.6937 65.4982 85.2972C65.5726 85.0901 65.6922 84.7937 65.8775 84.4467C66.0606 84.1041 66.346 83.64 66.7742 83.144L72.8289 88.3729ZM73.3332 85.523L81.3222 85.9422C81.4404 83.6896 81.2593 81.2185 80.8973 78.6433L72.9752 79.7567L65.053 80.8701C65.3324 82.858 65.39 84.2311 65.3442 85.1038L73.3332 85.523ZM72.9752 79.7567L80.8973 78.6433C80.5596 76.2405 80.2018 74.1505 79.8024 72.5371L72.0369 74.4597L64.2713 76.3824C64.4698 77.184 64.7376 78.6252 65.053 80.8701L72.9752 79.7567ZM72.0369 74.4597L79.8674 72.8218C79.5728 71.4133 79.1946 69.9109 78.6625 68.5963L71.2469 71.5978L63.8313 74.5994C63.8122 74.5521 63.8509 74.6418 63.9308 74.9312C64.0068 75.2067 64.1 75.5893 64.2063 76.0976L72.0369 74.4597ZM71.2469 71.5978L78.8282 69.0435C78.4197 67.8312 77.719 66.2224 76.4278 64.7727L70.4538 70.0936L64.4798 75.4144C64.1181 75.0083 63.9095 74.6563 63.8056 74.459C63.6999 74.2586 63.662 74.1415 63.6656 74.1521L71.2469 71.5978ZM70.4538 70.0936L76.3336 64.6688C74.5333 62.7175 71.5584 61.0195 67.8303 61.5435L68.9437 69.4656L70.0571 77.3877C68.94 77.5448 67.7559 77.4066 66.6615 76.9515C65.6244 76.5202 64.9473 75.9229 64.574 75.5183L70.4538 70.0936ZM68.9437 69.4656L67.8303 61.5435C65.3637 61.8901 63.0092 63.1455 61.3583 65.3362L67.7474 70.1508L74.1365 74.9653C73.6633 75.5933 73.0282 76.1811 72.2403 76.6324C71.4612 77.0786 70.6966 77.2979 70.0571 77.3877L68.9437 69.4656ZM67.7474 70.1508L61.6927 64.9219C60.0437 66.8314 59.6405 69.0468 59.5278 69.6363C59.334 70.6497 59.2441 71.715 59.1977 72.6943L67.1887 73.073L75.1797 73.4516C75.2094 72.826 75.2506 72.6019 75.2431 72.6412C75.2387 72.6639 75.1929 72.9089 75.0574 73.2789C74.9865 73.4724 74.8705 73.7566 74.6902 74.0925C74.513 74.4227 74.2306 74.8835 73.8021 75.3796L67.7474 70.1508ZM67.1887 73.073L59.1997 72.6538C59.0773 74.9855 59.3193 77.7807 59.7403 80.7765L67.6625 79.6632L75.5846 78.5498C75.21 75.8839 75.1361 74.2856 75.1777 73.4921L67.1887 73.073ZM67.6625 79.6632L59.7403 80.7765C60.1614 83.7724 60.6992 86.526 61.4596 88.7337L69.0235 86.1287L76.5875 83.5236C76.3288 82.7724 75.9593 81.2157 75.5846 78.5498L67.6625 79.6632ZM110.21 91.9735L112.147 99.7355L112.214 99.7187L112.281 99.7008L110.21 91.9735ZM97.7973 93.7826L96.2105 101.624L96.4786 101.678L96.7497 101.714L97.7973 93.7826ZM93.5531 45.6489L89.7696 38.6001L89.7492 38.611L89.7289 38.6221L93.5531 45.6489ZM107.338 45.3272L99.4163 46.4406L105.74 91.4383L113.662 90.325L121.585 89.2116L115.261 44.2138L107.338 45.3272ZM113.662 90.325L105.74 91.4383C105.221 87.7418 107.39 85.4339 108.021 84.8443C108.761 84.1527 109.399 83.8675 109.401 83.8665C109.505 83.8171 109.197 83.9626 108.14 84.2461L110.21 91.9735L112.281 99.7008C113.59 99.35 115.042 98.9037 116.296 98.3048C116.873 98.0291 117.934 97.4797 118.946 96.5346C119.848 95.6914 122.137 93.1405 121.585 89.2116L113.662 90.325ZM110.21 91.9735L108.274 84.2114C106.189 84.7315 103.99 85.1568 101.672 85.4826L102.785 93.4047L103.899 101.327C106.735 100.928 109.486 100.399 112.147 99.7355L110.21 91.9735ZM102.785 93.4047L101.672 85.4826C100.494 85.6481 99.6294 85.7441 99.0326 85.7893C98.7363 85.8117 98.5614 85.8173 98.4831 85.818C98.3742 85.819 98.5307 85.81 98.8448 85.8515L97.7973 93.7826L96.7497 101.714C98.0132 101.881 99.3202 101.813 100.241 101.744C101.307 101.663 102.541 101.518 103.899 101.327L102.785 93.4047ZM97.7973 93.7826L99.384 85.9416C99.8105 86.0278 100.924 86.3155 102.082 87.2928C103.41 88.4147 104.243 89.9845 104.473 91.6165L96.5506 92.7299L88.6285 93.8433C88.935 96.0245 90.0146 98.0444 91.7587 99.5172C93.3316 100.845 95.0302 101.385 96.2105 101.624L97.7973 93.7826ZM96.5506 92.7299L104.473 91.6165L98.3091 47.7595L90.3869 48.8729L82.4648 49.9863L88.6285 93.8433L96.5506 92.7299ZM90.3869 48.8729L98.3091 47.7595C98.7562 50.9407 96.9458 52.8148 96.7884 52.9751C96.5091 53.2595 96.5407 53.1309 97.3772 52.6757L93.5531 45.6489L89.7289 38.6221C88.324 39.3866 86.7073 40.4053 85.3726 41.7644C84.1599 42.9993 81.8871 45.8755 82.4648 49.9863L90.3869 48.8729ZM93.5531 45.6489L97.3365 52.6976C98.732 51.9486 100.334 51.4173 102.211 51.1534L101.098 43.2313L99.9846 35.3091C96.3696 35.8172 92.9414 36.8976 89.7696 38.6001L93.5531 45.6489ZM101.098 43.2313L102.211 51.1534C102.874 51.0602 103.277 51.0474 103.47 51.0524C103.685 51.0579 103.479 51.0812 103.026 50.9292C102.541 50.7661 101.65 50.3552 100.821 49.4237C99.9511 48.4473 99.5428 47.3409 99.4163 46.4406L107.338 45.3272L115.261 44.2138C114.997 42.3416 114.227 40.4191 112.769 38.7821C111.351 37.1901 109.646 36.2743 108.121 35.7618C105.309 34.8175 102.333 34.9791 99.9846 35.3091L101.098 43.2313ZM131.749 88.9464L133.685 96.7085L133.752 96.6917L133.819 96.6738L131.749 88.9464ZM119.336 90.7556L117.749 98.5967L118.017 98.6509L118.288 98.6867L119.336 90.7556ZM115.091 42.6218L111.308 35.5731L111.288 35.584L111.267 35.595L115.091 42.6218ZM128.877 42.3002L120.955 43.4135L127.279 88.4113L135.201 87.2979L143.123 86.1846L136.799 41.1868L128.877 42.3002ZM135.201 87.2979L127.279 88.4113C126.759 84.7148 128.929 82.4069 129.56 81.8172C130.3 81.1257 130.937 80.8405 130.939 80.8395C131.043 80.7901 130.736 80.9356 129.678 81.2191L131.749 88.9464L133.819 96.6738C135.128 96.323 136.58 95.8767 137.834 95.2778C138.411 95.0021 139.472 94.4527 140.484 93.5076C141.386 92.6644 143.675 90.1135 143.123 86.1846L135.201 87.2979ZM131.749 88.9464L129.812 81.1844C127.727 81.7045 125.528 82.1298 123.21 82.4556L124.324 90.3777L125.437 98.2999C128.274 97.9012 131.024 97.3724 133.685 96.7085L131.749 88.9464ZM124.324 90.3777L123.21 82.4556C122.033 82.6211 121.168 82.7171 120.571 82.7623C120.275 82.7847 120.1 82.7903 120.021 82.791C119.913 82.792 120.069 82.783 120.383 82.8245L119.336 90.7556L118.288 98.6867C119.552 98.8536 120.859 98.7863 121.78 98.7166C122.845 98.6358 124.079 98.4907 125.437 98.2999L124.324 90.3777ZM119.336 90.7556L120.922 82.9145C121.349 83.0008 122.463 83.2885 123.62 84.2658C124.949 85.3877 125.782 86.9575 126.011 88.5895L118.089 89.7029L110.167 90.8162C110.473 92.9974 111.553 95.0173 113.297 96.4902C114.87 97.8184 116.569 98.3578 117.749 98.5967L119.336 90.7556ZM118.089 89.7029L126.011 88.5895L119.847 44.7325L111.925 45.8459L104.003 46.9592L110.167 90.8162L118.089 89.7029ZM111.925 45.8459L119.847 44.7325C120.295 47.9137 118.484 49.7878 118.327 49.9481C118.047 50.2324 118.079 50.1039 118.916 49.6486L115.091 42.6218L111.267 35.595C109.862 36.3596 108.246 37.3783 106.911 38.7373C105.698 39.9723 103.425 42.8485 104.003 46.9592L111.925 45.8459ZM115.091 42.6218L118.875 49.6706C120.27 48.9216 121.872 48.3903 123.75 48.1264L122.636 40.2043L121.523 32.2821C117.908 32.7902 114.48 33.8706 111.308 35.5731L115.091 42.6218ZM122.636 40.2043L123.75 48.1264C124.413 48.0332 124.816 48.0204 125.009 48.0254C125.224 48.0308 125.017 48.0542 124.565 47.9022C124.079 47.7391 123.189 47.3282 122.359 46.3967C121.489 45.4203 121.081 44.3139 120.955 43.4135L128.877 42.3002L136.799 41.1868C136.536 39.3146 135.765 37.3921 134.307 35.7551C132.889 34.1631 131.185 33.2473 129.659 32.7348C126.847 31.7904 123.871 31.9521 121.523 32.2821L122.636 40.2043ZM142.517 85.6234L138.207 92.363L138.266 92.4011L138.326 92.4381L142.517 85.6234ZM139.7 82.594L132.857 86.7381L132.906 86.8198L132.958 86.9003L139.7 82.594ZM138.683 72.1378L131.451 68.7176L131.416 68.7907L131.383 68.8645L138.683 72.1378ZM146.165 65.5928L143.083 58.2102L143.023 58.2354L142.963 58.2615L146.165 65.5928ZM157.168 62.9478L158.281 70.8699L166.203 69.7565L165.09 61.8344L157.168 62.9478ZM154.877 59.5213L158.036 52.1717L157.972 52.1439L157.907 52.1173L154.877 59.5213ZM148.846 60.7566L145.044 53.7179L145.01 53.7361L144.977 53.7546L148.846 60.7566ZM145.474 62.9755L150.341 69.3244L150.444 69.2457L150.544 69.1637L145.474 62.9755ZM140.101 61.5333L134.05 66.7665L134.075 66.7957L134.101 66.8246L140.101 61.5333ZM139.403 53.8112L134.525 47.471L134.525 47.471L139.403 53.8112ZM145.656 50.4765L148.684 57.8815L148.722 57.8659L148.76 57.85L145.656 50.4765ZM160.931 47.8774L160.171 55.8412L160.271 55.8507L160.371 55.8578L160.931 47.8774ZM165.97 48.7849L163.32 56.333L163.371 56.3511L163.423 56.3686L165.97 48.7849ZM169.495 50.8746L164.005 56.6929L164.074 56.7586L164.146 56.8226L169.495 50.8746ZM171.861 53.4504L165.273 57.9892L165.362 58.1183L165.456 58.2438L171.861 53.4504ZM173.338 56.6035L165.683 58.9266L165.72 59.049L165.761 59.1702L173.338 56.6035ZM174.011 83.0068L176.009 90.7534L176.071 90.7373L176.134 90.7201L174.011 83.0068ZM163.01 84.7468L162.549 92.7334L162.597 92.7362L162.645 92.7384L163.01 84.7468ZM161.807 84.4635L167.477 78.8195L161.807 84.4635ZM161.366 83.6207L153.675 85.8244L153.739 86.0473L153.816 86.2661L161.366 83.6207ZM160.351 80.0795L168.041 77.8758L166.125 71.1893L159.238 72.1573L160.351 80.0795ZM159.844 80.1507L158.731 72.2286L152.709 73.0749L151.913 79.1032L159.844 80.1507ZM157.935 67.9457L165.857 66.8323L164.743 58.9101L156.821 60.0235L157.935 67.9457ZM155.469 69.7141L148.407 65.9549L148.407 65.9549L155.469 69.7141ZM158.603 76.3827L164.604 81.6731L164.631 81.6424L164.658 81.6116L158.603 76.3827ZM151.963 87.0749L150.85 79.1528C148.204 79.5246 147.098 79.0486 146.707 78.8088L142.517 85.6234L138.326 92.4381C142.841 95.2143 148.032 95.706 153.076 94.9971L151.963 87.0749ZM142.517 85.6234L146.827 78.8839C146.985 78.9845 147.011 79.0329 146.926 78.9415C146.839 78.8488 146.672 78.6476 146.442 78.2877L139.7 82.594L132.958 86.9003C134.237 88.9034 135.931 90.9074 138.207 92.363L142.517 85.6234ZM139.7 82.594L146.543 78.45C146.378 78.1769 146.104 77.5744 145.941 76.4173L138.019 77.5307L130.097 78.6441C130.492 81.4586 131.339 84.2317 132.857 86.7381L139.7 82.594ZM138.019 77.5307L145.941 76.4173C145.842 75.7137 145.958 75.4651 145.982 75.4111L138.683 72.1378L131.383 68.8645C129.964 72.0294 129.637 75.376 130.097 78.6441L138.019 77.5307ZM138.683 72.1378L145.915 75.558C146.225 74.9022 146.511 74.6118 146.689 74.469L141.688 68.2255L136.686 61.9821C134.385 63.8248 132.669 66.1427 131.451 68.7176L138.683 72.1378ZM141.688 68.2255L146.689 74.469C147.283 73.9937 148.142 73.4588 149.367 72.9241L146.165 65.5928L142.963 58.2615C140.696 59.2515 138.571 60.4718 136.686 61.9821L141.688 68.2255ZM146.165 65.5928L149.246 72.9755C151.17 72.1725 153.465 71.5468 156.19 71.1638L155.076 63.2417L153.963 55.3196C150.097 55.8629 146.45 56.8046 143.083 58.2102L146.165 65.5928ZM155.076 63.2417L156.19 71.1638L158.281 70.8699L157.168 62.9478L156.054 55.0256L153.963 55.3196L155.076 63.2417ZM157.168 62.9478L165.09 61.8344C164.57 58.1374 162.555 54.1142 158.036 52.1717L154.877 59.5213L151.717 66.8709C150.965 66.5478 150.255 65.9752 149.762 65.2387C149.317 64.5736 149.247 64.0721 149.246 64.0612L157.168 62.9478ZM154.877 59.5213L157.907 52.1173C155.372 51.0801 152.852 51.2748 151.356 51.4851L152.469 59.4072L153.583 67.3294C153.767 67.3035 153.713 67.3263 153.485 67.3154C153.277 67.3056 152.657 67.2568 151.847 66.9253L154.877 59.5213ZM152.469 59.4072L151.356 51.4851C149.027 51.8124 146.869 52.7318 145.044 53.7179L148.846 60.7566L152.648 67.7954C153.096 67.5535 153.407 67.4182 153.595 67.3484C153.789 67.2762 153.774 67.3025 153.583 67.3294L152.469 59.4072ZM148.846 60.7566L144.977 53.7546C143.33 54.6643 141.771 55.6666 140.404 56.7873L145.474 62.9755L150.544 69.1637C150.953 68.8283 151.643 68.3513 152.715 67.7587L148.846 60.7566ZM145.474 62.9755L140.606 56.6266C140.284 56.8734 140.183 56.9299 140.25 56.8897C140.287 56.8677 140.462 56.7645 140.746 56.6414C140.893 56.5774 141.108 56.4914 141.38 56.4065C141.646 56.3234 142.032 56.2208 142.511 56.1534L143.625 64.0755L144.738 71.9977C146.591 71.7373 147.994 70.9 148.431 70.6401C149.115 70.2332 149.769 69.7634 150.341 69.3244L145.474 62.9755ZM143.625 64.0755L142.511 56.1534C144.049 55.9373 145.237 56.2758 145.836 56.5051C146.441 56.7365 146.79 56.9862 146.854 57.0322C146.961 57.1096 146.723 56.947 146.101 56.2419L140.101 61.5333L134.101 66.8246C135.068 67.9213 136.211 69.0833 137.493 70.0081C138.437 70.6894 141.133 72.5044 144.738 71.9977L143.625 64.0755ZM140.101 61.5333L146.152 56.3C145.667 55.7394 145.421 55.3482 145.309 55.133C145.2 54.9252 145.251 54.9504 145.283 55.1822L137.361 56.2956L129.439 57.409C129.963 61.1356 131.89 64.2692 134.05 66.7665L140.101 61.5333ZM137.361 56.2956L145.283 55.1822C145.531 56.9475 145.088 58.3228 144.773 59.0419C144.458 59.761 144.11 60.2017 143.994 60.3425C143.775 60.6083 143.761 60.5521 144.282 60.1514L139.403 53.8112L134.525 47.471C133.607 48.1772 132.533 49.0886 131.634 50.1826C131.057 50.8844 128.9 53.5738 129.439 57.409L137.361 56.2956ZM139.403 53.8112L144.282 60.1514C144.913 59.6657 146.258 58.8731 148.684 57.8815L145.656 50.4765L142.628 43.0715C139.594 44.3122 136.771 45.7427 134.525 47.471L139.403 53.8112ZM145.656 50.4765L148.76 57.85C150.951 56.9275 153.019 56.357 154.975 56.0821L153.861 48.16L152.748 40.2378C149.296 40.723 145.893 41.6969 142.552 43.103L145.656 50.4765ZM153.861 48.16L154.975 56.0821C157.261 55.7609 158.961 55.7258 160.171 55.8412L160.931 47.8774L161.691 39.9135C158.883 39.6457 155.87 39.799 152.748 40.2378L153.861 48.16ZM160.931 47.8774L160.371 55.8578C162.005 55.9724 162.916 56.1912 163.32 56.333L165.97 48.7849L168.621 41.2367C166.396 40.4554 163.947 40.0692 161.491 39.897L160.931 47.8774ZM165.97 48.7849L163.423 56.3686C163.736 56.4736 163.893 56.5877 164.005 56.6929L169.495 50.8746L174.986 45.0563C173.111 43.2864 170.918 42.0074 168.517 41.2012L165.97 48.7849ZM169.495 50.8746L164.146 56.8226C164.908 57.508 165.21 57.8972 165.273 57.9892L171.861 53.4504L178.449 48.9117C177.43 47.4324 176.155 46.1044 174.845 44.9266L169.495 50.8746ZM171.861 53.4504L165.456 58.2438C165.366 58.1234 165.366 58.0949 165.423 58.2174C165.48 58.3383 165.573 58.565 165.683 58.9266L173.338 56.6035L180.993 54.2805C180.426 52.4108 179.587 50.4222 178.266 48.657L171.861 53.4504ZM173.338 56.6035L165.761 59.1702C166.064 60.0648 166.392 61.4413 166.67 63.4219L174.592 62.3085L182.514 61.1951C182.151 58.6126 181.643 56.1857 180.915 54.0369L173.338 56.6035ZM174.592 62.3085L166.67 63.4219L169.351 82.4984L177.273 81.385L185.195 80.2717L182.514 61.1951L174.592 62.3085ZM177.273 81.385L169.351 82.4984C168.859 78.9969 170.799 76.7301 171.496 76.0446C172.245 75.3081 172.909 74.9936 172.945 74.9755C173.108 74.8948 172.875 75.0222 171.889 75.2935L174.011 83.0068L176.134 90.7201C177.388 90.375 178.819 89.9239 180.068 89.3026C180.648 89.0142 181.712 88.4389 182.716 87.451C183.669 86.5143 185.72 84.0056 185.195 80.2717L177.273 81.385ZM174.011 83.0068L172.014 75.2602C170.099 75.7538 168.173 76.1365 166.233 76.4091L167.347 84.3312L168.46 92.2534C170.999 91.8965 173.516 91.3962 176.009 90.7534L174.011 83.0068ZM167.347 84.3312L166.233 76.4091C165.198 76.5547 164.414 76.6493 163.852 76.7032C163.572 76.73 163.385 76.743 163.273 76.7486C163.14 76.7552 163.198 76.747 163.376 76.7551L163.01 84.7468L162.645 92.7384C164.217 92.8103 166.423 92.5396 168.46 92.2534L167.347 84.3312ZM163.01 84.7468L163.472 76.7601C163.375 76.7545 163.623 76.759 164.055 76.8607C164.279 76.9135 164.702 77.0267 165.222 77.2582C165.709 77.475 166.595 77.9333 167.477 78.8195L161.807 84.4635L156.138 90.1074C157.862 91.8393 159.864 92.3114 160.387 92.4347C161.22 92.6308 161.994 92.7014 162.549 92.7334L163.01 84.7468ZM161.807 84.4635L167.477 78.8195C168.171 79.5171 168.534 80.1664 168.67 80.4264C168.829 80.7299 168.903 80.9385 168.916 80.9753L161.366 83.6207L153.816 86.2661C154.027 86.8694 154.649 88.6125 156.138 90.1074L161.807 84.4635ZM161.366 83.6207L169.056 81.417L168.041 77.8758L160.351 80.0795L152.66 82.2831L153.675 85.8244L161.366 83.6207ZM160.351 80.0795L159.238 72.1573L158.731 72.2286L159.844 80.1507L160.957 88.0729L161.464 88.0016L160.351 80.0795ZM159.844 80.1507L151.913 79.1032C151.884 79.3242 151.852 79.3294 151.911 79.2106C151.978 79.0776 152.086 78.9371 152.202 78.8352C152.418 78.6452 152.219 78.9603 150.85 79.1528L151.963 87.0749L153.076 94.9971C156.438 94.5246 159.919 93.353 162.763 90.855C165.734 88.244 167.298 84.8084 167.775 81.1983L159.844 80.1507ZM158.977 75.3608L166.899 74.2474L165.857 66.8323L157.935 67.9457L150.013 69.059L151.055 76.4742L158.977 75.3608ZM157.935 67.9457L156.821 60.0235C153.053 60.5531 150.09 62.7941 148.407 65.9549L155.469 69.7141L162.531 73.4732C162.311 73.8867 161.884 74.4831 161.157 75.0046C160.418 75.5344 159.653 75.7828 159.048 75.8678L157.935 67.9457ZM155.469 69.7141L148.407 65.9549C147.043 68.5181 146.584 71.334 146.978 74.1388L154.9 73.0254L162.822 71.912C162.847 72.0852 162.857 72.3479 162.802 72.6644C162.747 72.9832 162.644 73.2604 162.531 73.4732L155.469 69.7141ZM154.9 73.0254L146.978 74.1388C147.223 75.8854 147.723 78.2761 149.065 80.3876C149.794 81.5342 150.955 82.8875 152.734 83.8434C154.61 84.8517 156.635 85.1257 158.503 84.8632L157.389 76.9411L156.276 69.019C157.51 68.8455 158.956 69.0232 160.308 69.7497C161.562 70.4238 162.254 71.31 162.568 71.804C163.08 72.6103 162.969 72.9541 162.822 71.912L154.9 73.0254ZM157.389 76.9411L158.503 84.8632C160.176 84.6281 162.649 83.891 164.604 81.6731L158.603 76.3827L152.602 71.0923C154.037 69.4646 155.702 69.0997 156.276 69.019L157.389 76.9411ZM158.603 76.3827L164.658 81.6116C165.938 80.1291 167.364 77.5591 166.899 74.2474L158.977 75.3608L151.055 76.4742C150.684 73.8385 151.861 71.9498 152.549 71.1538L158.603 76.3827ZM185.324 81.1584L184.449 89.1104L184.49 89.1149L184.531 89.119L185.324 81.1584ZM179.173 35.5546L175.468 28.4644L179.173 35.5546ZM193.839 42.4123L201.837 42.56L201.849 41.9264L201.761 41.2989L193.839 42.4123ZM193.756 46.8833L185.757 46.7356L185.584 56.1104L194.869 54.8055L193.756 46.8833ZM194.263 46.8121L195.376 54.7342L199.616 54.1383L201.472 50.2801L194.263 46.8121ZM195.461 45.2218L189.765 39.6051L189.682 39.6891L189.602 39.7754L195.461 45.2218ZM197.484 43.5158L202.022 50.1036L202.082 50.0627L202.14 50.0208L197.484 43.5158ZM208.811 41.3421L206.47 48.9918L206.621 49.0381L206.774 49.0784L208.811 41.3421ZM212.229 43.1238L206.802 49.0022L206.948 49.1371L207.101 49.2645L212.229 43.1238ZM214.611 46.279L207.447 49.8404L207.447 49.8405L214.611 46.279ZM211.329 76.7281L215.484 83.5642L211.329 76.7281ZM197.81 71.1311L189.888 72.2445L191.001 80.1666L198.924 79.0532L197.81 71.1311ZM195.076 51.6743L193.962 43.7521L186.04 44.8655L187.154 52.7877L195.076 51.6743ZM185.324 81.1584L186.199 73.2064C185.467 73.1258 185.768 73.0459 186.477 73.4447C186.891 73.6777 187.55 74.1351 188.163 74.9395C188.809 75.788 189.236 76.8061 189.386 77.873L181.464 78.9864L173.542 80.0998C174.054 83.7421 176.383 86.1238 178.631 87.3887C180.626 88.5115 182.774 88.926 184.449 89.1104L185.324 81.1584ZM181.464 78.9864L189.386 77.873L183.739 37.6919L175.817 38.8053L167.895 39.9187L173.542 80.0998L181.464 78.9864ZM175.817 38.8053L183.739 37.6919C183.97 39.3323 183.577 40.7034 183.135 41.6043C182.728 42.434 182.268 42.9021 182.124 43.0419C181.875 43.2836 181.964 43.123 182.879 42.6447L179.173 35.5546L175.468 28.4644C174.015 29.2238 172.361 30.2238 170.992 31.549C169.805 32.6994 167.291 35.6228 167.895 39.9187L175.817 38.8053ZM179.173 35.5546L182.879 42.6447C184.406 41.8464 186.083 41.305 187.959 41.0413L186.845 33.1192L185.732 25.197C182.115 25.7053 178.677 26.7875 175.468 28.4644L179.173 35.5546ZM186.845 33.1192L187.959 41.0413C188.565 40.9561 188.911 40.9496 189.048 40.9541C189.205 40.9593 188.945 40.9738 188.447 40.7967C187.909 40.6051 187.024 40.1591 186.223 39.2224C185.397 38.2559 185.027 37.1942 184.91 36.3641L192.832 35.2507L200.754 34.1373C200.501 32.3354 199.779 30.456 198.385 28.826C197.017 27.2258 195.35 26.2704 193.814 25.7236C190.992 24.7189 188.023 24.875 185.732 25.197L186.845 33.1192ZM192.832 35.2507L184.91 36.3641L185.916 43.5257L193.839 42.4123L201.761 41.2989L200.754 34.1373L192.832 35.2507ZM193.839 42.4123L185.84 42.2646L185.757 46.7356L193.756 46.8833L201.755 47.031L201.837 42.56L193.839 42.4123ZM193.756 46.8833L194.869 54.8055L195.376 54.7342L194.263 46.8121L193.15 38.8899L192.643 38.9612L193.756 46.8833ZM194.263 46.8121L201.472 50.2801C201.363 50.5076 201.265 50.6701 201.208 50.7612C201.148 50.8548 201.109 50.9078 201.102 50.9171C201.093 50.9289 201.153 50.8493 201.321 50.6682L195.461 45.2218L189.602 39.7754C188.856 40.5772 187.788 41.8178 187.054 43.344L194.263 46.8121ZM195.461 45.2218L201.158 50.8385C201.467 50.5252 201.756 50.2869 202.022 50.1036L197.484 43.5158L192.945 36.9279C191.797 37.719 190.738 38.618 189.765 39.6051L195.461 45.2218ZM197.484 43.5158L202.14 50.0208C202.743 49.5894 203.49 49.2638 204.54 49.1162L203.426 41.1941L202.313 33.272C198.884 33.7538 195.669 34.976 192.827 37.0107L197.484 43.5158ZM203.426 41.1941L204.54 49.1162C205.326 49.0058 205.877 48.9823 206.232 48.992C206.595 49.002 206.64 49.0438 206.47 48.9918L208.811 41.3421L211.153 33.6923C208.211 32.7921 205.092 32.8814 202.313 33.272L203.426 41.1941ZM208.811 41.3421L206.774 49.0784C206.958 49.1267 207.023 49.1633 207.007 49.1551C206.999 49.1509 206.974 49.137 206.936 49.1106C206.898 49.084 206.852 49.048 206.802 49.0022L212.229 43.1238L217.655 37.2455C215.642 35.3871 213.269 34.2432 210.848 33.6058L208.811 41.3421ZM212.229 43.1238L207.101 49.2645C207.008 49.1869 207.17 49.2823 207.447 49.8404L214.611 46.279L221.774 42.7176C220.73 40.6177 219.304 38.6097 217.356 36.9832L212.229 43.1238ZM214.611 46.279L207.447 49.8405C208.083 51.1196 208.727 53.1591 209.158 56.2227L217.08 55.1093L225.002 53.9959C224.423 49.8768 223.421 46.0294 221.774 42.7175L214.611 46.279ZM217.08 55.1093L209.158 56.2227C209.938 61.778 209.744 65.1785 209.252 66.9989L216.976 69.0838L224.699 71.1687C226.021 66.2713 225.896 60.3555 225.002 53.9959L217.08 55.1093ZM216.976 69.0838L209.252 66.9989C208.857 68.463 208.199 69.2682 207.173 69.8921L211.329 76.7281L215.484 83.5642C220.174 80.7134 223.281 76.4224 224.699 71.1687L216.976 69.0838ZM211.329 76.7281L207.173 69.8921C205.666 70.8084 202.711 71.8641 197.626 72.5788L198.739 80.501L199.853 88.4231C205.837 87.582 211.276 86.1225 215.484 83.5642L211.329 76.7281ZM198.739 80.501L197.626 72.5788C192.379 73.3162 188.62 73.4472 186.117 73.1978L185.324 81.1584L184.531 89.119C188.845 89.5488 194.029 89.2415 199.853 88.4231L198.739 80.501ZM197.81 71.1311L198.924 79.0532L200.888 78.7771L199.775 70.855L198.661 62.9328L196.697 63.2089L197.81 71.1311ZM199.775 70.855L200.888 78.7771C204.99 78.2007 207.065 75.2109 207.879 73.3917C208.646 71.6777 208.858 69.9393 208.937 68.749C209.105 66.2361 208.835 63.124 208.362 59.7598L200.44 60.8732L192.518 61.9866C192.954 65.087 193.027 66.8707 192.973 67.685C192.941 68.1583 192.901 67.6914 193.275 66.8568C193.484 66.3881 193.94 65.5442 194.841 64.7228C195.823 63.8285 197.139 63.1468 198.661 62.9328L199.775 70.855ZM200.44 60.8732L208.362 59.7598C207.886 56.3709 207.278 53.274 206.401 50.8781C205.985 49.74 205.282 48.1112 204.04 46.668C202.7 45.1129 199.883 42.9201 195.864 43.4849L196.977 51.4071L198.09 59.3292C196.618 59.5362 195.2 59.2671 194.021 58.6999C192.933 58.1766 192.257 57.5053 191.916 57.109C191.31 56.4057 191.215 55.9356 191.375 56.3752C191.653 57.1347 192.08 58.8688 192.518 61.9866L200.44 60.8732ZM196.977 51.4071L195.864 43.4849L193.962 43.7521L195.076 51.6743L196.189 59.5964L198.09 59.3292L196.977 51.4071ZM195.076 51.6743L187.154 52.7877L189.888 72.2445L197.81 71.1311L205.732 70.0177L202.998 50.5609L195.076 51.6743ZM235.57 74.4845L236.342 66.5218L235.57 74.4845ZM228.95 72.4421L232.812 65.4363L232.756 65.4054L232.7 65.3754L228.95 72.4421ZM224.846 42.3201L219.254 36.5984L219.243 36.6098L219.231 36.6212L224.846 42.3201ZM244.99 35.7405L244.972 43.7405L245.065 43.7407L245.159 43.7387L244.99 35.7405ZM250.582 36.4411L248.55 44.1787L248.581 44.187L248.613 44.195L250.582 36.4411ZM255.455 38.9231L250.1 44.867L250.156 44.9169L250.212 44.9658L255.455 38.9231ZM259.009 43.9816L251.769 47.3848L251.778 47.4037L251.787 47.4225L259.009 43.9816ZM257.825 67.2852L263.905 72.4842L263.922 72.4645L263.939 72.4446L257.825 67.2852ZM239.907 62.1126L232.343 64.7176L239.907 62.1126ZM241.177 64.7131L236.362 71.1022L236.575 71.2625L236.798 71.4083L241.177 64.7131ZM243.712 64.3568L237.657 59.128L237.483 59.3296L237.323 59.5423L243.712 64.3568ZM244.216 61.5069L236.227 61.0877L236.222 61.1952L236.219 61.3028L244.216 61.5069ZM242.92 50.4437L235.089 52.0816L235.119 52.2245L235.154 52.3663L242.92 50.4437ZM242.13 47.5818L234.549 50.136L234.625 50.3621L234.714 50.5833L242.13 47.5818ZM241.337 46.0775L247.311 40.7567L247.264 40.7043L247.217 40.6527L241.337 46.0775ZM238.631 46.1347L244.685 51.3636L244.859 51.162L245.02 50.9492L238.631 46.1347ZM238.072 49.0569L246.061 49.4761L246.062 49.4558L246.063 49.4356L238.072 49.0569ZM243.862 74.1594L242.748 66.2373C240.002 66.6232 237.898 66.6726 236.342 66.5218L235.57 74.4845L234.799 82.4472C237.96 82.7536 241.384 82.5863 244.975 82.0815L243.862 74.1594ZM235.57 74.4845L236.342 66.5218C235.057 66.3973 233.903 66.0378 232.812 65.4363L228.95 72.4421L225.087 79.4478C228.106 81.1123 231.366 82.1145 234.799 82.4472L235.57 74.4845ZM228.95 72.4421L232.7 65.3754C231.823 64.91 229.843 63.1636 228.913 56.5484L220.991 57.6618L213.069 58.7752C214.277 67.3706 217.603 75.4776 225.2 79.5088L228.95 72.4421ZM220.991 57.6618L228.913 56.5484C228.171 51.2696 229.374 49.0893 230.46 48.0189L224.846 42.3201L219.231 36.6212C213.278 42.4861 211.911 50.5336 213.069 58.7752L220.991 57.6618ZM224.846 42.3201L230.437 48.0418C232.211 46.3078 235.035 44.8304 239.649 44.182L238.535 36.2599L237.422 28.3377C230.374 29.3283 224.071 31.891 219.254 36.5984L224.846 42.3201ZM238.535 36.2599L239.649 44.182C241.9 43.8656 243.654 43.7375 244.972 43.7405L244.99 35.7405L245.008 27.7405C242.705 27.7353 240.157 27.9534 237.422 28.3377L238.535 36.2599ZM244.99 35.7405L245.159 43.7387C246.15 43.7178 247.272 43.843 248.55 44.1787L250.582 36.4411L252.614 28.7034C250.045 28.0287 247.439 27.687 244.821 27.7423L244.99 35.7405ZM250.582 36.4411L248.613 44.195C249.54 44.4305 249.938 44.721 250.1 44.867L255.455 38.9231L260.809 32.9791C258.406 30.8143 255.555 29.4501 252.551 28.6872L250.582 36.4411ZM255.455 38.9231L250.212 44.9658C250.428 45.1534 251.022 45.7946 251.769 47.3848L259.009 43.9816L266.249 40.5784C264.907 37.7228 263.131 34.9916 260.697 32.8804L255.455 38.9231ZM259.009 43.9816L251.787 47.4225C252.383 48.6729 252.947 50.5119 253.314 53.1192L261.236 52.0058L269.158 50.8924C268.634 47.1621 267.714 43.6515 266.231 40.5407L259.009 43.9816ZM261.236 52.0058L253.314 53.1192C254.005 58.0423 252.992 60.6078 251.711 62.1258L257.825 67.2852L263.939 72.4446C269.011 66.4345 270.271 58.8137 269.158 50.8924L261.236 52.0058ZM257.825 67.2852L251.745 62.0862C250.138 63.9656 247.468 65.5739 242.748 66.2373L243.862 74.1594L244.975 82.0815C252.508 81.0229 259.148 78.0484 263.905 72.4842L257.825 67.2852ZM239.907 62.1126L232.343 64.7176C232.647 65.6021 233.003 66.5328 233.418 67.3836C233.646 67.8506 234.529 69.7203 236.362 71.1022L241.177 64.7131L245.991 58.324C246.484 58.6949 246.832 59.0542 247.049 59.3009C247.273 59.5548 247.43 59.7723 247.527 59.9154C247.627 60.0625 247.695 60.1772 247.732 60.2432C247.77 60.3112 247.791 60.3531 247.795 60.3611C247.8 60.3718 247.77 60.3103 247.707 60.1514C247.645 59.9976 247.567 59.7861 247.471 59.5076L239.907 62.1126ZM241.177 64.7131L236.798 71.4083C239.01 72.8548 241.459 73.2046 243.62 72.9008L242.507 64.9786L241.393 57.0565C241.914 56.9833 242.591 56.9669 243.36 57.1205C244.145 57.2771 244.893 57.5845 245.556 58.0179L241.177 64.7131ZM242.507 64.9786L243.62 72.9008C245.587 72.6243 248.207 71.6846 250.101 69.1714L243.712 64.3568L237.323 59.5423C238.708 57.7038 240.525 57.1785 241.393 57.0565L242.507 64.9786ZM243.712 64.3568L249.767 69.5857C251.442 67.6453 251.827 65.4061 251.938 64.7808C252.121 63.7491 252.189 62.6781 252.214 61.7111L244.216 61.5069L236.219 61.3028C236.204 61.8924 236.168 62.0747 236.183 61.993C236.191 61.948 236.239 61.6777 236.381 61.2812C236.456 61.074 236.575 60.7777 236.761 60.4307C236.944 60.088 237.229 59.6239 237.657 59.128L243.712 64.3568ZM244.216 61.5069L252.205 61.9261C252.324 59.6736 252.142 57.2024 251.78 54.6272L243.858 55.7406L235.936 56.854C236.216 58.842 236.273 60.215 236.227 61.0877L244.216 61.5069ZM243.858 55.7406L251.78 54.6272C251.443 52.2244 251.085 50.1344 250.686 48.521L242.92 50.4437L235.154 52.3663C235.353 53.1679 235.621 54.6092 235.936 56.854L243.858 55.7406ZM242.92 50.4437L250.751 48.8058C250.456 47.3972 250.078 45.8948 249.546 44.5802L242.13 47.5818L234.714 50.5833C234.695 50.5361 234.734 50.6257 234.814 50.9151C234.89 51.1906 234.983 51.5732 235.089 52.0816L242.92 50.4437ZM242.13 47.5818L249.711 45.0275C249.303 43.8151 248.602 42.2064 247.311 40.7567L241.337 46.0775L235.363 51.3983C235.001 50.9922 234.793 50.6402 234.689 50.443C234.583 50.2425 234.545 50.1254 234.549 50.136L242.13 47.5818ZM241.337 46.0775L247.217 40.6527C245.416 38.7014 242.442 37.0035 238.713 37.5274L239.827 45.4495L240.94 53.3717C239.823 53.5287 238.639 53.3905 237.545 52.9354C236.508 52.5042 235.83 51.9069 235.457 51.5023L241.337 46.0775ZM239.827 45.4495L238.713 37.5274C236.247 37.8741 233.892 39.1294 232.241 41.3202L238.631 46.1347L245.02 50.9492C244.546 51.5773 243.911 52.165 243.123 52.6163C242.344 53.0626 241.58 53.2818 240.94 53.3717L239.827 45.4495ZM238.631 46.1347L232.576 40.9059C230.927 42.8153 230.524 45.0308 230.411 45.6203C230.217 46.6336 230.127 47.699 230.081 48.6782L238.072 49.0569L246.063 49.4356C246.093 48.81 246.134 48.5858 246.126 48.6251C246.122 48.6479 246.076 48.8928 245.941 49.2628C245.87 49.4564 245.754 49.7406 245.573 50.0765C245.396 50.4067 245.114 50.8674 244.685 51.3636L238.631 46.1347ZM238.072 49.0569L230.083 48.6377C229.96 50.9695 230.202 53.7647 230.623 56.7605L238.546 55.6471L246.468 54.5337C246.093 51.8678 246.019 50.2696 246.061 49.4761L238.072 49.0569ZM238.546 55.6471L230.623 56.7605C231.044 59.7563 231.582 62.5099 232.343 64.7176L239.907 62.1126L247.471 59.5076C247.212 58.7563 246.842 57.1996 246.468 54.5337L238.546 55.6471ZM281.093 67.9574L283.044 75.7158L283.104 75.7008L283.164 75.6848L281.093 67.9574ZM268.744 69.7576L267.295 77.6253L267.495 77.6622L267.696 77.6888L268.744 69.7576ZM266.163 34.3805L262.23 27.4141L262.209 27.4262L262.187 27.4385L266.163 34.3805ZM278.646 33.5309L286.151 30.76L286.145 30.7428L286.138 30.7255L278.646 33.5309ZM279.69 36.3572L272.185 39.1281L274.418 45.1767L280.803 44.2793L279.69 36.3572ZM280.134 36.2948L281.247 44.217L286.771 43.4406L287.952 37.9888L280.134 36.2948ZM283.81 31.6419L288.298 38.264L288.348 38.2301L288.398 38.1955L283.81 31.6419ZM295.129 29.4049L291.009 36.2629L291.087 36.3095L291.166 36.3543L295.129 29.4049ZM296.783 42.0981L288.916 40.6492L288.902 40.7234L288.89 40.7979L296.783 42.0981ZM290.549 45.107L291.635 37.1811L290.549 45.107ZM282.202 45.957L275.569 41.4849L275.439 41.6775L275.321 41.8774L282.202 45.957ZM281.945 47.8028L274.023 48.9162L276.623 67.4223L284.546 66.3089L292.468 65.1955L289.867 46.6894L281.945 47.8028ZM284.546 66.3089L276.623 67.4223C276.104 63.7258 278.274 61.4179 278.905 60.8282C279.645 60.1366 280.282 59.8514 280.284 59.8505C280.388 59.8011 280.08 59.9466 279.023 60.23L281.093 67.9574L283.164 75.6848C284.473 75.334 285.925 74.8876 287.179 74.2887C287.756 74.013 288.817 73.4636 289.829 72.5185C290.731 71.6753 293.02 69.1244 292.468 65.1955L284.546 66.3089ZM281.093 67.9574L279.142 60.1989C277.11 60.7101 274.937 61.1318 272.618 61.4576L273.732 69.3798L274.845 77.3019C277.681 76.9033 280.416 76.3767 283.044 75.7158L281.093 67.9574ZM273.732 69.3798L272.618 61.4576C271.441 61.6231 270.576 61.7191 269.979 61.7643C269.683 61.7868 269.508 61.7924 269.43 61.7931C269.321 61.794 269.477 61.785 269.791 61.8265L268.744 69.7576L267.696 77.6888C268.96 77.8557 270.267 77.7884 271.188 77.7186C272.254 77.6379 273.488 77.4927 274.845 77.3019L273.732 69.3798ZM268.744 69.7576L270.193 61.89C270.546 61.955 271.636 62.1987 272.805 63.13C274.175 64.2222 275.108 65.8331 275.356 67.6004L267.434 68.7138L259.512 69.8272C259.837 72.1438 261.026 74.2033 262.834 75.6434C264.439 76.9227 266.146 77.4137 267.295 77.6253L268.744 69.7576ZM267.434 68.7138L275.356 67.6004L270.965 36.3555L263.043 37.4689L255.12 38.5823L259.512 69.8272L267.434 68.7138ZM263.043 37.4689L270.965 36.3555C271.218 38.1576 270.737 39.5973 270.312 40.437C269.912 41.2263 269.479 41.6682 269.366 41.7808C269.161 41.9832 269.277 41.8165 270.139 41.3225L266.163 34.3805L262.187 27.4385C260.856 28.2006 259.355 29.1768 258.111 30.4086C257.177 31.3325 254.509 34.2347 255.12 38.5823L263.043 37.4689ZM266.163 34.3805L270.096 41.347C271.392 40.6154 272.914 40.0885 274.749 39.8306L273.636 31.9085L272.522 23.9863C268.865 24.5004 265.405 25.6215 262.23 27.4141L266.163 34.3805ZM273.636 31.9085L274.749 39.8306C275.588 39.7127 275.325 39.8933 274.515 39.6311C274.037 39.4763 273.342 39.1557 272.65 38.5276C271.936 37.8802 271.441 37.1018 271.154 36.3363L278.646 33.5309L286.138 30.7255C284.9 27.4194 282.295 25.3322 279.444 24.4092C276.964 23.6062 274.472 23.7123 272.522 23.9863L273.636 31.9085ZM278.646 33.5309L271.142 36.3018L272.185 39.1281L279.69 36.3572L287.195 33.5863L286.151 30.76L278.646 33.5309ZM279.69 36.3572L280.803 44.2793L281.247 44.217L280.134 36.2948L279.02 28.3727L278.576 28.4351L279.69 36.3572ZM280.134 36.2948L287.952 37.9888C287.9 38.2289 287.824 38.4292 287.75 38.5811C287.677 38.7299 287.616 38.8098 287.604 38.8246C287.594 38.8377 287.63 38.7892 287.744 38.6875C287.858 38.5857 288.036 38.442 288.298 38.264L283.81 31.6419L279.321 25.0199C276.307 27.0628 273.28 30.1451 272.315 34.6009L280.134 36.2948ZM283.81 31.6419L288.398 38.1955C289.571 37.3744 290.557 37.0273 291.401 36.9087L290.287 28.9866L289.174 21.0645C285.539 21.5754 282.207 22.9984 279.222 25.0884L283.81 31.6419ZM290.287 28.9866L291.401 36.9087C291.753 36.8592 292.021 36.8362 292.213 36.8275C292.408 36.8186 292.493 36.8259 292.488 36.8254C292.486 36.8252 292.344 36.8135 292.101 36.7451C291.856 36.6762 291.466 36.5373 291.009 36.2629L295.129 29.4049L299.248 22.5469C295.76 20.4521 291.741 20.7037 289.174 21.0645L290.287 28.9866ZM295.129 29.4049L291.166 36.3543C290.773 36.1303 290.229 35.7132 289.76 35.0325C289.286 34.345 289.068 33.6483 288.993 33.1109L296.915 31.9975L304.837 30.8841C304.32 27.2058 302.199 24.2277 299.092 22.4554L295.129 29.4049ZM296.915 31.9975L288.993 33.1109C289.096 33.8494 289.196 34.9907 289.265 36.6183L297.258 36.2794L305.251 35.9405C305.171 34.056 305.042 32.3428 304.837 30.8841L296.915 31.9975ZM297.258 36.2794L289.265 36.6183C289.309 37.6581 289.222 38.9874 288.916 40.6492L296.783 42.0981L304.651 43.5471C305.127 40.9627 305.356 38.4128 305.251 35.9405L297.258 36.2794ZM296.783 42.0981L288.89 40.7979C288.794 41.3771 288.76 41.0219 289.196 40.3193C289.446 39.9166 289.911 39.3026 290.691 38.7344C291.51 38.1375 292.499 37.7238 293.562 37.5744L294.676 45.4965L295.789 53.4187C299.24 52.9336 301.531 50.7876 302.794 48.7519C303.932 46.9165 304.424 44.9363 304.677 43.3984L296.783 42.0981ZM294.676 45.4965L293.562 37.5744C293.954 37.5194 294.24 37.5128 294.326 37.5113C294.44 37.5092 294.503 37.5121 294.493 37.5117C294.47 37.5108 294.345 37.5042 294.079 37.4791C293.553 37.4295 292.754 37.3343 291.635 37.1811L290.549 45.107L289.463 53.0329C290.673 53.1988 291.726 53.328 292.575 53.4083C293.048 53.4529 294.475 53.6033 295.789 53.4187L294.676 45.4965ZM290.549 45.107L291.635 37.1811C288.944 36.8123 286.226 36.6665 283.725 37.018L284.839 44.9402L285.952 52.8623C286.408 52.7982 287.498 52.7636 289.463 53.0329L290.549 45.107ZM284.839 44.9402L283.725 37.018C282.69 37.1635 281.45 37.4085 280.223 37.8818C279.146 38.2974 277.063 39.2687 275.569 41.4849L282.202 45.957L288.836 50.429C288.218 51.345 287.523 51.9174 287.043 52.2433C286.564 52.5684 286.171 52.7364 285.981 52.8098C285.633 52.9441 285.551 52.9187 285.952 52.8623L284.839 44.9402ZM282.202 45.957L275.321 41.8774C273.804 44.4358 273.764 47.0732 274.023 48.9162L281.945 47.8028L289.867 46.6894C289.912 47.0112 290.043 48.4182 289.084 50.0365L282.202 45.957ZM307.458 62.4424L303.148 69.1819L303.208 69.22L303.268 69.2571L307.458 62.4424ZM304.641 59.413L297.798 63.557L297.848 63.6388L297.899 63.7193L304.641 59.413ZM303.624 48.9568L296.392 45.5366L296.358 45.6097L296.325 45.6835L303.624 48.9568ZM311.106 42.4118L308.025 35.0292L307.964 35.0543L307.904 35.0805L311.106 42.4118ZM322.109 39.7667L323.223 47.6889L331.145 46.5755L330.031 38.6534L322.109 39.7667ZM319.818 36.3403L322.978 28.9907L322.913 28.9629L322.848 28.9363L319.818 36.3403ZM313.787 37.5756L309.985 30.5369L309.952 30.555L309.918 30.5736L313.787 37.5756ZM310.415 39.7945L315.283 46.1434L315.385 46.0647L315.485 45.9827L310.415 39.7945ZM305.042 38.3522L298.991 43.5855L299.017 43.6146L299.042 43.6436L305.042 38.3522ZM304.345 30.6302L299.466 24.29L299.466 24.29L304.345 30.6302ZM310.598 27.2955L313.625 34.7005L313.663 34.6849L313.701 34.669L310.598 27.2955ZM325.872 24.6963L325.113 32.6602L325.213 32.6697L325.313 32.6767L325.872 24.6963ZM330.912 25.6038L328.261 33.1519L328.313 33.1701L328.365 33.1875L330.912 25.6038ZM334.437 27.6936L328.946 33.5119L329.016 33.5776L329.087 33.6415L334.437 27.6936ZM336.802 30.2694L330.215 34.8081L330.304 34.9373L330.398 35.0628L336.802 30.2694ZM338.28 33.4225L330.624 35.7455L330.661 35.868L330.703 35.9891L338.28 33.4225ZM338.953 59.8258L340.95 67.5724L341.013 67.5562L341.075 67.5391L338.953 59.8258ZM327.952 61.5657L327.49 69.5524L327.538 69.5552L327.586 69.5574L327.952 61.5657ZM326.749 61.2824L332.418 55.6384L326.749 61.2824ZM326.307 60.4397L318.617 62.6434L318.681 62.8663L318.757 63.0851L326.307 60.4397ZM325.292 56.8985L332.983 54.6948L331.067 48.0083L324.179 48.9763L325.292 56.8985ZM324.785 56.9697L323.672 49.0476L317.651 49.8938L316.854 55.9222L324.785 56.9697ZM322.876 44.7646L330.798 43.6512L329.685 35.7291L321.763 36.8425L322.876 44.7646ZM320.41 46.533L313.349 42.7739L313.349 42.7739L320.41 46.533ZM323.545 53.2017L329.546 58.492L329.573 58.4614L329.6 58.4305L323.545 53.2017ZM316.904 63.8939L315.791 55.9718C313.146 56.3435 312.039 55.8676 311.649 55.6277L307.458 62.4424L303.268 69.2571C307.783 72.0333 312.973 72.525 318.018 71.8161L316.904 63.8939ZM307.458 62.4424L311.769 55.7029C311.926 55.8035 311.952 55.8519 311.867 55.7604C311.781 55.6678 311.613 55.4665 311.384 55.1067L304.641 59.413L297.899 63.7193C299.179 65.7223 300.872 67.7264 303.148 69.1819L307.458 62.4424ZM304.641 59.413L311.484 55.2689C311.319 54.9959 311.045 54.3934 310.883 53.2363L302.96 54.3497L295.038 55.463C295.434 58.2775 296.281 61.0507 297.798 63.557L304.641 59.413ZM302.96 54.3497L310.883 53.2363C310.784 52.5327 310.9 52.2841 310.924 52.2301L303.624 48.9568L296.325 45.6835C294.905 48.8484 294.579 52.195 295.038 55.463L302.96 54.3497ZM303.624 48.9568L310.856 52.377C311.167 51.7212 311.453 51.4308 311.631 51.288L306.629 45.0445L301.627 38.8011C299.327 40.6438 297.61 42.9617 296.392 45.5366L303.624 48.9568ZM306.629 45.0445L311.631 51.288C312.224 50.8127 313.084 50.2778 314.308 49.7431L311.106 42.4118L307.904 35.0805C305.638 36.0705 303.512 37.2908 301.627 38.8011L306.629 45.0445ZM311.106 42.4118L314.188 49.7944C316.111 48.9915 318.406 48.3658 321.131 47.9828L320.018 40.0607L318.904 32.1385C315.038 32.6819 311.392 33.6236 308.025 35.0292L311.106 42.4118ZM320.018 40.0607L321.131 47.9828L323.223 47.6889L322.109 39.7667L320.996 31.8446L318.904 32.1385L320.018 40.0607ZM322.109 39.7667L330.031 38.6534C329.512 34.9564 327.496 30.9332 322.978 28.9907L319.818 36.3403L316.658 43.6898C315.907 43.3668 315.196 42.7942 314.704 42.0577C314.259 41.3926 314.189 40.891 314.187 40.8801L322.109 39.7667ZM319.818 36.3403L322.848 28.9363C320.314 27.8991 317.794 28.0937 316.297 28.304L317.411 36.2262L318.524 44.1483C318.708 44.1225 318.655 44.1452 318.426 44.1344C318.218 44.1246 317.598 44.0758 316.788 43.7443L319.818 36.3403ZM317.411 36.2262L316.297 28.304C313.968 28.6314 311.811 29.5508 309.985 30.5369L313.787 37.5756L317.589 44.6144C318.037 44.3725 318.349 44.2372 318.536 44.1674C318.73 44.0952 318.715 44.1215 318.524 44.1483L317.411 36.2262ZM313.787 37.5756L309.918 30.5736C308.272 31.4832 306.713 32.4856 305.345 33.6063L310.415 39.7945L315.485 45.9827C315.895 45.6472 316.584 45.1703 317.657 44.5777L313.787 37.5756ZM310.415 39.7945L305.548 33.4456C305.226 33.6924 305.124 33.7489 305.192 33.7087C305.229 33.6867 305.403 33.5835 305.687 33.4604C305.835 33.3964 306.049 33.3104 306.321 33.2255C306.587 33.1424 306.973 33.0398 307.453 32.9724L308.566 40.8945L309.68 48.8167C311.532 48.5563 312.936 47.719 313.373 47.4591C314.056 47.0522 314.71 46.5824 315.283 46.1434L310.415 39.7945ZM308.566 40.8945L307.453 32.9724C308.991 32.7563 310.178 33.0948 310.777 33.3241C311.382 33.5555 311.732 33.8052 311.795 33.8511C311.903 33.9286 311.664 33.766 311.042 33.0609L305.042 38.3522L299.042 43.6436C300.009 44.7402 301.153 45.9022 302.435 46.8271C303.379 47.5084 306.074 49.3234 309.68 48.8167L308.566 40.8945ZM305.042 38.3522L311.093 33.119C310.608 32.5584 310.363 32.1672 310.25 31.952C310.141 31.7442 310.192 31.7694 310.225 32.0012L302.303 33.1146L294.381 34.2279C294.904 37.9545 296.832 41.0882 298.991 43.5855L305.042 38.3522ZM302.303 33.1146L310.225 32.0012C310.473 33.7665 310.029 35.1418 309.714 35.8609C309.399 36.58 309.051 37.0207 308.935 37.1614C308.717 37.4273 308.703 37.3711 309.223 36.9704L304.345 30.6302L299.466 24.29C298.548 24.9962 297.474 25.9076 296.575 27.0016C295.998 27.7034 293.842 30.3928 294.381 34.2279L302.303 33.1146ZM304.345 30.6302L309.223 36.9704C309.855 36.4847 311.2 35.692 313.625 34.7005L310.598 27.2955L307.57 19.8905C304.535 21.1312 301.712 22.5616 299.466 24.29L304.345 30.6302ZM310.598 27.2955L313.701 34.669C315.893 33.7465 317.96 33.176 319.916 32.9011L318.803 24.979L317.69 17.0568C314.237 17.542 310.835 18.5159 307.494 19.922L310.598 27.2955ZM318.803 24.979L319.916 32.9011C322.202 32.5799 323.903 32.5448 325.113 32.6602L325.872 24.6963L326.632 16.7325C323.824 16.4647 320.812 16.618 317.69 17.0568L318.803 24.979ZM325.872 24.6963L325.313 32.6767C326.947 32.7913 327.857 33.0101 328.261 33.1519L330.912 25.6038L333.562 18.0557C331.338 17.2744 328.888 16.8882 326.432 16.7159L325.872 24.6963ZM330.912 25.6038L328.365 33.1875C328.678 33.2926 328.835 33.4067 328.946 33.5119L334.437 27.6936L339.928 21.8752C338.052 20.1054 335.859 18.8263 333.459 18.0201L330.912 25.6038ZM334.437 27.6936L329.087 33.6415C329.849 34.3269 330.151 34.7162 330.215 34.8081L336.802 30.2694L343.39 25.7307C342.371 24.2514 341.096 22.9234 339.787 21.7456L334.437 27.6936ZM336.802 30.2694L330.398 35.0628C330.307 34.9424 330.308 34.9139 330.365 35.0364C330.422 35.1573 330.515 35.3839 330.624 35.7455L338.28 33.4225L345.935 31.0995C345.368 29.2298 344.528 27.2411 343.207 25.476L336.802 30.2694ZM338.28 33.4225L330.703 35.9891C331.006 36.8838 331.333 38.2602 331.612 40.2409L339.534 39.1275L347.456 38.0141C347.093 35.4316 346.585 33.0047 345.857 30.8559L338.28 33.4225ZM339.534 39.1275L331.612 40.2409L334.293 59.3174L342.215 58.204L350.137 57.0906L347.456 38.0141L339.534 39.1275ZM342.215 58.204L334.293 59.3174C333.801 55.8158 335.741 53.549 336.438 52.8636C337.186 52.127 337.851 51.8126 337.887 51.7945C338.049 51.7138 337.816 51.8412 336.83 52.1125L338.953 59.8258L341.075 67.5391C342.329 67.194 343.76 66.7429 345.01 66.1216C345.59 65.8332 346.654 65.2579 347.658 64.27C348.61 63.3332 350.662 60.8246 350.137 57.0906L342.215 58.204ZM338.953 59.8258L336.955 52.0792C335.041 52.5728 333.115 52.9555 331.175 53.2281L332.288 61.1502L333.402 69.0723C335.941 68.7155 338.457 68.2152 340.95 67.5724L338.953 59.8258ZM332.288 61.1502L331.175 53.2281C330.139 53.3736 329.355 53.4683 328.793 53.5222C328.514 53.5489 328.326 53.562 328.214 53.5676C328.081 53.5742 328.139 53.5659 328.318 53.5741L327.952 61.5657L327.586 69.5574C329.158 69.6293 331.365 69.3586 333.402 69.0723L332.288 61.1502ZM327.952 61.5657L328.414 53.5791C328.316 53.5735 328.564 53.578 328.996 53.6796C329.22 53.7324 329.643 53.8456 330.163 54.0771C330.65 54.294 331.536 54.7523 332.418 55.6384L326.749 61.2824L321.079 66.9264C322.803 68.6583 324.805 69.1304 325.329 69.2537C326.162 69.4498 326.936 69.5204 327.49 69.5524L327.952 61.5657ZM326.749 61.2824L332.418 55.6384C333.113 56.336 333.475 56.9853 333.612 57.2453C333.771 57.5489 333.844 57.7574 333.857 57.7943L326.307 60.4397L318.757 63.0851C318.969 63.6884 319.591 65.4314 321.079 66.9264L326.749 61.2824ZM326.307 60.4397L333.998 58.236L332.983 54.6948L325.292 56.8985L317.602 59.1021L318.617 62.6434L326.307 60.4397ZM325.292 56.8985L324.179 48.9763L323.672 49.0476L324.785 56.9697L325.899 64.8919L326.406 64.8206L325.292 56.8985ZM324.785 56.9697L316.854 55.9222C316.825 56.1432 316.793 56.1484 316.853 56.0296C316.92 55.8966 317.028 55.7561 317.144 55.6542C317.36 55.4642 317.161 55.7792 315.791 55.9718L316.904 63.8939L318.018 71.8161C321.38 71.3435 324.861 70.172 327.704 67.674C330.676 65.063 332.24 61.6274 332.717 58.0173L324.785 56.9697ZM323.918 52.1798L331.841 51.0664L330.798 43.6512L322.876 44.7646L314.954 45.878L315.996 53.2931L323.918 52.1798ZM322.876 44.7646L321.763 36.8425C317.995 37.3721 315.031 39.613 313.349 42.7739L320.41 46.533L327.472 50.2922C327.252 50.7057 326.825 51.3021 326.098 51.8236C325.359 52.3534 324.594 52.6018 323.99 52.6868L322.876 44.7646ZM320.41 46.533L313.349 42.7739C311.984 45.337 311.525 48.153 311.92 50.9578L319.842 49.8444L327.764 48.731C327.788 48.9042 327.798 49.1669 327.744 49.4833C327.689 49.8022 327.585 50.0794 327.472 50.2922L320.41 46.533ZM319.842 49.8444L311.92 50.9578C312.165 52.7044 312.664 55.095 314.007 57.2066C314.736 58.3532 315.897 59.7065 317.675 60.6624C319.551 61.6707 321.577 61.9447 323.444 61.6822L322.331 53.7601L321.217 45.8379C322.451 45.6645 323.898 45.8422 325.249 46.5687C326.504 47.2428 327.195 48.129 327.509 48.623C328.022 49.4293 327.91 49.773 327.764 48.731L319.842 49.8444ZM322.331 53.7601L323.444 61.6822C325.117 61.4471 327.591 60.71 329.546 58.492L323.545 53.2017L317.544 47.9113C318.979 46.2835 320.643 45.9186 321.217 45.8379L322.331 53.7601ZM323.545 53.2017L329.6 58.4305C330.88 56.9481 332.306 54.3781 331.841 51.0664L323.918 52.1798L315.996 53.2931C315.626 50.6574 316.803 48.7688 317.49 47.9728L323.545 53.2017ZM371.696 55.0301L377.945 60.0252L371.696 55.0301ZM359.861 57.2751L359.29 65.2546L359.381 65.2612L359.473 65.2656L359.861 57.2751ZM354.488 55.8328L350.998 63.031L351.031 63.0472L351.064 63.063L354.488 55.8328ZM346.655 33.6672L354.577 32.5539L353.464 24.6317L345.542 25.7451L346.655 33.6672ZM342.077 32.8242L349.194 29.17L342.077 32.8242ZM341.146 24.3594L333.41 22.3224L333.393 22.3865L333.377 22.4509L341.146 24.3594ZM344.99 21.8157L346.103 29.7379L354.025 28.6245L352.912 20.7023L344.99 21.8157ZM347.269 10.4438L343.85 3.21117L343.833 3.21924L343.816 3.22741L347.269 10.4438ZM362.101 19.4108L354.179 20.5242L355.293 28.4463L363.215 27.333L362.101 19.4108ZM369.068 28.5138L361.259 26.7747L361.244 26.8441L361.23 26.9139L369.068 28.5138ZM363.767 31.2623L362.654 23.3402L354.732 24.4536L355.845 32.3757L363.767 31.2623ZM367.202 45.1272L364.525 52.6659L364.656 52.7124L364.788 52.7544L367.202 45.1272ZM371.381 46.3495L378.837 43.4513L378.837 43.4512L371.381 46.3495ZM371.696 55.0301L365.447 50.0351C366.009 49.3321 366.566 48.9469 366.845 48.777C367.131 48.6026 367.295 48.5506 367.242 48.5698C367.199 48.5851 367.042 48.6365 366.738 48.7047C366.439 48.7717 366.043 48.8446 365.537 48.9158L366.651 56.8379L367.764 64.7601C369.405 64.5294 371.09 64.1869 372.638 63.6321C374.02 63.1371 376.251 62.1439 377.945 60.0252L371.696 55.0301ZM366.651 56.8379L365.537 48.9158C363.111 49.2567 361.389 49.3399 360.25 49.2845L359.861 57.2751L359.473 65.2656C361.977 65.3874 364.781 65.1792 367.764 64.7601L366.651 56.8379ZM359.861 57.2751L360.433 49.2955C359.651 49.2395 358.823 49.0341 357.912 48.6026L354.488 55.8328L351.064 63.063C353.661 64.2928 356.416 65.0489 359.29 65.2546L359.861 57.2751ZM354.488 55.8328L357.979 48.6346C358.158 48.7214 357.897 48.7079 357.43 47.8181C356.924 46.8536 356.35 45.1642 355.967 42.4407L348.045 43.5541L340.123 44.6675C341.135 51.8734 343.857 59.5682 350.998 63.031L354.488 55.8328ZM348.045 43.5541L355.967 42.4407L354.577 32.5539L346.655 33.6672L338.733 34.7806L340.123 44.6675L348.045 43.5541ZM346.655 33.6672L345.542 25.7451L342.373 26.1905L343.486 34.1126L344.6 42.0347L347.769 41.5894L346.655 33.6672ZM343.486 34.1126L342.373 26.1905C345.27 25.7833 347.322 27.1476 348.184 27.9356C348.608 28.3235 348.868 28.6675 348.994 28.8479C349.126 29.0373 349.188 29.1592 349.194 29.17L342.077 32.8242L334.961 36.4783C335.393 37.3206 336.147 38.6091 337.387 39.7433C338.718 40.9608 341.238 42.5072 344.6 42.0347L343.486 34.1126ZM342.077 32.8242L349.194 29.17C349.274 29.3257 349.246 29.3171 349.173 29.0481C349.103 28.7902 349.015 28.382 348.931 27.7893L341.009 28.9027L333.087 30.016C333.38 32.0989 333.899 34.4111 334.961 36.4783L342.077 32.8242ZM341.009 28.9027L348.931 27.7893C348.803 26.8751 348.879 26.4138 348.915 26.2678L341.146 24.3594L333.377 22.4509C332.755 24.9826 332.74 27.5501 333.087 30.016L341.009 28.9027ZM341.146 24.3594L348.883 26.3963C348.882 26.3986 348.874 26.4298 348.854 26.4855C348.835 26.5409 348.802 26.6286 348.751 26.7418C348.653 26.9588 348.458 27.3332 348.11 27.7662C347.319 28.7503 345.938 29.7611 344.075 30.0229L342.962 22.1007L341.848 14.1786C335.965 15.0054 333.984 20.1416 333.41 22.3224L341.146 24.3594ZM342.962 22.1007L344.075 30.0229L346.103 29.7379L344.99 21.8157L343.876 13.8936L341.848 14.1786L342.962 22.1007ZM344.99 21.8157L352.912 20.7023L351.834 13.0337L343.912 14.1471L335.99 15.2605L337.067 22.9291L344.99 21.8157ZM343.912 14.1471L351.834 13.0337C351.976 14.0447 351.853 15.051 351.527 15.9384C351.218 16.7788 350.797 17.3286 350.54 17.6121C350.106 18.0909 349.944 18.0326 350.722 17.6602L347.269 10.4438L343.816 3.22741C342.172 4.01406 340.239 5.15251 338.686 6.86573C336.982 8.74592 335.484 11.6635 335.99 15.2605L343.912 14.1471ZM347.269 10.4438L350.688 17.6764C352.497 16.8215 354.18 16.3232 355.755 16.1018L354.642 8.17969L353.528 0.257548C350.202 0.725002 346.971 1.73612 343.85 3.21117L347.269 10.4438ZM354.642 8.17969L355.755 16.1018C356.411 16.0097 356.809 15.9965 357 16.0011C357.213 16.0061 357.006 16.0294 356.554 15.8796C356.07 15.7195 355.17 15.312 354.327 14.3753C353.44 13.3898 353.018 12.2635 352.888 11.3345L360.81 10.2211L368.732 9.10774C368.468 7.22808 367.688 5.30375 366.221 3.67277C364.797 2.09061 363.093 1.19026 361.581 0.689929C358.794 -0.232361 355.849 -0.0685841 353.528 0.257548L354.642 8.17969ZM360.81 10.2211L352.888 11.3345L354.179 20.5242L362.101 19.4108L370.024 18.2974L368.732 9.10774L360.81 10.2211ZM362.101 19.4108L363.215 27.333L367.905 26.6738L366.791 18.7517L365.678 10.8295L360.988 11.4887L362.101 19.4108ZM366.791 18.7517L367.905 26.6738C366.042 26.9356 364.232 26.4178 362.866 25.4297C361.711 24.5945 361.208 23.6747 361.074 23.4131C360.837 22.951 360.997 23.0456 361.185 24.3868L369.107 23.2734L377.029 22.16C376.772 20.3323 376.323 18.0889 375.315 16.1195C374.341 14.2192 371.307 10.0384 365.678 10.8295L366.791 18.7517ZM369.107 23.2734L361.185 24.3868C361.396 25.8848 361.299 26.5991 361.259 26.7747L369.068 28.5138L376.877 30.253C377.472 27.582 377.401 24.8026 377.029 22.16L369.107 23.2734ZM369.068 28.5138L361.23 26.9139C361.201 27.0546 361.298 26.3888 361.921 25.5019C362.686 24.4137 364.187 23.1247 366.393 22.8147L367.506 30.7368L368.62 38.659C374.973 37.7661 376.554 31.8427 376.906 30.1138L369.068 28.5138ZM367.506 30.7368L366.393 22.8147L362.654 23.3402L363.767 31.2623L364.88 39.1845L368.62 38.659L367.506 30.7368ZM363.767 31.2623L355.845 32.3757L357.475 43.9737L365.397 42.8604L373.319 41.747L371.689 30.1489L363.767 31.2623ZM365.397 42.8604L357.475 43.9737C357.715 45.6856 358.361 47.5718 359.71 49.266C361.072 50.9765 362.804 52.0549 364.525 52.6659L367.202 45.1272L369.88 37.5885C370.557 37.8291 371.466 38.3444 372.227 39.2993C372.974 40.2379 373.239 41.1759 373.319 41.747L365.397 42.8604ZM367.202 45.1272L364.788 52.7544C366.445 53.2786 368.606 53.7195 370.949 53.3902L369.835 45.4681L368.722 37.5459C369.208 37.4776 369.543 37.509 369.665 37.5248C369.789 37.5408 369.78 37.5521 369.616 37.5L367.202 45.1272ZM369.835 45.4681L370.949 53.3902C370.096 53.51 368.511 53.5167 366.829 52.5577C365.118 51.5822 364.28 50.1629 363.924 49.2478L371.381 46.3495L378.837 43.4512C378.212 41.8416 376.981 39.9282 374.755 38.6588C372.558 37.406 370.335 37.3192 368.722 37.5459L369.835 45.4681ZM371.381 46.3495L363.924 49.2478C363.861 49.0847 363.883 49.0994 363.949 49.399C364.01 49.6743 364.086 50.0853 364.167 50.6595L372.089 49.5461L380.011 48.4327C379.788 46.8452 379.453 45.0339 378.837 43.4513L371.381 46.3495ZM372.089 49.5461L364.167 50.6595C364.242 51.196 364.283 51.6181 364.301 51.9389C364.32 52.2661 364.312 52.4321 364.309 52.469C364.306 52.5201 364.314 52.3113 364.425 51.9391C364.533 51.575 364.804 50.8399 365.447 50.0351L371.696 55.0301L377.945 60.0252C379.789 57.7182 380.163 55.0893 380.268 53.6115C380.39 51.9148 380.25 50.1332 380.011 48.4327L372.089 49.5461ZM392.099 38.1382L390.985 30.2161L383.063 31.3295L384.177 39.2516L392.099 38.1382ZM402.351 39.3472L406.409 46.2417L406.459 46.212L406.509 46.1816L402.351 39.3472ZM409.671 40.3866L403.243 45.1497L403.243 45.1497L409.671 40.3866ZM407.839 49.886L410.84 57.3015L407.839 49.886ZM389.848 52.9315L389.117 60.8981L389.134 60.8996L389.151 60.9011L389.848 52.9315ZM384.257 51.7784L381.17 59.1587L381.304 59.215L381.441 59.2663L384.257 51.7784ZM380.235 49.3707L375.053 55.4661L375.115 55.5187L375.178 55.5701L380.235 49.3707ZM377.499 46.4592L370.838 50.8911L370.874 50.9448L370.911 50.9979L377.499 46.4592ZM375.805 43.1426L368.326 45.9841L368.334 46.0056L368.343 46.0271L375.805 43.1426ZM378.145 20.7106L383.702 26.4661L383.736 26.433L383.77 26.3995L378.145 20.7106ZM384.364 16.6698L381.422 9.2301L384.364 16.6698ZM391.259 33.0859L383.337 34.1993L384.451 42.1214L392.373 41.008L391.259 33.0859ZM394.033 31.2096L387.216 27.0225L387.161 27.1125L387.108 27.2039L394.033 31.2096ZM392.099 38.1382L384.177 39.2516C384.528 41.7549 385.59 45.02 388.551 47.3634C391.589 49.7674 395.092 49.9971 397.72 49.6277L396.607 41.7055L395.494 33.7834C395.503 33.7821 396.944 33.6013 398.479 34.8162C399.938 35.9705 400.055 37.2679 400.021 37.0249L392.099 38.1382ZM396.607 41.7055L397.72 49.6277C400.782 49.1974 403.768 47.7957 406.409 46.2417L402.351 39.3472L398.293 32.4527C397.377 32.992 396.667 33.3411 396.145 33.5551C395.607 33.7762 395.41 33.7951 395.494 33.7834L396.607 41.7055ZM402.351 39.3472L406.509 46.1816C407.649 45.4881 408.479 44.9905 409.023 44.6729C409.303 44.5092 409.452 44.4255 409.508 44.3955C409.544 44.3756 409.476 44.4142 409.347 44.4756C409.288 44.5039 409.128 44.5798 408.908 44.6669C408.797 44.711 408.61 44.7823 408.371 44.857C408.249 44.8954 408.086 44.9431 407.893 44.9905C407.705 45.0366 407.436 45.0954 407.107 45.1416L405.994 37.2194L404.881 29.2973C403.855 29.4415 403.08 29.7658 403.007 29.7949C402.755 29.895 402.553 29.9893 402.444 30.0415C402.216 30.1505 402.013 30.2585 401.882 30.3294C401.602 30.4812 401.281 30.6656 400.954 30.8566C400.283 31.2482 399.355 31.8057 398.192 32.5128L402.351 39.3472ZM405.994 37.2194L407.107 45.1416C405.302 45.3953 403.936 44.9027 403.303 44.6084C402.663 44.3111 402.321 44.0106 402.294 43.9878C402.251 43.951 402.56 44.2285 403.243 45.1497L409.671 40.3866L416.098 35.6235C415.133 34.3205 414.005 32.9579 412.737 31.8655C411.918 31.1599 409.004 28.7178 404.881 29.2973L405.994 37.2194ZM409.671 40.3866L403.243 45.1497C403.93 46.0765 404.33 46.7162 404.538 47.104C404.639 47.2908 404.658 47.351 404.638 47.2996C404.623 47.26 404.524 46.9939 404.461 46.5475L412.384 45.4341L420.306 44.3208C420.036 42.3989 419.277 40.7293 418.632 39.5293C417.936 38.2347 417.06 36.9209 416.098 35.6235L409.671 40.3866ZM412.384 45.4341L404.461 46.5475C404.318 45.5308 404.46 44.5029 404.827 43.6059C405.17 42.7697 405.614 42.2723 405.823 42.068C406.027 41.8684 406.103 41.8514 405.907 41.9662C405.722 42.0747 405.383 42.2497 404.837 42.4704L407.839 49.886L410.84 57.3015C412.885 56.4741 415.182 55.2972 417.019 53.4979C419.041 51.5172 420.87 48.337 420.306 44.3208L412.384 45.4341ZM407.839 49.886L404.837 42.4704C402.14 43.5624 399.515 44.2698 396.953 44.6298L398.067 52.5519L399.18 60.4741C403.125 59.9196 407.015 58.8497 410.84 57.3015L407.839 49.886ZM398.067 52.5519L396.953 44.6298C394.112 45.0292 392.015 45.0904 390.544 44.9619L389.848 52.9315L389.151 60.9011C392.217 61.1691 395.6 60.9773 399.18 60.4741L398.067 52.5519ZM389.848 52.9315L390.578 44.9649C388.808 44.8026 387.698 44.5256 387.073 44.2904L384.257 51.7784L381.441 59.2663C383.818 60.1603 386.435 60.6521 389.117 60.8981L389.848 52.9315ZM384.257 51.7784L387.344 44.3981C386.581 44.0788 385.905 43.6719 385.291 43.1714L380.235 49.3707L375.178 55.5701C376.998 57.0543 379.003 58.2525 381.17 59.1587L384.257 51.7784ZM380.235 49.3707L385.416 43.2754C384.605 42.586 384.227 42.1247 384.087 41.9204L377.499 46.4592L370.911 50.9979C372.069 52.6792 373.515 54.159 375.053 55.4661L380.235 49.3707ZM377.499 46.4592L384.159 42.0273C383.86 41.5774 383.553 40.9999 383.267 40.2582L375.805 43.1426L368.343 46.0271C369.004 47.7374 369.827 49.3709 370.838 50.8911L377.499 46.4592ZM375.805 43.1426L383.283 40.3012C382.82 39.0819 382.482 37.7706 382.282 36.351L374.36 37.4644L366.438 38.5778C366.797 41.1298 367.422 43.604 368.326 45.9841L375.805 43.1426ZM374.36 37.4644L382.282 36.351C381.357 29.7628 382.78 27.3557 383.702 26.4661L378.145 20.7106L372.589 14.955C366.302 21.0243 365.203 29.7864 366.438 38.5778L374.36 37.4644ZM378.145 20.7106L383.77 26.3995C384.767 25.4142 385.922 24.6562 387.305 24.1096L384.364 16.6698L381.422 9.2301C378.07 10.5553 375.08 12.4911 372.521 15.0216L378.145 20.7106ZM384.364 16.6698L387.305 24.1096C388.93 23.467 391.135 22.8921 394.035 22.4844L392.922 14.5623L391.808 6.64014C388.033 7.17072 384.532 8.00076 381.422 9.2301L384.364 16.6698ZM392.922 14.5623L394.035 22.4844C398.705 21.8281 400.919 22.3903 401.729 22.7999C402.029 22.9513 402.115 23.0653 402.172 23.1514C402.254 23.2737 402.473 23.6659 402.601 24.5766L410.524 23.4632L418.446 22.3498C417.619 16.465 414.58 11.3688 408.949 8.52162C403.892 5.96429 397.827 5.79418 391.808 6.64014L392.922 14.5623ZM410.524 23.4632L402.601 24.5766C402.737 25.5427 402.623 26.028 402.556 26.2215C402.502 26.3823 402.389 26.6253 401.986 26.9799C400.986 27.8605 398.459 29.1658 393.077 29.9222L394.19 37.8443L395.304 45.7665C401.921 44.8364 408.115 42.9016 412.56 38.9885C417.529 34.6131 419.331 28.6504 418.446 22.3498L410.524 23.4632ZM394.19 37.8443L393.077 29.9222L390.985 30.2161L392.099 38.1382L393.212 46.0604L395.304 45.7665L394.19 37.8443ZM390.672 28.903L382.749 30.0164L383.337 34.1993L391.259 33.0859L399.182 31.9725L398.594 27.7896L390.672 28.903ZM391.259 33.0859L392.373 41.008C396.055 40.4906 399.113 38.4058 400.958 35.2153L394.033 31.2096L387.108 27.2039C387.331 26.8191 387.739 26.3015 388.39 25.8612C389.042 25.4199 389.684 25.2287 390.146 25.1637L391.259 33.0859ZM394.033 31.2096L400.85 35.3967C402.594 32.5568 403.086 29.4052 402.661 26.3778L394.739 27.4912L386.816 28.6046C386.807 28.5356 386.786 28.3082 386.849 27.9755C386.915 27.632 387.046 27.3005 387.216 27.0225L394.033 31.2096ZM394.739 27.4912L402.661 26.3778C402.423 24.6855 401.9 22.2357 400.374 20.0827C399.535 18.899 398.279 17.6481 396.492 16.821C394.664 15.9752 392.788 15.8091 391.126 16.0426L392.239 23.9647L393.353 31.8869C392.346 32.0283 391.066 31.9401 389.773 31.3421C388.521 30.7629 387.742 29.9298 387.319 29.3339C386.627 28.3563 386.698 27.7619 386.816 28.6046L394.739 27.4912ZM392.239 23.9647L391.126 16.0426C389.3 16.2992 387.435 17.0748 385.873 18.5212C384.372 19.9123 383.554 21.5482 383.114 22.9341C382.305 25.479 382.479 28.0937 382.749 30.0164L390.672 28.903L398.594 27.7896C398.527 27.3144 398.523 27.0706 398.524 27.0102C398.526 26.9264 398.534 27.2382 398.363 27.7762C398.185 28.339 397.747 29.3317 396.746 30.2593C395.685 31.2423 394.439 31.7342 393.353 31.8869L392.239 23.9647Z" fill="#5C0EA4" mask="url(#path-1-outside-1_1528_3080)"/>
</svg>
