<svg width="32" height="32" viewBox="0 0 32 32" fill="none" xmlns="http://www.w3.org/2000/svg">
<path d="M14.667 22.6666H17.3337V17.3333H22.667V14.6666H17.3337V9.33329H14.667V14.6666H9.33366V17.3333H14.667V22.6666ZM16.0003 29.3333C14.1559 29.3333 12.4225 28.9888 10.8003 28.3C9.1781 27.5888 7.76699 26.6333 6.56699 25.4333C5.36699 24.2333 4.41144 22.8222 3.70033 21.2C3.01144 19.5777 2.66699 17.8444 2.66699 16C2.66699 14.1555 3.01144 12.4222 3.70033 10.8C4.41144 9.17774 5.36699 7.76662 6.56699 6.56663C7.76699 5.36662 9.1781 4.42218 10.8003 3.73329C12.4225 3.02218 14.1559 2.66663 16.0003 2.66663C17.8448 2.66663 19.5781 3.02218 21.2003 3.73329C22.8225 4.42218 24.2337 5.36662 25.4337 6.56663C26.6337 7.76662 27.5781 9.17774 28.267 10.8C28.9781 12.4222 29.3337 14.1555 29.3337 16C29.3337 17.8444 28.9781 19.5777 28.267 21.2C27.5781 22.8222 26.6337 24.2333 25.4337 25.4333C24.2337 26.6333 22.8225 27.5888 21.2003 28.3C19.5781 28.9888 17.8448 29.3333 16.0003 29.3333ZM16.0003 26.6666C18.9781 26.6666 21.5003 25.6333 23.567 23.5666C25.6337 21.5 26.667 18.9777 26.667 16C26.667 13.0222 25.6337 10.5 23.567 8.43329C21.5003 6.36663 18.9781 5.33329 16.0003 5.33329C13.0225 5.33329 10.5003 6.36663 8.43366 8.43329C6.36699 10.5 5.33366 13.0222 5.33366 16C5.33366 18.9777 6.36699 21.5 8.43366 23.5666C10.5003 25.6333 13.0225 26.6666 16.0003 26.6666Z" fill="white"/>
</svg>
