<svg width="32" height="32" viewBox="0 0 32 32" fill="none" xmlns="http://www.w3.org/2000/svg">
<path d="M14.6665 22.6666H17.3332V17.3333H22.6665V14.6666H17.3332V9.33329H14.6665V14.6666H9.33317V17.3333H14.6665V22.6666ZM15.9998 29.3333C14.1554 29.3333 12.4221 28.9888 10.7998 28.3C9.17762 27.5888 7.7665 26.6333 6.5665 25.4333C5.3665 24.2333 4.41095 22.8222 3.69984 21.2C3.01095 19.5777 2.6665 17.8444 2.6665 16C2.6665 14.1555 3.01095 12.4222 3.69984 10.8C4.41095 9.17774 5.3665 7.76662 6.5665 6.56663C7.7665 5.36662 9.17762 4.42218 10.7998 3.73329C12.4221 3.02218 14.1554 2.66663 15.9998 2.66663C17.8443 2.66663 19.5776 3.02218 21.1998 3.73329C22.8221 4.42218 24.2332 5.36662 25.4332 6.56663C26.6332 7.76662 27.5776 9.17774 28.2665 10.8C28.9776 12.4222 29.3332 14.1555 29.3332 16C29.3332 17.8444 28.9776 19.5777 28.2665 21.2C27.5776 22.8222 26.6332 24.2333 25.4332 25.4333C24.2332 26.6333 22.8221 27.5888 21.1998 28.3C19.5776 28.9888 17.8443 29.3333 15.9998 29.3333ZM15.9998 26.6666C18.9776 26.6666 21.4998 25.6333 23.5665 23.5666C25.6332 21.5 26.6665 18.9777 26.6665 16C26.6665 13.0222 25.6332 10.5 23.5665 8.43329C21.4998 6.36663 18.9776 5.33329 15.9998 5.33329C13.0221 5.33329 10.4998 6.36663 8.43317 8.43329C6.3665 10.5 5.33317 13.0222 5.33317 16C5.33317 18.9777 6.3665 21.5 8.43317 23.5666C10.4998 25.6333 13.0221 26.6666 15.9998 26.6666Z" fill="#1D1B20"/>
</svg>
