<svg width="32" height="32" viewBox="0 0 32 32" fill="none" xmlns="http://www.w3.org/2000/svg">
<path d="M0 26.6667V22.9667C0 22.2112 0.188889 21.5112 0.566667 20.8667C0.944445 20.2223 1.46667 19.7334 2.13333 19.4C2.44444 19.2445 2.74444 19.1 3.03333 18.9667C3.34444 18.8334 3.66667 18.7112 4 18.6V26.6667H0ZM5.33333 17.3334C4.22222 17.3334 3.27778 16.9445 2.5 16.1667C1.72222 15.3889 1.33333 14.4445 1.33333 13.3334C1.33333 12.2223 1.72222 11.2778 2.5 10.5C3.27778 9.72226 4.22222 9.33337 5.33333 9.33337C6.44444 9.33337 7.38889 9.72226 8.16667 10.5C8.94444 11.2778 9.33333 12.2223 9.33333 13.3334C9.33333 14.4445 8.94444 15.3889 8.16667 16.1667C7.38889 16.9445 6.44444 17.3334 5.33333 17.3334ZM5.33333 14.6667C5.71111 14.6667 6.02222 14.5445 6.26667 14.3C6.53333 14.0334 6.66667 13.7112 6.66667 13.3334C6.66667 12.9556 6.53333 12.6445 6.26667 12.4C6.02222 12.1334 5.71111 12 5.33333 12C4.95556 12 4.63333 12.1334 4.36667 12.4C4.12222 12.6445 4 12.9556 4 13.3334C4 13.7112 4.12222 14.0334 4.36667 14.3C4.63333 14.5445 4.95556 14.6667 5.33333 14.6667ZM5.33333 26.6667V22.9334C5.33333 22.1778 5.52222 21.4889 5.9 20.8667C6.3 20.2223 6.82222 19.7334 7.46667 19.4C8.84445 18.7112 10.2444 18.2 11.6667 17.8667C13.0889 17.5112 14.5333 17.3334 16 17.3334C17.4667 17.3334 18.9111 17.5112 20.3333 17.8667C21.7556 18.2 23.1556 18.7112 24.5333 19.4C25.1778 19.7334 25.6889 20.2223 26.0667 20.8667C26.4667 21.4889 26.6667 22.1778 26.6667 22.9334V26.6667H5.33333ZM8 24H24V22.9334C24 22.6889 23.9333 22.4667 23.8 22.2667C23.6889 22.0667 23.5333 21.9112 23.3333 21.8C22.1333 21.2 20.9222 20.7556 19.7 20.4667C18.4778 20.1556 17.2444 20 16 20C14.7556 20 13.5222 20.1556 12.3 20.4667C11.0778 20.7556 9.86667 21.2 8.66667 21.8C8.46667 21.9112 8.3 22.0667 8.16667 22.2667C8.05556 22.4667 8 22.6889 8 22.9334V24ZM16 16C14.5333 16 13.2778 15.4778 12.2333 14.4334C11.1889 13.3889 10.6667 12.1334 10.6667 10.6667C10.6667 9.20004 11.1889 7.94449 12.2333 6.90004C13.2778 5.8556 14.5333 5.33337 16 5.33337C17.4667 5.33337 18.7222 5.8556 19.7667 6.90004C20.8111 7.94449 21.3333 9.20004 21.3333 10.6667C21.3333 12.1334 20.8111 13.3889 19.7667 14.4334C18.7222 15.4778 17.4667 16 16 16ZM16 13.3334C16.7333 13.3334 17.3556 13.0778 17.8667 12.5667C18.4 12.0334 18.6667 11.4 18.6667 10.6667C18.6667 9.93337 18.4 9.31115 17.8667 8.80004C17.3556 8.26671 16.7333 8.00004 16 8.00004C15.2667 8.00004 14.6333 8.26671 14.1 8.80004C13.5889 9.31115 13.3333 9.93337 13.3333 10.6667C13.3333 11.4 13.5889 12.0334 14.1 12.5667C14.6333 13.0778 15.2667 13.3334 16 13.3334ZM26.6667 17.3334C25.5556 17.3334 24.6111 16.9445 23.8333 16.1667C23.0556 15.3889 22.6667 14.4445 22.6667 13.3334C22.6667 12.2223 23.0556 11.2778 23.8333 10.5C24.6111 9.72226 25.5556 9.33337 26.6667 9.33337C27.7778 9.33337 28.7222 9.72226 29.5 10.5C30.2778 11.2778 30.6667 12.2223 30.6667 13.3334C30.6667 14.4445 30.2778 15.3889 29.5 16.1667C28.7222 16.9445 27.7778 17.3334 26.6667 17.3334ZM26.6667 14.6667C27.0444 14.6667 27.3556 14.5445 27.6 14.3C27.8667 14.0334 28 13.7112 28 13.3334C28 12.9556 27.8667 12.6445 27.6 12.4C27.3556 12.1334 27.0444 12 26.6667 12C26.2889 12 25.9667 12.1334 25.7 12.4C25.4556 12.6445 25.3333 12.9556 25.3333 13.3334C25.3333 13.7112 25.4556 14.0334 25.7 14.3C25.9667 14.5445 26.2889 14.6667 26.6667 14.6667ZM28 26.6667V18.6C28.3333 18.7112 28.6444 18.8334 28.9333 18.9667C29.2444 19.1 29.5556 19.2445 29.8667 19.4C30.5333 19.7334 31.0556 20.2223 31.4333 20.8667C31.8111 21.5112 32 22.2112 32 22.9667V26.6667H28Z" fill="#1D1B20"/>
</svg>
