<svg width="32" height="32" viewBox="0 0 32 32" fill="none" xmlns="http://www.w3.org/2000/svg">
<path d="M5.3335 25.3333V22.6666H8.00016V13.3333C8.00016 11.4888 8.55572 9.85551 9.66683 8.43329C10.7779 6.98885 12.2224 6.0444 14.0002 5.59996V4.66663C14.0002 4.11107 14.1891 3.6444 14.5668 3.26662C14.9668 2.86663 15.4446 2.66663 16.0002 2.66663C16.5557 2.66663 17.0224 2.86663 17.4002 3.26662C17.8002 3.6444 18.0002 4.11107 18.0002 4.66663V5.59996C19.7779 6.0444 21.2224 6.98885 22.3335 8.43329C23.4446 9.85551 24.0002 11.4888 24.0002 13.3333V22.6666H26.6668V25.3333H5.3335ZM16.0002 29.3333C15.2668 29.3333 14.6335 29.0777 14.1002 28.5666C13.5891 28.0333 13.3335 27.4 13.3335 26.6666H18.6668C18.6668 27.4 18.4002 28.0333 17.8668 28.5666C17.3557 29.0777 16.7335 29.3333 16.0002 29.3333ZM10.6668 22.6666H21.3335V13.3333C21.3335 11.8666 20.8113 10.6111 19.7668 9.56663C18.7224 8.52218 17.4668 7.99996 16.0002 7.99996C14.5335 7.99996 13.2779 8.52218 12.2335 9.56663C11.1891 10.6111 10.6668 11.8666 10.6668 13.3333V22.6666Z" fill="#1D1B20"/>
</svg>
