<svg width="32" height="32" viewBox="0 0 32 32" fill="none" xmlns="http://www.w3.org/2000/svg">
<path d="M5.33301 25.3333V22.6666H7.99967V13.3333C7.99967 11.4888 8.55523 9.85551 9.66634 8.43329C10.7775 6.98885 12.2219 6.0444 13.9997 5.59996V4.66663C13.9997 4.11107 14.1886 3.6444 14.5663 3.26662C14.9663 2.86663 15.4441 2.66663 15.9997 2.66663C16.5552 2.66663 17.0219 2.86663 17.3997 3.26662C17.7997 3.6444 17.9997 4.11107 17.9997 4.66663V5.59996C19.7775 6.0444 21.2219 6.98885 22.333 8.43329C23.4441 9.85551 23.9997 11.4888 23.9997 13.3333V22.6666H26.6663V25.3333H5.33301ZM15.9997 29.3333C15.2663 29.3333 14.633 29.0777 14.0997 28.5666C13.5886 28.0333 13.333 27.4 13.333 26.6666H18.6663C18.6663 27.4 18.3997 28.0333 17.8663 28.5666C17.3552 29.0777 16.733 29.3333 15.9997 29.3333ZM10.6663 22.6666H21.333V13.3333C21.333 11.8666 20.8108 10.6111 19.7663 9.56663C18.7219 8.52218 17.4663 7.99996 15.9997 7.99996C14.533 7.99996 13.2775 8.52218 12.233 9.56663C11.1886 10.6111 10.6663 11.8666 10.6663 13.3333V22.6666Z" fill="white"/>
</svg>
