<svg width="32" height="32" viewBox="0 0 32 32" fill="none" xmlns="http://www.w3.org/2000/svg">
<path d="M15.9997 16C14.533 16 13.2775 15.4778 12.233 14.4334C11.1886 13.3889 10.6663 12.1334 10.6663 10.6667C10.6663 9.20004 11.1886 7.94449 12.233 6.90004C13.2775 5.8556 14.533 5.33337 15.9997 5.33337C17.4663 5.33337 18.7219 5.8556 19.7663 6.90004C20.8108 7.94449 21.333 9.20004 21.333 10.6667C21.333 12.1334 20.8108 13.3889 19.7663 14.4334C18.7219 15.4778 17.4663 16 15.9997 16ZM5.33301 26.6667V22.9334C5.33301 22.1778 5.52745 21.4834 5.91634 20.85C6.30523 20.2167 6.8219 19.7334 7.46634 19.4C8.84412 18.7112 10.2441 18.1945 11.6663 17.85C13.0886 17.5056 14.533 17.3334 15.9997 17.3334C17.4663 17.3334 18.9108 17.5056 20.333 17.85C21.7552 18.1945 23.1552 18.7112 24.533 19.4C25.1775 19.7334 25.6941 20.2167 26.083 20.85C26.4719 21.4834 26.6663 22.1778 26.6663 22.9334V26.6667H5.33301ZM7.99967 24H23.9997V22.9334C23.9997 22.6889 23.9386 22.4667 23.8163 22.2667C23.6941 22.0667 23.533 21.9112 23.333 21.8C22.133 21.2 20.9219 20.75 19.6997 20.45C18.4775 20.15 17.2441 20 15.9997 20C14.7552 20 13.5219 20.15 12.2997 20.45C11.0775 20.75 9.86634 21.2 8.66634 21.8C8.46634 21.9112 8.30523 22.0667 8.18301 22.2667C8.06079 22.4667 7.99967 22.6889 7.99967 22.9334V24ZM15.9997 13.3334C16.733 13.3334 17.3608 13.0723 17.883 12.55C18.4052 12.0278 18.6663 11.4 18.6663 10.6667C18.6663 9.93337 18.4052 9.3056 17.883 8.78337C17.3608 8.26115 16.733 8.00004 15.9997 8.00004C15.2663 8.00004 14.6386 8.26115 14.1163 8.78337C13.5941 9.3056 13.333 9.93337 13.333 10.6667C13.333 11.4 13.5941 12.0278 14.1163 12.55C14.6386 13.0723 15.2663 13.3334 15.9997 13.3334Z" fill="white"/>
</svg>
