<svg width="32" height="32" viewBox="0 0 32 32" fill="none" xmlns="http://www.w3.org/2000/svg">
<path d="M12 22C11.0667 22 10.2778 21.6777 9.63333 21.0333C8.98889 20.3888 8.66667 19.6 8.66667 18.6666C8.66667 17.7333 8.98889 16.9444 9.63333 16.3C10.2778 15.6555 11.0667 15.3333 12 15.3333C12.9333 15.3333 13.7222 15.6555 14.3667 16.3C15.0111 16.9444 15.3333 17.7333 15.3333 18.6666C15.3333 19.6 15.0111 20.3888 14.3667 21.0333C13.7222 21.6777 12.9333 22 12 22ZM6.66667 29.3333C5.93333 29.3333 5.30556 29.0722 4.78333 28.55C4.26111 28.0277 4 27.4 4 26.6666V7.99996C4 7.26663 4.26111 6.63885 4.78333 6.11663C5.30556 5.5944 5.93333 5.33329 6.66667 5.33329H8V2.66663H10.6667V5.33329H21.3333V2.66663H24V5.33329H25.3333C26.0667 5.33329 26.6944 5.5944 27.2167 6.11663C27.7389 6.63885 28 7.26663 28 7.99996V26.6666C28 27.4 27.7389 28.0277 27.2167 28.55C26.6944 29.0722 26.0667 29.3333 25.3333 29.3333H6.66667ZM6.66667 26.6666H25.3333V13.3333H6.66667V26.6666Z" fill="white"/>
</svg>
